<svg width="144" height="139" viewBox="0 0 144 139" fill="none" xmlns="http://www.w3.org/2000/svg">
<g clip-path="url(#clip0_12_192)">
<path d="M135 65H10V127H135V65Z" fill="#00E5AB"/>
<path d="M52.5 50.2201L94.31 2.93005L140.42 50.2201C143.34 53.2101 141.22 58.2401 137.04 58.2401H3.59003V132.5H141.23V66.6001" stroke="white" stroke-width="4" stroke-miterlimit="10" stroke-linecap="round"/>
<path d="M59.87 51.43H133.63L94.75 14.12L59.87 51.43Z" fill="#99F5DD"/>
<path d="M4 35.9819V10H7.57365L23.3535 31.2678L22.7594 31.6032C22.6604 30.9868 22.5704 30.3068 22.4984 29.5816C22.4263 28.8563 22.3543 28.0767 22.2913 27.2427C22.2283 26.4177 22.1833 25.5384 22.1473 24.6046C22.1113 23.6799 22.0753 22.7008 22.0573 21.6946C22.0303 20.6792 22.0213 19.6276 22.0213 18.5397V10H26V35.9819H22.3543L6.83552 15.4937L7.24059 14.977C7.36661 16.4909 7.46563 17.7692 7.55565 18.8208C7.64566 19.8724 7.71768 20.7608 7.78069 21.4951C7.8437 22.2294 7.88871 22.8187 7.90671 23.281C7.93372 23.7434 7.95172 24.1151 7.96072 24.4142C7.96972 24.7134 7.97872 24.9672 7.97872 25.1939V36H4V35.9819Z" fill="white"/>
<path d="M44.5 37C42.7016 37 41.0456 36.6614 39.5231 35.9841C38.0007 35.3068 36.683 34.3641 35.5523 33.1559C34.4217 31.9478 33.5491 30.52 32.9259 28.8817C32.3027 27.2434 32 25.4495 32 23.5C32 21.5505 32.3116 19.7566 32.9259 18.1183C33.5491 16.48 34.4217 15.0614 35.5523 13.8441C36.683 12.6359 38.0096 11.6932 39.5231 11.0159C41.0456 10.3386 42.7016 10 44.5 10C46.2984 10 47.9544 10.3386 49.4769 11.0159C50.9993 11.6932 52.317 12.6359 53.4477 13.8624C54.5784 15.0888 55.4509 16.5166 56.0741 18.1549C56.6973 19.7932 57 21.5688 57 23.4908C57 25.4129 56.6884 27.1976 56.0741 28.8359C55.4509 30.4742 54.5784 31.902 53.4477 33.1285C52.317 34.3549 50.9904 35.3068 49.4769 35.9749C47.9544 36.6522 46.2984 36.9908 44.5 36.9908V37ZM44.5 33.0644C45.7375 33.0644 46.8771 32.8264 47.9099 32.3505C48.9427 31.8746 49.833 31.2064 50.5897 30.3461C51.3465 29.4858 51.9341 28.4698 52.3615 27.3075C52.7888 26.1451 53.0025 24.882 53.0025 23.5C53.0025 22.118 52.7888 20.8549 52.3615 19.6925C51.9341 18.5302 51.3465 17.5142 50.5897 16.6539C49.833 15.7936 48.9427 15.1254 47.9099 14.6495C46.8771 14.1736 45.7375 13.9356 44.5 13.9356C43.2625 13.9356 42.1229 14.1736 41.0901 14.6495C40.0573 15.1254 39.1581 15.7844 38.3925 16.6356C37.6268 17.4868 37.0392 18.4936 36.6207 19.6559C36.2112 20.8183 35.9975 22.0997 35.9975 23.5C35.9975 24.9003 36.2023 26.1451 36.6207 27.3258C37.0303 28.4973 37.6268 29.5132 38.3925 30.3644C39.1581 31.2156 40.0573 31.8746 41.0901 32.3505C42.1229 32.8264 43.2625 33.0644 44.5 33.0644Z" fill="white"/>
<path d="M31 108.55V83.3501H34.89V108.55H31ZM32.73 87.0901V83.3501H47.35V87.0901H32.73ZM32.73 97.8201V94.0801H45.73V97.8201H32.73Z" fill="#2E3192"/>
<path d="M52.67 108.55V83.3501H68.55V87.0901H56.56V104.8H68.55V108.54H52.67V108.55ZM54.43 97.5001V93.7601H66.56V97.5001H54.43Z" fill="#2E3192"/>
<path d="M74.78 108.55V83.3501H90.66V87.0901H78.67V104.8H90.66V108.54H74.78V108.55ZM76.54 97.5001V93.7601H88.67V97.5001H76.54Z" fill="#2E3192"/>
<path d="M104.66 108.91C103.29 108.91 102.03 108.73 100.86 108.37C99.7 108.01 98.64 107.46 97.69 106.73C96.74 106 95.9 105.09 95.15 104.01L97.81 100.95C98.99 102.63 100.11 103.79 101.19 104.44C102.27 105.09 103.55 105.41 105.04 105.41C105.95 105.41 106.78 105.27 107.52 104.98C108.26 104.69 108.85 104.3 109.28 103.79C109.71 103.29 109.93 102.71 109.93 102.06C109.93 101.63 109.86 101.22 109.71 100.84C109.57 100.46 109.34 100.11 109.04 99.8C108.74 99.49 108.36 99.2 107.89 98.94C107.42 98.68 106.88 98.44 106.25 98.24C105.63 98.04 104.91 97.86 104.09 97.72C102.79 97.46 101.67 97.11 100.71 96.68C99.75 96.25 98.95 95.71 98.3 95.06C97.65 94.41 97.17 93.67 96.86 92.85C96.55 92.02 96.39 91.09 96.39 90.06C96.39 89.03 96.61 88.12 97.06 87.25C97.51 86.38 98.12 85.64 98.9 85C99.68 84.36 100.6 83.87 101.65 83.52C102.71 83.17 103.85 83 105.07 83C106.37 83 107.55 83.17 108.63 83.5C109.71 83.84 110.67 84.33 111.51 84.99C112.35 85.65 113.05 86.46 113.6 87.42L110.86 90.12C110.38 89.33 109.84 88.66 109.24 88.12C108.64 87.58 107.98 87.17 107.26 86.9C106.54 86.62 105.77 86.49 104.96 86.49C104.02 86.49 103.21 86.63 102.51 86.92C101.81 87.21 101.27 87.61 100.87 88.13C100.47 88.65 100.28 89.25 100.28 89.95C100.28 90.45 100.38 90.92 100.57 91.34C100.76 91.76 101.06 92.13 101.45 92.46C101.85 92.78 102.38 93.07 103.05 93.32C103.72 93.57 104.53 93.79 105.46 93.99C106.78 94.28 107.96 94.64 108.99 95.09C110.02 95.53 110.9 96.06 111.62 96.66C112.34 97.26 112.89 97.93 113.26 98.68C113.63 99.42 113.82 100.23 113.82 101.09C113.82 102.7 113.45 104.09 112.7 105.27C111.96 106.45 110.9 107.35 109.53 107.99C108.16 108.63 106.53 108.94 104.63 108.94L104.66 108.91Z" fill="#2E3192"/>
</g>
<defs>
<clipPath id="clip0_12_192">
<rect width="143.77" height="138.5" fill="white"/>
</clipPath>
</defs>
</svg>
