<svg width="110" height="138" viewBox="0 0 110 138" fill="none" xmlns="http://www.w3.org/2000/svg">
<g clip-path="url(#clip0_244_7855)">
<path d="M81.91 2H2V135.57H81.91V2Z" stroke="white" stroke-width="4" stroke-linecap="round" stroke-linejoin="round"/>
<path d="M74.18 13.59H9.73V43.04H74.18V13.59Z" fill="#99F5DD"/>
<path d="M41.9991 66.9594L30.6345 86.4586L41.9995 93.3972L53.3559 86.459L41.9991 66.9594Z" fill="#00E5AB"/>
<path fill-rule="evenodd" clip-rule="evenodd" d="M74 50H10V127H74V50ZM42 61L26.5625 87.4875L42 96.9125L57.4267 87.4875L42 61ZM57.4375 90.5146L42 99.9397L26.5625 90.5146L42 113L57.4375 90.5146Z" fill="#00E5AB"/>
<path d="M82.48 109.67C82.48 109.67 105.37 102.59 104.94 68.5699" stroke="white" stroke-width="4.27" stroke-linecap="round" stroke-linejoin="round"/>
<path d="M101.11 67.46C104.645 67.46 107.51 64.5947 107.51 61.06C107.51 57.5254 104.645 54.66 101.11 54.66C97.5754 54.66 94.71 57.5254 94.71 61.06C94.71 64.5947 97.5754 67.46 101.11 67.46Z" stroke="white" stroke-width="4.27" stroke-linecap="round" stroke-linejoin="round"/>
<path d="M99.31 54.66L88.11 38.62" stroke="white" stroke-width="4.27" stroke-linecap="round" stroke-linejoin="round"/>
<path d="M27.98 37.74C26.65 37.74 25.4 37.5 24.24 37.02C23.08 36.54 22.06 35.87 21.19 35.01C20.32 34.15 19.63 33.15 19.15 32C18.67 30.85 18.43 29.61 18.43 28.28C18.43 26.95 18.67 25.73 19.15 24.59C19.63 23.45 20.31 22.45 21.18 21.6C22.05 20.75 23.06 20.09 24.22 19.61C25.38 19.14 26.62 18.9 27.96 18.9C28.89 18.9 29.8 19.03 30.68 19.29C31.57 19.55 32.37 19.92 33.09 20.4C33.81 20.87 34.4 21.42 34.85 22.03L33.01 23.95C32.48 23.44 31.94 23.02 31.39 22.69C30.84 22.36 30.27 22.1 29.69 21.93C29.11 21.76 28.53 21.67 27.95 21.67C27 21.67 26.13 21.84 25.33 22.17C24.53 22.5 23.83 22.97 23.22 23.57C22.61 24.17 22.14 24.86 21.81 25.66C21.48 26.46 21.31 27.33 21.31 28.28C21.31 29.23 21.48 30.06 21.84 30.87C22.19 31.69 22.68 32.4 23.3 33.02C23.92 33.63 24.64 34.12 25.46 34.47C26.28 34.82 27.14 35 28.05 35C28.73 35 29.38 34.9 30 34.7C30.61 34.5 31.16 34.21 31.63 33.84C32.1 33.47 32.47 33.05 32.74 32.56C33 32.08 33.13 31.56 33.13 31.02V30.49L33.52 30.86H27.89V28.04H36.05C36.08 28.23 36.11 28.42 36.13 28.61C36.15 28.79 36.16 28.97 36.17 29.14C36.18 29.31 36.18 29.47 36.18 29.63C36.18 30.84 35.97 31.94 35.55 32.93C35.13 33.92 34.55 34.78 33.8 35.5C33.05 36.22 32.19 36.78 31.19 37.17C30.2 37.56 29.12 37.76 27.97 37.76L27.98 37.74Z" fill="#2E3192"/>
<path d="M44.53 37.74C43.39 37.74 42.35 37.42 41.41 36.79C40.47 36.16 39.72 35.3 39.16 34.21C38.6 33.12 38.32 31.89 38.32 30.52C38.32 29.15 38.6 27.9 39.18 26.82C39.75 25.74 40.52 24.89 41.5 24.28C42.47 23.67 43.57 23.36 44.78 23.36C45.5 23.36 46.16 23.46 46.75 23.68C47.35 23.89 47.87 24.18 48.32 24.56C48.77 24.94 49.14 25.37 49.43 25.86C49.72 26.35 49.9 26.88 49.97 27.44L49.36 27.23V23.65H52.1V37.47H49.36V34.18L49.99 34C49.88 34.47 49.67 34.93 49.34 35.38C49.02 35.83 48.6 36.23 48.1 36.58C47.6 36.93 47.05 37.21 46.44 37.42C45.84 37.63 45.2 37.74 44.53 37.74ZM45.24 35.24C46.06 35.24 46.79 35.04 47.43 34.63C48.07 34.22 48.56 33.67 48.92 32.96C49.28 32.25 49.46 31.44 49.46 30.52C49.46 29.6 49.28 28.83 48.92 28.12C48.56 27.42 48.06 26.87 47.43 26.46C46.8 26.05 46.07 25.85 45.24 25.85C44.41 25.85 43.72 26.05 43.09 26.46C42.47 26.86 41.98 27.42 41.62 28.12C41.26 28.82 41.08 29.62 41.08 30.52C41.08 31.42 41.26 32.24 41.62 32.96C41.98 33.67 42.47 34.23 43.09 34.63C43.71 35.03 44.43 35.24 45.24 35.24Z" fill="#2E3192"/>
<path d="M60.49 37.74C59.33 37.74 58.29 37.54 57.36 37.13C56.43 36.73 55.66 36.13 55.04 35.34L56.88 33.76C57.41 34.37 57.98 34.82 58.6 35.09C59.22 35.36 59.93 35.5 60.72 35.5C61.04 35.5 61.33 35.46 61.6 35.38C61.87 35.3 62.11 35.18 62.31 35.03C62.51 34.87 62.67 34.68 62.77 34.46C62.87 34.24 62.93 34 62.93 33.74C62.93 33.28 62.76 32.92 62.43 32.63C62.25 32.51 61.98 32.37 61.6 32.22C61.22 32.07 60.74 31.92 60.14 31.76C59.12 31.5 58.29 31.2 57.64 30.86C56.99 30.53 56.49 30.15 56.14 29.73C55.88 29.4 55.68 29.03 55.56 28.64C55.44 28.25 55.38 27.81 55.38 27.34C55.38 26.76 55.51 26.23 55.76 25.75C56.01 25.27 56.37 24.85 56.81 24.49C57.25 24.13 57.78 23.85 58.39 23.66C59 23.47 59.64 23.37 60.32 23.37C61 23.37 61.61 23.46 62.26 23.63C62.9 23.8 63.49 24.06 64.04 24.39C64.59 24.72 65.04 25.12 65.41 25.57L63.86 27.28C63.53 26.95 63.16 26.65 62.77 26.4C62.38 26.15 61.98 25.95 61.57 25.81C61.17 25.67 60.8 25.6 60.46 25.6C60.09 25.6 59.76 25.64 59.46 25.71C59.16 25.78 58.91 25.89 58.71 26.03C58.51 26.17 58.35 26.35 58.25 26.56C58.15 26.77 58.09 27.01 58.09 27.27C58.11 27.5 58.16 27.71 58.26 27.91C58.36 28.11 58.49 28.28 58.67 28.42C58.86 28.56 59.15 28.71 59.54 28.87C59.93 29.03 60.42 29.18 61.01 29.32C61.89 29.55 62.61 29.8 63.18 30.07C63.75 30.34 64.2 30.65 64.54 31C64.89 31.33 65.14 31.72 65.28 32.16C65.42 32.6 65.49 33.09 65.49 33.63C65.49 34.42 65.27 35.13 64.82 35.75C64.37 36.37 63.77 36.86 63.02 37.21C62.27 37.56 61.42 37.74 60.49 37.74Z" fill="#2E3192"/>
</g>
<defs>
<clipPath id="clip0_244_7855">
<rect width="109.65" height="137.57" fill="white"/>
</clipPath>
</defs>
</svg>
