<svg width="156" height="132" viewBox="0 0 156 132" fill="none" xmlns="http://www.w3.org/2000/svg">
<path d="M73.926 48.9218C67.7989 45.3433 60.8698 43.5541 53.1548 43.5541C49.4176 43.5541 45.6804 44.0538 41.9432 45.0532C39.6656 45.6657 37.5003 46.3749 35.4312 47.1809L38.206 28.4182H88.2011V3.22388H17.7717L10.2332 57.6422L22.8563 74.5513C26.4812 72.4397 29.6089 70.8277 32.2233 69.7155C34.8538 68.6033 37.3399 67.8134 39.6656 67.346C42.0074 66.8785 44.5096 66.6367 47.2042 66.6367C50.9414 66.6367 54.2455 67.4588 57.1005 69.103C59.9556 70.7471 62.2332 72.9555 63.9334 75.7119C65.6335 78.4682 66.4676 81.6115 66.4676 85.1416C66.4676 88.6717 65.6175 91.6215 63.9334 94.394C62.2332 97.1504 59.9235 99.2942 57.0043 100.826C54.0851 102.357 50.7489 103.114 47.0117 103.114C41.9914 103.114 37.4361 102.147 33.3461 100.213C29.256 98.2787 24.8131 94.668 20.0333 89.3809L4.09006 106.983C8.99814 114.027 15.2215 119.427 22.744 123.183C30.2825 126.939 38.6551 128.825 47.8939 128.825C57.1326 128.825 64.4787 126.923 71.3757 123.102C78.2727 119.282 83.7582 114.124 87.8482 107.612C91.9383 101.1 93.9753 93.7815 93.9753 85.6896C93.9753 77.5978 92.1629 70.1991 88.5379 63.8481C84.913 57.5133 80.037 52.5486 73.9099 48.9701L73.926 48.9218Z" stroke="white" stroke-width="4" stroke-miterlimit="10" stroke-linecap="round"/>
<path d="M47.9099 123.94C39.4732 123.94 31.7261 122.216 24.9093 118.814C19.2634 116.01 14.3874 112.109 10.3615 107.225L20.1616 96.3927C24.0432 100.148 27.7162 102.84 31.3091 104.533C36.0247 106.773 41.3177 107.902 47.0278 107.902C51.5349 107.902 55.641 106.951 59.2338 105.065C62.9229 103.147 65.8742 100.39 68.0234 96.8924C70.1888 93.3623 71.2795 89.4131 71.2795 85.1093C71.2795 80.8054 70.1888 76.6789 68.0234 73.1488C65.9062 69.6993 63.0352 66.9268 59.4904 64.8797C55.8976 62.8164 51.7594 61.7687 47.2042 61.7687C44.2209 61.7687 41.3658 62.0427 38.7353 62.5747C36.0888 63.1066 33.2659 64.0093 30.3627 65.2343C28.5182 66.0242 26.4491 67.0235 24.1875 68.2486L15.2856 56.3204L21.9581 8.05957H83.4053V23.5662H34.0679L29.4645 54.644L37.1635 51.6781C39.1845 50.9044 41.1573 50.2596 43.1943 49.7115C46.5145 48.825 49.8668 48.3736 53.1709 48.3736C59.9877 48.3736 66.1629 49.9533 71.5201 53.0966C76.9574 56.272 81.1758 60.5598 84.3997 66.2015C87.5756 71.7787 89.1956 78.307 89.1956 85.6251C89.1956 92.9432 87.4312 99.1813 83.8063 104.968C80.1653 110.755 75.2252 115.413 69.0821 118.814C62.9389 122.216 55.8174 123.94 47.926 123.94H47.9099Z" fill="#00E5AB"/>
<path d="M149.635 95.7983C148.72 93.877 147.355 92.1906 145.554 90.7393C143.752 89.2879 141.582 88.0024 139.043 86.8828C137.255 86.0949 135.275 85.4038 133.132 84.8094V62.0713C134.975 62.4584 136.695 63.1218 138.265 64.0618C140.954 65.6652 143.206 67.8353 145.049 70.5584L150.085 65.4578C148.011 62.2372 145.226 59.6939 141.745 57.8002C139.247 56.4456 136.381 55.5886 133.132 55.2015V48H126.539V55.091C124.56 55.2706 122.663 55.6577 120.861 56.2659C118.295 57.1367 116.07 58.3531 114.173 59.9288C112.275 61.5046 110.801 63.3845 109.723 65.5408C108.658 67.7109 108.112 70.0607 108.112 72.5903C108.112 75.9906 108.836 78.921 110.269 81.3538C111.702 83.8003 113.845 85.8046 116.684 87.3804C118.896 88.6106 121.516 89.6334 124.519 90.4766V114.32C122.322 113.92 120.315 113.215 118.513 112.206C115.551 110.533 112.699 107.934 109.941 104.41L105 109.98C107.621 113.574 110.951 116.38 114.992 118.426C117.94 119.919 121.12 120.859 124.519 121.259V129H131.208V121.37C134.566 121.094 137.569 120.333 140.23 119.075C143.615 117.472 146.264 115.219 148.161 112.344C150.058 109.469 151 106.11 151 102.281C151 99.8621 150.536 97.7058 149.621 95.7845L149.635 95.7983ZM118.704 79.5568C117.572 78.686 116.739 77.6908 116.179 76.5435C115.633 75.3962 115.36 74.0555 115.36 72.5073C115.36 70.4063 115.934 68.5403 117.107 66.8954C118.268 65.2505 119.865 63.9788 121.912 63.0389C123.304 62.4031 124.847 62.016 126.539 61.8087V83.0539C125.379 82.6945 124.301 82.3352 123.332 81.9758C121.38 81.2294 119.837 80.4276 118.704 79.5568ZM141.841 109.441C140.558 111.114 138.783 112.413 136.531 113.339C134.893 114.016 133.119 114.431 131.221 114.625V92.2321C131.918 92.4256 132.6 92.6329 133.242 92.8265C135.016 93.3794 136.558 94.0014 137.869 94.6787C139.179 95.356 140.285 96.13 141.172 97.0009C142.059 97.8717 142.715 98.8531 143.138 99.9727C143.561 101.092 143.779 102.323 143.779 103.691C143.779 105.861 143.138 107.769 141.855 109.441H141.841Z" fill="white"/>
</svg>
