<svg width="156" height="132" viewBox="0 0 156 132" fill="none" xmlns="http://www.w3.org/2000/svg">
<path d="M73.926 48.9225C67.7989 45.344 60.8699 43.5548 53.1549 43.5548C49.4177 43.5548 45.6805 44.0545 41.9433 45.0539C39.6657 45.6664 37.5003 46.3757 35.4312 47.1816L38.2061 28.4189H88.2011V3.22461H17.7718L10.2332 57.643L22.8563 74.552C26.4812 72.4404 29.6089 70.8285 32.2233 69.7162C34.8538 68.604 37.3399 67.8142 39.6657 67.3467C42.0074 66.8793 44.5096 66.6375 47.2042 66.6375C50.9414 66.6375 54.2455 67.4596 57.1006 69.1037C59.9556 70.7479 62.2332 72.9562 63.9334 75.7126C65.6336 78.469 66.4676 81.6122 66.4676 85.1423C66.4676 88.6724 65.6175 91.6222 63.9334 94.3947C62.2332 97.1511 59.9235 99.2949 57.0043 100.826C54.0852 102.358 50.7489 103.115 47.0117 103.115C41.9914 103.115 37.4362 102.148 33.3461 100.214C29.256 98.2794 24.8131 94.6687 20.0333 89.3817L4.09009 106.984C8.99817 114.028 15.2215 119.428 22.744 123.184C30.2826 126.939 38.6552 128.825 47.8939 128.825C57.1327 128.825 64.4787 126.923 71.3757 123.103C78.2727 119.283 83.7582 114.125 87.8483 107.612C91.9383 101.1 93.9753 93.7822 93.9753 85.6904C93.9753 77.5985 92.1629 70.1998 88.538 63.8489C84.913 57.514 80.037 52.5493 73.91 48.9709L73.926 48.9225Z" stroke="#402BB0" stroke-width="6" stroke-miterlimit="10" stroke-linecap="round"/>
<path d="M47.91 123.941C39.4732 123.941 31.7262 122.217 24.9094 118.815C19.2635 116.011 14.3875 112.11 10.3616 107.226L20.1617 96.3937C24.0432 100.149 27.7163 102.841 31.3091 104.534C36.0247 106.774 41.3178 107.903 47.0278 107.903C51.5349 107.903 55.641 106.952 59.2339 105.066C62.923 103.148 65.8742 100.391 68.0235 96.8934C70.1888 93.3633 71.2795 89.4141 71.2795 85.1102C71.2795 80.8064 70.1888 76.6799 68.0235 73.1498C65.9063 69.7003 63.0352 66.9278 59.4905 64.8807C55.8977 62.8174 51.7595 61.7697 47.2043 61.7697C44.2209 61.7697 41.3659 62.0437 38.7354 62.5756C36.0889 63.1076 33.2659 64.0102 30.3628 65.2353C28.5183 66.0251 26.4492 67.0245 24.1876 68.2496L15.2857 56.3214L21.9581 8.06055H83.4054V23.5672H34.0679L29.4646 54.645L37.1635 51.6791C39.1845 50.9053 41.1574 50.2606 43.1944 49.7125C46.5146 48.826 49.8668 48.3746 53.171 48.3746C59.9877 48.3746 66.1629 49.9543 71.5201 53.0975C76.9575 56.273 81.1759 60.5607 84.3998 66.2024C87.5756 71.7797 89.1956 78.308 89.1956 85.6261C89.1956 92.9442 87.4313 99.1823 83.8064 104.969C80.1654 110.756 75.2252 115.414 69.0821 118.815C62.939 122.217 55.8175 123.941 47.926 123.941H47.91Z" fill="#00E5AB"/>
<path d="M149.635 95.7983C148.72 93.877 147.355 92.1906 145.554 90.7393C143.752 89.2879 141.582 88.0024 139.043 86.8828C137.255 86.0949 135.275 85.4038 133.132 84.8094V62.0713C134.975 62.4584 136.695 63.1218 138.265 64.0618C140.954 65.6652 143.206 67.8353 145.049 70.5584L150.085 65.4578C148.011 62.2372 145.226 59.6939 141.745 57.8002C139.247 56.4456 136.381 55.5886 133.132 55.2015V48H126.539V55.091C124.56 55.2706 122.663 55.6577 120.861 56.2659C118.295 57.1367 116.07 58.3531 114.173 59.9288C112.275 61.5046 110.801 63.3845 109.723 65.5408C108.658 67.7109 108.112 70.0607 108.112 72.5903C108.112 75.9906 108.836 78.921 110.269 81.3538C111.702 83.8003 113.845 85.8046 116.684 87.3804C118.896 88.6106 121.516 89.6334 124.519 90.4766V114.32C122.322 113.92 120.315 113.215 118.513 112.206C115.551 110.533 112.699 107.934 109.941 104.41L105 109.98C107.621 113.574 110.951 116.38 114.992 118.426C117.94 119.919 121.12 120.859 124.519 121.259V129H131.208V121.37C134.566 121.094 137.569 120.333 140.23 119.075C143.615 117.472 146.264 115.219 148.161 112.344C150.058 109.469 151 106.11 151 102.281C151 99.8621 150.536 97.7058 149.621 95.7845L149.635 95.7983ZM118.704 79.5568C117.572 78.686 116.739 77.6908 116.179 76.5435C115.633 75.3962 115.36 74.0555 115.36 72.5073C115.36 70.4063 115.934 68.5403 117.107 66.8954C118.268 65.2505 119.865 63.9788 121.912 63.0389C123.304 62.4031 124.847 62.016 126.539 61.8087V83.0539C125.379 82.6945 124.301 82.3352 123.332 81.9758C121.38 81.2294 119.837 80.4276 118.704 79.5568ZM141.841 109.441C140.558 111.114 138.783 112.413 136.531 113.339C134.893 114.016 133.119 114.431 131.221 114.625V92.2321C131.918 92.4256 132.6 92.6329 133.242 92.8265C135.016 93.3794 136.558 94.0014 137.869 94.6787C139.179 95.356 140.285 96.13 141.172 97.0009C142.059 97.8717 142.715 98.8531 143.138 99.9727C143.561 101.092 143.779 102.323 143.779 103.691C143.779 105.861 143.138 107.769 141.855 109.441H141.841Z" fill="#402BB0"/>
</svg>
