<svg width="598" height="501" viewBox="0 0 598 501" fill="none" xmlns="http://www.w3.org/2000/svg">
<rect width="598" height="354" rx="20" fill="#F5F9FF"/>
<g clip-path="url(#clip0_1_2)">
<path d="M523.447 343.49H502.299L478.063 329.478L505.261 313.744L523.447 343.49Z" fill="url(#paint0_linear_1_2)"/>
<path d="M523.447 320.537L502.883 308.651L523.447 296.766L544 308.651L523.447 320.537Z" fill="url(#paint1_linear_1_2)"/>
<path d="M523.447 343.49L502.883 331.604V308.651L523.447 320.537V343.49Z" fill="url(#paint2_linear_1_2)"/>
<path d="M544 331.604L523.447 343.49V320.537L544 308.651V331.604Z" fill="url(#paint3_linear_1_2)"/>
<path d="M533.861 284.838C532.375 288.909 528.235 288.899 527.354 291.45C527.279 291.674 527.205 291.939 526.982 292.024C526.356 292.248 523.861 289.058 524.456 286.73C524.647 285.986 524.986 285.656 525.315 284.965C526.037 283.456 528.585 279.437 531.122 279.916C533.32 280.33 534.615 282.765 533.861 284.848V284.838Z" fill="#3F52B0"/>
<path d="M506.153 343.011C506.259 342.799 507.056 340.694 507.257 339.088C507.342 338.429 507.279 337.451 507.289 336.633C507.289 336.282 509.795 336.718 509.795 336.718C509.816 337.196 509.795 337.547 509.954 337.823C510.378 337.983 510.75 338.312 510.92 338.769C511.122 339.29 511.047 339.886 510.867 340.417C510.686 340.949 510.41 341.438 510.177 341.937C509.964 342.395 509.784 342.873 509.646 343.362C509.465 344 509.349 344.67 509.105 345.286C508.733 346.222 507.077 346.881 506.079 346.775C505.357 346.69 504.412 346.371 504.54 345.478C504.699 344.329 505.622 344.021 506.153 343.001V343.011Z" fill="white"/>
<path d="M505.431 322.121C505.314 321.196 505.261 320.229 505.537 319.325C506.78 315.168 513.001 309.14 515.803 306.717C516.302 306.281 516.727 305.76 516.95 305.133L517.693 303.07C527.778 304.994 523.925 311.139 518.786 315.296C513.139 319.857 510.994 322.323 510.994 322.323C510.994 322.323 512.937 326.225 511.663 331.115C511.387 332.189 510.962 333.22 510.739 334.304C510.463 335.633 510.145 337.26 510.113 337.802C510.049 338.748 507.257 339.056 507.268 338.004C507.268 338.004 506.397 329.35 505.442 322.121H505.431Z" fill="#3F52B0"/>
<path d="M494.72 331.211C494.911 331.072 496.567 329.542 497.448 328.202C497.819 327.649 498.202 326.746 498.563 326.023C498.722 325.704 500.771 327.224 500.771 327.224C500.569 327.66 500.399 327.968 500.42 328.287C500.728 328.617 500.909 329.084 500.856 329.563C500.803 330.116 500.474 330.615 500.081 331.009C499.688 331.402 499.221 331.71 498.786 332.061C498.393 332.38 498.021 332.731 497.681 333.103C497.236 333.603 496.832 334.145 496.333 334.581C495.579 335.25 493.807 335.102 492.957 334.559C492.352 334.166 491.651 333.454 492.161 332.71C492.819 331.753 493.775 331.891 494.709 331.221L494.72 331.211Z" fill="white"/>
<path d="M503.181 312.362C503.616 311.947 504.125 311.586 504.709 311.469C505.166 311.373 515.453 311.745 518.744 311.033L525.825 307.152C527.184 306.897 528.5 306.461 528.819 309.364C529.159 312.447 528.023 315.551 525.581 317.454C523.744 318.868 521.483 319.633 519.222 319.612C517.534 319.601 507.809 317.9 506.939 318.092C506.068 318.283 505.346 321.76 500.994 328.191C500.293 329.223 497.363 328.255 497.83 326.905C500.399 321.132 501.896 313.616 503.191 312.372L503.181 312.362Z" fill="#3F52B0"/>
<path d="M507.501 306.993C507.162 306.398 507.162 305.653 507.087 304.984C507.013 304.335 507.215 303.804 507.852 303.644C508.298 303.527 508.85 303.315 510.06 302.262C512.618 300.051 516.653 296.202 516.653 296.202C517.3 292.917 516.472 290.345 517.576 287.187C517.927 286.177 519.116 285.444 520.252 286.124L520.103 289.08C519.201 291.971 519.721 295.618 519.158 299.073C518.978 300.21 513.521 302.921 511.737 303.814C510.134 304.612 509.869 305.09 508.234 306.578C508 306.791 507.746 306.908 507.501 306.993Z" fill="#FBBD9E"/>
<path d="M530.422 291.748C531.165 292.428 531.441 293.577 531.08 294.523C530.56 295.905 527.587 299.264 526.897 302.262C526.685 303.208 526.653 303.889 528.373 306.632C530.974 310.767 515.177 310.448 516.748 305.356C518.585 299.37 515.177 298.042 515.188 296.064C515.188 294.608 516.663 294.076 517.173 292.875C517.98 290.983 516.865 288.144 518.234 286.517C520.294 284.072 530.156 291.493 530.411 291.727L530.422 291.748Z" fill="white"/>
<path d="M521.037 288.537C521.579 287.496 521.929 286.347 521.876 285.178L527.099 284.763C526.335 286.23 526.271 287.623 526.589 289.09C527.099 291.397 519.774 290.951 521.026 288.537H521.037Z" fill="#F1A782"/>
<path d="M518.277 312.106L515.113 307.014C515.06 306.929 514.965 306.833 514.848 306.738C514.795 306.695 514.731 306.653 514.678 306.621L506.185 301.709C506.079 301.656 506.026 301.635 506.005 301.667L505.888 301.805C505.888 301.805 505.973 301.794 506.058 301.847C506.068 301.847 514.561 306.77 514.561 306.77C514.614 306.802 514.678 306.844 514.731 306.887C514.837 306.972 514.943 307.078 514.997 307.163L518.16 312.255C518.16 312.255 518.192 312.34 518.181 312.351L518.298 312.213C518.298 312.213 518.298 312.16 518.277 312.117V312.106Z" fill="url(#paint4_linear_1_2)"/>
<path d="M506.068 301.848L514.561 306.759C514.72 306.855 514.922 307.035 514.996 307.152L518.16 312.245C518.234 312.362 518.16 312.394 518.001 312.298L509.508 307.386C509.349 307.291 509.147 307.11 509.073 306.993L505.909 301.901C505.835 301.784 505.909 301.752 506.068 301.848Z" fill="#E3DDDA"/>
<path d="M513.086 308.768C512.725 307.567 515.209 309.268 516.037 309.364C516.568 309.427 516.568 309.109 516.292 308.896L515.389 307.439C515.389 307.439 515.453 307.471 515.495 307.482C515.952 307.695 516.26 307.663 517.12 308.067C517.895 308.439 518.404 309.279 519.126 309.353C519.19 309.332 519.381 309.396 519.657 309.194C521.589 307.408 526.377 303.421 526.377 303.421C526.377 303.421 527.003 295.628 527.502 294.044C528.713 290.164 531.855 292.024 531.717 294.555C531.675 295.352 530.379 302.028 529.689 304.665C529.084 306.961 524.031 308.534 520.039 311.49C518.457 312.67 517.279 312.649 516.876 312.564C516.302 312.447 515.23 312.107 514.105 311.49C513.436 311.118 513.213 310.693 513.309 310.597C512.841 310.14 512.884 309.598 513.16 309.683C512.555 309.162 512.608 308.694 513.075 308.768H513.086Z" fill="#FBBD9E"/>
<path d="M510.124 306.748C510.177 306.546 510.102 306.291 509.964 306.1C509.667 305.664 509.221 305.515 508.828 305.324C508.308 305.058 507.926 304.824 507.448 304.399L507.056 303.793C506.726 304.176 506.78 304.537 506.875 305.154C506.992 305.919 507.172 306.982 507.618 307.418C508.202 307.992 509.211 308.566 509.465 308.088C509.572 308.162 509.699 308.226 509.816 308.216C510.081 308.205 510.145 307.854 510.071 307.822C510.251 307.897 510.442 307.769 510.463 307.556C510.527 307.078 510.124 306.748 510.124 306.748Z" fill="#FABC9D"/>
<path d="M510.538 306.515C510.655 306.727 511.015 307.057 511.334 307.259C511.652 307.461 511.812 307.461 511.695 307.259C511.578 307.046 511.217 306.717 510.899 306.515C510.58 306.313 510.421 306.313 510.538 306.515Z" fill="#C2BCBA"/>
<path d="M522.417 287.793C521.451 287.676 519.551 287.368 519.307 286.432C519.137 285.773 519.933 284.902 519.71 284.253C519.604 283.945 519.508 283.881 519.859 283.551C520.347 283.105 520.623 282.765 520.878 282.159C521.271 281.213 521.048 280.479 523.288 278.863C523.882 278.438 524.126 278.3 526.77 278.821C527.375 278.937 527.556 279.054 527.991 279.618C528.734 280.607 528.851 280.957 528.734 282.276C528.67 282.967 528.607 283.668 528.373 284.317C528.065 285.157 527.694 286.007 526.897 286.475C525.963 287.028 523.659 287.942 522.428 287.783L522.417 287.793Z" fill="#FCBE9F"/>
<path d="M524.456 286.719C524.997 286.103 527.141 286.528 527.173 286.624C527.216 286.804 526.048 287.538 525.485 287.697C526.101 288.08 531.898 286.709 531.399 281.648C531.059 278.215 527.842 276.833 525.347 277.247C524.169 277.438 522.906 278.353 522.492 279.48C522.746 279.256 522.746 279.724 522.906 280.086C523.213 280.766 523.649 281.999 523.946 283.509C524.052 284.03 524.095 286.188 524.456 286.719Z" fill="#3F52B0"/>
<path d="M525.538 286.145C524.647 286.294 523.978 286.773 524.052 287.208C524.126 287.644 524.912 287.868 525.804 287.719C526.696 287.57 527.364 287.092 527.29 286.656C527.216 286.22 526.43 285.997 525.538 286.145Z" fill="#FCBE9F"/>
<path d="M215.853 411.56C215.725 411.56 215.609 411.529 215.502 411.465C215.279 411.337 215.152 411.103 215.152 410.848V199.587C215.152 199.332 215.29 199.098 215.502 198.97L481.64 45.0957C481.863 44.9681 482.129 44.9681 482.352 45.0957C482.575 45.2233 482.702 45.4571 482.702 45.7123V256.974C482.702 257.229 482.564 257.463 482.352 257.59L216.214 411.465C216.108 411.529 215.98 411.56 215.863 411.56H215.853ZM216.564 200.002V409.626L481.29 256.57V46.9349L216.564 199.991V200.002Z" fill="#FFFCFC"/>
<path d="M500.442 283.211L234.304 437.075V211.207L500.442 57.3321V283.211Z" fill="#FFFCFC"/>
<path d="M500.442 73.704L234.304 227.568V211.207L500.442 57.3321V73.704Z" fill="url(#paint5_radial_1_2)"/>
<path d="M484.188 97.9748L474.814 103.397V101.557L484.188 96.1356V97.9748ZM484.188 101.557L474.814 106.979V108.819L484.188 103.397V101.557ZM484.188 106.979L474.814 112.401V114.24L484.188 108.819V106.979Z" fill="#1C1736"/>
<path d="M282.892 276C281.214 276 279.664 275.628 278.357 274.852C275.549 273.236 274 270.035 274 265.864C274 256.876 281.262 245.382 290.17 240.225L460.749 141.563C465.622 138.75 470.318 138.217 473.643 140.141C476.451 141.757 478 144.942 478 149.113C478 158.101 470.754 169.611 461.83 174.768L291.252 273.43C288.314 275.127 285.442 276 282.892 276ZM469.108 141.159C466.962 141.159 464.444 141.935 461.846 143.438L291.268 242.1C282.94 246.917 276.163 257.587 276.163 265.88C276.163 269.243 277.324 271.781 279.439 272.993C282.069 274.529 285.991 273.995 290.186 271.571L460.765 172.909C469.092 168.092 475.87 157.422 475.87 149.129C475.87 145.766 474.708 143.244 472.594 142.016C471.593 141.434 470.415 141.159 469.108 141.159Z" fill="#F3E3E2"/>
<path d="M294.674 327C293.037 327 291.526 326.639 290.25 325.886C287.511 324.316 286 321.209 286 317.16C286 308.434 293.084 297.276 301.774 292.269L468.171 196.488C472.926 193.758 477.507 193.24 480.75 195.107C483.489 196.677 485 199.768 485 203.817C485 212.543 477.932 223.717 469.226 228.724L302.829 324.505C299.964 326.153 297.161 327 294.674 327ZM476.326 196.096C474.232 196.096 471.776 196.849 469.242 198.309L302.844 294.09C294.721 298.766 288.11 309.125 288.11 317.176C288.11 320.44 289.243 322.904 291.305 324.081C293.871 325.572 297.697 325.054 301.79 322.7L468.187 226.919C476.31 222.242 482.922 211.884 482.922 203.833C482.922 200.569 481.789 198.12 479.726 196.928C478.75 196.363 477.601 196.096 476.326 196.096Z" fill="#F3E3E2"/>
<path d="M116.772 312.691C102.843 312.691 90.868 308.162 81.0905 299.179C63.4251 282.935 53.2229 251.509 53.1062 212.961L53 174.636C52.9469 156.361 84.8805 129.56 114.563 112.391C135.711 100.165 162.05 89.2679 172.528 95.3702L178.293 98.7083C180.968 100.558 183.357 102.695 183.59 108.617C183.59 108.648 183.654 129.252 183.654 129.252C183.675 137.076 183.696 144.475 183.707 146.931C183.707 147.101 183.707 147.229 183.707 147.346C183.707 147.622 183.707 147.771 183.707 147.792C181.828 254.071 125.976 311.958 122.43 312.436C120.509 312.596 118.629 312.681 116.772 312.681V312.691ZM164.746 94.7217C153.843 94.7217 135.668 101.398 115.084 113.294C85.6449 130.315 53.9873 156.775 54.0298 174.636L54.1359 212.95C54.2421 251.212 64.3275 282.361 81.7912 298.414C92.641 308.386 106.283 312.755 122.313 311.426C124.118 311.065 138.991 295.788 153.217 268.306C166.201 243.249 181.849 201.851 182.666 146.974C182.666 145.91 182.666 144.465 182.656 142.136L182.56 108.68C182.348 103.205 180.342 101.387 177.741 99.5907L172.008 96.2738C170.214 95.2213 167.751 94.7217 164.746 94.7217Z" fill="#FFFCFC"/>
<path d="M193.559 164.653V160.826L193.537 156.999V153.171L193.516 149.344V145.517L193.495 141.69V137.863L193.474 134.036V130.208L193.453 126.381C193.453 128.358 190.788 131.282 186.297 133.876L186.403 172.191C186.499 220.647 169.152 285.38 136.327 318.655C136.337 323.684 135.371 327.5 133.917 328.989C169.736 292.216 192.593 229.258 193.559 164.696V164.653Z" fill="#F7E9E8"/>
<path d="M135.849 149.312C107.281 165.95 84.424 187.967 85.4856 192.124C85.5175 204.892 85.5599 217.67 85.5918 230.438C85.7723 278.842 103.406 323.354 136.327 318.623L135.849 149.312Z" fill="#47D1AA"/>
<path d="M186.297 133.834C187.327 128.465 164.417 132.919 135.849 149.312L136.327 318.623C169.152 285.348 186.488 220.615 186.403 172.159C186.372 159.391 186.329 146.612 186.297 133.844V133.834Z" fill="#00E5AB"/>
<path d="M85.5918 230.438L85.4856 192.124C79.4238 195.632 72.3321 197.206 69.6568 195.653L69.763 233.968C69.8692 273.058 80.7296 310.671 104.255 324.364C116.4 330.977 124.702 330.286 132.728 329.616C134.819 329.329 136.348 324.928 136.327 318.623C103.406 323.365 85.7723 278.852 85.5918 230.438Z" fill="url(#paint6_linear_1_2)"/>
<path d="M188.41 116.834C179.11 111.423 155.032 119.939 130.965 133.855L135.849 149.312C164.417 132.919 187.327 128.465 186.297 133.834C190.777 131.24 193.453 128.327 193.453 126.349C193.24 120.64 191.043 118.663 188.41 116.834Z" fill="#F7E9E8"/>
<path d="M130.966 133.855C100.274 151.598 69.6038 178.112 69.6569 195.643C72.3321 197.206 79.4238 195.622 85.4856 192.113C84.424 187.956 107.281 165.939 135.849 149.302L135.254 131.42L130.966 133.844V133.855Z" fill="#E9DBDA"/>
<path d="M69.763 233.957L69.6568 195.643L63.8922 192.305L63.9984 230.619C64.1046 269.71 74.965 307.323 98.4905 321.015L104.255 324.354C80.7296 310.661 69.8692 273.048 69.763 233.957Z" fill="#B0A2A2"/>
<path d="M182.635 113.486C173.335 108.074 149.257 116.59 125.19 130.506C94.4988 148.249 63.8285 174.763 63.8816 192.294L69.6462 195.632C69.5932 178.101 100.263 151.587 130.955 133.844C155.022 119.928 179.089 111.413 188.399 116.824L182.635 113.486Z" fill="#FFFCFC"/>
<path d="M183.038 194.909L179.609 196.355L178.038 193.697L176.541 198.152L173.101 200.756L175.607 202.075L175.065 206.338L178.123 202.681L181.212 202.734L180.596 199.151L183.038 194.909Z" fill="#FFFCFC"/>
<path d="M167.379 237.901L165.861 235.169L164.3 239.634L160.861 242.154L163.313 243.557L162.708 247.852L165.797 244.238L168.855 244.397L168.303 240.751L170.808 236.541L167.379 237.901Z" fill="#FFFCFC"/>
<path d="M162.347 179.834L165.436 176.209L168.494 176.326L167.921 172.711L170.415 168.491L166.986 169.862L165.458 167.151L163.908 171.616L160.479 174.147L162.952 175.539L162.347 179.834Z" fill="#FFFCFC"/>
<path d="M132.929 182.992L135.987 179.367L139.076 179.441L138.471 175.837L140.945 171.616L137.526 173.02L135.966 170.341L134.448 174.806L131.008 177.368L133.503 178.718L132.929 182.992Z" fill="#FFFCFC"/>
<path d="M137.802 270.305L136.242 267.605L134.713 272.08L131.284 274.632L133.779 275.993L133.206 280.277L136.263 276.631L139.352 276.716L138.747 273.122L141.221 268.88L137.802 270.305Z" fill="#FFFCFC"/>
<path d="M103.533 213.886L106.58 210.229L109.68 210.282L109.043 206.71L111.506 202.457L108.066 203.903L106.495 201.245L104.988 205.71L101.569 208.304L104.075 209.623L103.533 213.886Z" fill="#FFFCFC"/>
<path d="M108.066 272.155L106.463 269.508L104.988 273.973L101.559 276.577L104.075 277.885L103.544 282.148L106.601 278.47L109.701 278.502L109.054 274.93L111.506 270.698L108.066 272.155Z" fill="#FFFCFC"/>
<path d="M95.6347 244.929L94.0954 242.218L92.5666 246.672L89.1164 249.224L91.59 250.606L90.9954 254.89L94.0742 251.275L97.1422 251.382L96.569 247.778L99.0744 243.557L95.6347 244.929Z" fill="#FFFCFC"/>
<path d="M135.998 190.04C119.564 199.544 106.262 222.635 106.315 241.527C106.368 260.429 119.765 268.072 136.189 258.579C139.278 256.793 142.261 254.518 145.064 251.881C145.202 251.796 145.35 251.658 145.457 251.488C157.326 240.123 165.914 222.252 165.872 207.082C165.819 188.19 152.41 180.536 135.998 190.03V190.04ZM135.361 244.45L124.362 250.808C123.194 246.64 122.218 240.878 122.133 233.171L135.297 225.559L135.35 244.45H135.361ZM135.297 223.762L122.133 231.374C122.207 223.571 123.184 216.682 124.352 211.185L135.244 204.881L135.297 223.751V223.762ZM128.375 197.588C130.573 195.515 132.845 193.804 135.201 192.358L135.233 203.095L124.797 209.123C126.475 201.968 128.333 197.663 128.375 197.588ZM126.178 199.608C125.392 201.756 124.214 205.328 123.12 210.09L115.084 214.736C118.099 209.123 121.867 203.935 126.167 199.608H126.178ZM113.767 217.309L122.674 212.164C121.549 217.681 120.615 224.527 120.551 232.288L107.907 239.602C108.066 232.394 110.221 224.613 113.767 217.309ZM107.896 241.41L120.562 234.085C120.636 241.739 121.56 247.512 122.706 251.764L113.757 256.942C110.232 253.699 108.077 248.416 107.907 241.41H107.896ZM115.041 258.005L123.141 253.317C124.224 256.835 125.424 259.11 126.241 260.407C121.899 261.024 118.067 260.174 115.041 258.005ZM128.492 259.972C128.195 259.621 126.432 257.356 124.808 252.36L135.35 246.268L135.382 257.197C132.993 258.515 130.689 259.419 128.492 259.982V259.972ZM164.237 207.029L152.166 214.003C152.06 206.338 151.115 200.576 149.937 196.387L158.26 191.571C161.827 194.76 164.024 200.033 164.226 207.029H164.237ZM156.933 190.54L149.48 194.845C148.44 191.56 147.314 189.413 146.518 188.127C150.531 187.68 154.088 188.531 156.933 190.529V190.54ZM136.762 191.454C139.363 190.03 141.868 189.051 144.246 188.509C144.544 188.871 146.232 191.071 147.803 195.823L136.794 202.192L136.762 191.454ZM136.794 203.988L148.27 197.354C149.47 201.479 150.489 207.22 150.595 214.917L136.847 222.869L136.794 203.999V203.988ZM136.857 224.666L150.605 216.714C150.574 224.474 149.629 231.353 148.482 236.86L136.911 243.547L136.857 224.655V224.666ZM144.522 250.489C142.123 252.732 139.575 254.688 136.942 256.283L136.911 245.354L148.036 238.922C146.603 245.152 145.011 249.298 144.522 250.489ZM146.794 248.214C147.612 245.949 148.705 242.441 149.703 237.955L157.23 233.606C154.385 238.954 150.839 243.972 146.794 248.214ZM158.451 231.098L150.138 235.903C151.264 230.332 152.155 223.518 152.187 215.799L164.258 208.825C164.12 216.012 162.007 223.773 158.515 231.087L158.461 231.108L158.451 231.098Z" fill="#FFFCFC"/>
<path opacity="0.3" d="M111.506 270.698L109.054 274.93L109.701 278.502L106.601 278.459L103.554 282.137L104.085 277.864L101.569 276.567L104.988 273.962L106.474 269.497L108.066 272.144L111.506 270.688V270.698ZM91.0061 254.901L94.0848 251.275L97.1529 251.392L96.569 247.778L99.0744 243.557L95.6347 244.939L94.106 242.228L92.5666 246.683L89.1164 249.224L91.6006 250.606L91.0061 254.901ZM136.221 276.705L136.199 267.785L134.734 272.091L131.295 274.643L133.789 276.003L133.216 280.277L136.221 276.705ZM136.167 258.611C119.755 268.083 106.378 260.429 106.325 241.537C106.272 222.667 119.564 199.587 135.976 190.072L136.167 258.611ZM135.318 225.58L122.154 233.192C122.228 240.889 123.205 246.651 124.383 250.829L135.382 244.471L135.329 225.58H135.318ZM135.254 204.902L124.362 211.207C123.194 216.703 122.218 223.592 122.143 231.395L135.308 223.783L135.254 204.913V204.902ZM124.819 209.134L135.254 203.106L135.223 192.368C132.866 193.814 130.594 195.536 128.418 197.482C128.343 197.673 126.496 201.979 124.819 209.134ZM115.105 214.747L123.141 210.101C124.235 205.338 125.413 201.766 126.199 199.619C121.899 203.946 118.12 209.134 115.115 214.747H115.105ZM107.918 239.613L120.562 232.299C120.625 224.538 121.549 217.692 122.685 212.174L113.778 217.32C110.232 224.623 108.077 232.405 107.918 239.613ZM113.767 256.963L122.717 251.786C121.57 247.533 120.657 241.75 120.572 234.106L107.907 241.431C108.088 248.437 110.232 253.72 113.757 256.963H113.767ZM126.263 260.429C125.434 259.132 124.245 256.857 123.163 253.338L115.062 258.026C118.099 260.195 121.931 261.056 126.263 260.429ZM128.513 259.993C130.721 259.429 133.014 258.526 135.403 257.207L135.371 246.279L124.829 252.37C126.454 257.367 128.216 259.642 128.513 259.982V259.993ZM135.945 179.452L135.923 170.532L134.458 174.827L131.019 177.389L133.513 178.739L132.94 183.013L135.945 179.452ZM108.077 203.924L106.506 201.267L104.998 205.732L101.58 208.315L104.085 209.644L103.544 213.907L106.591 210.25L109.691 210.303L109.054 206.72L111.517 202.479L108.077 203.914V203.924Z" fill="#84C1C1"/>
<g style="mix-blend-mode:multiply" opacity="0.6">
<path d="M193.453 126.328C193.293 122.246 192.126 120.087 190.501 118.514L156.115 138.394C148.578 142.753 142.495 153.31 142.516 161.974C142.537 170.638 148.673 174.136 156.2 169.788L193.506 148.217C193.506 146.219 193.453 128.348 193.442 126.328H193.453Z" fill="#84C1C1"/>
</g>
<path d="M221.628 95.9868C219.271 94.6154 216.001 94.8067 212.402 96.8904L216.829 99.4631C220.439 97.3794 223.698 97.1881 226.055 98.5595L221.628 95.9868Z" fill="#FFFCFC"/>
<path d="M212.402 96.8904L163.557 125.127L167.984 127.699L216.829 99.4632L212.402 96.8904Z" fill="#FFFCFC"/>
<path d="M167.984 127.699L163.557 125.127C156.391 129.273 150.595 139.319 150.627 147.558C150.637 151.651 152.081 154.532 154.417 155.893L158.844 158.466C156.519 157.105 155.064 154.224 155.054 150.131C155.032 141.892 160.818 131.845 167.984 127.699Z" fill="#FFFCFC"/>
<path d="M216.829 99.4631L167.984 127.699C160.818 131.845 155.022 141.892 155.054 150.131C155.075 158.381 160.903 161.708 168.069 157.562L216.914 129.326C224.08 125.18 229.866 115.144 229.845 106.894C229.824 98.6552 223.995 95.3276 216.829 99.4738V99.4631Z" fill="#00E5AB"/>
<mask id="mask0_1_2" style="mask-type:luminance" maskUnits="userSpaceOnUse" x="313" y="160" width="131" height="93">
<path d="M313.296 252.439L313.28 230.051L443.294 160.474L443.31 182.862L313.296 252.439Z" fill="white"/>
</mask>
<g mask="url(#mask0_1_2)">
<path d="M317.033 248.908C315.755 249.588 314.866 247.985 314.736 244.323C314.607 240.436 315.448 237.811 316.71 237.05C316.742 237.034 316.758 237.017 316.791 237.001C318.23 236.24 318.942 238.135 319.072 241.586C319.201 245.247 318.57 247.968 317.098 248.859C317.082 248.859 317.049 248.892 317.033 248.892M316.92 235.397C316.92 235.397 316.807 235.462 316.742 235.495C314.574 236.774 313.135 240.338 313.296 245.15C313.49 249.75 314.914 251.565 316.92 250.496C316.969 250.463 317.017 250.447 317.066 250.415C319.444 249.005 320.689 245.506 320.527 240.646C320.382 236.207 319.072 234.264 316.92 235.414" fill="#0024A5"/>
<path d="M328.309 232.595L326.756 233.518L325.72 236.451C325.478 237.18 325.235 237.876 324.992 238.686L324.944 238.719C324.653 238.281 324.394 237.892 324.086 237.455L322.873 235.851L321.272 236.807L324.135 240.436L321.498 247.547L323.083 246.608L324.151 243.514C324.426 242.687 324.685 241.958 324.928 241.148H324.96C325.267 241.602 325.542 242.039 325.866 242.477L327.112 244.178L328.745 243.206L325.769 239.367L328.292 232.595" fill="#0024A5"/>
<path d="M333.728 225.629L332.498 226.358L330.234 229.419L330.557 230.748L332.369 228.285L332.385 228.269L332.822 240.775L334.213 239.949L333.728 225.629Z" fill="#0024A5"/>
<path d="M341.105 220.996C341.105 220.996 340.959 221.077 340.878 221.126C339.649 221.871 338.629 223.102 337.918 224.365L338.419 225.451C338.888 224.608 339.665 223.474 340.635 222.891C340.684 222.859 340.732 222.827 340.781 222.81C342.253 222.017 342.787 223.037 342.835 224.43C342.9 226.601 341.735 229.177 339.131 234.28L338.047 236.434L338.079 237.633L344.89 233.567L344.825 231.963L340.037 234.83V234.782L340.846 233.21C342.997 228.966 344.356 225.985 344.259 223.329C344.178 221.352 343.207 219.846 341.072 220.996" fill="#0024A5"/>
<path d="M349.387 216.055C349.387 216.055 349.241 216.136 349.161 216.184C348.012 216.865 346.944 218.047 346.41 218.938L346.831 220.121C347.284 219.408 348.077 218.42 348.934 217.918C348.983 217.885 349.047 217.853 349.096 217.821C350.309 217.173 350.843 217.853 350.875 218.955C350.94 220.655 349.63 222.178 348.578 222.794L347.769 223.28L347.818 224.738L348.627 224.252C348.627 224.252 348.772 224.171 348.837 224.138C350.164 223.426 351.409 223.588 351.49 225.483C351.539 226.666 351.021 228.593 349.177 229.695C349.112 229.727 349.064 229.76 348.999 229.792C348.061 230.294 347.171 230.294 346.783 230.197L346.443 231.93C346.944 232.076 347.883 231.979 348.966 231.396C349.063 231.347 349.144 231.299 349.241 231.25C351.797 229.727 353.059 226.925 352.978 224.624C352.914 222.632 351.797 221.935 350.471 222.373V222.324C351.765 220.915 352.38 219.262 352.331 217.772C352.283 216.103 351.344 215.018 349.387 216.055Z" fill="#0024A5"/>
<path d="M358.462 224.139C356.974 224.933 356.165 223.637 356.1 221.531C356.02 219.182 356.845 216.898 358.333 216.007C358.365 215.974 358.414 215.958 358.446 215.942C359.465 215.391 360.242 215.942 360.484 217.011C360.549 217.222 360.565 217.546 360.565 217.789L360.63 219.635C360.63 219.943 360.63 220.219 360.598 220.51C360.387 222.13 359.53 223.507 358.559 224.09C358.527 224.106 358.478 224.139 358.446 224.155M361.698 207.599L360.258 208.458L360.468 214.824H360.436C360.064 214.241 359.287 213.949 358.155 214.549C358.09 214.581 358.042 214.613 357.977 214.646C356.036 215.796 354.483 218.955 354.612 222.486C354.709 225.629 356.181 226.958 358.025 225.969C358.074 225.937 358.139 225.905 358.187 225.872C359.481 225.095 360.42 223.62 360.824 222.162H360.856L360.986 223.961L362.28 223.183C362.199 222.486 362.151 221.434 362.118 220.478L361.681 207.599" fill="#0024A5"/>
<path d="M367.699 218.615C366.211 219.409 365.418 218.113 365.337 216.007C365.257 213.641 366.082 211.357 367.57 210.466C367.602 210.45 367.635 210.434 367.667 210.402C368.702 209.851 369.479 210.402 369.738 211.455C369.802 211.665 369.819 211.989 369.835 212.232L369.899 214.079C369.899 214.403 369.899 214.662 369.867 214.954C369.657 216.574 368.799 217.951 367.829 218.534C367.796 218.55 367.748 218.582 367.715 218.599M370.967 202.059L369.527 202.917L369.738 209.268L369.705 209.3C369.333 208.684 368.557 208.393 367.424 208.992C367.36 209.025 367.311 209.057 367.246 209.089C365.305 210.24 363.736 213.399 363.882 216.93C363.995 220.089 365.467 221.401 367.311 220.413C367.36 220.381 367.408 220.364 367.457 220.332C368.751 219.554 369.689 218.064 370.093 216.622H370.126L370.255 218.404L371.549 217.627C371.469 216.946 371.42 215.861 371.388 214.921L370.951 202.043" fill="#0024A5"/>
<path d="M379.298 198.446L374.202 201.491L373.75 208.781C374.154 208.473 374.623 208.101 375.222 207.744C375.319 207.68 375.416 207.631 375.513 207.582C377.438 206.546 378.328 207.323 378.409 209.089C378.473 211.001 377.341 212.88 375.998 213.69C375.933 213.738 375.853 213.771 375.788 213.819C374.898 214.289 374.105 214.354 373.685 214.273L373.377 215.958C373.847 216.087 374.72 215.958 375.755 215.423C375.853 215.374 375.95 215.31 376.063 215.245C378.376 213.868 379.961 210.79 379.864 207.987C379.8 206.189 379.072 205.363 378.214 205.234C377.616 205.104 376.888 205.282 376.16 205.687C376.079 205.736 375.998 205.784 375.901 205.833C375.497 206.076 375.27 206.254 375.028 206.448L375.319 202.512L379.379 200.098L379.331 198.462" fill="#0024A5"/>
<path d="M385.154 208.376C383.86 209.073 383.051 208.295 383.051 206.838C383.003 205.477 383.634 203.97 384.863 202.739C386.319 202.431 387.257 202.739 387.322 204.472C387.371 205.947 386.562 207.518 385.284 208.295C385.235 208.312 385.203 208.344 385.17 208.36M385.251 201.103C384.006 201.394 383.181 201.103 383.132 199.677C383.084 198.446 383.715 196.988 384.912 196.275C384.96 196.259 384.993 196.227 385.025 196.211C386.238 195.563 386.756 196.421 386.788 197.539C386.82 198.835 386.157 200.131 385.251 201.103ZM385.154 194.72C385.154 194.72 385.009 194.801 384.944 194.85C383.084 195.951 381.709 198.349 381.773 200.617C381.806 201.848 382.356 202.788 383.569 202.836V202.885C382.291 204.424 381.547 206.173 381.612 207.971C381.676 209.98 382.97 210.968 385.057 209.851C385.138 209.802 385.219 209.753 385.316 209.705C387.354 208.49 388.891 205.882 388.81 203.387C388.746 201.654 387.888 200.892 386.529 200.973V200.908C387.807 199.289 388.212 197.733 388.163 196.518C388.115 194.801 387.095 193.683 385.17 194.72" fill="#0024A5"/>
<path d="M391.026 200.535V200.487L393.469 194.072C393.744 193.246 393.987 192.468 394.278 191.431L394.327 191.399C394.327 192.176 394.327 192.922 394.359 193.683L394.521 198.462L391.026 200.552M395.588 188.758L394.035 189.698L389.587 201.669L389.635 202.933L394.585 199.985L394.715 203.873L396.074 203.063L395.944 199.158L397.433 198.267L397.384 196.745L395.88 197.636L395.572 188.742" fill="#0024A5"/>
<path d="M399.73 194.38C399.794 192.97 400.377 190.783 401.833 189.925C401.881 189.892 401.914 189.876 401.962 189.86C403.483 189.05 403.92 190.654 403.952 191.869L399.746 194.38M402.108 188.353C402.108 188.353 401.978 188.418 401.914 188.467C399.616 189.844 398.29 193.229 398.387 196.437C398.484 199.564 399.94 200.859 402.253 199.612C402.334 199.564 402.415 199.531 402.48 199.483C403.742 198.737 404.599 197.863 405.1 197.247L404.809 196C404.275 196.631 403.661 197.247 402.625 197.863C402.561 197.895 402.512 197.927 402.447 197.96C401.072 198.689 399.891 198.284 399.778 195.789L405.359 192.468C405.359 192.257 405.392 191.934 405.375 191.545C405.311 189.633 404.55 187.057 402.108 188.37" fill="#0024A5"/>
<path d="M410.39 192.954C408.902 193.748 408.109 192.485 408.045 190.443C407.964 187.981 408.886 185.827 410.277 185C410.309 184.984 410.342 184.952 410.39 184.936C411.377 184.401 412.073 184.903 412.364 185.843C412.445 186.07 412.461 186.345 412.477 186.669L412.542 188.597C412.542 188.921 412.542 189.309 412.461 189.682C412.186 191.108 411.409 192.339 410.52 192.873C410.487 192.89 410.439 192.922 410.406 192.938M410.164 183.526C410.164 183.526 410.051 183.591 409.986 183.623C408.158 184.709 406.475 187.803 406.605 191.415C406.702 194.283 408.109 195.692 410.002 194.688C410.051 194.655 410.115 194.623 410.164 194.591C411.393 193.878 412.218 192.549 412.623 191.302H412.655L412.687 192.485C412.784 195.174 411.733 196.842 410.261 197.717C410.18 197.766 410.099 197.814 410.034 197.847C409.145 198.316 408.401 198.381 407.899 198.268L407.592 199.969C408.19 200.147 409.129 199.888 410.018 199.418C410.099 199.369 410.18 199.321 410.261 199.272C411.264 198.673 412.364 197.685 413.108 196.275C413.852 194.882 414.16 193.165 414.079 190.735L413.868 184.547C413.836 183.251 413.836 182.36 413.836 181.582L412.574 182.327V183.964H412.526C412.17 183.332 411.442 182.813 410.164 183.494" fill="#0024A5"/>
<path d="M421.908 173.045L416.812 176.091L416.36 183.364C416.748 183.073 417.217 182.684 417.832 182.327C417.929 182.263 418.026 182.214 418.123 182.165C420.048 181.129 420.921 181.906 421.002 183.672C421.067 185.6 419.951 187.479 418.592 188.289C418.527 188.338 418.446 188.37 418.382 188.402C417.492 188.872 416.715 188.937 416.279 188.84L415.971 190.541C416.457 190.67 417.346 190.541 418.398 189.99C418.479 189.941 418.56 189.893 418.657 189.844C420.97 188.467 422.555 185.389 422.458 182.587C422.394 180.789 421.666 179.962 420.808 179.817C420.21 179.703 419.465 179.881 418.738 180.286C418.657 180.335 418.56 180.384 418.479 180.432C418.074 180.675 417.848 180.837 417.621 181.032L417.896 177.111L421.957 174.681L421.892 173.045" fill="#0024A5"/>
<path d="M430.32 168.023L425.224 171.068L424.771 178.342C425.16 178.05 425.629 177.678 426.244 177.305C426.341 177.24 426.438 177.192 426.535 177.143C428.46 176.106 429.333 176.884 429.414 178.65C429.479 180.578 428.363 182.457 427.004 183.267C426.939 183.315 426.858 183.348 426.794 183.38C425.904 183.85 425.127 183.915 424.691 183.834L424.383 185.518C424.869 185.648 425.758 185.518 426.81 184.968C426.891 184.919 426.972 184.87 427.069 184.822C429.382 183.445 430.967 180.367 430.87 177.564C430.805 175.766 430.078 174.94 429.22 174.811C428.622 174.681 427.877 174.875 427.149 175.264C427.069 175.313 426.988 175.361 426.891 175.41C426.486 175.653 426.26 175.815 426.033 176.009L426.308 172.089L430.369 169.659L430.304 168.023" fill="#0024A5"/>
<path d="M436.16 177.937C434.882 178.618 434.073 177.824 434.073 176.398C434.025 175.038 434.656 173.531 435.885 172.3C437.341 171.992 438.279 172.3 438.328 174.033C438.376 175.507 437.584 177.079 436.289 177.856C436.241 177.889 436.192 177.905 436.16 177.937ZM436.257 170.68C435.011 170.971 434.186 170.68 434.138 169.254C434.106 168.023 434.72 166.565 435.917 165.869C435.966 165.852 435.998 165.82 436.031 165.804C437.228 165.156 437.745 166.031 437.794 167.116C437.842 168.412 437.163 169.724 436.257 170.68ZM436.144 164.313C436.144 164.313 436.014 164.378 435.95 164.427C434.089 165.545 432.714 167.942 432.779 170.21C432.811 171.441 433.361 172.365 434.591 172.413V172.462C433.313 174.001 432.569 175.75 432.617 177.565C432.682 179.573 433.976 180.562 436.079 179.444C436.16 179.395 436.241 179.347 436.338 179.298C438.36 178.099 439.897 175.475 439.816 172.98C439.751 171.247 438.894 170.485 437.551 170.566V170.502C438.829 168.882 439.234 167.31 439.185 166.095C439.12 164.378 438.101 163.277 436.16 164.313" fill="#0024A5"/>
<path d="M442.356 172.883C442.356 172.883 442.323 172.899 442.307 172.915C441.725 173.255 441.337 174.065 441.369 174.875C441.401 175.653 441.79 176.009 442.356 175.718C442.356 175.718 442.388 175.718 442.388 175.701C443.003 175.345 443.343 174.519 443.326 173.725C443.294 172.931 442.906 172.607 442.372 172.883" fill="#0024A5"/>
</g>
<mask id="mask1_1_2" style="mask-type:luminance" maskUnits="userSpaceOnUse" x="347" y="227" width="86" height="66">
<path d="M347.077 292.411L347.093 267.181L432.405 227.297L432.39 252.527L347.077 292.411Z" fill="white"/>
</mask>
<g mask="url(#mask1_1_2)">
<path d="M350.519 272.642C350.409 272.689 350.283 272.752 350.157 272.831C348.224 273.917 347.014 276.419 347.093 278.796C347.171 280.952 348.224 281.692 349.89 281.66C351.258 281.692 351.823 282.211 351.886 283.643C351.949 285.186 351.226 286.665 349.906 287.421C349.827 287.468 349.749 287.5 349.67 287.547C348.869 287.925 348.098 287.925 347.564 287.736L347.313 289.561C347.8 289.782 348.696 289.687 349.576 289.278C349.686 289.231 349.796 289.168 349.89 289.105C352.248 287.783 353.301 285.107 353.207 282.746C353.128 280.511 352.216 279.74 350.503 279.677C349.089 279.646 348.46 279.284 348.413 277.851C348.366 276.813 348.837 275.286 350.189 274.515C350.267 274.468 350.346 274.436 350.425 274.389C351.21 274.027 351.808 274.09 352.122 274.168L352.405 272.358C351.996 272.248 351.368 272.264 350.535 272.658" fill="#0024A5"/>
<path d="M356.916 283.643C356.303 283.926 355.753 283.612 355.705 282.368C355.627 280.244 357.23 278.953 358.645 278.197L358.723 280.102C358.723 280.306 358.707 280.558 358.676 280.794C358.503 281.833 357.953 283.061 357.026 283.596C356.994 283.612 356.963 283.627 356.916 283.643ZM357.246 273.255C357.151 273.302 357.057 273.35 356.963 273.397C356.067 273.901 355.218 274.766 354.652 275.679L354.998 276.828C355.485 276.041 356.161 275.349 356.837 274.971C356.9 274.939 356.947 274.908 356.994 274.892C358.314 274.278 358.519 275.726 358.55 276.608V276.828C355.8 278.355 354.322 280.668 354.417 283.328C354.479 284.855 355.218 285.973 356.554 285.343C356.617 285.312 356.664 285.28 356.727 285.249C357.749 284.666 358.487 283.47 358.849 282.384L358.896 282.353L359.053 283.69L360.232 283.014C360.106 282.305 360.043 281.408 360.012 280.448L359.855 276.34C359.776 274.231 359.195 272.327 357.23 273.24" fill="#0024A5"/>
<path d="M369.788 266.204C369.788 266.204 369.694 266.251 369.647 266.267C368.971 266.645 368.499 267.18 368.091 267.935C367.808 268.439 367.541 269.069 367.352 269.808H367.32C366.99 268.754 366.267 268.266 365.356 268.691C365.309 268.707 365.261 268.738 365.214 268.77C364.036 269.431 363.407 270.784 363.045 272.043H362.998L362.872 270.328L361.725 270.973C361.804 271.854 361.867 272.767 361.898 273.901L362.212 281.912L363.485 281.204L363.234 274.593C363.234 274.247 363.234 273.885 363.297 273.554C363.47 272.437 364.02 271.115 364.837 270.643C364.869 270.627 364.9 270.611 364.931 270.595C365.859 270.17 366.362 271.146 366.44 272.83L366.692 279.409L367.965 278.701L367.698 271.933C367.698 271.571 367.713 271.162 367.761 270.863C367.949 269.761 368.499 268.596 369.222 268.187C369.269 268.171 369.301 268.14 369.348 268.124C370.307 267.668 370.825 268.659 370.904 270.69L371.14 276.907L372.413 276.198L372.161 269.73C372.02 266.11 370.7 265.779 369.757 266.22" fill="#0024A5"/>
<path d="M377.678 271.886C376.798 272.296 376.028 271.776 375.761 270.58C375.713 270.344 375.682 270.108 375.666 269.809L375.588 267.92C375.588 267.653 375.619 267.338 375.651 267.054C375.839 265.418 376.625 263.985 377.521 263.482C377.568 263.466 377.6 263.434 377.647 263.419C378.951 262.805 379.721 264.253 379.816 266.378C379.91 268.896 379.171 271.068 377.804 271.839C377.772 271.855 377.725 271.886 377.694 271.902M378.055 261.577C378.055 261.577 377.93 261.64 377.867 261.672C376.704 262.317 375.886 263.592 375.415 265.213L375.383 265.244L375.258 263.387L374.095 264.048C374.157 265.071 374.236 266.189 374.299 267.605L374.755 279.488L376.044 278.764L375.823 272.799H375.855C376.295 273.57 377.065 273.775 377.93 273.366C377.992 273.334 378.055 273.303 378.134 273.256C379.816 272.311 381.309 269.478 381.152 265.528C381.026 262.317 379.737 260.79 378.102 261.561" fill="#0024A5"/>
<path d="M383.635 253.44L382.33 254.164L382.959 270.265L384.248 269.541L383.635 253.44Z" fill="#0024A5"/>
<path d="M386.936 261.341C386.983 259.909 387.486 257.721 388.806 256.965C388.853 256.934 388.9 256.918 388.947 256.902C390.299 256.273 390.708 257.973 390.739 259.216L386.951 261.341M389.105 255.36C389.105 255.36 388.947 255.439 388.869 255.486C386.794 256.651 385.615 259.972 385.741 263.293C385.867 266.44 387.14 267.936 389.183 266.991C389.277 266.944 389.387 266.897 389.482 266.834C390.613 266.189 391.384 265.402 391.839 264.819L391.556 263.513C391.085 264.111 390.535 264.662 389.592 265.197C389.529 265.229 389.45 265.276 389.387 265.307C388.177 265.874 387.124 265.307 386.998 262.773L392.028 259.94C392.028 259.736 392.044 259.389 392.028 258.98C391.949 257.028 391.258 254.353 389.105 255.344" fill="#0024A5"/>
<path d="M394.197 261.278C394.197 261.278 394.165 261.294 394.15 261.31C393.631 261.609 393.285 262.411 393.317 263.23C393.348 264.017 393.694 264.442 394.181 264.206C394.197 264.206 394.228 264.19 394.244 264.174C394.794 263.859 395.109 263.072 395.077 262.254C395.046 261.435 394.7 261.058 394.213 261.278" fill="#0024A5"/>
<path d="M405.875 246.168L404.586 246.892L403.784 252.968C403.596 254.4 403.454 255.675 403.376 256.839H403.329C403.124 255.848 402.873 254.793 402.559 253.629L401.238 248.765L400.138 249.379L399.195 255.627C399.006 256.934 398.818 258.256 398.692 259.452H398.645C398.472 258.413 398.236 257.39 397.985 256.289L396.822 251.236L395.502 251.992L398.079 261.75L399.258 261.089L400.217 255.218C400.421 253.896 400.594 252.637 400.72 251.236H400.751C400.987 252.417 401.223 253.392 401.521 254.463L402.81 259.09L403.989 258.429L405.875 246.152" fill="#0024A5"/>
<path d="M409.38 254.164C408.751 254.463 408.217 254.132 408.17 252.904C408.091 250.764 409.678 249.473 411.093 248.734L411.172 250.638C411.172 250.843 411.172 251.079 411.124 251.315C410.951 252.369 410.401 253.597 409.474 254.132C409.443 254.132 409.411 254.164 409.395 254.179M409.694 243.791C409.616 243.823 409.521 243.87 409.427 243.917C408.515 244.437 407.682 245.287 407.116 246.215L407.462 247.364C407.949 246.577 408.641 245.869 409.301 245.507C409.364 245.476 409.427 245.444 409.474 245.413C410.779 244.799 410.983 246.262 411.014 247.128V247.364C408.264 248.891 406.786 251.205 406.881 253.865C406.944 255.391 407.667 256.509 409.003 255.879C409.065 255.848 409.128 255.816 409.191 255.785C410.213 255.218 410.951 254.006 411.313 252.92H411.36L411.517 254.211L412.696 253.55C412.57 252.841 412.523 251.929 412.476 250.984L412.319 246.876C412.24 244.767 411.659 242.847 409.694 243.776" fill="#0024A5"/>
<path d="M415.337 235.592L414.048 236.331L414.661 252.433L415.965 251.709L415.337 235.592Z" fill="#0024A5"/>
<path d="M418.826 233.64L417.537 234.38L418.15 250.481L419.455 249.757L418.826 233.64Z" fill="#0024A5"/>
<path d="M422.126 241.541C422.174 240.109 422.677 237.921 423.997 237.181C424.044 237.15 424.091 237.134 424.138 237.103C425.49 236.473 425.899 238.173 425.93 239.401L422.126 241.541ZM424.28 235.576C424.28 235.576 424.123 235.655 424.044 235.702C421.954 236.882 420.79 240.188 420.916 243.508C421.042 246.672 422.315 248.167 424.343 247.223C424.437 247.176 424.531 247.128 424.641 247.066C425.773 246.42 426.543 245.633 426.999 245.051L426.716 243.745C426.244 244.343 425.694 244.894 424.751 245.413C424.673 245.46 424.61 245.492 424.531 245.523C423.321 246.09 422.268 245.523 422.142 242.973L427.172 240.14C427.172 239.936 427.203 239.605 427.172 239.196C427.093 237.244 426.402 234.553 424.248 235.56" fill="#0024A5"/>
<path d="M430.064 229.343L428.822 230.571L428.916 233.199L427.816 233.829L427.879 235.355L428.979 234.726L429.215 240.722C429.262 242.013 429.435 242.91 429.828 243.304C430.126 243.634 430.567 243.681 431.101 243.43C431.148 243.398 431.211 243.382 431.258 243.351C431.761 243.068 432.154 242.737 432.39 242.438L432.28 240.959C432.123 241.132 431.871 241.336 431.525 241.525C431.494 241.541 431.462 241.557 431.447 241.572C430.787 241.887 430.535 241.258 430.488 239.935L430.252 234.018L432.107 232.979L432.044 231.452L430.189 232.491L430.064 229.343Z" fill="#0024A5"/>
</g>
<path d="M219.505 497.566H146.741L63.3402 446.728L156.954 389.66L219.505 497.566Z" fill="#8AAED8"/>
<path d="M246.364 472.413L218.22 456.137V363.455L246.364 379.72V472.413Z" fill="#B0A2A2"/>
<path d="M260.048 464.503L246.364 472.413V379.72L260.048 371.811V464.503Z" fill="#EEDFDE"/>
<path d="M246.364 379.72L218.22 363.455L231.904 355.545L260.048 371.811L246.364 379.72Z" fill="#FFFCFC"/>
<path d="M227.01 483.608L198.856 467.331V374.649L227.01 390.915V483.608Z" fill="#B0A2A2"/>
<path d="M240.684 475.698L227.01 483.608V390.915L240.684 383.005V475.698Z" fill="#EEDFDE"/>
<path d="M227.01 390.915L198.856 374.649L212.541 366.74L240.684 383.005L227.01 390.915Z" fill="#FFFCFC"/>
<path d="M207.646 494.791L176.116 476.57V383.877L207.646 402.109V494.791Z" fill="url(#paint7_linear_1_2)"/>
<path d="M221.32 486.882L207.646 494.791V402.109L221.32 394.2V486.882Z" fill="#EEDFDE"/>
<path d="M207.646 402.109L176.116 383.877L189.79 375.968L221.32 394.2L207.646 402.109Z" fill="#FFFCFC"/>
<path d="M308.925 397.613L308.086 397.123C302.81 394.126 299.222 398.824 297.874 400.589C298.5 399.771 299.647 399.632 300.92 400.366L301.759 400.855C303.617 401.939 305.04 404.47 304.944 406.521C306.993 403.821 307.598 403.247 308.235 402.886C309.987 401.876 311.409 402.694 311.42 404.703C311.42 406.553 310.21 408.775 308.617 409.923C308.681 410.487 308.532 410.891 308.246 411.093C312.768 407.627 314.085 400.844 308.925 397.613Z" fill="url(#paint8_radial_1_2)"/>
<path d="M301.759 400.855L300.92 400.366C300.708 400.238 300.485 400.143 300.284 400.058C298.925 399.569 296.801 399.26 294.466 400.568C290.92 402.63 289.848 406.915 289.497 408.329C289.561 408.063 290.272 408.286 291.504 408.998L292.343 409.487C294.2 410.572 296.515 412.379 297.523 413.527C298.553 409.115 299.848 407.212 301.366 406.33C302.173 405.862 302.916 405.777 304.955 406.521C305.05 404.47 303.628 401.929 301.77 400.855H301.759Z" fill="url(#paint9_radial_1_2)"/>
<path d="M308.161 410.242L295.315 417.695C294.71 418.056 294.137 417.727 294.126 416.844C294.126 415.941 294.731 414.899 295.358 414.548C295.389 414.527 295.506 414.548 297.502 413.527C296.504 412.379 294.179 410.572 292.321 409.487L291.483 408.998C290.432 408.392 289.752 408.137 289.551 408.244C288.33 408.86 286.058 410.019 285.75 413.059C285.591 414.601 285.952 416.78 288.521 418.396L289.359 418.885C290.368 419.459 292.385 420.257 294.646 419.045C295.389 418.609 307.248 411.731 307.481 411.592C307.683 411.475 307.842 411.295 308.055 411.188C308.458 410.986 308.67 410.561 308.596 409.913C308.49 409.838 308.246 410.178 308.15 410.232L308.161 410.242Z" fill="url(#paint10_linear_1_2)"/>
<path d="M294.848 419.47C293.691 419.47 292.512 418.566 292.502 416.855C292.523 415.356 293.404 413.772 294.561 413.123C294.668 413.07 294.795 413.017 294.912 412.974C295.007 412.943 295.294 412.815 296.101 412.411C297.12 408.424 298.5 406.096 300.538 404.927C301.228 404.523 301.876 404.342 302.619 404.342C303.129 404.342 303.681 404.427 304.35 404.618C305.974 402.524 306.621 401.929 307.418 401.472C308.161 401.046 308.915 400.823 309.647 400.823C311.643 400.823 313.034 402.418 313.044 404.703C313.044 407.042 311.59 409.796 309.562 411.252C309.477 411.316 309.392 411.359 309.297 411.412C309.18 411.507 309.053 411.614 308.989 411.656L298.404 417.801L296.133 419.119C295.729 419.353 295.283 419.481 294.848 419.481V419.47Z" fill="#004DBF"/>
<path d="M281.716 334.304L278.637 332.508L278.51 332.433C257.914 321.079 248.381 332.338 238.295 344.266C241.693 340.226 247.744 339.375 253.307 342.607L256.385 344.404C263.19 348.369 266.683 356.959 264.178 363.593C273.637 352.345 276.248 350.145 278.754 348.688C287.544 343.596 295.602 347.497 295.57 359.436C295.538 370.875 287.852 384.43 278.616 389.756C278.616 390.543 278.297 391.096 277.851 391.351C291.759 382.57 310.337 351.697 281.716 334.283V334.304Z" fill="url(#paint11_linear_1_2)"/>
<path d="M246.884 324.906L243.805 323.11C226.49 313.095 213.485 320.09 209.218 322.397C198.304 329.021 190.607 339.003 183.431 355.8C183.972 354.503 187.975 355.652 193.548 358.894L196.627 360.691C203.432 364.656 210.014 370.237 211.33 373.161C218.953 354.748 227.541 345.137 236.045 340.215C249.4 332.497 262.511 336.282 264.188 363.604C264.847 361.871 265.091 360.01 264.974 358.129C263.912 341.746 258.679 332.125 246.895 324.906H246.884Z" fill="url(#paint12_radial_1_2)"/>
<path d="M196.627 360.691L193.548 358.894C188.824 356.141 185.225 354.897 183.909 355.375C176.159 358.171 164.438 362.392 155.16 387.439C155.521 386.407 159.364 387.747 164.916 390.979L167.995 392.775C174.8 396.741 181.605 402.056 183.197 404.65C188.431 389.969 195.395 380.73 203.05 376.318C204.589 375.425 206.542 375 211.32 373.172C210.003 370.248 203.421 364.667 196.616 360.701L196.627 360.691Z" fill="url(#paint13_linear_1_2)"/>
<path d="M278.764 348.699C276.259 350.145 273.647 352.356 264.188 363.604C262.511 336.282 249.411 332.508 236.045 340.215C227.541 345.137 218.953 354.737 211.33 373.161C206.553 374.99 204.6 375.415 203.06 376.308C195.406 380.73 188.442 389.958 183.208 404.64C179.089 406.617 178.091 406.851 177.327 407.297C167.931 412.709 160.287 426.391 160.245 437.819C160.234 449.258 167.857 453.979 177.125 448.61C210.959 428.996 244.782 409.381 278.626 389.767C287.863 384.451 295.559 370.886 295.581 359.447C295.612 347.508 287.555 343.606 278.764 348.699Z" fill="#605FC3"/>
<path d="M177.125 448.61C167.857 453.989 160.234 449.258 160.245 437.819C160.287 426.391 167.931 412.709 177.327 407.297C178.091 406.851 179.089 406.617 183.208 404.64C181.626 402.046 174.821 396.73 168.005 392.765L164.927 390.968C159.98 388.087 156.391 386.716 155.404 387.173C149.82 389.788 145.414 391.85 140.35 398.75C134.15 407.202 132.473 414.59 131.751 419.406C130.063 430.675 135.01 439.924 146.465 446.888L149.544 448.684C163.812 456.913 172.825 452.086 176.222 450.268L181.297 447.324L186.372 444.379L191.446 441.434L196.521 438.489L201.595 435.544L206.67 432.599L211.744 429.655L216.819 426.71L221.893 423.765L226.968 420.82L232.042 417.875L237.117 414.931L242.192 411.986L247.266 409.041L252.341 406.096L257.415 403.151L262.49 400.207L267.564 397.262L272.639 394.317L277.713 391.372C278.297 391.032 278.616 390.479 278.616 389.692L177.114 448.536L177.125 448.61Z" fill="url(#paint14_linear_1_2)"/>
<path d="M169.874 452.458C166.551 452.458 163.632 451.023 161.625 448.408C159.64 445.825 158.6 442.157 158.6 437.83C158.653 425.881 166.678 411.55 176.498 405.894C176.859 405.682 177.263 405.511 177.942 405.224C178.707 404.905 179.874 404.416 181.892 403.46C186.955 389.533 193.983 379.657 202.243 374.894C203.283 374.288 204.43 373.895 206.16 373.299C207.19 372.938 208.464 372.502 210.099 371.885C217.01 355.407 225.238 344.585 235.238 338.801C239.527 336.324 243.614 335.07 247.383 335.07C253.275 335.07 263.127 338.365 265.484 359.564C272.734 351.08 275.325 348.816 277.958 347.295C280.675 345.722 283.446 344.893 285.994 344.893C288.86 344.893 291.387 345.913 293.319 347.859C295.878 350.432 297.226 354.44 297.215 359.468C297.184 371.332 289.211 385.567 279.444 391.202L177.942 450.034C175.161 451.65 172.443 452.469 169.885 452.469L169.874 452.458Z" fill="#004DBF"/>
<path d="M206.67 311.341L204.992 310.363C201.585 308.407 198.654 308.439 196.797 308.811C195.395 309.087 193.138 310.59 190.024 313.318C192.062 311.532 194.843 311.15 197.349 312.617L199.026 313.595C202.731 315.753 204.44 321.122 202.827 325.587C207.031 321.972 207.753 320.909 208.06 320.739C209.727 319.772 211.341 320.526 211.33 323.014C211.33 325.395 209.748 328.138 207.986 329.148C207.986 330.148 207.604 330.849 207.009 331.179C213.156 327.288 215.768 317.018 206.659 311.352L206.67 311.341Z" fill="url(#paint15_linear_1_2)"/>
<path d="M202.997 318.932C201.531 314.265 199.557 311.564 195.937 309.311L194.259 308.332C191.011 306.493 185.883 304.973 179.927 308.194C172.613 312.447 170.405 321.281 169.672 324.183C169.789 323.684 171.36 324.215 173.961 325.725L175.639 326.703C179.344 328.861 183.749 332.21 185.459 334.177C187.497 325.47 190.469 321.09 193.983 319.07C197.582 316.986 200.618 318.017 202.837 325.576C203.612 323.418 203.623 321.047 202.997 318.932Z" fill="url(#paint16_radial_1_2)"/>
<path d="M208.071 320.728C207.763 320.909 207.041 321.962 202.837 325.576C200.618 318.028 197.572 316.986 193.983 319.07C190.469 321.1 187.507 325.47 185.459 334.177C181.987 335.952 181.753 335.92 181.658 335.984C179.853 337.015 178.293 339.779 178.282 342.171C178.282 344.563 179.843 345.488 181.584 344.457C190.384 339.343 199.185 334.241 207.997 329.116C209.759 328.117 211.341 325.374 211.341 322.982C211.341 320.494 209.727 319.74 208.071 320.707V320.728Z" fill="#605FC3"/>
<path d="M181.584 344.468C179.843 345.488 178.282 344.563 178.282 342.182C178.293 339.79 179.853 337.026 181.658 335.995C181.764 335.931 181.998 335.963 185.459 334.187C183.749 332.221 179.344 328.872 175.639 326.714L173.961 325.736C171.689 324.417 170.203 323.843 169.778 324.056C167.071 325.427 162.528 327.734 161.901 334.708C161.731 336.601 161.975 341.416 167.878 345.084L169.555 346.062C173.59 348.22 177.146 348.369 180.522 346.562L181.838 345.796L183.155 345.031L184.471 344.266L185.788 343.5L187.104 342.735L188.42 341.969L189.737 341.204L191.053 340.438L192.37 339.673L193.686 338.908L195.002 338.142L196.319 337.377L197.635 336.611L198.952 335.846L200.268 335.08L201.585 334.315L202.901 333.549L204.217 332.784L205.534 332.019L206.85 331.253C207.519 330.87 207.901 330.169 207.901 329.169L181.488 344.51L181.584 344.468Z" fill="url(#paint17_radial_1_2)"/>
<path d="M180.235 346.838C178.356 346.838 176.339 345.382 176.329 342.182C176.35 339.131 178.261 335.676 180.692 334.294C180.787 334.24 180.978 334.155 181.085 334.113C181.477 333.975 182.422 333.528 183.781 332.848C185.777 324.874 188.803 319.814 193.017 317.38C194.419 316.572 195.703 316.178 196.967 316.178C200.597 316.178 202.636 319.463 203.761 322.174C205.12 320.941 205.81 320.229 206.213 319.814C206.574 319.442 206.787 319.219 207.116 319.038C207.869 318.602 208.676 318.358 209.451 318.358C210.619 318.358 211.659 318.868 212.371 319.793C213.008 320.622 213.326 321.696 213.326 323.003C213.326 326.012 211.415 329.456 208.984 330.839L186.127 344.106L182.582 346.169C181.817 346.615 181.032 346.849 180.246 346.849L180.235 346.838Z" fill="#004DBF"/>
<path d="M257.097 478.611L243.349 470.669V377.977L257.097 385.929V478.611Z" fill="#B0A2A2"/>
<path d="M270.77 470.701L257.097 478.611V385.929L270.77 378.019V470.701Z" fill="#EEDFDE"/>
<path d="M257.097 385.929L243.349 377.977L257.022 370.067L270.77 378.019L257.097 385.929Z" fill="#FFFCFC"/>
<path d="M255.356 476.463L243.338 483.416V395.104L255.356 388.151V476.463Z" fill="#95DBDB"/>
<path d="M243.338 395.104L231.459 388.236L243.476 381.283L255.356 388.151L243.338 395.104Z" fill="#95DBDB"/>
<path d="M237.733 489.805L223.985 481.853V389.171L237.733 397.123V489.805Z" fill="#B0A2A2"/>
<path d="M251.406 481.896L237.733 489.805V397.123L251.406 389.214V481.896Z" fill="#EEDFDE"/>
<path d="M237.733 397.123L223.985 389.171L237.669 381.262L251.406 389.214L237.733 397.123Z" fill="#FFFCFC"/>
<path d="M235.875 487.722L223.857 494.675V406.362L235.875 399.409V487.722Z" fill="#3D8EFF"/>
<path d="M223.857 406.362L211.967 399.494L223.995 392.541L235.875 399.409L223.857 406.362Z" fill="#3D8EFF"/>
<path d="M218.369 501L204.631 493.048V400.366L218.369 408.307V501Z" fill="#B0A2A2"/>
<path d="M232.053 493.09L218.369 501V408.307L232.053 400.408V493.09Z" fill="#EEDFDE"/>
<path d="M218.369 408.307L204.631 400.366L218.305 392.456L232.053 400.408L218.369 408.307Z" fill="#FFFCFC"/>
<path d="M263.965 427.124C261.556 428.517 259.602 427.688 259.602 425.275V392.999C259.602 390.585 261.556 387.492 263.965 386.099C266.375 384.706 268.329 385.536 268.329 387.949V420.225C268.329 422.638 266.375 425.732 263.965 427.124Z" fill="#322A58"/>
<path d="M244.58 438.33C242.17 439.722 240.217 438.893 240.217 436.48V404.204C240.217 401.791 242.17 398.697 244.58 397.304C246.99 395.912 248.944 396.741 248.944 399.154V431.43C248.944 433.843 246.99 436.937 244.58 438.33Z" fill="#322A58"/>
<path d="M225.28 449.482C222.87 450.874 220.917 450.045 220.917 447.632V415.356C220.917 412.943 222.87 409.849 225.28 408.456C227.69 407.064 229.643 407.893 229.643 410.306V442.582C229.643 444.995 227.69 448.089 225.28 449.482Z" fill="#322A58"/>
<path d="M265.441 390.511C265.441 391.33 264.783 392.371 263.965 392.85C263.148 393.318 262.49 393.041 262.49 392.223C262.49 391.404 263.148 390.362 263.965 389.884C264.783 389.416 265.441 389.692 265.441 390.511Z" fill="#FF78D6"/>
<path d="M265.441 397.007C265.441 397.825 264.783 398.867 263.965 399.345C263.148 399.813 262.49 399.537 262.49 398.718C262.49 397.9 263.148 396.858 263.965 396.379C264.783 395.912 265.441 396.188 265.441 397.007Z" fill="#FF78D6"/>
<path d="M265.441 403.491C265.441 404.31 264.783 405.352 263.965 405.83C263.148 406.298 262.49 406.022 262.49 405.203C262.49 404.385 263.148 403.343 263.965 402.864C264.783 402.396 265.441 402.673 265.441 403.491Z" fill="#FF78D6"/>
<path d="M246.247 401.61C246.247 402.428 245.589 403.47 244.771 403.949C243.954 404.416 243.296 404.14 243.296 403.321C243.296 402.503 243.954 401.461 244.771 400.983C245.589 400.515 246.247 400.791 246.247 401.61Z" fill="#95DBDB"/>
<path d="M246.247 408.105C246.247 408.924 245.589 409.966 244.771 410.444C243.954 410.912 243.296 410.636 243.296 409.817C243.296 408.998 243.954 407.957 244.771 407.478C245.589 407.01 246.247 407.287 246.247 408.105Z" fill="#95DBDB"/>
<path d="M246.247 414.59C246.247 415.409 245.589 416.451 244.771 416.929C243.954 417.397 243.296 417.121 243.296 416.302C243.296 415.483 243.954 414.442 244.771 413.963C245.589 413.495 246.247 413.772 246.247 414.59Z" fill="#95DBDB"/>
<path d="M226.819 412.847C226.819 413.665 226.161 414.707 225.344 415.186C224.526 415.653 223.868 415.377 223.868 414.558C223.868 413.74 224.526 412.698 225.344 412.22C226.161 411.752 226.819 412.028 226.819 412.847Z" fill="#3D8EFF"/>
<path d="M226.819 419.332C226.819 420.15 226.161 421.192 225.344 421.671C224.526 422.138 223.868 421.862 223.868 421.043C223.868 420.225 224.526 419.183 225.344 418.705C226.161 418.237 226.819 418.513 226.819 419.332Z" fill="#3D8EFF"/>
<path d="M226.819 425.827C226.819 426.646 226.161 427.688 225.344 428.166C224.526 428.634 223.868 428.358 223.868 427.539C223.868 426.72 224.526 425.679 225.344 425.2C226.161 424.732 226.819 425.009 226.819 425.827Z" fill="#3D8EFF"/>
<path d="M409.822 420.746C407.327 421.926 414.004 426.38 405.289 426.38C393.621 426.38 384.162 421.479 384.162 415.441C384.162 409.402 393.621 404.501 405.289 404.501C411.117 404.501 417.646 405.575 422.476 409.073C424.111 410.264 425.64 411.848 426.192 413.846C426.563 415.196 426.383 415.696 425.258 416.089C425.098 416.143 424.217 416.196 423.187 416.228C420.64 416.323 418.124 416.908 415.799 417.982C413.261 419.14 410.809 420.267 409.811 420.746H409.822Z" fill="url(#paint18_linear_1_2)"/>
<path d="M426.893 410.997C425.788 410.317 424.026 409.519 422.582 408.945C421.531 410.072 420.746 411.125 419.705 412.273C424.854 415.037 427.2 416.068 428.442 414.261C429.175 412.783 428.241 411.816 426.893 410.986V410.997Z" fill="#3F52B0"/>
<path d="M426.149 411.263C424.748 410.54 423.474 409.976 422.126 409.541C421.319 410.391 420.502 411.231 419.716 412.103C419.376 412.475 419.047 412.868 418.707 413.251C420.226 414.08 421.754 414.144 422.89 414.612C425.81 415.813 427.264 415.685 428.368 414.537C429.281 413.591 427.551 411.986 426.149 411.273V411.263Z" fill="url(#paint19_linear_1_2)"/>
<path d="M410.193 397.666C410.013 397.549 407.529 398.899 406.446 400.759C404.885 403.428 404.864 406.404 405.076 406.702C405.384 407.138 414.907 409.052 419.228 409.976L426.468 403.917C424.907 402.46 412.614 399.186 410.193 397.676V397.666Z" fill="#3F52B0"/>
<path d="M425.151 403.438C421.839 404.108 417.54 405.703 413.951 408.733C409.163 412.772 405.076 415.366 405.076 415.366C405.076 415.366 407.422 420.033 408.304 419.863C416.839 414.718 428.612 411.295 427.965 406.521C427.561 403.555 425.491 403.385 425.151 403.449V403.438Z" fill="#3F52B0"/>
<path d="M403.823 419.077C404.439 421.171 405.225 423.074 406.159 424.945C406.7 426.051 407.773 427.008 409.227 426.04C411.414 424.594 410.289 421.979 407.072 417.078C406 417.769 404.906 418.407 403.823 419.077Z" fill="url(#paint20_linear_1_2)"/>
<path d="M402.772 419.098C403.622 420.937 404.959 423.117 405.734 424.679C406.095 425.413 406.605 426.029 407.295 426.338C408.049 426.678 409.015 426.359 409.259 425.572C409.694 424.126 408.526 421.586 406.064 417.801C405.023 418.439 403.813 418.439 402.772 419.098Z" fill="#3F52B0"/>
<path d="M396.477 412.826C396.095 420.076 399.025 421.15 400.246 421.373C403.261 421.915 407.836 418.014 411.011 415.186C414.015 412.517 415.034 410.869 416.404 409.689C413.622 409.817 407.422 410.593 406.509 410.678C406.509 410.678 407.231 400.781 405.862 400.036C405.522 399.845 405.108 399.845 404.715 399.845C403.388 399.856 402.051 399.941 400.734 400.1C399.874 400.206 396.859 400.302 396.859 400.302C396.955 400.993 396.838 403.417 396.817 403.842C396.742 405.405 396.604 410.359 396.477 412.826Z" fill="#3F52B0"/>
<path d="M413.336 389.118C413.155 387.63 412.815 383.707 412.815 383.707C412.815 383.707 412.38 382.633 411.828 382.995C410.268 383.994 408.696 384.93 406.955 385.365C407.773 387.853 408.601 390.139 409.047 391.351C409.291 392.01 413.76 400.153 413.909 400.898L416.839 399.558C416.467 399.292 413.357 389.395 413.325 389.118H413.336Z" fill="#FBBD9E"/>
<path d="M406.244 387.47C406.743 389.246 413.739 387.513 413.983 386.025C413.951 382.973 411.127 371.556 407.115 372.406C407.115 372.406 401.902 372.598 406.244 387.47Z" fill="white"/>
<path d="M394.8 379.667C392.156 382.952 395.373 387.97 396.201 390.851C397.103 393.998 396.764 396.252 396.647 399.834C396.466 405.139 413.973 402.088 410.83 396.241C410.448 395.518 410.055 394.806 409.832 394.019C409.418 392.499 410.724 387.162 411.69 380.985C411.775 380.454 411.807 379.901 411.775 379.359C411.743 378.636 411.711 378.083 411.563 377.445C411.329 376.478 409.631 374.171 408.696 373.831C405.533 372.672 395.84 378.381 394.81 379.667H394.8Z" fill="white"/>
<path d="M401.668 408.616V408.977C401.668 409.041 401.711 409.094 401.785 409.147L410.841 414.378C411 414.473 411.255 414.473 411.414 414.378L424.217 406.925C424.292 406.883 424.334 406.819 424.334 406.766V406.404L401.679 408.626L401.668 408.616Z" fill="#BDB6C6"/>
<path d="M424.207 406.224L415.151 400.993C414.992 400.897 414.737 400.897 414.578 400.993L401.775 408.446C401.615 408.541 401.615 408.679 401.775 408.775L410.83 414.006C410.989 414.101 411.244 414.101 411.403 414.006L424.207 406.553C424.366 406.458 424.366 406.319 424.207 406.224Z" fill="#F5F0EA"/>
<path d="M407.964 410.763L407.391 411.093C407.337 411.125 407.242 411.125 407.189 411.093L406.711 410.816C406.658 410.784 406.658 410.731 406.711 410.699L407.284 410.37C407.337 410.338 407.433 410.338 407.486 410.37L407.964 410.646C408.017 410.678 408.017 410.731 407.964 410.763ZM408.887 410.115L408.41 409.838C408.357 409.806 408.261 409.806 408.208 409.838L407.635 410.168C407.582 410.2 407.582 410.253 407.635 410.285L408.112 410.561C408.166 410.593 408.261 410.593 408.314 410.561L408.887 410.232C408.941 410.2 408.941 410.147 408.887 410.115ZM409.811 409.583L409.333 409.307C409.28 409.275 409.185 409.275 409.132 409.307L408.558 409.636C408.505 409.668 408.505 409.721 408.558 409.753L409.036 410.03C409.089 410.062 409.185 410.062 409.238 410.03L409.811 409.7C409.864 409.668 409.864 409.615 409.811 409.583ZM410.735 409.052L410.257 408.775C410.204 408.743 410.108 408.743 410.055 408.775L409.482 409.105C409.429 409.137 409.429 409.19 409.482 409.222L409.96 409.498C410.013 409.53 410.108 409.53 410.161 409.498L410.735 409.169C410.788 409.137 410.788 409.083 410.735 409.052ZM411.658 408.52L411.181 408.244C411.127 408.212 411.032 408.212 410.979 408.244L410.406 408.573C410.352 408.605 410.352 408.658 410.406 408.69L410.883 408.967C410.936 408.998 411.032 408.998 411.085 408.967L411.658 408.637C411.711 408.605 411.711 408.552 411.658 408.52ZM412.582 407.988L412.104 407.712C412.051 407.68 411.956 407.68 411.902 407.712L411.329 408.042C411.276 408.074 411.276 408.127 411.329 408.159L411.807 408.435C411.86 408.467 411.956 408.467 412.009 408.435L412.582 408.105C412.635 408.074 412.635 408.02 412.582 407.988ZM413.505 407.457L413.028 407.181C412.975 407.149 412.879 407.149 412.826 407.181L412.253 407.51C412.2 407.542 412.2 407.595 412.253 407.627L412.73 407.903C412.784 407.935 412.879 407.935 412.932 407.903L413.505 407.574C413.559 407.542 413.559 407.489 413.505 407.457ZM414.429 406.925L413.951 406.649C413.898 406.617 413.803 406.617 413.75 406.649L413.176 406.979C413.123 407.01 413.123 407.064 413.176 407.095L413.654 407.372C413.707 407.404 413.803 407.404 413.856 407.372L414.429 407.042C414.482 407.01 414.482 406.957 414.429 406.925ZM415.353 406.394L414.875 406.117C414.822 406.085 414.726 406.085 414.673 406.117L414.1 406.447C414.047 406.479 414.047 406.532 414.1 406.564L414.578 406.84C414.631 406.872 414.726 406.872 414.779 406.84L415.353 406.511C415.406 406.479 415.406 406.426 415.353 406.394ZM416.563 405.692L416.085 405.416C416.032 405.384 415.937 405.384 415.884 405.416L415.013 405.915C414.96 405.947 414.96 406 415.013 406.032L415.491 406.309C415.544 406.341 415.639 406.341 415.692 406.309L416.563 405.809C416.616 405.777 416.616 405.724 416.563 405.692ZM420.013 406.606L419.535 406.33C419.482 406.298 419.387 406.298 419.334 406.33L418.76 406.66C418.707 406.691 418.707 406.745 418.76 406.777L419.238 407.053C419.291 407.085 419.387 407.085 419.44 407.053L420.013 406.723C420.066 406.691 420.066 406.638 420.013 406.606ZM420.937 406.075L420.459 405.798C420.406 405.767 420.31 405.767 420.257 405.798L419.684 406.128C419.631 406.16 419.631 406.213 419.684 406.245L420.162 406.521C420.215 406.553 420.31 406.553 420.364 406.521L420.937 406.192C420.99 406.16 420.99 406.107 420.937 406.075ZM421.86 405.543L421.383 405.267C421.33 405.235 421.234 405.235 421.181 405.267L420.608 405.596C420.555 405.628 420.555 405.682 420.608 405.713L421.085 405.99C421.139 406.022 421.234 406.022 421.287 405.99L421.86 405.66C421.914 405.628 421.914 405.575 421.86 405.543ZM420.863 407.095L420.385 406.819C420.332 406.787 420.236 406.787 420.183 406.819L419.61 407.149C419.557 407.181 419.557 407.234 419.61 407.266L420.088 407.542C420.141 407.574 420.236 407.574 420.289 407.542L420.863 407.212C420.916 407.181 420.916 407.127 420.863 407.095ZM421.786 406.564L421.308 406.287C421.255 406.256 421.16 406.256 421.107 406.287L420.533 406.617C420.48 406.649 420.48 406.702 420.533 406.734L421.011 407.01C421.064 407.042 421.16 407.042 421.213 407.01L421.786 406.681C421.839 406.649 421.839 406.596 421.786 406.564ZM422.71 406.032L422.232 405.756C422.179 405.724 422.083 405.724 422.03 405.756L421.457 406.086C421.404 406.117 421.404 406.171 421.457 406.202L421.935 406.479C421.988 406.511 422.083 406.511 422.136 406.479L422.71 406.149C422.763 406.117 422.763 406.064 422.71 406.032ZM409.163 410.955L408.686 410.678C408.633 410.646 408.537 410.646 408.484 410.678L407.613 411.178C407.56 411.21 407.56 411.263 407.613 411.295L408.091 411.571C408.144 411.603 408.24 411.603 408.293 411.571L409.163 411.071C409.216 411.04 409.216 410.986 409.163 410.955ZM410.087 410.423L409.609 410.147C409.556 410.115 409.461 410.115 409.408 410.147L408.834 410.476C408.781 410.508 408.781 410.561 408.834 410.593L409.312 410.869C409.365 410.901 409.461 410.901 409.514 410.869L410.087 410.54C410.14 410.508 410.14 410.455 410.087 410.423ZM411.011 409.891L410.533 409.615C410.48 409.583 410.384 409.583 410.331 409.615L409.758 409.945C409.705 409.976 409.705 410.03 409.758 410.062L410.236 410.338C410.289 410.37 410.384 410.37 410.437 410.338L411.011 410.008C411.064 409.976 411.064 409.923 411.011 409.891ZM411.934 409.36L411.457 409.083C411.403 409.052 411.308 409.052 411.255 409.083L410.682 409.413C410.628 409.445 410.628 409.498 410.682 409.53L411.159 409.806C411.212 409.838 411.308 409.838 411.361 409.806L411.934 409.477C411.987 409.445 411.987 409.392 411.934 409.36ZM412.858 408.828L412.38 408.552C412.327 408.52 412.232 408.52 412.178 408.552L411.605 408.881C411.552 408.913 411.552 408.967 411.605 408.998L412.083 409.275C412.136 409.307 412.232 409.307 412.285 409.275L412.858 408.945C412.911 408.913 412.911 408.86 412.858 408.828ZM413.781 408.297L413.304 408.02C413.251 407.988 413.155 407.988 413.102 408.02L412.529 408.35C412.476 408.382 412.476 408.435 412.529 408.467L413.006 408.743C413.06 408.775 413.155 408.775 413.208 408.743L413.781 408.414C413.835 408.382 413.835 408.329 413.781 408.297ZM414.705 407.765L414.227 407.489C414.174 407.457 414.079 407.457 414.026 407.489L413.452 407.818C413.399 407.85 413.399 407.903 413.452 407.935L413.93 408.212C413.983 408.244 414.079 408.244 414.132 408.212L414.705 407.882C414.758 407.85 414.758 407.797 414.705 407.765ZM415.629 407.234L415.151 406.957C415.098 406.925 415.002 406.925 414.949 406.957L414.376 407.287C414.323 407.319 414.323 407.372 414.376 407.404L414.854 407.68C414.907 407.712 415.002 407.712 415.055 407.68L415.629 407.351C415.682 407.319 415.682 407.266 415.629 407.234ZM416.552 406.702L416.075 406.426C416.022 406.394 415.926 406.394 415.873 406.426L415.3 406.755C415.247 406.787 415.247 406.84 415.3 406.872L415.777 407.149C415.83 407.181 415.926 407.181 415.979 407.149L416.552 406.819C416.605 406.787 416.605 406.734 416.552 406.702ZM417.476 406.171L416.998 405.894C416.945 405.862 416.85 405.862 416.796 405.894L416.223 406.224C416.17 406.256 416.17 406.309 416.223 406.341L416.701 406.617C416.754 406.649 416.85 406.649 416.903 406.617L417.476 406.287C417.529 406.256 417.529 406.202 417.476 406.171ZM409.726 411.614L409.248 411.337C409.195 411.305 409.1 411.305 409.047 411.337L408.473 411.667C408.42 411.699 408.42 411.752 408.473 411.784L408.951 412.06C409.004 412.092 409.1 412.092 409.153 412.06L409.726 411.731C409.779 411.699 409.779 411.646 409.726 411.614ZM410.65 411.082L410.172 410.806C410.119 410.774 410.023 410.774 409.97 410.806L409.397 411.135C409.344 411.167 409.344 411.22 409.397 411.252L409.875 411.529C409.928 411.561 410.023 411.561 410.076 411.529L410.65 411.199C410.703 411.167 410.703 411.114 410.65 411.082ZM411.573 410.551L411.096 410.274C411.042 410.242 410.947 410.242 410.894 410.274L410.321 410.604C410.268 410.636 410.268 410.689 410.321 410.721L410.798 410.997C410.851 411.029 410.947 411.029 411 410.997L411.573 410.668C411.626 410.636 411.626 410.582 411.573 410.551ZM412.497 410.019L412.019 409.743C411.966 409.711 411.871 409.711 411.817 409.743L411.244 410.072C411.191 410.104 411.191 410.157 411.244 410.189L411.722 410.466C411.775 410.497 411.871 410.497 411.924 410.466L412.497 410.136C412.55 410.104 412.55 410.051 412.497 410.019ZM411.403 412.581L410.926 412.305C410.873 412.273 410.777 412.273 410.724 412.305L410.151 412.634C410.098 412.666 410.098 412.719 410.151 412.751L410.628 413.028C410.682 413.06 410.777 413.06 410.83 413.028L411.403 412.698C411.457 412.666 411.457 412.613 411.403 412.581ZM412.327 412.05L411.849 411.773C411.796 411.741 411.701 411.741 411.648 411.773L411.074 412.103C411.021 412.135 411.021 412.188 411.074 412.22L411.552 412.496C411.605 412.528 411.701 412.528 411.754 412.496L412.327 412.166C412.38 412.135 412.38 412.081 412.327 412.05ZM413.251 411.518L412.773 411.242C412.72 411.21 412.624 411.21 412.571 411.242L411.998 411.571C411.945 411.603 411.945 411.656 411.998 411.688L412.476 411.965C412.529 411.996 412.624 411.996 412.677 411.965L413.251 411.635C413.304 411.603 413.304 411.55 413.251 411.518ZM414.174 410.986L413.697 410.71C413.643 410.678 413.548 410.678 413.495 410.71L412.922 411.04C412.868 411.071 412.868 411.125 412.922 411.157L413.399 411.433C413.452 411.465 413.548 411.465 413.601 411.433L414.174 411.103C414.227 411.071 414.227 411.018 414.174 410.986ZM419.981 407.627L419.504 407.351C419.451 407.319 419.355 407.319 419.302 407.351L418.431 407.85C418.378 407.882 418.378 407.935 418.431 407.967L418.909 408.244C418.962 408.276 419.058 408.276 419.111 408.244L419.981 407.744C420.034 407.712 420.034 407.659 419.981 407.627ZM413.431 409.487L412.953 409.211C412.9 409.179 412.805 409.179 412.752 409.211L412.178 409.541C412.125 409.573 412.125 409.626 412.178 409.658L412.656 409.934C412.709 409.966 412.805 409.966 412.858 409.934L413.431 409.604C413.484 409.573 413.484 409.519 413.431 409.487ZM414.355 408.956L413.877 408.679C413.824 408.648 413.728 408.648 413.675 408.679L413.102 409.009C413.049 409.041 413.049 409.094 413.102 409.126L413.58 409.402C413.633 409.434 413.728 409.434 413.781 409.402L414.355 409.073C414.408 409.041 414.408 408.988 414.355 408.956ZM415.278 408.424L414.801 408.148C414.748 408.116 414.652 408.116 414.599 408.148L414.026 408.477C413.973 408.509 413.973 408.563 414.026 408.594L414.503 408.871C414.556 408.903 414.652 408.903 414.705 408.871L415.278 408.541C415.331 408.509 415.331 408.456 415.278 408.424ZM416.202 407.893L415.724 407.616C415.671 407.584 415.576 407.584 415.523 407.616L414.949 407.946C414.896 407.978 414.896 408.031 414.949 408.063L415.427 408.339C415.48 408.371 415.576 408.371 415.629 408.339L416.202 408.01C416.255 407.978 416.255 407.925 416.202 407.893ZM417.126 407.361L416.648 407.085C416.595 407.053 416.499 407.053 416.446 407.085L415.873 407.414C415.82 407.446 415.82 407.499 415.873 407.531L416.351 407.808C416.404 407.84 416.499 407.84 416.552 407.808L417.126 407.478C417.179 407.446 417.179 407.393 417.126 407.361ZM418.336 406.66L417.858 406.383C417.805 406.351 417.709 406.351 417.656 406.383L416.786 406.883C416.733 406.915 416.733 406.968 416.786 407L417.264 407.276C417.317 407.308 417.412 407.308 417.465 407.276L418.336 406.777C418.389 406.745 418.389 406.691 418.336 406.66ZM410.915 411.922L410.437 411.646C410.384 411.614 410.289 411.614 410.236 411.646L409.365 412.145C409.312 412.177 409.312 412.23 409.365 412.262L409.843 412.539C409.896 412.57 409.992 412.57 410.045 412.539L410.915 412.039C410.968 412.007 410.968 411.954 410.915 411.922ZM411.839 411.39L411.361 411.114C411.308 411.082 411.212 411.082 411.159 411.114L410.586 411.444C410.533 411.475 410.533 411.529 410.586 411.561L411.064 411.837C411.117 411.869 411.212 411.869 411.265 411.837L411.839 411.507C411.892 411.475 411.892 411.422 411.839 411.39ZM412.762 410.859L412.285 410.582C412.232 410.551 412.136 410.551 412.083 410.582L411.51 410.912C411.457 410.944 411.457 410.997 411.51 411.029L411.987 411.305C412.04 411.337 412.136 411.337 412.189 411.305L412.762 410.976C412.815 410.944 412.815 410.891 412.762 410.859ZM413.686 410.327L413.208 410.051C413.155 410.019 413.06 410.019 413.006 410.051L412.433 410.38C412.38 410.412 412.38 410.466 412.433 410.497L412.911 410.774C412.964 410.806 413.06 410.806 413.113 410.774L413.686 410.444C413.739 410.412 413.739 410.359 413.686 410.327ZM414.61 409.796L414.132 409.519C414.079 409.487 413.983 409.487 413.93 409.519L413.357 409.849C413.304 409.881 413.304 409.934 413.357 409.966L413.835 410.242C413.888 410.274 413.983 410.274 414.036 410.242L414.61 409.913C414.663 409.881 414.663 409.828 414.61 409.796ZM415.533 409.264L415.055 408.988C415.002 408.956 414.907 408.956 414.854 408.988L414.28 409.317C414.227 409.349 414.227 409.402 414.28 409.434L414.758 409.711C414.811 409.743 414.907 409.743 414.96 409.711L415.533 409.381C415.586 409.349 415.586 409.296 415.533 409.264ZM416.457 408.733L415.979 408.456C415.926 408.424 415.83 408.424 415.777 408.456L415.204 408.786C415.151 408.818 415.151 408.871 415.204 408.903L415.682 409.179C415.735 409.211 415.83 409.211 415.884 409.179L416.457 408.85C416.51 408.818 416.51 408.765 416.457 408.733ZM417.38 408.201L416.903 407.925C416.85 407.893 416.754 407.893 416.701 407.925L416.128 408.254C416.075 408.286 416.075 408.339 416.128 408.371L416.605 408.648C416.658 408.679 416.754 408.679 416.807 408.648L417.38 408.318C417.433 408.286 417.433 408.233 417.38 408.201ZM418.304 407.67L417.826 407.393C417.773 407.361 417.678 407.361 417.625 407.393L417.051 407.723C416.998 407.755 416.998 407.808 417.051 407.84L417.529 408.116C417.582 408.148 417.678 408.148 417.731 408.116L418.304 407.786C418.357 407.755 418.357 407.701 418.304 407.67ZM419.228 407.138L418.75 406.862C418.697 406.83 418.601 406.83 418.548 406.862L417.975 407.191C417.922 407.223 417.922 407.276 417.975 407.308L418.453 407.584C418.506 407.616 418.601 407.616 418.654 407.584L419.228 407.255C419.281 407.223 419.281 407.17 419.228 407.138ZM417.635 405.161L417.157 404.884C417.104 404.852 417.009 404.852 416.956 404.884L416.382 405.214C416.329 405.246 416.329 405.299 416.382 405.331L416.86 405.607C416.913 405.639 417.009 405.639 417.062 405.607L417.635 405.278C417.688 405.246 417.688 405.192 417.635 405.161ZM418.559 404.629L418.081 404.353C418.028 404.321 417.932 404.321 417.879 404.353L417.306 404.682C417.253 404.714 417.253 404.767 417.306 404.799L417.784 405.076C417.837 405.107 417.932 405.107 417.985 405.076L418.559 404.746C418.612 404.714 418.612 404.661 418.559 404.629ZM419.482 404.097L419.005 403.821C418.952 403.789 418.856 403.789 418.803 403.821L418.23 404.151C418.177 404.183 418.177 404.236 418.23 404.268L418.707 404.544C418.761 404.576 418.856 404.576 418.909 404.544L419.482 404.214C419.535 404.183 419.535 404.129 419.482 404.097ZM420.321 404.587L419.843 404.31C419.79 404.278 419.695 404.278 419.642 404.31L419.068 404.64C419.015 404.672 419.015 404.725 419.068 404.757L419.546 405.033C419.599 405.065 419.695 405.065 419.748 405.033L420.321 404.703C420.374 404.672 420.374 404.618 420.321 404.587Z" fill="url(#paint21_linear_1_2)"/>
<path d="M404.365 410.529L404.747 410.753C404.747 410.753 404.832 410.753 404.832 410.721C404.832 410.689 404.8 410.614 404.747 410.593L404.365 410.37C404.365 410.37 404.28 410.37 404.28 410.402C404.28 410.434 404.312 410.508 404.365 410.529Z" fill="#BDB7B5"/>
<path d="M405.076 410.944L405.458 411.167C405.458 411.167 405.543 411.167 405.543 411.135C405.543 411.103 405.511 411.029 405.458 411.008L405.076 410.784C405.076 410.784 404.991 410.784 404.991 410.816C404.991 410.848 405.023 410.923 405.076 410.944Z" fill="#BDB7B5"/>
<path d="M407.189 412.135L406.085 411.497V411.401L407.189 412.039V412.135Z" fill="#BDB7B5"/>
<path d="M407.263 381.134C406.987 381.623 406.499 381.953 405.957 382.091C404.928 382.346 403.845 382.261 402.964 381.719C401.732 380.975 400.702 379.55 400.883 377.615C400.904 377.413 401 377.211 401.138 377.073C401.806 376.403 402.592 375.255 403.059 372.959C403.208 372.247 404.036 371.928 404.609 372.385C406.552 373.916 408.07 376.903 408.059 378.189C408.059 378.71 407.805 380.167 407.263 381.134Z" fill="#F2A883"/>
<path d="M414.376 408.988C414.196 408.254 413.898 407.276 413.59 406.681C413.909 406.681 414.164 406.553 413.93 406.192C413.569 405.639 413.017 404.714 412.189 404.119C412.019 403.991 411.658 403.768 411.457 403.694C411.255 403.608 411.032 403.555 410.766 403.555C410.31 403.555 409.928 403.577 409.567 403.47C407.019 401.578 402.518 397.283 401.201 396.124C400.989 395.943 400.872 395.688 400.872 395.401C400.872 393.902 400.978 392.339 401.042 390.777C401.063 390.107 400.363 389.66 399.757 389.947C398.091 390.745 396.413 391.478 394.64 391.691C395.15 394.253 395.691 396.634 395.989 397.889C396.148 398.569 396.509 399.197 397.04 399.643C399.205 401.493 404.736 403.981 407.603 405.618C408.611 406.266 410.087 409.721 410.83 410.253C411.435 410.689 412.879 410.317 413.771 410.03C414.206 409.891 414.472 409.434 414.365 408.988H414.376Z" fill="#FBBD9E"/>
<path d="M393.802 393.743C394.088 395.571 401.233 394.7 401.668 393.264C402.008 390.224 400.607 378.551 396.519 378.902C396.519 378.902 391.318 378.455 393.812 393.743H393.802Z" fill="white"/>
<path d="M418.697 401.482C417.688 400.408 416.945 399.632 416.839 399.558C415.523 399.377 414.546 399.834 413.909 400.897C414.015 401.408 414.312 402.737 414.461 403.236C414.716 404.097 414.864 407.404 415.745 407.638C416.499 407.84 419.96 406.734 419.833 405.363C419.833 405.363 419.928 402.79 418.686 401.472L418.697 401.482Z" fill="#FBBD9E"/>
<path d="M411.35 414.367L414.44 405.682L414.344 405.586L411.255 414.271C411.212 414.378 411.223 414.452 411.255 414.495L411.35 414.59C411.35 414.59 411.308 414.473 411.35 414.367Z" fill="#E6E1E0"/>
<path d="M427.901 397.527C427.848 397.474 427.721 397.485 427.561 397.581L415.013 404.842C414.737 405.001 414.429 405.341 414.344 405.596L414.44 405.692C414.535 405.437 414.832 405.097 415.109 404.937L427.657 397.676C427.816 397.581 427.944 397.57 427.997 397.623L427.901 397.527Z" fill="url(#paint22_linear_1_2)"/>
<path d="M427.657 397.676L415.109 404.937C414.833 405.097 414.525 405.437 414.44 405.692L411.35 414.378C411.255 414.633 411.414 414.697 411.701 414.537L424.249 407.276C424.525 407.117 424.833 406.777 424.918 406.521L428.007 397.836C428.103 397.581 427.944 397.517 427.657 397.676Z" fill="#E9E6E6"/>
<path d="M421.032 405.692C421.032 406.117 420.576 406.766 420.003 407.127C419.44 407.489 418.973 407.436 418.973 407.01C418.973 406.585 419.429 405.937 420.003 405.575C420.565 405.214 421.032 405.267 421.032 405.692Z" fill="#96B5DA"/>
<path d="M410.299 369.578C409.355 367.984 408.091 367.239 406.244 367.154C405.745 367.133 404.928 367.569 404.46 367.739C402.709 368.366 402.39 371.269 402.316 372.916C402.231 374.99 402.316 377.243 403.654 378.859C406.265 381.985 409.238 382.368 409.588 380.379C409.62 380.199 409.631 379.986 409.79 379.901C409.843 379.869 409.917 379.869 409.981 379.848C410.268 379.763 410.352 379.391 410.352 379.093C410.352 378.827 410.342 378.562 410.299 378.296C410.268 378.094 410.225 377.881 410.246 377.679C410.299 377.222 410.671 376.892 410.915 376.499C411.499 375.574 411.425 374.118 411.34 373.076C411.244 371.853 410.904 370.641 410.289 369.589L410.299 369.578Z" fill="#FBBD9E"/>
<path d="M410.66 368.59C408.813 366.538 406.17 366.357 404.365 367.441C399.747 368.536 399.789 373.884 402.56 377.35C402.273 376.435 403.484 375.925 403.664 376.223C404.163 377.063 404.269 377.732 404.768 377.764C405.172 377.796 404.906 377.031 406.063 376.542C406.265 376.457 409.662 376.446 411.212 375.128C411.329 375.021 411.414 374.894 411.467 374.745C411.733 373.99 412.932 371.099 410.66 368.6V368.59Z" fill="#3F52B0"/>
<path d="M403.314 375.702C402.539 374.809 401.148 375.946 403.356 378.434C403.579 378.689 403.866 378.934 404.163 378.764C404.8 378.381 403.77 376.223 403.314 375.702Z" fill="#FBBD9E"/>
<path d="M165.6 144.384C165.847 144.314 165.831 144.315 165.855 144.049C165.914 143.416 165.981 142.79 166.048 142.164C166.096 141.687 166.168 141.21 166.208 140.733C166.253 140.155 166.585 139.779 167.059 139.499C167.189 139.425 167.311 139.352 167.433 139.278C167.487 139.245 167.541 139.22 167.595 139.211C167.842 139.157 167.929 139.217 167.906 139.467C167.872 139.928 167.824 140.389 167.767 140.851C167.66 141.696 167.537 142.534 167.422 143.379C167.293 144.295 167.172 145.218 167.052 146.134C167.02 146.4 166.871 146.599 166.697 146.776C166.418 147.057 166.081 147.246 165.72 147.397C165.581 147.456 165.471 147.405 165.343 147.292C164.999 146.974 164.831 146.535 164.579 146.16C164.318 145.763 164.088 145.348 163.843 144.942C163.794 144.866 163.722 144.813 163.666 144.745C163.643 144.746 163.627 144.746 163.604 144.747C163.576 144.865 163.525 144.975 163.513 145.092C163.41 146.086 163.307 147.087 163.204 148.087C163.193 148.228 163.189 148.369 163.162 148.51C163.089 148.925 162.825 149.206 162.505 149.426C162.299 149.572 162.061 149.68 161.83 149.773C161.646 149.849 161.473 149.776 161.351 149.623C161.255 149.501 161.157 149.372 161.076 149.242C160.588 148.515 160.107 147.789 159.627 147.063C159.35 146.642 159.066 146.222 158.796 145.793C158.674 145.594 158.551 145.395 158.467 145.171C158.433 145.086 158.491 144.944 158.551 144.865C158.656 144.729 158.793 144.616 158.938 144.518C159.159 144.371 159.397 144.255 159.634 144.131C159.78 144.057 159.929 144.091 160.025 144.197C160.21 144.403 160.388 144.616 160.542 144.845C160.819 145.258 161.08 145.694 161.342 146.115C161.456 146.299 161.547 146.484 161.669 146.659C161.709 146.713 161.811 146.733 161.889 146.739C161.904 146.738 161.948 146.635 161.954 146.581C162.002 146.073 162.041 145.557 162.088 145.049C162.128 144.556 162.176 144.072 162.224 143.587C162.241 143.376 162.266 143.165 162.283 142.954C162.313 142.641 162.461 142.372 162.72 142.192C163.002 141.997 163.3 141.817 163.614 141.667C163.814 141.568 163.94 141.626 164.07 141.825C164.282 142.146 164.486 142.475 164.682 142.805C164.985 143.318 165.273 143.832 165.576 144.353L165.6 144.384Z" fill="#4A5FCD"/>
<path d="M195.724 126.118C195.747 126.897 195.604 127.595 195.235 128.261C194.769 129.101 194.136 129.775 193.35 130.297C192.511 130.852 191.663 131.376 190.815 131.915C190.716 131.973 190.617 132.038 190.517 132.088C190.28 132.219 190.093 132.209 189.931 131.996C189.85 131.889 189.83 131.726 189.802 131.586C189.59 130.447 189.385 129.299 189.18 128.159C189.087 127.647 189.026 127.134 188.917 126.631C188.835 126.22 189.03 125.949 189.32 125.761C190.052 125.272 190.801 124.806 191.55 124.355C192.008 124.084 192.491 123.836 192.982 123.611C193.405 123.419 193.862 123.359 194.309 123.478C194.904 123.64 195.252 124.09 195.44 124.653C195.61 125.139 195.71 125.643 195.709 126.126L195.724 126.118ZM194.103 126.813C194.103 126.813 194.134 126.812 194.15 126.804C194.053 126.44 193.973 126.076 193.846 125.721C193.676 125.259 193.335 125.035 192.948 125.101C192.84 125.12 192.724 125.154 192.617 125.196C192.055 125.408 191.56 125.758 191.056 126.077C190.75 126.273 190.672 126.501 190.744 126.842C190.852 127.346 190.921 127.85 191.006 128.355C191.09 128.82 191.174 129.293 191.265 129.758C191.319 130.014 191.462 130.087 191.66 129.957C192.148 129.638 192.645 129.335 193.109 128.986C193.833 128.45 194.169 127.716 194.095 126.806L194.103 126.813Z" fill="#4A5FCD"/>
<path d="M203.194 119.1C203.279 119.066 203.348 119.04 203.425 119.007C203.425 119.015 203.426 119.03 203.434 119.038C203.508 118.927 203.591 118.823 203.665 118.704C203.947 118.228 204.397 117.941 204.865 117.702C205.179 117.544 205.521 117.55 205.837 117.72C205.972 117.794 206.126 117.742 206.192 117.608C206.545 116.927 207.01 116.336 207.675 115.927C208.026 115.706 208.396 115.586 208.804 115.714C209.181 115.836 209.399 116.094 209.527 116.473C209.835 117.422 209.918 118.418 210.11 119.387C210.165 119.681 210.055 119.887 209.842 120.057C209.636 120.211 209.415 120.358 209.186 120.49C208.849 120.687 208.683 120.598 208.618 120.218C208.497 119.551 208.392 118.884 208.264 118.225C208.218 117.985 208.141 117.753 208.048 117.522C207.932 117.252 207.72 117.189 207.459 117.321C207.13 117.494 206.929 117.797 206.743 118.106C206.558 118.408 206.575 118.727 206.639 119.053C206.778 119.812 206.894 120.573 207.04 121.325C207.087 121.589 206.992 121.794 206.802 121.94C206.55 122.127 206.275 122.291 206 122.439C205.778 122.563 205.635 122.473 205.581 122.218C205.49 121.792 205.423 121.357 205.341 120.931C205.267 120.527 205.192 120.124 205.103 119.729C205.058 119.528 204.998 119.319 204.777 119.217C204.674 119.165 204.596 119.152 204.488 119.194C203.973 119.381 203.407 120.232 203.541 120.836C203.702 121.54 203.801 122.255 203.922 122.961C203.941 123.069 203.937 123.178 203.963 123.287C204.026 123.566 203.876 123.757 203.686 123.903C203.45 124.081 203.197 124.229 202.937 124.369C202.73 124.477 202.596 124.419 202.52 124.21C202.478 124.087 202.458 123.947 202.431 123.815C202.225 122.636 202.027 121.449 201.805 120.271C201.741 119.945 201.828 119.709 202.071 119.53C202.315 119.352 202.575 119.188 202.843 119.055C203.027 118.964 203.082 118.994 203.195 119.115L203.194 119.1Z" fill="#4A5FCD"/>
<path d="M181.132 137.494C180.565 137.519 180.095 137.12 180.027 136.669C180.007 136.522 180.056 136.341 180.13 136.206C180.292 135.913 180.567 135.741 180.859 135.592C181.05 135.493 181.252 135.487 181.451 135.622C181.84 135.891 182.235 135.84 182.609 135.603C182.999 135.358 183.38 135.097 183.745 134.821C183.981 134.643 184.137 134.389 184.135 134.077C184.13 133.882 184.101 133.696 183.904 133.608C183.825 133.571 183.715 133.551 183.646 133.584C183.309 133.743 182.987 133.916 182.658 134.089C182.528 134.155 182.406 134.237 182.267 134.296C182.068 134.387 181.854 134.277 181.794 134.068C181.665 133.643 181.832 133.256 182.206 133.019C182.58 132.774 182.93 132.506 183.272 132.223C183.469 132.062 183.579 131.825 183.587 131.567C183.592 131.2 183.305 130.983 182.967 131.118C182.352 131.354 181.81 131.705 181.421 132.247C181.272 132.462 181.171 132.714 181.061 132.959C180.871 133.37 180.552 133.645 180.154 133.836C180.054 133.878 179.975 133.864 179.849 133.79C179.611 133.649 179.598 133.47 179.616 133.267C179.633 133.064 179.673 132.852 179.746 132.663C180.122 131.708 180.81 131.017 181.641 130.455C182.167 130.096 182.709 129.761 183.301 129.517C183.624 129.383 183.957 129.326 184.293 129.371C184.761 129.435 185.092 129.831 185.202 130.405C185.285 130.846 185.219 131.262 185.052 131.664C184.98 131.838 184.999 131.97 185.15 132.067C185.705 132.432 185.806 132.967 185.777 133.576C185.741 134.458 185.238 135.081 184.648 135.644C184.103 136.151 183.461 136.521 182.826 136.906C182.352 137.193 181.861 137.403 181.311 137.473C181.248 137.475 181.194 137.485 181.132 137.494Z" fill="#4A5FCD"/>
<path d="M175.596 135.966C175.862 135.755 176.112 135.529 176.379 135.358C176.7 135.154 177.029 134.965 177.374 134.806C177.674 134.665 178.007 134.639 178.321 134.731C178.525 134.788 178.708 134.938 178.876 135.082C179.179 135.345 179.292 135.724 179.381 136.104C179.549 136.816 179.476 137.512 179.256 138.204C179.22 138.33 179.115 138.435 179.048 138.546C179.003 138.617 178.975 138.704 178.93 138.775C178.567 139.378 178.091 139.86 177.511 140.252C176.901 140.659 176.257 140.99 175.556 141.221C175.441 141.256 175.324 141.275 175.208 141.294C175.015 141.323 174.801 141.181 174.764 140.988C174.626 140.267 174.496 139.538 174.358 138.817C174.237 138.15 174.108 137.475 173.987 136.808C173.923 136.467 173.874 136.118 173.809 135.777C173.764 135.552 173.852 135.37 174.019 135.248C174.293 135.045 174.584 134.865 174.882 134.7C175.081 134.593 175.239 134.674 175.285 134.899C175.338 135.131 175.369 135.372 175.414 135.605C175.433 135.721 175.422 135.854 175.571 135.904C175.587 135.904 175.588 135.958 175.589 135.974L175.596 135.966ZM177.932 137.628C177.919 137.191 177.888 136.927 177.692 136.613C177.439 136.208 177.265 136.096 176.873 136.279C176.482 136.454 176.147 136.706 175.892 137.041C175.817 137.144 175.752 137.294 175.771 137.411C175.868 138.063 175.988 138.714 176.108 139.357C176.155 139.621 176.297 139.687 176.55 139.571C176.681 139.512 176.81 139.43 176.941 139.364C177.614 138.993 177.979 138.445 177.924 137.628L177.932 137.628Z" fill="#4A5FCD"/>
<path d="M215.728 116.025C215.781 116.226 215.67 116.424 215.457 116.579C215.297 116.7 215.137 116.83 214.953 116.913C214.83 116.971 214.667 116.976 214.527 116.973C214.348 116.962 214.233 117.012 214.16 117.178C214.145 117.21 214.115 117.242 214.092 117.266C213.619 117.834 213.056 118.271 212.372 118.564C212.034 118.707 211.679 118.803 211.326 118.673C210.877 118.507 210.638 118.038 210.685 117.515C210.732 117.007 210.921 116.564 211.252 116.165C211.672 115.654 212.174 115.265 212.732 114.928C213 114.765 213.267 114.593 213.526 114.422C213.77 114.259 213.759 114.126 213.588 113.89C213.426 113.668 213.256 113.697 213.064 113.773C212.71 113.916 212.406 114.135 212.181 114.446C212.099 114.557 212.057 114.707 211.967 114.818C211.862 114.954 211.733 115.083 211.596 115.18C211.383 115.327 211.153 115.451 210.923 115.574C210.816 115.632 210.738 115.611 210.695 115.472C210.575 115.101 210.674 114.771 210.86 114.461C211.193 113.89 211.694 113.493 212.22 113.119C212.654 112.802 213.105 112.532 213.621 112.361C214.391 112.096 215.062 112.427 215.234 113.225C215.396 113.977 215.511 114.737 215.65 115.497C215.678 115.645 215.698 115.8 215.728 116.025ZM212.186 116.987C212.167 117.144 212.477 117.368 212.745 117.228C213.152 117.021 213.493 116.738 213.763 116.379C213.89 116.212 213.985 116.014 214.042 115.818C214.07 115.708 213.995 115.562 213.945 115.438C213.937 115.415 213.805 115.419 213.751 115.452C213.331 115.722 212.911 115.976 212.515 116.276C212.333 116.421 212.184 116.636 212.178 116.98L212.186 116.987Z" fill="#4A5FCD"/>
<path d="M168.701 142.445C168.669 141.355 168.986 140.503 169.618 139.783C170.25 139.063 171.004 138.51 171.962 138.287C172.642 138.135 173.276 138.521 173.512 139.161C173.613 139.423 173.66 139.703 173.708 139.982C173.726 140.075 173.667 140.194 173.607 140.273C173.398 140.568 173.068 140.71 172.778 140.898C172.411 141.127 172.052 141.356 171.686 141.585C171.334 141.806 170.975 142.035 170.624 142.264C170.472 142.362 170.425 142.612 170.569 142.756C170.897 143.059 171.037 143.078 171.466 142.847C171.895 142.624 172.188 142.256 172.456 141.874C172.688 141.54 172.975 141.251 173.368 141.146C173.716 141.05 173.773 141.157 173.774 141.446C173.768 141.781 173.637 142.081 173.435 142.352C172.754 143.277 171.83 143.865 170.801 144.301C170.11 144.594 169.392 144.249 169.048 143.682C168.795 143.261 168.711 142.803 168.701 142.445ZM171.504 139.626C171.38 139.669 171.249 139.696 171.134 139.746C170.842 139.887 170.624 140.12 170.413 140.375C170.211 140.623 170.18 140.912 170.173 141.209C170.177 141.349 170.241 141.41 170.333 141.352C170.425 141.303 170.517 141.253 170.601 141.196C170.998 140.951 171.395 140.705 171.785 140.452C171.991 140.321 172.049 140.195 171.99 140.025C171.93 139.847 171.667 139.645 171.496 139.634L171.504 139.626Z" fill="#4A5FCD"/>
<path d="M196.23 125.355C196.196 124.194 196.568 123.341 197.231 122.62C197.872 121.931 198.635 121.433 199.553 121.164C200.324 120.939 200.937 121.404 201.155 121.943C201.7 123.291 201.441 124.515 200.579 125.648C200.167 126.19 199.618 126.557 199.037 126.886C198.647 127.108 198.248 127.307 197.781 127.313C197.23 127.329 196.833 127.06 196.57 126.6C196.324 126.171 196.248 125.69 196.23 125.355ZM199.939 123.967C199.937 123.647 199.849 123.299 199.73 122.952C199.628 122.674 199.225 122.437 198.94 122.554C198.464 122.748 198.076 123.047 197.872 123.513C197.61 124.114 197.674 124.735 197.894 125.329C197.953 125.491 198.074 125.636 198.187 125.773C198.292 125.902 198.442 125.96 198.612 125.916C199.129 125.784 199.501 125.469 199.76 125.017C199.937 124.708 199.95 124.364 199.939 123.967Z" fill="#4A5FCD"/>
<path d="M220.262 110.192C220.374 110.82 220.469 111.418 220.572 112.015C220.619 112.287 220.658 112.55 220.713 112.822C220.767 113.07 220.711 113.274 220.513 113.428C220.247 113.638 219.989 113.857 219.657 113.952C219.48 114.004 219.29 113.916 219.254 113.738C219.163 113.281 219.087 112.815 219.003 112.358C218.864 111.598 218.733 110.838 218.594 110.07C218.567 109.938 218.547 109.798 218.535 109.666C218.505 109.41 218.679 109.264 218.838 109.119C219.142 108.853 219.494 108.671 219.888 108.589C219.927 108.588 219.975 108.634 220.015 108.671C220.071 108.717 220.104 108.794 220.179 108.698C220.465 108.354 220.734 108.003 221.044 107.682C221.338 107.377 221.722 107.194 222.131 107.073C222.817 106.866 223.407 107.379 223.524 107.89C223.73 108.835 223.891 109.797 224.067 110.75C224.131 111.084 223.99 111.322 223.707 111.478C223.47 111.61 223.249 111.765 223.003 111.873C222.788 111.965 222.652 111.852 222.607 111.628C222.467 110.844 222.327 110.061 222.188 109.278C222.16 109.146 222.125 109.015 222.09 108.883C222.09 108.875 222.09 108.86 222.09 108.852C222.048 108.767 221.709 108.598 221.616 108.632C221.439 108.7 221.255 108.767 221.11 108.881C220.821 109.108 220.573 109.388 220.412 109.736C220.339 109.894 220.305 110.058 220.255 110.208L220.262 110.192Z" fill="#4A5FCD"/>
<path d="M218.216 114.4C218.24 114.688 218.145 114.909 217.924 115.056C217.657 115.227 217.39 115.391 217.122 115.547C216.992 115.621 216.809 115.494 216.764 115.277C216.673 114.836 216.598 114.386 216.522 113.943C216.384 113.191 216.253 112.439 216.122 111.694C216.01 111.051 216.011 111.097 216.527 110.661C216.656 110.556 216.809 110.473 216.955 110.391C217.108 110.301 217.277 110.257 217.444 110.361C217.499 110.391 217.541 110.475 217.55 110.545C217.68 111.259 217.81 111.972 217.94 112.685C218.032 113.182 218.117 113.686 218.202 114.182C218.212 114.26 218.222 114.345 218.232 114.4L218.216 114.4Z" fill="#4A5FCD"/>
</g>
<defs>
<linearGradient id="paint0_linear_1_2" x1="478.063" y1="328.617" x2="523.447" y2="328.617" gradientUnits="userSpaceOnUse">
<stop stop-color="#8DB2DC"/>
<stop offset="1" stop-color="#82A2CB"/>
</linearGradient>
<linearGradient id="paint1_linear_1_2" x1="502.883" y1="308.651" x2="544" y2="308.651" gradientUnits="userSpaceOnUse">
<stop stop-color="#CBE3FF"/>
<stop offset="1" stop-color="#E4FFD9"/>
</linearGradient>
<linearGradient id="paint2_linear_1_2" x1="518.118" y1="317.465" x2="508.181" y2="334.664" gradientUnits="userSpaceOnUse">
<stop stop-color="#8DB2DC"/>
<stop offset="1" stop-color="#82A2CB"/>
</linearGradient>
<linearGradient id="paint3_linear_1_2" x1="528.766" y1="317.465" x2="538.702" y2="334.664" gradientUnits="userSpaceOnUse">
<stop stop-color="#BBDAFF"/>
<stop offset="1" stop-color="#ABC8EB"/>
</linearGradient>
<linearGradient id="paint4_linear_1_2" x1="505.877" y1="307.004" x2="518.309" y2="307.004" gradientUnits="userSpaceOnUse">
<stop stop-color="#CBE3FF"/>
<stop offset="1" stop-color="#E4FFD9"/>
</linearGradient>
<radialGradient id="paint5_radial_1_2" cx="0" cy="0" r="1" gradientUnits="userSpaceOnUse" gradientTransform="translate(367.367 142.455) scale(111.651 111.807)">
<stop stop-color="#4E65DB"/>
<stop offset="1" stop-color="#3D4FA9"/>
</radialGradient>
<linearGradient id="paint6_linear_1_2" x1="82.9165" y1="348.965" x2="116.649" y2="198.087" gradientUnits="userSpaceOnUse">
<stop stop-color="#C4B6B6"/>
<stop offset="0.59" stop-color="#DCCECE"/>
<stop offset="1" stop-color="#E9DBDA"/>
</linearGradient>
<linearGradient id="paint7_linear_1_2" x1="174.651" y1="438.308" x2="202.976" y2="439.994" gradientUnits="userSpaceOnUse">
<stop stop-color="#998C8C"/>
<stop offset="1" stop-color="#B0A2A2"/>
</linearGradient>
<radialGradient id="paint8_radial_1_2" cx="0" cy="0" r="1" gradientUnits="userSpaceOnUse" gradientTransform="translate(308.67 410.359) scale(25.7231 25.7591)">
<stop stop-color="#FFFCFC"/>
<stop offset="0.26" stop-color="#FCF8F8"/>
<stop offset="0.46" stop-color="#F3EFEF"/>
<stop offset="0.64" stop-color="#E5DEDE"/>
<stop offset="0.81" stop-color="#D0C7C7"/>
<stop offset="0.97" stop-color="#B6A9A9"/>
<stop offset="1" stop-color="#B0A2A2"/>
</radialGradient>
<radialGradient id="paint9_radial_1_2" cx="0" cy="0" r="1" gradientUnits="userSpaceOnUse" gradientTransform="translate(300.878 400.366) scale(24.4704 24.5047)">
<stop stop-color="#FFFCFC"/>
<stop offset="0.18" stop-color="#FAF6F6"/>
<stop offset="0.42" stop-color="#ECE6E6"/>
<stop offset="0.67" stop-color="#D5CDCD"/>
<stop offset="0.95" stop-color="#B6A9A9"/>
<stop offset="1" stop-color="#B0A2A2"/>
</radialGradient>
<linearGradient id="paint10_linear_1_2" x1="305.677" y1="406.489" x2="278.068" y2="421.012" gradientUnits="userSpaceOnUse">
<stop stop-color="#FFFCFC"/>
<stop offset="0.18" stop-color="#FAF6F6"/>
<stop offset="0.42" stop-color="#ECE6E6"/>
<stop offset="0.67" stop-color="#D5CDCD"/>
<stop offset="0.95" stop-color="#B6A9A9"/>
<stop offset="1" stop-color="#B0A2A2"/>
</linearGradient>
<linearGradient id="paint11_linear_1_2" x1="254.188" y1="332.529" x2="288.67" y2="371.455" gradientUnits="userSpaceOnUse">
<stop stop-color="#F6E9E9"/>
<stop offset="1" stop-color="#FFFCFC"/>
</linearGradient>
<radialGradient id="paint12_radial_1_2" cx="0" cy="0" r="1" gradientUnits="userSpaceOnUse" gradientTransform="translate(243.784 325.364) scale(120.027 120.195)">
<stop stop-color="#FFFCFC"/>
<stop offset="0.18" stop-color="#FAF6F6"/>
<stop offset="0.42" stop-color="#ECE6E6"/>
<stop offset="0.67" stop-color="#D5CDCD"/>
<stop offset="0.95" stop-color="#B6A9A9"/>
<stop offset="1" stop-color="#B0A2A2"/>
</radialGradient>
<linearGradient id="paint13_linear_1_2" x1="155.16" y1="379.965" x2="211.33" y2="379.965" gradientUnits="userSpaceOnUse">
<stop stop-color="#F6E9E9"/>
<stop offset="1" stop-color="#FFFCFC"/>
</linearGradient>
<linearGradient id="paint14_linear_1_2" x1="178.218" y1="416.27" x2="109.744" y2="432.546" gradientUnits="userSpaceOnUse">
<stop stop-color="#FFFCFC"/>
<stop offset="0.18" stop-color="#FAF6F6"/>
<stop offset="0.42" stop-color="#ECE6E6"/>
<stop offset="0.67" stop-color="#D5CDCD"/>
<stop offset="0.95" stop-color="#B6A9A9"/>
<stop offset="1" stop-color="#B0A2A2"/>
</linearGradient>
<linearGradient id="paint15_linear_1_2" x1="190.024" y1="319.888" x2="212.604" y2="319.888" gradientUnits="userSpaceOnUse">
<stop stop-color="#F6E9E9"/>
<stop offset="1" stop-color="#FFFCFC"/>
</linearGradient>
<radialGradient id="paint16_radial_1_2" cx="0" cy="0" r="1" gradientUnits="userSpaceOnUse" gradientTransform="translate(191.69 310.235) scale(39.6834 39.7391)">
<stop stop-color="#FFFCFC"/>
<stop offset="0.18" stop-color="#FAF6F6"/>
<stop offset="0.42" stop-color="#ECE6E6"/>
<stop offset="0.67" stop-color="#D5CDCD"/>
<stop offset="0.95" stop-color="#B6A9A9"/>
<stop offset="1" stop-color="#B0A2A2"/>
</radialGradient>
<radialGradient id="paint17_radial_1_2" cx="0" cy="0" r="1" gradientUnits="userSpaceOnUse" gradientTransform="translate(207.477 330.349) scale(60.884 60.9694)">
<stop stop-color="#FFFCFC"/>
<stop offset="0.26" stop-color="#FCF8F8"/>
<stop offset="0.46" stop-color="#F3EFEF"/>
<stop offset="0.64" stop-color="#E5DFDF"/>
<stop offset="0.8" stop-color="#D1C8C8"/>
<stop offset="0.96" stop-color="#B7AAAA"/>
<stop offset="1" stop-color="#B0A2A2"/>
</radialGradient>
<linearGradient id="paint18_linear_1_2" x1="384.162" y1="415.441" x2="426.372" y2="415.441" gradientUnits="userSpaceOnUse">
<stop stop-color="#8DB2DC"/>
<stop offset="1" stop-color="#82A2CB"/>
</linearGradient>
<linearGradient id="paint19_linear_1_2" x1="418.697" y1="412.485" x2="428.623" y2="412.485" gradientUnits="userSpaceOnUse">
<stop stop-color="#CBE3FF"/>
<stop offset="1" stop-color="#E4FFD9"/>
</linearGradient>
<linearGradient id="paint20_linear_1_2" x1="403.823" y1="421.756" x2="410.363" y2="421.756" gradientUnits="userSpaceOnUse">
<stop stop-color="#CBE3FF"/>
<stop offset="1" stop-color="#E4FFD9"/>
</linearGradient>
<linearGradient id="paint21_linear_1_2" x1="406.669" y1="408.414" x2="422.699" y2="408.414" gradientUnits="userSpaceOnUse">
<stop stop-color="#CBE3FF"/>
<stop offset="1" stop-color="#E4FFD9"/>
</linearGradient>
<linearGradient id="paint22_linear_1_2" x1="414.344" y1="401.589" x2="427.997" y2="401.589" gradientUnits="userSpaceOnUse">
<stop stop-color="#CBE3FF"/>
<stop offset="1" stop-color="#E4FFD9"/>
</linearGradient>
<clipPath id="clip0_1_2">
<rect width="491" height="456" fill="white" transform="translate(53 45)"/>
</clipPath>
</defs>
</svg>
