<svg width="676" height="490" viewBox="0 0 676 490" fill="none" xmlns="http://www.w3.org/2000/svg">
<rect width="676" height="400" rx="20" fill="#F5F9FF"/>
<g clip-path="url(#clip0_1_171)">
<g opacity="0.5">
<path d="M556.21 168.82L542.38 253.25" stroke="#BFCBDD" stroke-linecap="round" stroke-linejoin="round"/>
<path d="M527.13 263.65L374.81 285.18L506.8 384.02L467.11 457.31" stroke="#BFCBDD" stroke-linecap="round" stroke-linejoin="round"/>
<path d="M165.34 429.23L251.04 422.6" stroke="#BFCBDD" stroke-linecap="round" stroke-linejoin="round"/>
<path d="M154.1 418.8L176.28 281.74L295.89 283.64" stroke="#BFCBDD" stroke-linecap="round" stroke-linejoin="round"/>
<path d="M209.15 85.39H309.26L357.04 239.78" stroke="#BFCBDD" stroke-linecap="round" stroke-linejoin="round"/>
<path d="M198.39 94.99V171.11L300.25 254.64" stroke="#BFCBDD" stroke-linecap="round" stroke-linejoin="round"/>
<path d="M388.49 391.31L450.05 459.3" stroke="#BFCBDD" stroke-linecap="round" stroke-linejoin="round"/>
<path d="M366.76 385.18L202.38 316.48" stroke="#BFCBDD" stroke-linecap="round" stroke-linejoin="round"/>
<path d="M321.84 320.64L249.3 402.44" stroke="#BFCBDD" stroke-linecap="round" stroke-linejoin="round"/>
<path d="M377.11 374.28L367.94 320.58" stroke="#BFCBDD" stroke-linecap="round" stroke-linejoin="round"/>
<path d="M404.23 71.64L464.21 146.82L373.61 243.38" stroke="#BFCBDD" stroke-linecap="round" stroke-linejoin="round"/>
<path d="M309.26 84.09L385.23 70.42" stroke="#BFCBDD" stroke-linecap="round" stroke-linejoin="round"/>
<path d="M544.47 158.79H483.33" stroke="#BFCBDD" stroke-linecap="round" stroke-linejoin="round"/>
<path d="M377.11 395.04L356.55 471.28" stroke="#BFCBDD" stroke-linecap="round" stroke-linejoin="round"/>
<path d="M506.8 364.56L459.83 164.99" stroke="#BFCBDD" stroke-linecap="round" stroke-linejoin="round"/>
</g>
<path d="M384.04 440.67V484.44C384.04 487.4 381.64 489.8 378.68 489.8H334.91C331.95 489.8 329.54 487.4 329.54 484.44V440.67C329.54 439.99 329.67 439.34 329.9 438.74C330.67 436.73 332.63 435.31 334.91 435.31H378.68C381.64 435.31 384.04 437.72 384.04 440.68V440.67Z" fill="#CCD3FF"/>
<path d="M382.68 440.67V484.44C382.68 487.4 380.28 489.8 377.32 489.8H333.55C330.59 489.8 328.18 487.4 328.18 484.44V440.65C328.2 437.7 330.59 435.31 333.55 435.31H377.32C380.28 435.31 382.68 437.72 382.68 440.68V440.67Z" fill="url(#paint0_linear_1_171)"/>
<path d="M384.04 440.67V484.44C384.04 487.4 381.64 489.8 378.68 489.8H334.91C331.95 489.8 329.54 487.4 329.54 484.44V440.67C329.54 439.99 329.67 439.34 329.9 438.74C330.67 436.73 332.63 435.31 334.91 435.31H378.68C381.64 435.31 384.04 437.72 384.04 440.68V440.67Z" fill="#00E5AB"/>
<path d="M377.47 442.04H336.13V475.11H377.47V442.04Z" fill="white"/>
<path d="M377.59 442.04H376.09V475.11H377.59V442.04Z" fill="#EDF0FF"/>
<path d="M356.59 468.75C361.754 468.75 365.94 464.564 365.94 459.4C365.94 454.236 361.754 450.05 356.59 450.05C351.426 450.05 347.24 454.236 347.24 459.4C347.24 464.564 351.426 468.75 356.59 468.75Z" stroke="#00E5AB" stroke-width="4" stroke-linecap="round" stroke-linejoin="round"/>
<path style="mix-blend-mode:overlay" opacity="0.5" d="M384.04 440.67V484.44C384.04 487.4 381.64 489.8 378.68 489.8H375.59C374.8 487.09 374.32 484.22 372.79 481.89C370.38 478.22 366.11 476.73 361.91 475.11C360.34 474.5 358.78 473.88 357.33 473.12C352.42 470.55 348.54 466.07 346.69 460.85C344.85 455.64 344.98 449.86 342.92 444.74C342.54 443.82 342.06 442.9 341.49 442.04C339.61 439.24 336.75 437.11 333.48 437.34C332.17 437.43 330.94 437.96 329.92 438.75C329.24 439.28 328.65 439.93 328.19 440.66C328.21 437.71 330.6 435.32 333.56 435.32H378.69C381.65 435.32 384.05 437.73 384.05 440.69L384.04 440.67Z" fill="url(#paint1_linear_1_171)"/>
<path d="M361.31 479.29H336.13V481.11H361.31V479.29Z" fill="#F9F9F9"/>
<path d="M355.67 483.33H336.13V485.15H355.67V483.33Z" fill="#F9F9F9"/>
<path d="M330.02 68.11V100.08C330.02 102.24 328.27 103.99 326.11 103.99H294.14C291.98 103.99 290.22 102.24 290.22 100.08V68.11C290.22 67.61 290.31 67.14 290.48 66.7C291.05 65.23 292.47 64.19 294.14 64.19H326.11C328.27 64.19 330.02 65.95 330.02 68.11Z" fill="#CCD3FF"/>
<path d="M329.02 68.11V100.08C329.02 102.24 327.27 103.99 325.11 103.99H293.14C290.98 103.99 289.22 102.24 289.22 100.08V68.1C289.23 65.94 290.98 64.2 293.14 64.2H325.11C327.27 64.2 329.02 65.96 329.02 68.12V68.11Z" fill="url(#paint2_linear_1_171)"/>
<path d="M330.02 68.11V100.08C330.02 102.24 328.27 103.99 326.11 103.99H294.14C291.98 103.99 290.22 102.24 290.22 100.08V68.11C290.22 67.61 290.31 67.14 290.48 66.7C291.05 65.23 292.47 64.19 294.14 64.19H326.11C328.27 64.19 330.02 65.95 330.02 68.11Z" fill="#00E5AB"/>
<path d="M325.21 69.11H295.02V93.26H325.21V69.11Z" fill="white"/>
<path d="M325.31 69.11H324.21V93.26H325.31V69.11Z" fill="#EDF0FF"/>
<path d="M309.96 88.62C313.732 88.62 316.79 85.5621 316.79 81.79C316.79 78.0179 313.732 74.96 309.96 74.96C306.188 74.96 303.13 78.0179 303.13 81.79C303.13 85.5621 306.188 88.62 309.96 88.62Z" stroke="#00E5AB" stroke-width="2.92" stroke-linecap="round" stroke-linejoin="round"/>
<path style="mix-blend-mode:overlay" opacity="0.5" d="M330.02 68.11V100.08C330.02 102.24 328.27 103.99 326.11 103.99H323.85C323.27 102.01 322.92 99.92 321.8 98.21C320.04 95.53 316.92 94.44 313.85 93.26C312.7 92.82 311.56 92.36 310.5 91.81C306.92 89.93 304.08 86.66 302.73 82.85C301.39 79.05 301.48 74.82 299.97 71.08C299.7 70.4 299.34 69.74 298.93 69.11C297.56 67.07 295.47 65.51 293.08 65.67C292.12 65.74 291.22 66.12 290.48 66.7C289.99 67.08 289.55 67.56 289.22 68.09C289.23 65.93 290.98 64.19 293.14 64.19H326.11C328.27 64.19 330.02 65.95 330.02 68.11Z" fill="url(#paint3_linear_1_171)"/>
<path d="M313.41 96.31H295.02V97.64H313.41V96.31Z" fill="#F9F9F9"/>
<path d="M309.29 99.27H295.02V100.6H309.29V99.27Z" fill="#F9F9F9"/>
<path d="M537.68 361.9V410.29C537.68 413.56 535.03 416.22 531.75 416.22H483.36C480.09 416.22 477.43 413.57 477.43 410.29V361.9C477.43 361.14 477.57 360.43 477.83 359.76C478.69 357.54 480.85 355.96 483.36 355.96H531.75C535.02 355.96 537.68 358.62 537.68 361.89V361.9Z" fill="url(#paint4_linear_1_171)"/>
<path d="M536.17 361.9V410.29C536.17 413.56 533.52 416.22 530.25 416.22H481.86C478.59 416.22 475.93 413.57 475.93 410.29V361.88C475.95 358.61 478.6 355.97 481.86 355.97H530.25C533.52 355.97 536.17 358.63 536.17 361.9Z" fill="url(#paint5_linear_1_171)"/>
<path d="M537.68 361.9V410.29C537.68 413.56 535.03 416.22 531.75 416.22H483.36C480.09 416.22 477.43 413.57 477.43 410.29V361.9C477.43 361.14 477.57 360.43 477.83 359.76C478.69 357.54 480.85 355.96 483.36 355.96H531.75C535.02 355.96 537.68 358.62 537.68 361.89V361.9Z" fill="#00E5AB"/>
<path d="M530.41 363.41H484.7V399.97H530.41V363.41Z" fill="white"/>
<path d="M530.55 363.41H528.89V399.97H530.55V363.41Z" fill="#EDF0FF"/>
<path d="M503.42 376.65V388.18L514.25 382.49L503.42 376.65Z" fill="#00E5AB"/>
<path d="M507.55 394.77C500.74 394.77 495.2 389.23 495.2 382.42C495.2 375.61 500.74 370.07 507.55 370.07C514.36 370.07 519.9 375.61 519.9 382.42C519.9 389.23 514.36 394.77 507.55 394.77ZM507.55 371.91C501.75 371.91 497.04 376.62 497.04 382.42C497.04 388.22 501.75 392.93 507.55 392.93C513.35 392.93 518.06 388.21 518.06 382.42C518.06 376.63 513.34 371.91 507.55 371.91Z" fill="#00E5AB"/>
<path style="mix-blend-mode:overlay" opacity="0.5" d="M537.68 361.9V410.29C537.68 413.56 535.03 416.22 531.75 416.22H528.33C527.46 413.23 526.93 410.05 525.23 407.47C522.57 403.41 517.84 401.76 513.2 399.97C511.46 399.3 509.73 398.61 508.13 397.77C502.7 394.93 498.42 389.98 496.37 384.21C494.33 378.45 494.48 372.06 492.2 366.39C491.78 365.37 491.25 364.35 490.62 363.41C488.54 360.32 485.38 357.96 481.76 358.21C480.31 358.31 478.95 358.89 477.82 359.77C477.07 360.35 476.42 361.07 475.91 361.88C475.93 358.61 478.58 355.97 481.84 355.97H531.74C535.01 355.97 537.67 358.63 537.67 361.9H537.68Z" fill="url(#paint6_linear_1_171)"/>
<path d="M512.54 404.6H484.7V406.61H512.54V404.6Z" fill="#F9F9F9"/>
<path d="M506.31 409.06H484.7V411.07H506.31V409.06Z" fill="#F9F9F9"/>
<path d="M558.6 340.7C558.6 334.71 553.75 329.86 547.76 329.86H528.71C522.72 329.86 517.87 334.71 517.87 340.7C517.87 346.69 522.72 351.54 528.71 351.54H547.76C553.75 351.54 558.6 346.69 558.6 340.7Z" fill="#00E5AB"/>
<path d="M526 359.02L526.62 351.05H532.98L526 359.02Z" fill="#00E5AB"/>
<path d="M549.66 340.7C549.66 339.45 548.65 338.44 547.4 338.44C546.15 338.44 545.14 339.45 545.14 340.7C545.14 341.95 546.15 342.96 547.4 342.96C548.65 342.96 549.66 341.95 549.66 340.7Z" fill="white"/>
<path d="M540.35 340.7C540.35 339.45 539.34 338.44 538.09 338.44C536.84 338.44 535.83 339.45 535.83 340.7C535.83 341.95 536.84 342.96 538.09 342.96C539.34 342.96 540.35 341.95 540.35 340.7Z" fill="white"/>
<path d="M531.04 340.7C531.04 339.45 530.03 338.44 528.78 338.44C527.53 338.44 526.52 339.45 526.52 340.7C526.52 341.95 527.53 342.96 528.78 342.96C530.03 342.96 531.04 341.95 531.04 340.7Z" fill="white"/>
<path d="M287.77 398.98V452.76C287.77 456.4 284.82 459.35 281.18 459.35H227.4C223.76 459.35 220.81 456.4 220.81 452.76V398.98C220.81 398.14 220.97 397.35 221.25 396.61C222.2 394.14 224.6 392.39 227.4 392.39H281.18C284.82 392.39 287.77 395.35 287.77 398.98Z" fill="url(#paint7_linear_1_171)"/>
<path d="M286.09 398.98V452.76C286.09 456.4 283.14 459.35 279.5 459.35H225.72C222.08 459.35 219.13 456.4 219.13 452.76V398.95C219.15 395.32 222.09 392.38 225.72 392.38H279.5C283.14 392.38 286.09 395.34 286.09 398.97V398.98Z" fill="url(#paint8_linear_1_171)"/>
<path d="M287.77 398.98V452.76C287.77 456.4 284.82 459.35 281.18 459.35H227.4C223.76 459.35 220.81 456.4 220.81 452.76V398.98C220.81 398.14 220.97 397.35 221.25 396.61C222.2 394.14 224.6 392.39 227.4 392.39H281.18C284.82 392.39 287.77 395.35 287.77 398.98Z" fill="#004DBF"/>
<path d="M279.69 400.65H228.89V441.29H279.69V400.65Z" fill="white"/>
<path d="M279.85 400.65H278V441.29H279.85V400.65Z" fill="#EDF0FF"/>
<path style="mix-blend-mode:overlay" opacity="0.5" d="M287.77 398.98V452.76C287.77 456.4 284.82 459.35 281.18 459.35H277.38C276.41 456.03 275.82 452.5 273.94 449.62C270.98 445.11 265.73 443.27 260.57 441.29C258.64 440.54 256.72 439.78 254.94 438.84C248.91 435.68 244.14 430.18 241.87 423.77C239.61 417.37 239.77 410.27 237.23 403.97C236.77 402.83 236.18 401.71 235.48 400.65C233.17 397.21 229.65 394.59 225.63 394.87C224.02 394.98 222.51 395.63 221.25 396.61C220.42 397.26 219.69 398.06 219.13 398.96C219.15 395.33 222.09 392.39 225.72 392.39H281.18C284.82 392.39 287.77 395.35 287.77 398.98Z" fill="url(#paint9_linear_1_171)"/>
<path d="M251.62 448.96H226.74V450.76H251.62V448.96Z" fill="#F9F9F9"/>
<path d="M246.05 452.95H226.74V454.75H246.05V452.95Z" fill="#F9F9F9"/>
<path d="M244.36 421.08L252.58 430.51L266.07 412.93" stroke="#004DBF" stroke-width="5" stroke-linecap="round" stroke-linejoin="round"/>
<path d="M498.56 122.6V181.84C498.56 185.85 495.31 189.09 491.31 189.09H432.07C428.06 189.09 424.81 185.84 424.81 181.84V122.6C424.81 121.67 424.98 120.8 425.3 119.99C426.35 117.27 428.99 115.34 432.08 115.34H491.32C495.33 115.34 498.57 118.6 498.57 122.6H498.56Z" fill="#CCD3FF"/>
<path d="M496.71 122.6V181.84C496.71 185.85 493.46 189.09 489.46 189.09H430.22C426.21 189.09 422.96 185.84 422.96 181.84V122.57C422.98 118.57 426.23 115.34 430.22 115.34H489.46C493.47 115.34 496.71 118.6 496.71 122.6Z" fill="url(#paint10_linear_1_171)"/>
<path d="M498.56 122.6V181.84C498.56 185.85 495.31 189.09 491.31 189.09H432.07C428.06 189.09 424.81 185.84 424.81 181.84V122.6C424.81 121.67 424.98 120.8 425.3 119.99C426.35 117.27 428.99 115.34 432.08 115.34H491.32C495.33 115.34 498.57 118.6 498.57 122.6H498.56Z" fill="#004DBF"/>
<path d="M489.66 124.44H433.71V169.2H489.66V124.44Z" fill="white"/>
<path d="M489.82 124.44H487.79V169.2H489.82V124.44Z" fill="#EDF0FF"/>
<path d="M474.58 136.45H450.39V161.68H474.58V136.45Z" fill="#004DBF"/>
<path d="M466.26 140.77L462.32 133.91L458.71 140.31L457.43 139.59L462.31 130.95L467.53 140.04L466.26 140.77Z" fill="#004DBF"/>
<path d="M471.63 139.64H453.32V158.48H471.63V139.64Z" fill="white"/>
<path style="mix-blend-mode:overlay" opacity="0.5" d="M498.56 122.6V181.84C498.56 185.85 495.31 189.09 491.31 189.09H487.13C486.06 185.43 485.41 181.54 483.34 178.38C480.08 173.42 474.3 171.39 468.61 169.2C466.48 168.38 464.37 167.53 462.4 166.5C455.76 163.02 450.51 156.96 448.01 149.9C445.52 142.85 445.7 135.03 442.9 128.09C442.39 126.84 441.74 125.6 440.97 124.44C438.43 120.66 434.55 117.77 430.13 118.07C428.36 118.19 426.69 118.9 425.31 119.98C424.39 120.69 423.59 121.58 422.97 122.56C422.99 118.56 426.24 115.33 430.23 115.33H491.32C495.33 115.33 498.57 118.59 498.57 122.59L498.56 122.6Z" fill="url(#paint11_linear_1_171)"/>
<path d="M467.79 174.86H433.71V177.32H467.79V174.86Z" fill="#F9F9F9"/>
<path d="M460.16 180.33H433.71V182.79H460.16V180.33Z" fill="#F9F9F9"/>
<path d="M213.15 257.52V316.76C213.15 320.77 209.9 324.01 205.9 324.01H146.66C142.65 324.01 139.4 320.76 139.4 316.76V257.52C139.4 256.59 139.57 255.72 139.89 254.91C140.94 252.19 143.58 250.26 146.66 250.26H205.9C209.91 250.26 213.15 253.52 213.15 257.52Z" fill="#CCD3FF"/>
<path d="M211.3 257.52V316.76C211.3 320.77 208.05 324.01 204.05 324.01H144.81C140.8 324.01 137.55 320.76 137.55 316.76V257.49C137.57 253.49 140.82 250.26 144.81 250.26H204.05C208.06 250.26 211.3 253.52 211.3 257.52Z" fill="url(#paint12_linear_1_171)"/>
<path d="M213.15 257.52V316.76C213.15 320.77 209.9 324.01 205.9 324.01H146.66C142.65 324.01 139.4 320.76 139.4 316.76V257.52C139.4 256.59 139.57 255.72 139.89 254.91C140.94 252.19 143.58 250.26 146.66 250.26H205.9C209.91 250.26 213.15 253.52 213.15 257.52Z" fill="#004DBF"/>
<path d="M204.25 259.36H148.3V304.12H204.25V259.36Z" fill="white"/>
<path d="M204.42 259.36H202.39V304.12H204.42V259.36Z" fill="#EDF0FF"/>
<path d="M185.935 284.023C187.189 278.69 183.882 273.35 178.548 272.096C173.215 270.842 167.875 274.149 166.621 279.483C165.368 284.816 168.675 290.156 174.008 291.41C179.341 292.663 184.681 289.356 185.935 284.023Z" stroke="#004DBF" stroke-width="5" stroke-linecap="round" stroke-linejoin="round"/>
<path style="mix-blend-mode:overlay" opacity="0.5" d="M213.15 257.52V316.76C213.15 320.77 209.9 324.01 205.9 324.01H201.72C200.65 320.35 200 316.46 197.93 313.3C194.67 308.34 188.89 306.31 183.2 304.12C181.07 303.3 178.96 302.45 176.99 301.42C170.35 297.94 165.1 291.88 162.6 284.82C160.11 277.77 160.29 269.95 157.49 263.01C156.98 261.76 156.33 260.52 155.56 259.36C153.02 255.58 149.14 252.69 144.72 252.99C142.95 253.11 141.28 253.82 139.9 254.9C138.98 255.61 138.18 256.5 137.56 257.48C137.58 253.48 140.83 250.25 144.82 250.25H205.91C209.92 250.25 213.16 253.51 213.16 257.51L213.15 257.52Z" fill="url(#paint13_linear_1_171)"/>
<path d="M182.38 309.78H148.3V312.24H182.38V309.78Z" fill="#F9F9F9"/>
<path d="M174.75 315.25H148.3V317.71H174.75V315.25Z" fill="#F9F9F9"/>
<path d="M125 343.49C125 351.16 131.22 357.38 138.89 357.38H163.3C170.97 357.38 177.19 351.16 177.19 343.49C177.19 335.82 170.97 329.6 163.3 329.6H138.89C131.22 329.6 125 335.82 125 343.49Z" fill="#004DBF"/>
<path d="M166.75 320.03L165.96 330.23H157.81L166.75 320.03Z" fill="#004DBF"/>
<path d="M136.45 343.49C136.45 345.09 137.75 346.39 139.35 346.39C140.95 346.39 142.25 345.09 142.25 343.49C142.25 341.89 140.95 340.59 139.35 340.59C137.75 340.59 136.45 341.89 136.45 343.49Z" fill="white"/>
<path d="M148.37 343.49C148.37 345.09 149.67 346.39 151.27 346.39C152.87 346.39 154.17 345.09 154.17 343.49C154.17 341.89 152.87 340.59 151.27 340.59C149.67 340.59 148.37 341.89 148.37 343.49Z" fill="white"/>
<path d="M160.29 343.49C160.29 345.09 161.59 346.39 163.19 346.39C164.79 346.39 166.09 345.09 166.09 343.49C166.09 341.89 164.79 340.59 163.19 340.59C161.59 340.59 160.29 341.89 160.29 343.49Z" fill="white"/>
<path d="M415.61 249.14V310.65C415.61 314.68 411.66 317.51 407.85 316.23L350.38 296.92H350.33H350.28L293.46 316.01C289.32 317.4 285.06 314.32 285.06 309.97V247.3C285.06 245.99 285.51 244.74 286.29 243.76C286.96 242.9 287.89 242.23 288.97 241.86L343.97 223.43C348.13 222.03 352.63 222.03 356.79 223.43L409.95 241.28C411.49 241.79 412.82 242.74 413.79 243.96C414.94 245.39 415.61 247.21 415.61 249.14Z" fill="#0066E0"/>
<path d="M350.39 221.25V221.28L350.34 221.26L350.39 221.25Z" fill="#0066E0"/>
<path d="M350.34 221.26L350.29 221.28V221.25L350.34 221.26Z" fill="#0066E0"/>
<g style="mix-blend-mode:overlay" opacity="0.45">
<path d="M415.61 249.14V310.65C415.61 314.68 411.66 317.51 407.85 316.23L350.38 296.92H350.33H350.28L293.46 316.01C289.32 317.4 285.06 314.32 285.06 309.97V247.3C285.06 245.99 285.51 244.74 286.29 243.76C286.96 242.9 287.89 242.23 288.97 241.86L343.97 223.43C348.13 222.03 352.63 222.03 356.79 223.43L409.95 241.28C411.49 241.79 412.82 242.74 413.79 243.96C414.94 245.39 415.61 247.21 415.61 249.14Z" fill="url(#paint14_linear_1_171)"/>
</g>
<path d="M350.39 265.28V340.93C350.39 340.93 303.52 324.88 289.17 319.96C286.72 319.12 285.07 316.81 285.07 314.22V247.32C285.07 246.01 285.52 244.76 286.3 243.78L350.39 265.29V265.28Z" fill="#004DBF"/>
<path style="mix-blend-mode:multiply" opacity="0.65" d="M291.43 311.51V257.83C291.43 255.48 293.73 253.83 295.95 254.58L341.69 269.93C343.09 270.4 344.03 271.71 344.03 273.18V326.86C344.03 329.21 341.73 330.86 339.51 330.11L293.77 314.76C292.37 314.29 291.43 312.98 291.43 311.51Z" fill="url(#paint15_linear_1_171)"/>
<g style="mix-blend-mode:multiply" opacity="0.71">
<path d="M303.39 310.93V273.72C303.39 272.29 304.8 271.28 306.15 271.73L337.91 282.39C338.76 282.68 339.34 283.48 339.34 284.38V319.04C339.34 321.73 336.7 323.62 334.16 322.77L304.82 312.92C303.97 312.63 303.39 311.83 303.39 310.93Z" fill="#484AE5"/>
</g>
<path opacity="0.95" d="M298.51 304.64V267.43C298.51 266 299.92 264.99 301.27 265.44L333.03 276.1C333.88 276.39 334.46 277.19 334.46 278.09V315.3C334.46 316.73 333.05 317.74 331.7 317.29L299.94 306.63C299.09 306.34 298.51 305.54 298.51 304.64Z" fill="white"/>
<path d="M298.51 269.39V267.43C298.51 266 299.92 264.99 301.27 265.44L333.03 276.1C333.88 276.39 334.46 277.19 334.46 278.09V281.46L298.51 269.39Z" fill="#31AFF5"/>
<path d="M415.61 249.14V314.77C415.61 317.3 413.99 319.55 411.6 320.35L350.29 340.93V265.28L413.79 243.97C414.94 245.4 415.61 247.22 415.61 249.15V249.14Z" fill="#004DBF"/>
<path style="mix-blend-mode:overlay" opacity="0.44" d="M415.61 249.14V314.77C415.61 317.3 413.99 319.55 411.6 320.35L350.29 340.93V265.28L413.79 243.97C414.94 245.4 415.61 247.22 415.61 249.15V249.14Z" fill="url(#paint16_linear_1_171)"/>
<path d="M410.45 311.51V257.83C410.45 255.48 408.15 253.83 405.93 254.58L360.19 269.93C358.79 270.4 357.85 271.71 357.85 273.18V326.86C357.85 329.21 360.15 330.86 362.37 330.11L408.11 314.76C409.51 314.29 410.45 312.98 410.45 311.51Z" fill="#004DBF"/>
<g style="mix-blend-mode:multiply" opacity="0.2">
<path d="M370.24 311.72C369.97 311.8 369.76 311.78 369.59 311.67C369.43 311.55 369.32 311.46 369.27 311.38L363.85 303.42V312.92C363.85 313.13 363.79 313.32 363.67 313.51C363.54 313.7 363.39 313.82 363.22 313.87L360.09 314.83C359.91 314.88 359.76 314.86 359.63 314.74C359.5 314.63 359.44 314.47 359.44 314.26V296.03C359.44 295.82 359.5 295.63 359.63 295.44C359.76 295.25 359.91 295.14 360.08 295.09L362.56 294.39C362.83 294.31 363.05 294.34 363.21 294.46C363.38 294.58 363.48 294.68 363.53 294.76L368.95 302.75V293.33C368.94 293.13 369 292.93 369.13 292.75C369.25 292.57 369.4 292.45 369.57 292.4L372.63 291.53C372.8 291.48 372.95 291.51 373.07 291.63C373.19 291.74 373.26 291.9 373.26 292.1L373.29 310.03C373.29 310.23 373.23 310.43 373.1 310.62C372.98 310.81 372.83 310.93 372.66 310.98L370.23 311.72H370.24Z" fill="#484AE5"/>
<path d="M387.51 287.31C387.67 287.26 387.82 287.3 387.94 287.41C388.06 287.52 388.12 287.68 388.12 287.88V290.77C388.13 290.97 388.07 291.16 387.95 291.34C387.83 291.52 387.69 291.63 387.52 291.68L380.75 293.64V297.4L387.09 295.54C387.26 295.49 387.4 295.52 387.52 295.63C387.64 295.74 387.7 295.9 387.7 296.1V298.99C387.71 299.19 387.65 299.38 387.53 299.56C387.41 299.74 387.27 299.86 387.1 299.91L380.77 301.8L380.79 307.75C380.79 307.95 380.73 308.15 380.61 308.33C380.49 308.52 380.34 308.63 380.17 308.68L377.16 309.6C376.99 309.65 376.84 309.62 376.72 309.51C376.6 309.4 376.53 309.24 376.53 309.04L376.49 291.18C376.49 290.98 376.55 290.79 376.67 290.6C376.79 290.42 376.94 290.3 377.11 290.25L387.5 287.3L387.51 287.31Z" fill="#484AE5"/>
<path d="M401.8 283.25C401.96 283.2 402.1 283.24 402.21 283.35C402.33 283.46 402.39 283.61 402.39 283.81L402.41 286.65C402.41 286.85 402.35 287.03 402.24 287.21C402.12 287.39 401.99 287.5 401.83 287.54L397.99 288.65L398.06 302.48C398.06 302.68 398 302.87 397.89 303.05C397.77 303.23 397.63 303.35 397.47 303.39L394.58 304.28C394.42 304.33 394.28 304.3 394.16 304.19C394.04 304.08 393.98 303.93 393.98 303.73L393.92 289.83L390.01 290.96C389.85 291.01 389.7 290.98 389.58 290.86C389.46 290.75 389.4 290.59 389.4 290.4V287.52C389.39 287.32 389.45 287.13 389.57 286.95C389.69 286.77 389.83 286.66 389.99 286.61L401.82 283.25H401.8Z" fill="#484AE5"/>
</g>
<g opacity="0.95">
<path d="M374.66 306.98C374.39 307.06 374.18 307.04 374.01 306.93C373.85 306.81 373.74 306.72 373.69 306.64L368.27 298.68V308.18C368.27 308.39 368.21 308.58 368.09 308.77C367.96 308.96 367.81 309.08 367.64 309.13L364.51 310.09C364.33 310.14 364.18 310.12 364.05 310C363.92 309.89 363.86 309.73 363.86 309.52V291.29C363.86 291.08 363.92 290.89 364.05 290.7C364.18 290.51 364.33 290.4 364.5 290.35L366.98 289.65C367.25 289.57 367.47 289.6 367.63 289.72C367.8 289.84 367.9 289.94 367.95 290.02L373.37 298.01V288.59C373.36 288.39 373.42 288.19 373.55 288.01C373.67 287.83 373.82 287.71 373.99 287.66L377.05 286.79C377.22 286.74 377.37 286.77 377.49 286.89C377.61 287 377.68 287.16 377.68 287.36L377.71 305.29C377.71 305.49 377.65 305.69 377.52 305.88C377.4 306.07 377.25 306.19 377.08 306.24L374.65 306.98H374.66Z" fill="white"/>
<path d="M391.93 282.56C392.09 282.51 392.24 282.55 392.36 282.66C392.48 282.77 392.54 282.93 392.54 283.13V286.02C392.55 286.22 392.49 286.41 392.37 286.59C392.25 286.77 392.11 286.88 391.94 286.93L385.17 288.89V292.66L391.51 290.8C391.68 290.75 391.82 290.78 391.94 290.89C392.06 291 392.12 291.16 392.12 291.36V294.25C392.13 294.45 392.07 294.64 391.95 294.82C391.83 295 391.69 295.12 391.52 295.17L385.19 297.06L385.21 303.01C385.21 303.21 385.15 303.41 385.03 303.59C384.91 303.78 384.76 303.89 384.59 303.94L381.58 304.86C381.41 304.91 381.26 304.88 381.14 304.77C381.02 304.66 380.95 304.5 380.95 304.3L380.91 286.44C380.91 286.24 380.97 286.05 381.09 285.86C381.21 285.68 381.36 285.56 381.53 285.51L391.92 282.56H391.93Z" fill="white"/>
<path d="M406.22 278.51C406.38 278.46 406.52 278.5 406.63 278.61C406.75 278.72 406.81 278.87 406.81 279.07L406.83 281.91C406.83 282.11 406.77 282.29 406.66 282.47C406.54 282.65 406.41 282.76 406.25 282.8L402.41 283.91L402.48 297.74C402.48 297.94 402.42 298.13 402.31 298.31C402.19 298.49 402.05 298.61 401.89 298.65L399 299.54C398.84 299.59 398.7 299.56 398.58 299.45C398.46 299.34 398.4 299.19 398.4 298.99L398.34 285.09L394.43 286.22C394.27 286.27 394.12 286.24 394 286.12C393.88 286.01 393.82 285.85 393.82 285.66V282.78C393.81 282.58 393.87 282.39 393.99 282.21C394.11 282.03 394.25 281.92 394.41 281.87L406.24 278.51H406.22Z" fill="white"/>
</g>
<path d="M383.62 189.49C383.62 179.71 375.69 171.77 365.91 171.77H334.77C324.99 171.77 317.06 179.7 317.06 189.49C317.06 199.27 324.99 207.2 334.77 207.2H365.91C375.69 207.2 383.62 199.27 383.62 189.49Z" fill="#D662F2"/>
<path d="M330.36 219.42L331.37 206.4H341.76L330.36 219.42Z" fill="#D662F2"/>
<path d="M365.91 171.77H334.77C324.99 171.77 317.06 179.7 317.06 189.49C317.06 198.1 323.2 205.26 331.34 206.87L330.37 219.43L341.07 207.21H365.92C375.7 207.21 383.63 199.28 383.63 189.5C383.63 179.72 375.7 171.78 365.92 171.78L365.91 171.77Z" fill="#004DBF"/>
<path d="M369.02 189.49C369.02 187.45 367.37 185.79 365.32 185.79C363.27 185.79 361.62 187.44 361.62 189.49C361.62 191.54 363.27 193.19 365.32 193.19C367.37 193.19 369.02 191.54 369.02 189.49Z" fill="white"/>
<path d="M353.81 189.49C353.81 187.45 352.16 185.79 350.11 185.79C348.06 185.79 346.41 187.44 346.41 189.49C346.41 191.54 348.06 193.19 350.11 193.19C352.16 193.19 353.81 191.54 353.81 189.49Z" fill="white"/>
<path d="M338.6 189.49C338.6 187.45 336.95 185.79 334.9 185.79C332.85 185.79 331.2 187.44 331.2 189.49C331.2 191.54 332.85 193.19 334.9 193.19C336.95 193.19 338.6 191.54 338.6 189.49Z" fill="white"/>
<path d="M228.69 148.88V194.67C228.69 197.77 226.18 200.28 223.08 200.28H177.29C174.19 200.28 171.68 197.77 171.68 194.67V148.88C171.68 148.16 171.81 147.49 172.06 146.86C172.87 144.76 174.91 143.27 177.3 143.27H223.09C226.19 143.27 228.7 145.79 228.7 148.88H228.69Z" fill="url(#paint17_linear_1_171)"/>
<path d="M227.26 148.88V194.67C227.26 197.77 224.75 200.28 221.65 200.28H175.86C172.76 200.28 170.25 197.77 170.25 194.67V148.86C170.27 145.77 172.77 143.27 175.86 143.27H221.65C224.75 143.27 227.26 145.79 227.26 148.88Z" fill="url(#paint18_linear_1_171)"/>
<path d="M228.69 148.88V194.67C228.69 197.77 226.18 200.28 223.08 200.28H177.29C174.19 200.28 171.68 197.77 171.68 194.67V148.88C171.68 148.16 171.81 147.49 172.06 146.86C172.87 144.76 174.91 143.27 177.3 143.27H223.09C226.19 143.27 228.7 145.79 228.7 148.88H228.69Z" fill="#004DBF"/>
<path d="M221.82 150.31H178.57V184.91H221.82V150.31Z" fill="white"/>
<path d="M221.94 150.31H220.37V184.91H221.94V150.31Z" fill="#EDF0FF"/>
<path style="mix-blend-mode:overlay" opacity="0.5" d="M228.69 148.88V194.67C228.69 197.77 226.18 200.28 223.08 200.28H219.85C219.02 197.45 218.52 194.45 216.92 192C214.4 188.16 209.93 186.6 205.53 184.91C203.89 184.27 202.25 183.62 200.73 182.83C195.6 180.14 191.54 175.45 189.6 170C187.67 164.55 187.82 158.5 185.65 153.14C185.26 152.17 184.75 151.21 184.16 150.32C182.19 147.39 179.2 145.16 175.78 145.4C174.41 145.49 173.12 146.04 172.05 146.88C171.34 147.43 170.72 148.11 170.24 148.88C170.26 145.79 172.76 143.29 175.85 143.29H223.07C226.17 143.29 228.68 145.81 228.68 148.9L228.69 148.88Z" fill="url(#paint19_linear_1_171)"/>
<path d="M197.92 191.43H176.74V192.96H197.92V191.43Z" fill="#F9F9F9"/>
<path d="M193.18 194.83H176.74V196.36H193.18V194.83Z" fill="#F9F9F9"/>
<path d="M191.74 167.7L198.73 175.72L210.21 160.76" stroke="#004DBF" stroke-width="4.26" stroke-linecap="round" stroke-linejoin="round"/>
<path d="M564.05 240.78V280.77C564.05 283.48 561.86 285.67 559.15 285.67H519.16C516.45 285.67 514.26 283.48 514.26 280.77V240.78C514.26 240.16 514.38 239.56 514.59 239.02C515.3 237.19 517.08 235.88 519.16 235.88H559.15C561.86 235.88 564.05 238.08 564.05 240.78Z" fill="url(#paint20_linear_1_171)"/>
<path d="M562.8 240.78V280.77C562.8 283.48 560.61 285.67 557.9 285.67H517.91C515.2 285.67 513.01 283.48 513.01 280.77V240.76C513.02 238.06 515.21 235.88 517.91 235.88H557.9C560.61 235.88 562.8 238.08 562.8 240.78Z" fill="url(#paint21_linear_1_171)"/>
<path d="M564.05 240.78V280.77C564.05 283.48 561.86 285.67 559.15 285.67H519.16C516.45 285.67 514.26 283.48 514.26 280.77V240.78C514.26 240.16 514.38 239.56 514.59 239.02C515.3 237.19 517.08 235.88 519.16 235.88H559.15C561.86 235.88 564.05 238.08 564.05 240.78Z" fill="#004DBF"/>
<path d="M558.05 242.03H520.28V272.24H558.05V242.03Z" fill="white"/>
<path d="M558.16 242.03H556.79V272.24H558.16V242.03Z" fill="#EDF0FF"/>
<path style="mix-blend-mode:overlay" opacity="0.5" d="M564.05 240.78V280.77C564.05 283.48 561.86 285.67 559.15 285.67H556.33C555.61 283.2 555.17 280.57 553.77 278.44C551.57 275.09 547.67 273.72 543.83 272.25C542.39 271.69 540.97 271.12 539.64 270.43C535.16 268.08 531.61 263.99 529.92 259.22C528.24 254.46 528.36 249.18 526.47 244.5C526.13 243.66 525.69 242.82 525.17 242.03C523.45 239.48 520.84 237.53 517.85 237.73C516.66 237.81 515.53 238.29 514.6 239.02C513.98 239.5 513.44 240.1 513.02 240.76C513.03 238.06 515.22 235.88 517.92 235.88H559.16C561.87 235.88 564.06 238.08 564.06 240.78H564.05Z" fill="url(#paint22_linear_1_171)"/>
<path d="M537.18 277.94H518.68V279.28H537.18V277.94Z" fill="#F9F9F9"/>
<path d="M533.04 280.91H518.68V282.25H533.04V280.91Z" fill="#F9F9F9"/>
<path d="M531.78 257.22L537.89 264.23L547.92 251.16" stroke="#004DBF" stroke-width="3.72" stroke-linecap="round" stroke-linejoin="round"/>
<mask id="mask0_1_171" style="mask-type:luminance" maskUnits="userSpaceOnUse" x="298" y="268" width="36" height="48">
<path d="M299.21 315.88L298.51 273.17L333.04 268.81L333.74 311.53L299.21 315.88Z" fill="white"/>
</mask>
<g mask="url(#mask0_1_171)">
<mask id="mask1_1_171" style="mask-type:luminance" maskUnits="userSpaceOnUse" x="298" y="272" width="36" height="41">
<path d="M298.75 287.78L305.78 272.25L333.51 296.91L326.48 312.44L298.75 287.78Z" fill="white"/>
</mask>
<g mask="url(#mask1_1_171)">
<path d="M300.43 284.06L300.23 289.1H300.24L302.46 289.88L304.83 287.39L304.58 290.61L306.82 291.4L310.59 287.61L308.7 286.95L306.35 289.77L306.64 286.24L304.51 285.47L301.96 288.25L302.46 284.76L300.43 284.06Z" fill="#004DBF"/>
<path d="M310.69 287.64L310.49 292.68L312.71 293.44L315.07 290.97L314.83 294.19L317.07 294.98L320.86 291.2L318.94 290.53L316.6 293.35L316.89 289.81L314.75 289.06L312.22 291.83L312.71 288.36L310.69 287.64Z" fill="#004DBF"/>
<path d="M320.92 291.22L320.73 296.26L322.95 297.04L325.33 294.55L325.08 297.77L327.32 298.56L331.11 294.78H331.1L329.19 294.11L326.85 296.93L327.14 293.39L325 292.65L322.46 295.41L322.95 291.94L320.92 291.22Z" fill="#004DBF"/>
<path d="M330.59 298.27C330.26 298.31 330.01 298.46 329.9 298.7C329.78 298.96 329.88 299.25 330.17 299.49C330.32 299.63 330.52 299.75 330.78 299.85C331.09 299.96 331.4 299.99 331.65 299.96C331.97 299.92 332.22 299.77 332.32 299.54C332.45 299.28 332.34 298.97 332.07 298.72C331.91 298.58 331.7 298.46 331.46 298.38C331.15 298.27 330.85 298.24 330.6 298.27" fill="#004DBF"/>
</g>
</g>
<path d="M202.38 85.64L189.95 78.46L202.38 71.28L214.81 78.46L202.38 85.64Z" fill="url(#paint23_linear_1_171)"/>
<path d="M202.38 99.5L189.95 92.32V78.46L202.38 85.64V99.5Z" fill="url(#paint24_linear_1_171)"/>
<path d="M214.81 92.32L202.38 99.5V85.64L214.81 78.46V92.32Z" fill="url(#paint25_linear_1_171)"/>
<path d="M395.89 69.36L383.46 62.18L395.89 55L408.33 62.18L395.89 69.36Z" fill="url(#paint26_linear_1_171)"/>
<path d="M395.89 83.21L383.46 76.04V62.18L395.89 69.36V83.21Z" fill="url(#paint27_linear_1_171)"/>
<path d="M408.33 76.04L395.89 83.21V69.36L408.33 62.18V76.04Z" fill="url(#paint28_linear_1_171)"/>
<path d="M554.58 162.84L542.15 155.66L554.58 148.48L567.02 155.66L554.58 162.84Z" fill="url(#paint29_linear_1_171)"/>
<path d="M554.58 176.69L542.15 169.51V155.66L554.58 162.84V176.69Z" fill="url(#paint30_linear_1_171)"/>
<path d="M567.02 169.51L554.58 176.69V162.84L567.02 155.66V169.51Z" fill="url(#paint31_linear_1_171)"/>
<path d="M460.16 457.56L447.72 450.38L460.16 443.2L472.59 450.38L460.16 457.56Z" fill="url(#paint32_linear_1_171)"/>
<path d="M460.16 471.41L447.72 464.23V450.38L460.16 457.56V471.41Z" fill="url(#paint33_linear_1_171)"/>
<path d="M472.59 464.23L460.16 471.41V457.56L472.59 450.38V464.23Z" fill="url(#paint34_linear_1_171)"/>
<path d="M377.47 388.37L365.03 381.19L377.47 374.01L389.9 381.19L377.47 388.37Z" fill="url(#paint35_linear_1_171)"/>
<path d="M377.47 402.22L365.03 395.04V381.19L377.47 388.37V402.22Z" fill="url(#paint36_linear_1_171)"/>
<path d="M389.9 395.04L377.47 402.22V388.37L389.9 381.19V395.04Z" fill="url(#paint37_linear_1_171)"/>
<path d="M157.81 426.12L145.38 418.94L157.81 411.76L170.25 418.94L157.81 426.12Z" fill="url(#paint38_linear_1_171)"/>
<path d="M157.81 439.97L145.38 432.79V418.94L157.81 426.12V439.97Z" fill="url(#paint39_linear_1_171)"/>
<path d="M170.25 432.79L157.81 439.97V426.12L170.25 418.94V432.79Z" fill="url(#paint40_linear_1_171)"/>
</g>
<defs>
<linearGradient id="paint0_linear_1_171" x1="328.18" y1="462.55" x2="382.68" y2="462.55" gradientUnits="userSpaceOnUse">
<stop stop-color="#FFFCFC"/>
<stop offset="0.18" stop-color="#FAF6F6"/>
<stop offset="0.42" stop-color="#ECE6E6"/>
<stop offset="0.67" stop-color="#D5CDCD"/>
<stop offset="0.95" stop-color="#B6A9A9"/>
<stop offset="1" stop-color="#B0A2A2"/>
</linearGradient>
<linearGradient id="paint1_linear_1_171" x1="380.4" y1="434.58" x2="340.55" y2="480.49" gradientUnits="userSpaceOnUse">
<stop stop-color="#FFFCFC"/>
<stop offset="0.18" stop-color="#FAF6F6"/>
<stop offset="0.42" stop-color="#ECE6E6"/>
<stop offset="0.67" stop-color="#D5CDCD"/>
<stop offset="0.95" stop-color="#B6A9A9"/>
<stop offset="1" stop-color="#B0A2A2"/>
</linearGradient>
<linearGradient id="paint2_linear_1_171" x1="289.22" y1="84.09" x2="329.02" y2="84.09" gradientUnits="userSpaceOnUse">
<stop stop-color="#FFFCFC"/>
<stop offset="0.18" stop-color="#FAF6F6"/>
<stop offset="0.42" stop-color="#ECE6E6"/>
<stop offset="0.67" stop-color="#D5CDCD"/>
<stop offset="0.95" stop-color="#B6A9A9"/>
<stop offset="1" stop-color="#B0A2A2"/>
</linearGradient>
<linearGradient id="paint3_linear_1_171" x1="327.36" y1="63.66" x2="298.25" y2="97.19" gradientUnits="userSpaceOnUse">
<stop stop-color="#FFFCFC"/>
<stop offset="0.18" stop-color="#FAF6F6"/>
<stop offset="0.42" stop-color="#ECE6E6"/>
<stop offset="0.67" stop-color="#D5CDCD"/>
<stop offset="0.95" stop-color="#B6A9A9"/>
<stop offset="1" stop-color="#B0A2A2"/>
</linearGradient>
<linearGradient id="paint4_linear_1_171" x1="477.43" y1="386.1" x2="537.68" y2="386.1" gradientUnits="userSpaceOnUse">
<stop stop-color="#FFFCFC"/>
<stop offset="0.18" stop-color="#FAF6F6"/>
<stop offset="0.42" stop-color="#ECE6E6"/>
<stop offset="0.67" stop-color="#D5CDCD"/>
<stop offset="0.95" stop-color="#B6A9A9"/>
<stop offset="1" stop-color="#B0A2A2"/>
</linearGradient>
<linearGradient id="paint5_linear_1_171" x1="475.92" y1="386.1" x2="536.17" y2="386.1" gradientUnits="userSpaceOnUse">
<stop stop-color="#FFFCFC"/>
<stop offset="0.18" stop-color="#FAF6F6"/>
<stop offset="0.42" stop-color="#ECE6E6"/>
<stop offset="0.67" stop-color="#D5CDCD"/>
<stop offset="0.95" stop-color="#B6A9A9"/>
<stop offset="1" stop-color="#B0A2A2"/>
</linearGradient>
<linearGradient id="paint6_linear_1_171" x1="533.65" y1="355.17" x2="489.59" y2="405.92" gradientUnits="userSpaceOnUse">
<stop stop-color="#FFFCFC"/>
<stop offset="0.18" stop-color="#FAF6F6"/>
<stop offset="0.42" stop-color="#ECE6E6"/>
<stop offset="0.67" stop-color="#D5CDCD"/>
<stop offset="0.95" stop-color="#B6A9A9"/>
<stop offset="1" stop-color="#B0A2A2"/>
</linearGradient>
<linearGradient id="paint7_linear_1_171" x1="220.81" y1="425.87" x2="287.77" y2="425.87" gradientUnits="userSpaceOnUse">
<stop stop-color="#FFFCFC"/>
<stop offset="0.18" stop-color="#FAF6F6"/>
<stop offset="0.42" stop-color="#ECE6E6"/>
<stop offset="0.67" stop-color="#D5CDCD"/>
<stop offset="0.95" stop-color="#B6A9A9"/>
<stop offset="1" stop-color="#B0A2A2"/>
</linearGradient>
<linearGradient id="paint8_linear_1_171" x1="219.13" y1="425.87" x2="286.09" y2="425.87" gradientUnits="userSpaceOnUse">
<stop stop-color="#FFFCFC"/>
<stop offset="0.18" stop-color="#FAF6F6"/>
<stop offset="0.42" stop-color="#ECE6E6"/>
<stop offset="0.67" stop-color="#D5CDCD"/>
<stop offset="0.95" stop-color="#B6A9A9"/>
<stop offset="1" stop-color="#B0A2A2"/>
</linearGradient>
<linearGradient id="paint9_linear_1_171" x1="283.29" y1="391.49" x2="234.32" y2="447.9" gradientUnits="userSpaceOnUse">
<stop stop-color="#FFFCFC"/>
<stop offset="0.18" stop-color="#FAF6F6"/>
<stop offset="0.42" stop-color="#ECE6E6"/>
<stop offset="0.67" stop-color="#D5CDCD"/>
<stop offset="0.95" stop-color="#B6A9A9"/>
<stop offset="1" stop-color="#B0A2A2"/>
</linearGradient>
<linearGradient id="paint10_linear_1_171" x1="422.95" y1="152.21" x2="496.71" y2="152.21" gradientUnits="userSpaceOnUse">
<stop stop-color="#FFFCFC"/>
<stop offset="0.18" stop-color="#FAF6F6"/>
<stop offset="0.42" stop-color="#ECE6E6"/>
<stop offset="0.67" stop-color="#D5CDCD"/>
<stop offset="0.95" stop-color="#B6A9A9"/>
<stop offset="1" stop-color="#B0A2A2"/>
</linearGradient>
<linearGradient id="paint11_linear_1_171" x1="493.62" y1="114.35" x2="439.69" y2="176.49" gradientUnits="userSpaceOnUse">
<stop stop-color="#FF91E2"/>
<stop offset="0.1" stop-color="#FE96E3" stop-opacity="0.94"/>
<stop offset="0.28" stop-color="#FEA5E8" stop-opacity="0.78"/>
<stop offset="0.55" stop-color="#FDBDF0" stop-opacity="0.51"/>
<stop offset="0.87" stop-color="#FCDEFA" stop-opacity="0.16"/>
<stop offset="1" stop-color="#FCEDFF" stop-opacity="0"/>
</linearGradient>
<linearGradient id="paint12_linear_1_171" x1="137.55" y1="287.13" x2="211.3" y2="287.13" gradientUnits="userSpaceOnUse">
<stop stop-color="#FFFCFC"/>
<stop offset="0.18" stop-color="#FAF6F6"/>
<stop offset="0.42" stop-color="#ECE6E6"/>
<stop offset="0.67" stop-color="#D5CDCD"/>
<stop offset="0.95" stop-color="#B6A9A9"/>
<stop offset="1" stop-color="#B0A2A2"/>
</linearGradient>
<linearGradient id="paint13_linear_1_171" x1="208.22" y1="249.27" x2="154.28" y2="311.4" gradientUnits="userSpaceOnUse">
<stop stop-color="#FFFCFC"/>
<stop offset="0.18" stop-color="#FAF6F6"/>
<stop offset="0.42" stop-color="#ECE6E6"/>
<stop offset="0.67" stop-color="#D5CDCD"/>
<stop offset="0.95" stop-color="#B6A9A9"/>
<stop offset="1" stop-color="#B0A2A2"/>
</linearGradient>
<linearGradient id="paint14_linear_1_171" x1="412.63" y1="281.01" x2="285.38" y2="264.78" gradientUnits="userSpaceOnUse">
<stop stop-color="#CBE3FF"/>
<stop offset="1" stop-color="#E4FFD9"/>
</linearGradient>
<linearGradient id="paint15_linear_1_171" x1="297.35" y1="265.3" x2="345.77" y2="329.58" gradientUnits="userSpaceOnUse">
<stop stop-color="#5657C7"/>
<stop offset="0.07" stop-color="#6155C9" stop-opacity="0.94"/>
<stop offset="0.52" stop-color="#A64DD8" stop-opacity="0.56"/>
<stop offset="0.84" stop-color="#D248E2" stop-opacity="0.32"/>
<stop offset="1" stop-color="#E347E6" stop-opacity="0.23"/>
</linearGradient>
<linearGradient id="paint16_linear_1_171" x1="419.55" y1="248.96" x2="344.26" y2="335.69" gradientUnits="userSpaceOnUse">
<stop stop-color="#FFFCFC"/>
<stop offset="0.18" stop-color="#FAF6F6"/>
<stop offset="0.42" stop-color="#ECE6E6"/>
<stop offset="0.67" stop-color="#D5CDCD"/>
<stop offset="0.95" stop-color="#B6A9A9"/>
<stop offset="1" stop-color="#B0A2A2"/>
</linearGradient>
<linearGradient id="paint17_linear_1_171" x1="171.68" y1="171.77" x2="228.69" y2="171.77" gradientUnits="userSpaceOnUse">
<stop stop-color="#FFFCFC"/>
<stop offset="0.18" stop-color="#FAF6F6"/>
<stop offset="0.42" stop-color="#ECE6E6"/>
<stop offset="0.67" stop-color="#D5CDCD"/>
<stop offset="0.95" stop-color="#B6A9A9"/>
<stop offset="1" stop-color="#B0A2A2"/>
</linearGradient>
<linearGradient id="paint18_linear_1_171" x1="170.25" y1="171.77" x2="227.26" y2="171.77" gradientUnits="userSpaceOnUse">
<stop stop-color="#FFFCFC"/>
<stop offset="0.18" stop-color="#FAF6F6"/>
<stop offset="0.42" stop-color="#ECE6E6"/>
<stop offset="0.67" stop-color="#D5CDCD"/>
<stop offset="0.95" stop-color="#B6A9A9"/>
<stop offset="1" stop-color="#B0A2A2"/>
</linearGradient>
<linearGradient id="paint19_linear_1_171" x1="224.88" y1="142.51" x2="183.19" y2="190.53" gradientUnits="userSpaceOnUse">
<stop stop-color="#FFFCFC"/>
<stop offset="0.18" stop-color="#FAF6F6"/>
<stop offset="0.42" stop-color="#ECE6E6"/>
<stop offset="0.67" stop-color="#D5CDCD"/>
<stop offset="0.95" stop-color="#B6A9A9"/>
<stop offset="1" stop-color="#B0A2A2"/>
</linearGradient>
<linearGradient id="paint20_linear_1_171" x1="514.27" y1="260.77" x2="564.05" y2="260.77" gradientUnits="userSpaceOnUse">
<stop stop-color="#FFFCFC"/>
<stop offset="0.18" stop-color="#FAF6F6"/>
<stop offset="0.42" stop-color="#ECE6E6"/>
<stop offset="0.67" stop-color="#D5CDCD"/>
<stop offset="0.95" stop-color="#B6A9A9"/>
<stop offset="1" stop-color="#B0A2A2"/>
</linearGradient>
<linearGradient id="paint21_linear_1_171" x1="513.02" y1="260.77" x2="562.8" y2="260.77" gradientUnits="userSpaceOnUse">
<stop stop-color="#FFFCFC"/>
<stop offset="0.18" stop-color="#FAF6F6"/>
<stop offset="0.42" stop-color="#ECE6E6"/>
<stop offset="0.67" stop-color="#D5CDCD"/>
<stop offset="0.95" stop-color="#B6A9A9"/>
<stop offset="1" stop-color="#B0A2A2"/>
</linearGradient>
<linearGradient id="paint22_linear_1_171" x1="560.72" y1="235.22" x2="524.32" y2="277.16" gradientUnits="userSpaceOnUse">
<stop stop-color="#FFFCFC"/>
<stop offset="0.18" stop-color="#FAF6F6"/>
<stop offset="0.42" stop-color="#ECE6E6"/>
<stop offset="0.67" stop-color="#D5CDCD"/>
<stop offset="0.95" stop-color="#B6A9A9"/>
<stop offset="1" stop-color="#B0A2A2"/>
</linearGradient>
<linearGradient id="paint23_linear_1_171" x1="189.95" y1="78.46" x2="214.81" y2="78.46" gradientUnits="userSpaceOnUse">
<stop stop-color="#CBE3FF"/>
<stop offset="1" stop-color="#E4FFD9"/>
</linearGradient>
<linearGradient id="paint24_linear_1_171" x1="199.16" y1="83.78" x2="193.16" y2="94.18" gradientUnits="userSpaceOnUse">
<stop stop-color="#8DB2DC"/>
<stop offset="1" stop-color="#82A2CB"/>
</linearGradient>
<linearGradient id="paint25_linear_1_171" x1="205.6" y1="83.78" x2="211.6" y2="94.18" gradientUnits="userSpaceOnUse">
<stop stop-color="#BBDAFF"/>
<stop offset="1" stop-color="#ABC8EB"/>
</linearGradient>
<linearGradient id="paint26_linear_1_171" x1="383.46" y1="62.18" x2="408.33" y2="62.18" gradientUnits="userSpaceOnUse">
<stop stop-color="#CBE3FF"/>
<stop offset="1" stop-color="#E4FFD9"/>
</linearGradient>
<linearGradient id="paint27_linear_1_171" x1="392.67" y1="67.5" x2="386.67" y2="77.89" gradientUnits="userSpaceOnUse">
<stop stop-color="#8DB2DC"/>
<stop offset="1" stop-color="#82A2CB"/>
</linearGradient>
<linearGradient id="paint28_linear_1_171" x1="399.11" y1="67.5" x2="405.11" y2="77.89" gradientUnits="userSpaceOnUse">
<stop stop-color="#BBDAFF"/>
<stop offset="1" stop-color="#ABC8EB"/>
</linearGradient>
<linearGradient id="paint29_linear_1_171" x1="542.15" y1="155.66" x2="567.02" y2="155.66" gradientUnits="userSpaceOnUse">
<stop stop-color="#CBE3FF"/>
<stop offset="1" stop-color="#E4FFD9"/>
</linearGradient>
<linearGradient id="paint30_linear_1_171" x1="551.36" y1="160.98" x2="545.36" y2="171.37" gradientUnits="userSpaceOnUse">
<stop stop-color="#8DB2DC"/>
<stop offset="1" stop-color="#82A2CB"/>
</linearGradient>
<linearGradient id="paint31_linear_1_171" x1="557.8" y1="160.98" x2="563.8" y2="171.37" gradientUnits="userSpaceOnUse">
<stop stop-color="#BBDAFF"/>
<stop offset="1" stop-color="#ABC8EB"/>
</linearGradient>
<linearGradient id="paint32_linear_1_171" x1="447.72" y1="450.38" x2="472.59" y2="450.38" gradientUnits="userSpaceOnUse">
<stop stop-color="#CBE3FF"/>
<stop offset="1" stop-color="#E4FFD9"/>
</linearGradient>
<linearGradient id="paint33_linear_1_171" x1="456.94" y1="455.7" x2="450.94" y2="466.09" gradientUnits="userSpaceOnUse">
<stop stop-color="#8DB2DC"/>
<stop offset="1" stop-color="#82A2CB"/>
</linearGradient>
<linearGradient id="paint34_linear_1_171" x1="463.37" y1="455.7" x2="469.37" y2="466.09" gradientUnits="userSpaceOnUse">
<stop stop-color="#BBDAFF"/>
<stop offset="1" stop-color="#ABC8EB"/>
</linearGradient>
<linearGradient id="paint35_linear_1_171" x1="365.03" y1="381.19" x2="389.9" y2="381.19" gradientUnits="userSpaceOnUse">
<stop stop-color="#CBE3FF"/>
<stop offset="1" stop-color="#E4FFD9"/>
</linearGradient>
<linearGradient id="paint36_linear_1_171" x1="374.25" y1="386.51" x2="368.25" y2="396.9" gradientUnits="userSpaceOnUse">
<stop stop-color="#8DB2DC"/>
<stop offset="1" stop-color="#82A2CB"/>
</linearGradient>
<linearGradient id="paint37_linear_1_171" x1="380.69" y1="386.51" x2="386.69" y2="396.9" gradientUnits="userSpaceOnUse">
<stop stop-color="#BBDAFF"/>
<stop offset="1" stop-color="#ABC8EB"/>
</linearGradient>
<linearGradient id="paint38_linear_1_171" x1="145.38" y1="418.94" x2="170.25" y2="418.94" gradientUnits="userSpaceOnUse">
<stop stop-color="#CBE3FF"/>
<stop offset="1" stop-color="#E4FFD9"/>
</linearGradient>
<linearGradient id="paint39_linear_1_171" x1="154.6" y1="424.26" x2="148.6" y2="434.65" gradientUnits="userSpaceOnUse">
<stop stop-color="#8DB2DC"/>
<stop offset="1" stop-color="#82A2CB"/>
</linearGradient>
<linearGradient id="paint40_linear_1_171" x1="161.03" y1="424.26" x2="167.03" y2="434.65" gradientUnits="userSpaceOnUse">
<stop stop-color="#BBDAFF"/>
<stop offset="1" stop-color="#ABC8EB"/>
</linearGradient>
<clipPath id="clip0_1_171">
<rect width="442.02" height="434.8" fill="white" transform="translate(125 55)"/>
</clipPath>
</defs>
</svg>
