<svg width="126" height="126" viewBox="0 0 126 126" fill="none" xmlns="http://www.w3.org/2000/svg">
<g style="mix-blend-mode:multiply" clip-path="url(#clip0_1_12)">
<path d="M94.1165 116.876C108.407 108.626 118.835 95.0357 123.106 79.0965C127.377 63.1572 125.141 46.1741 116.89 31.8834C108.64 17.5926 95.0497 7.16478 79.1105 2.89386C63.1712 -1.37706 46.1882 0.858802 31.8974 9.10957L63.007 62.9929C75.156 84.0357 81.9675 95.8336 94.1165 116.876Z" fill="#0066FF"/>
<path d="M31.8835 9.11783C17.5927 17.3686 7.16486 30.9584 2.89395 46.8977C-1.37697 62.837 0.858891 79.82 9.10966 94.1108C17.3604 108.402 30.9503 118.829 46.8895 123.1C62.8288 127.371 79.8118 125.135 94.1026 116.885L62.993 63.0012L31.8835 9.11783Z" fill="#00E5AB"/>
</g>
<defs>
<clipPath id="clip0_1_12">
<rect width="126" height="126" fill="white"/>
</clipPath>
</defs>
</svg>
