<svg xmlns="http://www.w3.org/2000/svg" xml:space="preserve" width="1000px" height="396px" x="0px" y="0px" viewBox="0 0 1000 396"><path fill="#00B4CC" fill-rule="evenodd" d="M321.116 375.914c-5.432 14.924-21.933 22.618-36.857 17.187-14.923-5.431-22.617-21.934-17.186-36.855l81.81-224.771c5.432-14.924 21.933-22.621 36.856-17.188 14.924 5.431 22.619 21.932 17.188 36.856l-81.811 224.771z" clip-rule="evenodd"/><linearGradient id="a" x1="185.4966" x2="313.7582" y1="175.9526" y2="222.636" gradientUnits="userSpaceOnUse"><stop offset="0" style="stop-color:#9cc83f"/><stop offset="0.3388" style="stop-color:#91c44e"/><stop offset="1" style="stop-color:#7dbe67"/></linearGradient><path fill="url(#a)" fill-rule="evenodd" d="M297.771 246.701c5.484 15.064-2.285 31.72-17.349 37.203-15.064 5.482-31.721-2.284-37.204-17.348l-41.736-114.668c-5.482-15.064 2.284-31.72 17.349-37.205 15.064-5.482 31.722 2.285 37.205 17.35l41.735 114.668z" clip-rule="evenodd"/><linearGradient id="b" x1="-34.6924" x2="93.6087" y1="122.6392" y2="169.3369" gradientUnits="userSpaceOnUse"><stop offset="0" style="stop-color:#e72643"/><stop offset="0.276" style="stop-color:#e72942"/><stop offset="0.4976" style="stop-color:#e83341"/><stop offset="0.7003" style="stop-color:#ea443d"/><stop offset="0.8907" style="stop-color:#ec5c39"/><stop offset="1" style="stop-color:#ed6d36"/></linearGradient><path fill="url(#b)" fill-rule="evenodd" d="M57.916 262.361c0 15.716-12.741 28.457-28.458 28.457C13.741 290.818 1 278.077 1 262.361V29.616C1 13.898 13.741 1.157 29.458 1.157c15.717 0 28.458 12.741 28.458 28.458v232.746z" clip-rule="evenodd"/><path fill="#D83563" d="M59.89 144.792c-.016.013-.033.024-.05.036v.043c.016-.026.035-.053.05-.079z"/><linearGradient id="c" x1="50.1934" x2="190.2901" y1="171.4346" y2="222.4256" gradientUnits="userSpaceOnUse"><stop offset="0" style="stop-color:#e9493f"/><stop offset="0.0606" style="stop-color:#eb5736"/><stop offset="0.2198" style="stop-color:#ef7523"/><stop offset="0.3873" style="stop-color:#f38d13"/><stop offset="0.5647" style="stop-color:#f59e08"/><stop offset="0.7586" style="stop-color:#f7a802"/><stop offset="1" style="stop-color:#f7ab00"/></linearGradient><path fill="url(#c)" d="M173.921 164.83c-2.646-29.116-27.111-51.929-56.916-51.929a57.048 57.048 0 0 0-19.015 3.252c-8.534 3.01-19.881 9.94-28.432 17.602-4.049 3.628-7.472 7.419-9.668 11.037 2.918-2.182 6.434-3.967 10.367-5.236 4.238-1.366 8.955-2.134 13.932-2.134 9.991 0 18.944 3.077 25.03 7.937 2.007 1.984 3.643 3.707 4.988 5.295 1.346 1.979 2.305 4.111 2.797 6.35v105.357c0 11.639 6.99 21.64 17 26.049a28.363 28.363 0 0 0 11.458 2.408c15.717 0 28.458-12.741 28.458-28.457v-23.31c.157-1.726.249-3.471.249-5.236v-63.749c0-1.766-.091-3.51-.248-5.236z"/><path fill="#D83563" d="M70.257 139.556c-3.934 1.269-7.449 3.054-10.367 5.236l-.05.079c.279-.141 8.741-4.55 9.043-4.694.45-.214.908-.421 1.374-.621z"/><path fill="#777676" d="m537.561 128.476-.01-.001c-4.443.017-8.886-.048-13.329-.012-2.003.015-3.291 1.211-3.726 3.191a18.052 18.052 0 0 0-.412 3.93c.018 12.799.01 25.598.008 38.395 0 .53-.008 1.06-.02 1.586-.012.697-.349 1.099-1.066 1.097-3.014-.011-6.025-.029-9.039-.05-.95-.007-1.181-.521-1.224-1.427-.372-8.174-2.433-15.889-6.181-23.188-4.766-9.279-12.43-14.31-22.56-16.003-2.195-.369-4.336.265-6.47.034-2.952-.32-5.726.168-8.588.849-6.577 1.563-11.771 5.168-15.894 10.331-4.558 5.709-6.742 12.53-8.179 19.55-1.241 6.057-1.676 12.244-1.662 18.433.001.308.007.614.009.923-.001.165-.009.331-.009.496-.014 6.188.421 12.375 1.662 18.432 1.437 7.021 3.621 13.841 8.179 19.551 4.123 5.162 9.317 8.767 15.894 10.331.446.105.89.205 1.333.299l.483.102c1.527.306 3.044.521 4.593.547 1.783.088 3.567.06 5.346-.033 1.091.085 2.19.155 3.303-.031 2.703-.452 5.224-1.149 7.567-2.094.348-.14.697-.282 1.037-.435.271-.12.537-.252.805-.382a27.58 27.58 0 0 0 1.327-.68c4.946-2.705 8.924-6.769 11.824-12.414 2.936-5.721 4.821-11.698 5.686-17.949.353-2.042.601-4.101.716-6.176.023-.415.063-.83.076-1.248.016-.574.167-1.135.844-1.124 2.684.044 5.389-.399 8.044.342.842.234 1.316.737 1.597 1.578.004.006.004.014.006.02.509 1.527.558 3.086.562 4.659.002 12.103.008 24.208-.008 36.31 0 .079.01.155.012.232V249.2c0 5.734-.002 11.47 0 17.203v3.244H539.148v-3.251c.002-8.682 0-17.364 0-26.047l.002-41.383v-70.489h-1.589zm-47.07 58.135c-.003.764-.005 1.527-.011 2.29-.039 5.169-.307 10.356-1.657 15.396-.035.125-.071.251-.104.377-.047.185-.101.366-.149.552-.5 1.832-1.05 3.643-1.816 5.354-1.81 4.219-4.463 7.528-9.722 8.552-.04.008-.081.008-.122.014-1.544.286-3.179.288-4.787.04-3.471-.534-6.8-2.312-8.7-5.531-1.969-3.337-3.114-6.929-3.877-10.634-.049-.223-.088-.447-.134-.672-.026-.142-.057-.281-.084-.423-.012-.06-.019-.118-.03-.178a62.75 62.75 0 0 1-.684-4.35 84.21 84.21 0 0 1-.736-11.499 83.91 83.91 0 0 1 .109-4.653 86.975 86.975 0 0 1 1.34-11.374c.758-4.093 1.933-8.065 4.096-11.73 2.804-4.747 8.705-6.428 13.608-5.474 6.318 1.229 8.878 5.751 10.729 11.194 2.368 6.961 2.715 14.131 2.73 21.324l.002.713c.001.237-.001.475-.001.712zM569.697 130.624v-3.091h-1.217a4.731 4.731 0 0 0-.322-.013c-1.494.013-2.992.013-4.488.013h-3.364c-.874-.003-1.744-.005-2.618-.003-.047 0-.088.003-.138.003-5.675.025-6.649 1.055-6.651 6.859-.01 45.48-.014 90.959-.057 136.438 0 .104.008.192.014.285v1.547h18.83v-72.133h.008c0-18.404.002-36.808.004-55.21v-13.803c-.001-.296-.003-.595-.001-.892zM694.857 127.761h.008-.008zM694.865 127.761h-.008c-1.184-.001-2.334.116-3.489.423-1.299.346-2.412 1.481-2.809 2.784v141.677h19.507V127.761h-13.201zM677.198 227.165c-.603-.426-1.229-.82-1.847-1.224-2.79-1.809-5.717-3.444-8.345-5.462-4.899-3.764-9.764-7.592-13.784-12.355-3.826-4.532-7.291-9.326-9.505-14.843-1.853-4.62-2.879-9.462-2.705-14.524.139-4.015.096-8.039.002-12.057-.035-1.505.489-1.933 1.854-1.956h1.793c7.283.045 14.566.024 21.848.022 1.747 0 3.491-.008 5.236-.007.063 0 .117-.012.176-.016h1.202v-16h-1.136c-.1-.011-.184-.034-.3-.034-4.494.022-8.988.023-13.482.034h-16.147c-.995-.111-.999-.553-.999-2.282-.002-6.135-.012-12.269.008-18.404 0-.063-.004-.122-.006-.185v-1.927h-15.136c-3.303-.218-4.938 1.394-4.958 4.697-.006.854-.006 1.708-.01 2.563-.025 4.697-.035 9.398.029 14.096.01.887-.156 1.293-.716 1.441h-15.838v-.021c-5.128 0-10.258.014-15.386-.019h-.757v11.165c.031 3.424 1.408 4.853 4.819 4.863 1.438.006 2.875.008 4.311.012h21.727c1.385.032 1.863.545 1.834 1.998-.105 5.228.014 10.442-.573 15.672-.702 6.265-2.261 12.16-5.462 17.618-2.411 4.108-5.032 8.021-8.226 11.599-5.966 6.68-12.811 12.255-20.356 17.01-1.836 1.159-1.974 1.476-.729 3.254 2.179 3.114 4.367 6.219 6.544 9.331 1.595 2.275 3.585 2.702 6.062 1.37 3.027-1.628 5.814-3.604 8.539-5.685 5.77-4.403 11.198-9.161 15.865-14.753 2.949-3.533 5.636-7.253 8.128-11.118.361-.561.771-1.275 1.324-.24 1.032 1.93 2.474 3.549 3.749 5.299 3.542 4.863 7.821 9.038 12.372 12.892 5.807 4.916 12.188 9.059 18.744 12.921 1.183.697 1.995.647 2.77-.576 2.569-4.056 5.196-8.074 7.804-12.105.514-.793.465-1.5-.337-2.064zM848.929 185.41c-.006-.006-.008-.013-.012-.019v-2.461l.012-.082V127.522H836.165v.019c-5.354.086-6.36 1.27-6.36 6.939-.002 30.145-.002 60.287-.002 90.432l-.002.053v4.435c-.035.008-.066.016-.098.022l-.447.058c-.01.01-.023.018-.033.027-.224-.013-.511.029-.953.168l-.012.003-.81.098-.731.089a3.888 3.888 0 0 0-.751.302 6.676 6.676 0 0 1-1.189.476l-.874.213c-2.775.675-4.641 1.085-6.918 1.331a47.625 47.625 0 0 1-3.451.242c-1.909.079-4.283.104-7.436.109l-.628.002-.534.001h.53l-.216.026-.006.001-8.559.005c-1.229.002-2.46-.004-3.69-.006-2.628-.006-5.261-.01-7.89.024a3.867 3.867 0 0 1-.488-.024h-1.367v-1.848c-.002-.041-.01-.071-.01-.112.004-.529.004-1.058.006-1.587l.004-1.226c.027-5.355.027-10.712-.025-16.066-.002-.42.07-.738.195-.995.275-.563.831-.803 1.574-.971 4.933-1.111 9.629-2.813 13.868-5.633 7.952-5.291 13.132-12.529 15.531-21.798.864-3.345 1.277-6.714 1.322-10.09.002-.287.016-.573.012-.861-.002-.477-.023-.957-.041-1.436a35.027 35.027 0 0 0-.031-.859 50.636 50.636 0 0 0-.415-4.222 49.963 49.963 0 0 0-.469-2.645c-.567-2.629-1.4-5.225-2.598-7.764-2.699-5.73-6.565-10.497-11.652-14.152-6.908-4.968-14.833-7.215-23.254-7.648l-.452-.021a90.755 90.755 0 0 0-3.123-.075l-.253-.002-.25.002a90.689 90.689 0 0 0-3.125.075c-.149.008-.302.014-.452.021-8.42.433-16.345 2.68-23.254 7.648-5.085 3.655-8.954 8.421-11.652 14.152-1.197 2.539-2.028 5.134-2.596 7.764-.176.873-.343 1.75-.47 2.645a50.556 50.556 0 0 0-.416 4.222c-.014.287-.021.573-.031.859-.018.479-.039.958-.041 1.436-.002.288.012.574.014.861.043 3.375.455 6.745 1.322 10.09 2.397 9.269 7.576 16.507 15.528 21.798 4.242 2.82 8.936 4.521 13.868 5.633.743.168 1.299.407 1.576.971.126.257.198.575.194.995-.057 5.764-.055 11.527-.021 17.292.002.529.002 1.058.006 1.587.004.507-.087.857-.259 1.11-.146.538-.506.782-1.118.85a3.69 3.69 0 0 1-.487.024c-2.631-.034-5.261-.03-7.892-.024-1.229.002-2.46.008-3.69.006l-9.249-.006H724.91v.95c.035 3.648-.045 7.299.045 10.945.041 1.645.808 2.789 2.083 3.331h93.171a63.94 63.94 0 0 0 6.577-1.596c.435-.126.866-.255 1.299-.39l.913-.22c.133-.015.259-.023.353-.006a4.96 4.96 0 0 1 .117-.028c.238.109.316.367.332.783v26.31h19.116v-5.602c0-11.493 0-22.986.006-34.479.002-1.021.006-2.04.006-3.063.004-7.436.008-14.874.033-22.313.014-4.856 1.436-5.62 4.872-5.633.229-.001.465.001.713.005 4.917.098 9.836.078 14.753.096.37.004.667-.031.901-.101h.918V185.41h-22.189zm-66.575 8.099a26.433 26.433 0 0 1-6.971 1.426c-.431.032-.862.046-1.293.06-.188.002-.375.025-.563.025l-.088-.003-.088.003c-.188 0-.373-.023-.563-.025-.43-.014-.862-.028-1.292-.06a26.417 26.417 0 0 1-6.971-1.426l-.289-.104c-.427-.153-.854-.282-1.275-.458-3.409-1.423-6.173-3.656-8.234-6.672a21.571 21.571 0 0 1-2.587-5.144c-1.033-2.975-1.432-6.133-1.404-9.399a28.65 28.65 0 0 1 .402-5.037 27.453 27.453 0 0 1 .949-3.83c.735-2.27 1.775-4.308 3.123-6.092.39-.516.81-1.008 1.252-1.48 1.891-2.133 4.266-3.809 7.223-4.961a31.689 31.689 0 0 1 2.312-.787c.146-.047.293-.091.436-.135l.257-.072a23.686 23.686 0 0 1 6.751-.952 23.698 23.698 0 0 1 6.752.952l.256.072c.145.044.291.088.436.135.77.231 1.54.488 2.313.787 2.957 1.152 5.333 2.828 7.223 4.961.443.472.862.964 1.254 1.48 1.345 1.785 2.386 3.823 3.123 6.092a27.744 27.744 0 0 1 .946 3.83c.284 1.657.415 3.335.403 5.037.029 3.266-.372 6.425-1.402 9.399a21.538 21.538 0 0 1-2.588 5.144c-2.062 3.016-4.824 5.25-8.233 6.672-.425.176-.851.305-1.277.458l-.293.104zm31.179 39.057h-.855c.292-.007.585-.014.855-.023v.023zm14.157-2.636h-.002l.004-.001-.002.001z"/><g fill="#777676"><path fill-rule="evenodd" d="M919.728 134.793c12.957.101 23.831 4.647 31.902 15.116 2.994 3.887 5.079 8.233 6.646 12.869 2.719 8.05 3.716 16.359 3.534 24.787-.109 5.156-.815 10.279-2.011 15.339-1.136 4.813-2.736 9.399-5.224 13.673-3.833 6.582-8.989 11.732-15.801 15.31-6.239 3.275-12.92 4.189-19.765 4.174-4.581-.011-9.216-.365-13.571-1.964-7.839-2.875-14.305-7.608-18.941-14.662-3.339-5.076-5.6-10.588-6.936-16.519-1.75-7.772-2.655-15.596-1.838-23.555.899-8.761 2.659-17.289 7.073-25.062 2.912-5.127 6.66-9.548 11.57-12.822 4.458-2.971 9.274-5.102 14.704-5.833 2.878-.387 5.701-1.104 8.658-.851zm22.444 50.755c-.021-4.38-.08-8.715-1.141-13.052-1.223-4.998-2.938-9.658-6.15-13.721-3.132-3.956-7-6.581-12.103-7.332-4.326-.64-8.506-.172-12.265 1.942-3.634 2.044-6.419 5.155-8.445 8.828-3.307 5.993-4.758 12.484-4.914 19.291-.177 7.461-.222 14.9 2.489 22.047 2.639 6.954 6.753 12.402 14.011 15.156 6.382 2.422 12.099 1.037 17.305-2.754 7.082-5.152 9.576-12.845 10.864-21.066.486-3.093.331-6.221.349-9.339z" clip-rule="evenodd"/><path d="M997.739 127.57c-4.962.049-9.93-.33-14.884.259-1.557.187-2.448 1.046-2.938 2.492-.558 1.645-.653 3.327-.655 5.04l-.002.113c.012 43.396.01 86.791.01 130.186v4.872c-.002.12 0 .241-.002.36l.002.018v1.746H999V127.545c-.42.009-.841.021-1.261.025z"/></g></svg>