<svg xmlns="http://www.w3.org/2000/svg" xml:space="preserve" id="レイヤー_1" x="0" y="0" version="1.1" viewBox="0 0 156 105"><g fill="#595757"><path d="M139.4 94.8v7.2l-4.1-7.2h-1.9v9.5h1.5v-7.2l4.1 7.2h1.9v-9.5zM124 94.8l-3.4 9.4h1.6l.9-2.5h3.4l.9 2.5h1.6l-3.4-9.4H124zm-.4 5.5 1.1-3.1 1.1 3.1h-2.2zM101.7 104.3h1.6l-3.4-9.4h-1.5l-3.4 9.4h1.6l.9-2.5h3.4l.8 2.5zm-3.8-4 1.1-3.1 1.1 3.1h-2.2zM32.9 94.8h-7.6v1.6h3.1v7.9h1.5v-7.9h3zM20 96.4v-1.6h-6v9.5h6v-1.5h-4.5v-2.5H20v-1.5h-4.5v-2.4zM112.7 94.9h-3.8v9.4h1.5v-3.2h2.3c1.7 0 3.1-1.4 3.1-3.1 0-1.7-1.4-3.1-3.1-3.1zm0 4.7h-2.3v-3.2h2.3c.9 0 1.6.7 1.6 1.6 0 .9-.7 1.6-1.6 1.6zM87.4 94.8h1.5v6.3c0 1.7-1.4 3.1-3.1 3.1-1.7 0-3.1-1.4-3.1-3.1h1.5c0 .9.7 1.6 1.6 1.6.9 0 1.6-.7 1.6-1.6v-6.3zM59.2 94.8 57 98.6l-2.2-3.8h-1.7l3.1 5.5v4h1.5v-4l3.2-5.5zM42.5 101.2c0 .4.1.7.2.9.1.3.3.5.5.6.2.2.5.3.8.4.3.1.6.1.9.1.4 0 .7 0 .9-.1.3-.1.5-.2.6-.3.2-.1.3-.3.3-.5.1-.2.1-.3.1-.5 0-.4-.1-.6-.2-.8-.2-.2-.3-.3-.5-.4-.3-.1-.7-.2-1.2-.4-.4-.1-1-.3-1.7-.4-.4-.1-.7-.2-1-.4-.3-.2-.5-.4-.6-.6-.2-.2-.3-.4-.3-.7-.1-.2-.1-.5-.1-.7 0-.5.1-.9.3-1.2.2-.4.5-.6.8-.9.3-.2.7-.4 1.1-.5.4-.1.8-.2 1.3-.2s1 .1 1.4.2c.4.1.8.3 1.2.6.3.3.6.6.8.9.2.4.3.8.3 1.3h-1.7c0-.6-.3-1-.6-1.3-.4-.3-.8-.4-1.4-.4-.2 0-.4 0-.6.1-.2 0-.4.1-.6.2-.2.1-.3.2-.4.4-.1.2-.2.4-.2.6 0 .3.1.6.3.8.2.2.5.3.8.4 0 0 .2 0 .4.1s.5.1.8.2c.3.1.6.2.9.2.3.1.5.1.6.2.3.1.6.2.8.4l.6.6c.2.2.3.4.3.7.1.2.1.5.1.7 0 .5-.1 1-.3 1.4-.2.4-.5.7-.9.9-.4.2-.8.4-1.2.5-.5.1-.9.2-1.4.2-.5 0-1-.1-1.5-.2s-.9-.3-1.2-.6c-.4-.3-.6-.6-.8-1.1-.2-.4-.3-.9-.3-1.5h1.6zM67 101.2c0 .4.1.7.2.9.1.3.3.5.5.6.2.2.5.3.8.4.3.1.6.1.9.1.4 0 .7 0 .9-.1.3-.1.5-.2.6-.3.2-.1.3-.3.3-.5.1-.2.1-.3.1-.5 0-.4-.1-.6-.2-.8-.2-.2-.3-.3-.5-.4-.3-.1-.7-.2-1.2-.4-.4-.1-1-.3-1.6-.4-.4-.1-.7-.2-1-.4-.3-.2-.5-.4-.6-.6-.2-.2-.3-.4-.3-.7-.1-.2-.1-.5-.1-.7 0-.5.1-.9.3-1.2.2-.4.5-.6.8-.9.3-.2.7-.4 1.1-.5.4-.1.8-.2 1.3-.2s1 .1 1.4.2c.4.1.8.3 1.2.6.3.3.6.6.8.9.2.4.3.8.3 1.3h-1.7c0-.6-.3-1-.6-1.3-.4-.3-.8-.4-1.4-.4-.2 0-.4 0-.6.1-.2 0-.4.1-.6.2-.2.1-.3.2-.4.4-.1.2-.2.4-.2.6 0 .3.1.6.3.8.2.2.5.3.8.4 0 0 .2 0 .4.1s.5.1.8.2c.3.1.6.2.9.2.3.1.5.1.6.2.3.1.6.2.8.4l.6.6c.2.2.3.4.3.7.1.2.1.5.1.7 0 .5-.1 1-.3 1.4-.2.4-.5.7-.9.9-.4.2-.8.4-1.2.5-.5.1-.9.2-1.4.2-.5 0-1-.1-1.5-.2s-.9-.3-1.2-.6c-.4-.3-.6-.6-.8-1.1-.2-.4-.3-.9-.3-1.5H67zM6.8 94.9v7.1l-4.1-7.1H.8v9.4h1.5v-7.1l4.1 7.1H8.3v-9.4z"/></g><linearGradient id="SVGID_1_" x1="146.563" x2="146.563" y1="19.345" y2=".472" gradientUnits="userSpaceOnUse"><stop offset=".006" style="stop-color:#ae7900"/><stop offset="1" style="stop-color:#ffe100"/><stop offset="1" style="stop-color:#000"/></linearGradient><path fill="url(#SVGID_1_)" d="M146.6 19.3c5.2 0 9.4-4.2 9.4-9.4S151.8.5 146.6.5s-9.4 4.2-9.4 9.4c-.1 5.2 4.1 9.4 9.4 9.4zm0-17.3c4.4 0 7.9 3.6 7.9 7.9 0 4.4-3.6 7.9-7.9 7.9-4.4 0-7.9-3.6-7.9-7.9-.1-4.4 3.5-7.9 7.9-7.9z"/><linearGradient id="SVGID_2_" x1="146.563" x2="146.563" y1="19.346" y2=".471" gradientUnits="userSpaceOnUse"><stop offset=".006" style="stop-color:#ae7900"/><stop offset="1" style="stop-color:#ffe100"/><stop offset="1" style="stop-color:#000"/></linearGradient><path fill="url(#SVGID_2_)" d="M146.6 17.8c4.4 0 7.9-3.6 7.9-7.9 0-4.4-3.6-7.9-7.9-7.9-4.4 0-7.9 3.6-7.9 7.9-.1 4.4 3.5 7.9 7.9 7.9z"/><linearGradient id="SVGID_3_" x1="146.563" x2="146.563" y1="17.836" y2="1.981" gradientUnits="userSpaceOnUse"><stop offset=".006" style="stop-color:#f5aa00"/><stop offset="1" style="stop-color:#ffe100"/><stop offset="1" style="stop-color:#000"/></linearGradient><path fill="url(#SVGID_3_)" d="M146.6 17.8c4.4 0 7.9-3.6 7.9-7.9 0-4.4-3.6-7.9-7.9-7.9-4.4 0-7.9 3.6-7.9 7.9-.1 4.4 3.5 7.9 7.9 7.9z"/><linearGradient id="SVGID_4_" x1="65.403" x2="156" y1="40.711" y2="40.711" gradientUnits="userSpaceOnUse"><stop offset="0" style="stop-color:#315886"/><stop offset="1" style="stop-color:#365e8e"/></linearGradient><path fill="url(#SVGID_4_)" d="M86.2 23.1c-11.4 0-20.7 9.2-20.8 20.7v.1c0 5 1.8 9.6 4.7 13.2.3.4.7.8 1.1 1.2.6-.1 1.3-.2 1.9-.2 11-1.4 21.9-3.1 32.6-5.1-2.4-1.1-4.9-1.8-7.6-1.8 2.7.1 5.3.7 7.6 1.8.8-.2 1.6-.3 2.3-.5-2.9-1.7-6.3-2.8-9.9-2.9H86.9c-2.3 0-4.3-1.4-5.1-3.3-.3-.7-.5-1.5-.5-2.4v-.1c.1-3.1 2.6-5.6 5.7-5.6h54V44c.5-.2 1-.3 1.5-.5 4.2-1.4 8.2-2.9 12.1-4.5l1.5-.6V23.1H86.2z"/><linearGradient id="SVGID_5_" x1="0" x2="43.046" y1="42.681" y2="42.681" gradientUnits="userSpaceOnUse"><stop offset="0" style="stop-color:#315886"/><stop offset="1" style="stop-color:#365e8e"/></linearGradient><path fill="url(#SVGID_5_)" d="M21.2 23.1H0v15.1h3.8v24h1.5c3.9 0 7.9 0 12.1-.1h1.5V49.3l7.3 12.6c.6 0 1.1 0 1.7-.1 4.4-.2 8.9-.4 13.5-.7.6 0 1.1-.1 1.7-.1L21.2 23.1z"/><linearGradient id="SVGID_6_" x1="48.416" x2="63.515" y1="41.833" y2="41.833" gradientUnits="userSpaceOnUse"><stop offset="0" style="stop-color:#315886"/><stop offset="1" style="stop-color:#365e8e"/></linearGradient><path fill="url(#SVGID_6_)" d="M48.4 60.5c.5 0 1-.1 1.5-.1 4-.3 8-.7 12.1-1.1.5-.1 1-.1 1.5-.2v-36H48.4v37.4z"/><linearGradient id="SVGID_7_" x1="11.326" x2="11.326" y1="62.079" y2="91.068" gradientUnits="userSpaceOnUse"><stop offset="0" style="stop-color:#001c58"/><stop offset="1" style="stop-color:#000542"/></linearGradient><path fill="url(#SVGID_7_)" d="M18.9 62.1h-1.5c-4.2.1-8.2.1-12.1.1H3.8V76H0v15.1h22.7V76h-3.8V62.1z"/><linearGradient id="SVGID_8_" x1="131.272" x2="131.272" y1="38.425" y2="91.068" gradientUnits="userSpaceOnUse"><stop offset="0" style="stop-color:#001c58"/><stop offset="1" style="stop-color:#000542"/></linearGradient><path fill="url(#SVGID_8_)" d="M154.5 39.1c-3.9 1.6-7.9 3.1-12.1 4.5-.5.2-1 .3-1.5.5v26.7c0 2.9-2.4 5.3-5.3 5.3h-16.2c-1.7 6.8-6.6 12.3-12.9 15.1H135.7c12.1-.3 20.2-8.5 20.2-20.8v-32c-.4.2-.9.4-1.4.7z"/><linearGradient id="SVGID_9_" x1="72.192" x2="72.192" y1="52.454" y2="91.068" gradientUnits="userSpaceOnUse"><stop offset="0" style="stop-color:#001c58"/><stop offset="1" style="stop-color:#000542"/></linearGradient><path fill="url(#SVGID_9_)" d="M118.2 69.3c-.2-4.3-1.7-8.2-4.1-11.5-.4-.5-.8-1-1.2-1.4-1.4-1.6-3-2.9-4.9-4-.8.2-1.5.3-2.3.5 1.9.9 1.9.9 0 0C95.1 55 84.1 56.7 73.1 58c-.6.1-1.3.2-1.9.2 3.8 3.9 9.1 6.3 14.9 6.3h10.6c2.9 0 5.3 2.2 5.6 5v.7c0 3.1-2.5 5.7-5.7 5.7H63.5V59.2c-.5.1-1 .1-1.5.2-4.1.4-8.1.8-12.1 1.1-.5 0-1 .1-1.5.1v9.7L43 60.9c-.6 0-1.1.1-1.7.1-4.6.3-9.1.5-13.5.7-.6 0-1.1 0-1.7.1L43 91.1h55.1c11.1-.3 20.1-9.5 20.1-20.8.1-.3 0-.6 0-1z"/><path fill="#9DB8DF" d="m0 23.1 1.5 1.5h18.8l.9-1.5z"/><linearGradient id="SVGID_10_" x1="146.563" x2="146.563" y1="19.345" y2=".472" gradientUnits="userSpaceOnUse"><stop offset=".006" style="stop-color:#ae7900"/><stop offset="1" style="stop-color:#ffe100"/><stop offset="1" style="stop-color:#000"/></linearGradient><path fill="url(#SVGID_10_)" d="M146.6 19.3c5.2 0 9.4-4.2 9.4-9.4S151.8.5 146.6.5s-9.4 4.2-9.4 9.4c-.1 5.2 4.1 9.4 9.4 9.4zm0-17.3c4.4 0 7.9 3.6 7.9 7.9 0 4.4-3.6 7.9-7.9 7.9-4.4 0-7.9-3.6-7.9-7.9-.1-4.4 3.5-7.9 7.9-7.9z"/><linearGradient id="SVGID_11_" x1="146.563" x2="146.563" y1="19.346" y2=".471" gradientUnits="userSpaceOnUse"><stop offset=".006" style="stop-color:#ae7900"/><stop offset="1" style="stop-color:#ffe100"/><stop offset="1" style="stop-color:#000"/></linearGradient><path fill="url(#SVGID_11_)" d="M146.6 17.8c4.4 0 7.9-3.6 7.9-7.9 0-4.4-3.6-7.9-7.9-7.9-4.4 0-7.9 3.6-7.9 7.9-.1 4.4 3.5 7.9 7.9 7.9z"/><linearGradient id="SVGID_12_" x1="146.563" x2="146.563" y1="17.836" y2="1.981" gradientUnits="userSpaceOnUse"><stop offset=".006" style="stop-color:#f5aa00"/><stop offset="1" style="stop-color:#ffe100"/><stop offset="1" style="stop-color:#000"/></linearGradient><path fill="url(#SVGID_12_)" d="M146.6 17.8c4.4 0 7.9-3.6 7.9-7.9 0-4.4-3.6-7.9-7.9-7.9-4.4 0-7.9 3.6-7.9 7.9-.1 4.4 3.5 7.9 7.9 7.9z"/><path fill="#9DB8DF" d="M49.9 24.6H62l1.5-1.5H48.4l1.5 1.5zM86.2 23.1v1.5h68.3l1.5-1.5z"/><path fill="none" d="m41.326 61.074 8.548 14.81zM27.858 61.732l16.05 27.799zM48.4 60.5c-1.8.1-3.6.3-5.4.4l5.4 9.3v-9.7zM110.8 56.4c-1.5-1.5-3.2-2.6-5.1-3.5 1.9.9 3.6 2.1 5.1 3.5zM1.5 77.5h3.8z"/><linearGradient id="SVGID_13_" x1="4.532" x2="4.532" y1="62.234" y2="77.478" gradientUnits="userSpaceOnUse"><stop offset="0" style="stop-color:#2f5b9b"/><stop offset="1" style="stop-color:#314f8e"/></linearGradient><path fill="url(#SVGID_13_)" d="M5.3 62.2H3.8V76l1.5 1.5V62.2z"/><path fill="#6472A7" d="M1.5 77.5h3.8L3.8 76H0l1.5 1.5z"/><linearGradient id="SVGID_14_" x1=".756" x2=".756" y1="75.968" y2="91.068" gradientUnits="userSpaceOnUse"><stop offset="0" style="stop-color:#304e8d"/><stop offset="1" style="stop-color:#324483"/></linearGradient><path fill="url(#SVGID_14_)" d="M1.5 77.5 0 76v15.1l1.5-1.5z"/><linearGradient id="SVGID_15_" x1="21.896" x2="21.896" y1="75.968" y2="91.068" gradientUnits="userSpaceOnUse"><stop offset="0" style="stop-color:#001b59"/><stop offset="1" style="stop-color:#001554"/></linearGradient><path fill="url(#SVGID_15_)" d="m21.1 89.6 1.6 1.5V76l-1.6 1.5z"/><path fill="#6472A7" d="m21.1 77.5 1.6-1.5h-3.8l-1.5 1.5z"/><linearGradient id="SVGID_16_" x1="18.122" x2="18.122" y1="62.079" y2="77.478" gradientUnits="userSpaceOnUse"><stop offset="0" style="stop-color:#002b69"/><stop offset="1" style="stop-color:#001e5c"/></linearGradient><path fill="url(#SVGID_16_)" d="m17.4 77.5 1.5-1.5V62.1h-1.5v15.4z"/><linearGradient id="SVGID_17_" x1="35.006" x2="35.006" y1="61.779" y2="91.068" gradientUnits="userSpaceOnUse"><stop offset="0" style="stop-color:#00397f"/><stop offset="1" style="stop-color:#002065"/></linearGradient><path fill="url(#SVGID_17_)" d="M27.8 61.8c-.6 0-1.1 0-1.7.1L43 91.1l.9-1.5-16.1-27.8z"/><linearGradient id="SVGID_18_" x1="155.245" x2="155.245" y1="38.425" y2="69.501" gradientUnits="userSpaceOnUse"><stop offset="0" style="stop-color:#004380"/><stop offset="1" style="stop-color:#001c58"/></linearGradient><path fill="url(#SVGID_18_)" d="M154.5 39.1v30.4L156 68V38.4c-.5.2-1 .4-1.5.7z"/><linearGradient id="SVGID_19_" x1="141.655" x2="141.655" y1="43.505" y2="70.683" gradientUnits="userSpaceOnUse"><stop offset="0" style="stop-color:#286fb1"/><stop offset="1" style="stop-color:#365392"/></linearGradient><path fill="url(#SVGID_19_)" d="M140.9 44v25.2l1.5 1.5V43.5c-.5.2-1 .3-1.5.5z"/><linearGradient id="SVGID_20_" x1="62.761" x2="62.761" y1="59.166" y2="77.478" gradientUnits="userSpaceOnUse"><stop offset="0" style="stop-color:#002d6a"/><stop offset="1" style="stop-color:#001e5c"/></linearGradient><path fill="url(#SVGID_20_)" d="m62 77.5 1.5-1.5V59.2c-.5.1-1 .1-1.5.2v18.1z"/><linearGradient id="SVGID_21_" x1="45.647" x2="45.647" y1="60.939" y2="75.873" gradientUnits="userSpaceOnUse"><stop offset="0" style="stop-color:#003d83"/><stop offset="1" style="stop-color:#003277"/></linearGradient><path fill="url(#SVGID_21_)" d="m49.9 75.9-1.5-5.6-5.4-9.4c-.6 0-1.1.1-1.7.1l8.6 14.9z"/><linearGradient id="SVGID_22_" x1="49.17" x2="49.17" y1="60.426" y2="75.873" gradientUnits="userSpaceOnUse"><stop offset="0" style="stop-color:#2f5b9b"/><stop offset="1" style="stop-color:#305392"/></linearGradient><path fill="url(#SVGID_22_)" d="M49.9 75.9V60.4c-.5 0-1 .1-1.5.1v9.7l1.5 5.7z"/><linearGradient id="SVGID_23_" x1="72.29" x2="72.29" y1="52.918" y2="89.558" gradientUnits="userSpaceOnUse"><stop offset="0" style="stop-color:#003f87"/><stop offset="1" style="stop-color:#002870"/></linearGradient><path fill="url(#SVGID_23_)" d="M73.2 58.1c3.4 3.1 8 5.1 13 5.1h11.1c3 .3 5.5 2.4 6.3 5.2.2.6.3 1.3.3 2 0 4-3.2 7.2-7.2 7.2H62V59.3c-4.1.4-8.1.8-12.1 1.1v15.4L41.3 61c-4.6.3-9.1.5-13.5.7l16 27.8h54.3c5-.2 9.7-2.2 13.2-5.8 3.5-3.6 5.4-8.4 5.4-13.4 0-4.1-1.3-8.1-3.7-11.4-.5-.7-1.1-1.4-1.7-2l-.5-.5c-1.5-1.5-3.2-2.6-5.1-3.5-10.6 2.1-21.6 3.8-32.5 5.2z"/><linearGradient id="SVGID_24_" x1="11.326" x2="11.326" y1="62.114" y2="89.558" gradientUnits="userSpaceOnUse"><stop offset="0" style="stop-color:#003f87"/><stop offset="1" style="stop-color:#002870"/></linearGradient><path fill="url(#SVGID_24_)" d="M5.3 62.2v15.2H1.5v12.1h19.6v-12h-3.8V62.1c-4.1.1-8.1.1-12 .1z"/><linearGradient id="SVGID_25_" x1="133.28" x2="133.28" y1="39.051" y2="89.558" gradientUnits="userSpaceOnUse"><stop offset="0" style="stop-color:#003f87"/><stop offset="1" style="stop-color:#002870"/></linearGradient><path fill="url(#SVGID_25_)" d="M142.4 57.4v13.3c0 3.7-3 6.8-6.8 6.8h-15.1c-1.5 4.8-4.5 9-8.5 12h23.7c11.4-.2 18.7-7.8 18.7-19.2V39.1c-3.9 1.6-7.9 3.1-12.1 4.5v13.8z"/><path fill="#9DB8DF" d="M5.3 62.2v15.2zM86.2 63.1H92z"/><path fill="#001B53" d="M103.6 68.3c-.8-2.8-3.3-4.9-6.3-5.2 3 .3 5.5 2.4 6.3 5.2z"/><path fill="#9DB8DF" d="M92 63.1h4.7zM49.9 75.9zM49.9 60.4v15.4z"/><linearGradient id="SVGID_26_" x1=".756" x2=".756" y1="23.12" y2="38.22" gradientUnits="userSpaceOnUse"><stop offset="0" style="stop-color:#77a0d4"/><stop offset="1" style="stop-color:#759ace"/></linearGradient><path fill="url(#SVGID_26_)" d="M1.5 24.6 0 23.1v15.1l1.5-1.5z"/><linearGradient id="SVGID_27_" x1="2.643" x2="2.643" y1="36.71" y2="38.22" gradientUnits="userSpaceOnUse"><stop offset="0" style="stop-color:#365e8e"/><stop offset="1" style="stop-color:#355a89"/></linearGradient><path fill="url(#SVGID_27_)" d="M1.5 36.7 0 38.2h3.8l1.5-1.5z"/><linearGradient id="SVGID_28_" x1="4.532" x2="4.532" y1="36.71" y2="62.24" gradientUnits="userSpaceOnUse"><stop offset="0" style="stop-color:#799bce"/><stop offset="1" style="stop-color:#7080b4"/></linearGradient><path fill="url(#SVGID_28_)" d="m5.3 36.7-1.5 1.5v24h1.5V36.7z"/><linearGradient id="SVGID_29_" x1="18.122" x2="18.122" y1="43.639" y2="62.114" gradientUnits="userSpaceOnUse"><stop offset="0" style="stop-color:#426398"/><stop offset="1" style="stop-color:#41588d"/></linearGradient><path fill="url(#SVGID_29_)" d="M17.4 43.6v18.5h1.5V49.3l-1.5-5.7z"/><linearGradient id="SVGID_30_" x1="22.603" x2="22.603" y1="43.639" y2="61.846" gradientUnits="userSpaceOnUse"><stop offset="0" style="stop-color:#4c71ad"/><stop offset="1" style="stop-color:#4c66a1"/></linearGradient><path fill="url(#SVGID_30_)" d="m17.4 43.6 1.5 5.6 7.3 12.6c.6 0 1.1 0 1.7-.1L17.4 43.6z"/><linearGradient id="SVGID_31_" x1="155.245" x2="155.245" y1="-28.899" y2="39.051" gradientUnits="userSpaceOnUse"><stop offset="0" style="stop-color:#3d75a9"/><stop offset="1" style="stop-color:#3f6ba0"/></linearGradient><path fill="url(#SVGID_31_)" d="M154.5 24.6V39l1.5-.6V23.1l-1.5 1.5z"/><linearGradient id="SVGID_32_" x1="80.653" x2="108.077" y1="49.578" y2="49.578" gradientUnits="userSpaceOnUse"><stop offset="0" style="stop-color:#4a77b4"/><stop offset="1" style="stop-color:#768ec0"/></linearGradient><path fill="url(#SVGID_32_)" d="M98.2 49.5H86.9c-2.3 0-4.3-1.4-5.1-3.3l-1.1 1.1c1.2 2.2 3.6 3.7 6.3 3.7H98.2c2.7.1 5.3.7 7.6 1.8.8-.2 1.6-.3 2.3-.5-2.9-1.6-6.3-2.6-9.9-2.8z"/><linearGradient id="SVGID_33_" x1="141.655" x2="141.655" y1="36.71" y2="43.999" gradientUnits="userSpaceOnUse"><stop offset="0" style="stop-color:#7697cb"/><stop offset="1" style="stop-color:#778ec3"/></linearGradient><path fill="url(#SVGID_33_)" d="m142.4 36.7-1.5 1.5V44c.5-.2 1-.3 1.5-.5v-6.8z"/><linearGradient id="SVGID_34_" x1="69.287" x2="69.287" y1="58.302" y2="43.777" gradientUnits="userSpaceOnUse"><stop offset="0" style="stop-color:#44659d"/><stop offset="1" style="stop-color:#7090c5"/></linearGradient><path fill="url(#SVGID_34_)" d="M71.6 56.4c-2.9-3.4-4.7-7.8-4.7-12.5v-.1h-1.5v.1c0 5 1.8 9.6 4.7 13.2.3.4.7.8 1.1 1.2.6-.1 1.3-.2 1.9-.2-.5-.5-1-1.1-1.5-1.7z"/><linearGradient id="SVGID_35_" x1="62.761" x2="62.761" y1="23.12" y2="59.321" gradientUnits="userSpaceOnUse"><stop offset="0" style="stop-color:#3b73a7"/><stop offset="1" style="stop-color:#3d5a8f"/></linearGradient><path fill="url(#SVGID_35_)" d="M63.5 59.2v-36L62 24.6v34.7c.5 0 1-.1 1.5-.1z"/><linearGradient id="SVGID_36_" x1="20.289" x2="43.046" y1="42.085" y2="42.085" gradientUnits="userSpaceOnUse"><stop offset="0" style="stop-color:#4988c5"/><stop offset="1" style="stop-color:#4c66a1"/></linearGradient><path fill="url(#SVGID_36_)" d="M43 60.9 21.2 23.1l-.9 1.5h.1l21 36.4c.5 0 1.1 0 1.6-.1z"/><linearGradient id="SVGID_37_" x1="49.17" x2="49.17" y1="23.12" y2="60.545" gradientUnits="userSpaceOnUse"><stop offset="0" style="stop-color:#77a0d4"/><stop offset="1" style="stop-color:#7184b7"/></linearGradient><path fill="url(#SVGID_37_)" d="m49.9 24.6-1.5-1.5v37.4c.5 0 1-.1 1.5-.1V24.6z"/><linearGradient id="SVGID_38_" x1="75.785" x2="75.785" y1="23.12" y2="43.777" gradientUnits="userSpaceOnUse"><stop offset="0" style="stop-color:#9db8df"/><stop offset="1" style="stop-color:#7090c5"/></linearGradient><path fill="url(#SVGID_38_)" d="M86.2 24.6v-1.5c-11.4 0-20.7 9.2-20.8 20.7h1.5c.1-10.6 8.7-19.2 19.3-19.2z"/><linearGradient id="SVGID_39_" x1="78.001" x2="78.001" y1="24.63" y2="62.242" gradientUnits="userSpaceOnUse"><stop offset="0" style="stop-color:#537abc"/><stop offset="1" style="stop-color:#506aa7"/></linearGradient><path fill="url(#SVGID_39_)" d="M86.2 24.6h68.3V39c-3.9 1.6-7.9 3.1-12.1 4.5v-6.8H86.9c-3.9 0-7.1 3.2-7.2 7.1v.6c.1 1.1.4 2.1.9 3 1.2 2.2 3.6 3.7 6.3 3.7H98.1c2.7.1 5.3.7 7.6 1.8C95.1 55 84.1 56.7 73.1 58c-.6-.5-1.1-1.1-1.6-1.6-2.9-3.4-4.7-7.8-4.7-12.5v-.1c.2-10.6 8.8-19.2 19.4-19.2zM1.5 36.7h3.8v25.5c3.9 0 7.9 0 12.1-.1V43.6l10.5 18.1c4.4-.2 8.9-.4 13.5-.7l-21-36.4H1.5v12.1zm48.4 23.7c4-.3 8-.7 12.1-1.1V24.6H49.9v35.8z"/><path fill="#9DB8DF" d="M5.3 36.7v25.5zM80.7 47.4c-.5-.9-.8-1.9-.9-3 0 1 .3 2.1.9 3zM49.9 60.4V24.6z"/><linearGradient id="SVGID_40_" x1="113.554" x2="113.554" y1="75.968" y2="91.068" gradientUnits="userSpaceOnUse"><stop offset="0" style="stop-color:#5a689f"/><stop offset="1" style="stop-color:#797fad"/></linearGradient><path fill="url(#SVGID_40_)" d="M112.1 89.5c4-3 7-7.3 8.5-12l-1.1-1.5c-1.7 6.8-6.6 12.3-12.9 15.1l5.5-1.6z"/><linearGradient id="SVGID_41_" x1="62.006" x2="96.735" y1="76.723" y2="76.723" gradientUnits="userSpaceOnUse"><stop offset="0" style="stop-color:#6572a6"/><stop offset="1" style="stop-color:#747eae"/></linearGradient><path fill="url(#SVGID_41_)" d="M63.5 76 62 77.5h34.7V76z"/><linearGradient id="SVGID_42_" x1="71.228" x2="96.735" y1="61.355" y2="61.355" gradientUnits="userSpaceOnUse"><stop offset="0" style="stop-color:#003779"/><stop offset="1" style="stop-color:#001b53"/></linearGradient><path fill="url(#SVGID_42_)" d="M86.2 63.1c-5 0-9.6-1.9-13-5.1-.6.1-1.3.2-1.9.2 3.8 3.9 9.1 6.3 14.9 6.3h10.6V63l-10.6.1z"/><linearGradient id="SVGID_43_" x1="96.735" x2="103.906" y1="73.892" y2="73.892" gradientUnits="userSpaceOnUse"><stop offset="0" style="stop-color:#747eae"/><stop offset="1" style="stop-color:#3d5a97"/></linearGradient><path fill="url(#SVGID_43_)" d="M96.7 76v1.5c4 0 7.2-3.2 7.2-7.2h-1.5c0 3.1-2.5 5.7-5.7 5.7z"/><linearGradient id="SVGID_44_" x1="103.906" x2="96.735" y1="66.72" y2="66.72" gradientUnits="userSpaceOnUse"><stop offset="0" style="stop-color:#3d5a97"/><stop offset="1" style="stop-color:#001b53"/></linearGradient><path fill="url(#SVGID_44_)" d="M97.3 63.2h-.6v1.5c2.9 0 5.3 2.2 5.6 5v.7h1.5c0-.7-.1-1.3-.3-2-.7-2.9-3.2-5-6.2-5.2z"/><linearGradient id="SVGID_45_" x1="83.334" x2="83.334" y1="36.71" y2="47.362" gradientUnits="userSpaceOnUse"><stop offset="0" style="stop-color:#315886"/><stop offset="1" style="stop-color:#4a77b4"/></linearGradient><path fill="url(#SVGID_45_)" d="M79.7 43.8v.6c.1 1.1.4 2.1.9 3l1.1-1.1c-.3-.7-.5-1.5-.5-2.4v-.1c.1-3.1 2.6-5.6 5.7-5.6v-1.5c-3.9 0-7.1 3.2-7.2 7.1z"/><linearGradient id="SVGID_46_" x1="86.921" x2="142.409" y1="37.465" y2="37.465" gradientUnits="userSpaceOnUse"><stop offset="0" style="stop-color:#315886"/><stop offset="1" style="stop-color:#365e8e"/></linearGradient><path fill="url(#SVGID_46_)" d="M86.9 36.7v1.5h54l1.5-1.5z"/><linearGradient id="SVGID_47_" x1="111.99" x2="111.99" y1="52.454" y2="69.718" gradientUnits="userSpaceOnUse"><stop offset="0" style="stop-color:#3769a9"/><stop offset="1" style="stop-color:#00215e"/></linearGradient><path fill="url(#SVGID_47_)" d="M114.1 57.9c-.4-.5-.8-1-1.2-1.4-1.4-1.6-3-2.9-4.9-4-.8.2-1.5.3-2.3.5 1.9.9 3.6 2.1 5.1 3.5l.5.5c.6.6 1.2 1.3 1.7 2 2.3 3.1 3.6 6.9 3.7 10.8l1.5-.4c-.2-4.4-1.7-8.3-4.1-11.5z"/><linearGradient id="SVGID_48_" x1="108.196" x2="108.196" y1="91.068" y2="69.337" gradientUnits="userSpaceOnUse"><stop offset="0" style="stop-color:#00013d"/><stop offset="1" style="stop-color:#00215e"/></linearGradient><path fill="url(#SVGID_48_)" d="m118.2 69.3-1.5.4v.6c0 5-1.9 9.8-5.4 13.4-3.5 3.6-8.2 5.7-13.2 5.8V91c11.1-.3 20.1-9.5 20.1-20.8.1-.2 0-.5 0-.9z"/><linearGradient id="SVGID_49_" x1="139.013" x2="139.013" y1="69.173" y2="77.478" gradientUnits="userSpaceOnUse"><stop offset="0" style="stop-color:#365392"/><stop offset="1" style="stop-color:#7580b0"/></linearGradient><path fill="url(#SVGID_49_)" d="M140.9 69.2v1.5c0 2.9-2.4 5.3-5.3 5.3v1.5c3.7 0 6.8-3 6.8-6.8l-1.5-1.5z"/><linearGradient id="SVGID_50_" x1="119.425" x2="135.616" y1="76.723" y2="76.723" gradientUnits="userSpaceOnUse"><stop offset="0" style="stop-color:#6572a6"/><stop offset="1" style="stop-color:#7580b0"/></linearGradient><path fill="url(#SVGID_50_)" d="M120.2 76h-.8l1.1 1.5h15.1V76h-15.4z"/><linearGradient id="SVGID_51_" x1="145.897" x2="145.897" y1="67.991" y2="91.068" gradientUnits="userSpaceOnUse"><stop offset="0" style="stop-color:#001c58"/><stop offset="1" style="stop-color:#000542"/></linearGradient><path fill="url(#SVGID_51_)" d="M154.5 69.5v.8c0 11.4-7.3 19-18.7 19.2V91c12.1-.3 20.2-8.5 20.2-20.8V68l-1.5 1.5z"/></svg>