<svg width="20" height="20" viewBox="0 0 20 20" fill="none" xmlns="http://www.w3.org/2000/svg">
<g clip-path="url(#clip0_39_3170)">
<path d="M3.92224 0.00292969C1.76784 0.00292969 0.00463867 1.76615 0.00463867 3.92053V16.0776C0.00463867 18.232 1.76784 19.9945 3.92224 19.9945H16.0793C18.2337 19.9945 19.9962 18.232 19.9962 16.0776V3.92053C19.9962 1.76613 18.2337 0.00292969 16.0793 0.00292969H3.92224ZM10.6825 3.73847C12.563 3.89039 13.6554 5.10479 13.7854 6.65743C13.8864 7.45649 13.8581 8.04943 13.7429 8.48579C14.8155 8.52125 16.0707 9.00223 16.1506 10.7477V12.466C16.0394 13.9665 15.5054 15.8196 12.7661 16.2127C12.1493 16.3013 11.4571 16.242 10.5592 16.2359C9.65644 16.2121 8.8693 16.2164 8.18088 16.229C5.40206 16.2799 3.87152 15.0583 3.85718 12.4434C3.83486 11.5535 3.87018 10.5887 3.8672 9.39179C3.85604 8.63329 3.85184 7.84091 3.86908 7.10417C3.87442 6.96039 3.85566 6.80279 3.89348 6.64803C4.01308 4.96213 5.36712 3.97407 6.9476 3.75473L10.6825 3.73845L10.6825 3.73847ZM7.55952 6.08365C5.9588 6.34573 5.8797 8.17245 7.55952 8.39817H10.598C12.1987 8.13609 12.2778 6.30937 10.598 6.08365H7.55952ZM6.86936 11.1401C5.22146 11.3959 5.19722 13.4708 6.92818 13.6855L12.5102 13.7055C14.1441 13.4519 14.1393 11.3791 12.4514 11.1595L6.86936 11.1401Z" fill="white"/>
</g>
<defs>
<clipPath id="clip0_39_3170">
<rect width="20" height="20" fill="white"/>
</clipPath>
</defs>
</svg>
