<svg width="705" height="576" viewBox="0 0 705 576" fill="none" xmlns="http://www.w3.org/2000/svg">
<g style="mix-blend-mode:multiply" opacity="0.7">
<path d="M357.096 213.458C307.332 242.319 257.569 271.202 207.827 300.085C205.468 301.448 203.108 302.811 200.749 304.196C194.688 307.722 200.641 324.706 200.641 324.706C205.771 327.691 210.944 330.655 216.074 333.619C243.889 349.694 271.682 365.726 299.497 381.779C331.359 400.169 363.2 418.559 395.062 436.949C405.257 442.855 415.474 448.74 425.691 454.646C429.869 457.048 434.696 460.79 439.631 461.331C445.908 463.084 439.176 461.483 445.107 461.483C462.229 461.483 554.028 400.061 585.674 381.714C593.12 377.387 600.588 373.082 608.034 368.733C608.749 368.322 608.792 358.759 608.034 358.305C606.324 357.331 604.636 356.358 602.926 355.384C580.133 342.209 557.318 329.054 534.525 315.9C477.641 283.037 420.756 250.216 363.849 217.353C361.62 216.054 359.369 214.778 357.117 213.48L357.096 213.458Z" fill="#B7C0EB"/>
</g>
<path d="M358.221 213.458L201.658 304.326C199.255 305.732 198.043 307.571 198.043 309.388C198.043 312.785 198 316.16 198 319.492C198 321.352 199.212 323.235 201.658 324.641L435.193 459.471C435.496 459.622 435.778 459.795 436.103 459.947C436.189 459.99 436.297 460.012 436.384 460.077C436.579 460.163 436.752 460.25 436.947 460.336C436.968 460.336 436.99 460.336 436.99 460.336C437.445 460.531 437.899 460.661 438.354 460.79C438.375 460.79 438.419 460.834 438.44 460.834C438.548 460.855 438.635 460.899 438.743 460.92C439.003 460.985 439.263 461.05 439.523 461.115C439.609 461.115 439.674 461.137 439.739 461.158C439.826 461.202 439.955 461.202 440.042 461.223C440.258 461.266 440.475 461.31 440.691 461.331C440.778 461.331 440.865 461.375 440.951 461.375C441.059 461.375 441.146 461.418 441.254 461.418C441.471 461.461 441.665 461.461 441.86 461.483C441.969 461.483 442.055 461.526 442.185 461.526C442.25 461.526 442.337 461.526 442.423 461.526C442.64 461.526 442.856 461.526 443.094 461.569C443.181 461.569 443.311 461.569 443.397 461.569H444.35C444.35 461.569 444.566 461.569 444.696 461.569C444.761 461.569 444.826 461.569 444.891 461.569C445.194 461.569 445.475 461.526 445.757 461.504C445.865 461.504 445.973 461.504 446.081 461.483H446.168C446.644 461.439 447.12 461.353 447.596 461.288H447.661C447.77 461.245 447.899 461.223 448.029 461.202C448.267 461.158 448.505 461.093 448.765 461.028C448.917 461.028 449.068 460.942 449.241 460.92C449.458 460.855 449.674 460.812 449.891 460.747C449.934 460.747 449.977 460.704 450.021 460.704C450.107 460.661 450.172 460.639 450.259 460.596C450.583 460.488 450.908 460.379 451.211 460.228C451.341 460.185 451.449 460.141 451.579 460.077C451.99 459.903 452.38 459.709 452.748 459.492L609.333 368.603L609.376 358.457L358.178 213.458H358.221Z" fill="#B7C0EB"/>
<path d="M201.701 312.244C199.255 310.816 198.043 308.956 198.043 307.095C198.043 310.47 198 313.867 198 317.242C198 319.102 199.212 320.963 201.658 322.369L435.193 457.199L435.237 447.074L201.701 312.244Z" fill="#EFF1FE"/>
<path d="M358.221 211.143L609.42 356.163L452.813 447.052C447.986 449.865 440.064 449.843 435.215 447.052L201.68 312.222C196.809 309.41 196.81 304.823 201.636 302.032L358.2 211.143H358.221Z" fill="#FDFCFF"/>
<path d="M452.835 447.052C452.467 447.269 452.077 447.442 451.687 447.636C451.558 447.701 451.449 447.723 451.341 447.788C451.016 447.918 450.692 448.047 450.367 448.156C450.237 448.199 450.129 448.242 450.021 448.285C449.804 448.35 449.566 448.394 449.35 448.48C449.198 448.502 449.047 448.588 448.874 448.632C448.657 448.675 448.419 448.718 448.181 448.761C448.008 448.783 447.856 448.826 447.705 448.848C447.228 448.934 446.752 448.999 446.298 449.043C446.146 449.043 445.995 449.043 445.843 449.086C445.562 449.086 445.28 449.129 444.999 449.129C444.826 449.129 444.653 449.129 444.458 449.129H443.787C443.592 449.129 443.397 449.129 443.181 449.129C442.986 449.129 442.769 449.108 442.575 449.086C442.38 449.086 442.185 449.086 441.99 449.043C441.774 449.043 441.579 449.021 441.384 448.956C441.189 448.956 441.016 448.913 440.821 448.891C440.605 448.87 440.388 448.805 440.15 448.783C439.977 448.74 439.804 448.718 439.631 448.675C439.371 448.61 439.133 448.545 438.873 448.48C438.722 448.437 438.57 448.415 438.419 448.372C437.964 448.242 437.531 448.091 437.098 447.918C436.882 447.831 436.665 447.745 436.449 447.658C436.362 447.615 436.254 447.571 436.146 447.528C435.821 447.377 435.518 447.225 435.258 447.052L435.215 457.177C435.518 457.351 435.8 457.502 436.124 457.675C436.211 457.718 436.319 457.74 436.406 457.783C436.6 457.891 436.774 457.978 436.968 458.043C436.968 458.043 437.012 458.043 437.033 458.064C437.466 458.238 437.921 458.367 438.375 458.519C438.397 458.519 438.44 458.54 438.462 458.54C438.57 458.562 438.657 458.584 438.765 458.627C439.025 458.692 439.284 458.757 439.544 458.843C439.631 458.843 439.696 458.865 439.761 458.887C439.847 458.908 439.977 458.93 440.064 458.952C440.28 458.995 440.497 459.038 440.713 459.06C440.8 459.081 440.886 459.103 440.973 459.125C441.081 459.125 441.168 459.146 441.276 459.146C441.492 459.189 441.687 459.211 441.882 459.233C441.99 459.233 442.077 459.276 442.207 459.276C442.207 459.276 442.358 459.276 442.445 459.276C442.661 459.276 442.878 459.276 443.116 459.298C443.202 459.298 443.332 459.298 443.419 459.298H444.371C444.371 459.298 444.588 459.298 444.718 459.298H444.912C445.215 459.298 445.497 459.276 445.778 459.233C445.886 459.233 445.995 459.233 446.103 459.211C446.146 459.211 446.168 459.211 446.189 459.211C446.666 459.168 447.142 459.081 447.618 459.016H447.661C447.791 458.973 447.921 458.951 448.051 458.93C448.289 458.865 448.527 458.822 448.787 458.778C448.938 458.735 449.09 458.692 449.263 458.627C449.48 458.584 449.696 458.54 449.912 458.454C449.956 458.454 449.999 458.432 450.042 458.432C450.129 458.411 450.194 458.367 450.28 458.324C450.605 458.216 450.93 458.108 451.233 457.978C451.363 457.913 451.471 457.891 451.601 457.826C452.012 457.632 452.402 457.459 452.77 457.221L609.355 366.332L609.398 356.207L452.791 447.096L452.835 447.052Z" fill="#E4E7FB"/>
<path d="M363.719 240.762L357.312 244.483L344.39 237.019L350.819 233.298L363.719 240.762Z" fill="#788BAD"/>
<path d="M363.719 240.762V242.774L357.312 246.517V244.483L363.719 240.762Z" fill="#596780"/>
<path d="M357.312 244.483V246.517L344.39 239.053V237.019L357.312 244.483Z" fill="#596780"/>
<path d="M352.767 247.123L339.931 254.565L327.008 247.123L339.866 239.658L352.767 247.123Z" fill="#788BAD"/>
<path d="M352.767 247.123V249.156L339.909 256.599L339.931 254.565L352.767 247.123Z" fill="#596780"/>
<path d="M339.931 254.565L339.909 256.599L327.008 249.135V247.123L339.931 254.565Z" fill="#596780"/>
<path d="M378.958 249.524L372.529 253.267L359.585 245.803L365.992 242.082L378.958 249.524Z" fill="#788BAD"/>
<path d="M378.958 249.524L378.936 251.558L372.529 255.3V253.267L378.958 249.524Z" fill="#596780"/>
<path d="M372.529 253.267V255.301L359.585 247.836V245.803L372.529 253.267Z" fill="#596780"/>
<path d="M367.962 255.906L355.148 263.349L342.204 255.885L355.061 248.421L367.962 255.906Z" fill="#788BAD"/>
<path d="M367.962 255.906V257.919L355.126 265.361L355.148 263.349L367.962 255.906Z" fill="#596780"/>
<path d="M355.148 263.349L355.126 265.361L342.204 257.918V255.885L355.148 263.349Z" fill="#596780"/>
<path d="M394.153 258.308L387.724 262.051L374.802 254.587L381.231 250.844L394.153 258.308Z" fill="#788BAD"/>
<path d="M394.153 258.308L394.132 260.363L387.724 264.063V262.051L394.153 258.308Z" fill="#596780"/>
<path d="M387.724 262.051V264.063L374.802 256.62V254.587L387.724 262.051Z" fill="#596780"/>
<path d="M383.179 264.669L370.343 272.111L357.399 264.669L370.278 257.205L383.179 264.669Z" fill="#788BAD"/>
<path d="M383.179 264.669V266.702L370.321 274.166L370.343 272.111L383.179 264.669Z" fill="#596780"/>
<path d="M370.343 272.111L370.321 274.166L357.399 266.702V264.669L370.343 272.111Z" fill="#596780"/>
<path d="M409.348 267.092L402.941 270.813L389.997 263.349L396.426 259.628L409.348 267.092Z" fill="#788BAD"/>
<path d="M409.348 267.092V269.125L402.941 272.847V270.813L409.348 267.092Z" fill="#596780"/>
<path d="M402.941 270.813V272.847L389.997 265.361V263.349L402.941 270.813Z" fill="#596780"/>
<path d="M398.417 273.453L385.56 280.917L372.594 273.453L385.473 265.967L398.417 273.453Z" fill="#788BAD"/>
<path d="M398.417 273.453L398.374 275.465L385.56 282.929V280.917L398.417 273.453Z" fill="#596780"/>
<path d="M385.56 280.917V282.929L372.594 275.465V273.453L385.56 280.917Z" fill="#596780"/>
<path d="M424.565 275.854L418.137 279.597L405.214 272.111L411.621 268.411L424.565 275.854Z" fill="#788BAD"/>
<path d="M424.565 275.854V277.887L418.137 281.609V279.597L424.565 275.854Z" fill="#596780"/>
<path d="M418.137 279.597V281.609L405.214 274.166V272.111L418.137 279.597Z" fill="#596780"/>
<path d="M413.591 282.236L400.755 289.7L387.833 282.236L400.669 274.772L413.591 282.236Z" fill="#788BAD"/>
<path d="M413.591 282.236V284.27L400.733 291.734L400.755 289.7L413.591 282.236Z" fill="#596780"/>
<path d="M400.755 289.7L400.733 291.734L387.811 284.248L387.833 282.236L400.755 289.7Z" fill="#596780"/>
<path d="M439.761 284.659L433.354 288.381L420.431 280.917L426.838 277.195L439.761 284.659Z" fill="#788BAD"/>
<path d="M439.761 284.659V286.671L433.354 290.414V288.381L439.761 284.659Z" fill="#596780"/>
<path d="M433.354 288.381V290.414L420.409 282.929L420.431 280.917L433.354 288.381Z" fill="#596780"/>
<path d="M428.808 290.998L415.972 298.462L403.05 290.998L415.885 283.556L428.808 290.998Z" fill="#788BAD"/>
<path d="M428.808 290.998V293.054L415.95 300.496L415.972 298.462L428.808 290.998Z" fill="#596780"/>
<path d="M415.972 298.462L415.95 300.496L403.028 293.054L403.05 290.998L415.972 298.462Z" fill="#596780"/>
<path d="M454.978 293.422L448.549 297.143L435.626 289.7L442.055 285.958L454.978 293.422Z" fill="#788BAD"/>
<path d="M454.978 293.422L454.956 295.455L448.527 299.177L448.549 297.143L454.978 293.422Z" fill="#596780"/>
<path d="M448.549 297.143L448.527 299.177L435.626 291.713V289.7L448.549 297.143Z" fill="#596780"/>
<path d="M444.003 299.782L431.167 307.246L418.245 299.782L431.081 292.318L444.003 299.782Z" fill="#788BAD"/>
<path d="M444.003 299.782V301.816L431.146 309.258L431.167 307.246L444.003 299.782Z" fill="#596780"/>
<path d="M431.167 307.246L431.146 309.258L418.223 301.816L418.245 299.782L431.167 307.246Z" fill="#596780"/>
<path d="M345.256 260.277L332.398 267.741L311.77 255.842L324.627 248.377L345.256 260.277Z" fill="#788BAD"/>
<path d="M345.256 260.277V262.311L332.398 269.753V267.741L345.256 260.277Z" fill="#596780"/>
<path d="M332.398 267.741V269.753L311.77 257.854V255.842L332.398 267.741Z" fill="#596780"/>
<path d="M360.473 269.061L347.615 276.525L334.693 269.039L347.55 261.596L360.473 269.061Z" fill="#788BAD"/>
<path d="M360.473 269.061L360.451 271.094L347.615 278.558V276.525L360.473 269.061Z" fill="#596780"/>
<path d="M347.615 276.525V278.558L334.693 271.094V269.039L347.615 276.525Z" fill="#596780"/>
<path d="M375.668 277.823L362.832 285.287L349.888 277.844L362.745 270.38L375.668 277.823Z" fill="#788BAD"/>
<path d="M375.668 277.823V279.856L362.81 287.32L362.832 285.287L375.668 277.823Z" fill="#596780"/>
<path d="M362.832 285.287L362.81 287.32L349.888 279.856V277.844L362.832 285.287Z" fill="#596780"/>
<path d="M390.885 286.606L378.027 294.071L365.105 286.606L377.941 279.142L390.885 286.606Z" fill="#788BAD"/>
<path d="M390.885 286.606L390.863 288.662L378.027 296.104V294.071L390.885 286.606Z" fill="#596780"/>
<path d="M378.027 294.071V296.104L365.105 288.64V286.606L378.027 294.071Z" fill="#596780"/>
<path d="M406.08 295.39L393.222 302.854L380.3 295.369L393.157 287.926L406.08 295.39Z" fill="#788BAD"/>
<path d="M406.08 295.39L406.058 297.424L393.222 304.867V302.854L406.08 295.39Z" fill="#596780"/>
<path d="M393.222 302.854V304.866L380.3 297.402V295.369L393.222 302.854Z" fill="#596780"/>
<path d="M421.297 304.174L408.439 311.638L395.517 304.153L408.353 296.71L421.297 304.174Z" fill="#788BAD"/>
<path d="M421.297 304.174L421.275 306.208L408.418 313.65L408.439 311.638L421.297 304.174Z" fill="#596780"/>
<path d="M408.439 311.638L408.418 313.65L395.517 306.208V304.153L408.439 311.638Z" fill="#596780"/>
<path d="M337.745 273.453L324.887 280.917L296.769 264.669L309.605 257.205L337.745 273.453Z" fill="#788BAD"/>
<path d="M337.745 273.453V275.465L324.887 282.929V280.917L337.745 273.453Z" fill="#596780"/>
<path d="M324.887 280.917V282.929L296.748 266.702L296.769 264.669L324.887 280.917Z" fill="#596780"/>
<path d="M315.017 277.823L302.181 285.287L281.552 273.387L294.388 265.923L315.017 277.823Z" fill="#788BAD"/>
<path d="M315.017 277.823V279.856L302.159 287.321L302.181 285.287L315.017 277.823Z" fill="#596780"/>
<path d="M302.181 285.287L302.159 287.32L281.531 275.421L281.552 273.387L302.181 285.287Z" fill="#596780"/>
<path d="M352.961 282.236L340.104 289.7L327.181 282.236L340.017 274.772L352.961 282.236Z" fill="#788BAD"/>
<path d="M352.961 282.236L352.94 284.248L340.082 291.712L340.104 289.7L352.961 282.236Z" fill="#596780"/>
<path d="M340.104 289.7L340.082 291.712L327.181 284.248V282.236L340.104 289.7Z" fill="#596780"/>
<path d="M330.212 286.606L317.376 294.049L304.453 286.606L317.289 279.142L330.212 286.606Z" fill="#788BAD"/>
<path d="M330.212 286.606V288.64L317.376 296.104V294.049L330.212 286.606Z" fill="#596780"/>
<path d="M317.376 294.049V296.104L304.453 288.619V286.606L317.376 294.049Z" fill="#596780"/>
<path d="M368.157 290.999L355.299 298.463L342.377 290.999L355.234 283.534L368.157 290.999Z" fill="#788BAD"/>
<path d="M368.157 290.999L368.135 293.032L355.299 300.496V298.463L368.157 290.999Z" fill="#596780"/>
<path d="M355.299 298.463V300.496L342.355 293.032L342.377 290.999L355.299 298.463Z" fill="#596780"/>
<path d="M345.429 295.39L332.593 302.854L319.649 295.39L332.506 287.926L345.429 295.39Z" fill="#788BAD"/>
<path d="M345.429 295.39V297.402L332.571 304.867L332.593 302.854L345.429 295.39Z" fill="#596780"/>
<path d="M332.593 302.854L332.571 304.867L319.649 297.402V295.39L332.593 302.854Z" fill="#596780"/>
<path d="M383.352 299.782L370.516 307.225L357.594 299.782L370.451 292.318L383.352 299.782Z" fill="#788BAD"/>
<path d="M383.352 299.782V301.816L370.494 309.258L370.516 307.225L383.352 299.782Z" fill="#596780"/>
<path d="M370.516 307.225L370.494 309.258L357.572 301.816L357.594 299.782L370.516 307.225Z" fill="#596780"/>
<path d="M360.646 304.174L347.788 311.617L334.866 304.153L347.702 296.688L360.646 304.174Z" fill="#788BAD"/>
<path d="M360.646 304.174V306.208L347.788 313.65V311.617L360.646 304.174Z" fill="#596780"/>
<path d="M347.788 311.617V313.65L334.866 306.208V304.153L347.788 311.617Z" fill="#596780"/>
<path d="M398.569 308.566L385.711 316.03L372.789 308.566L385.646 301.102L398.569 308.566Z" fill="#788BAD"/>
<path d="M398.569 308.566V310.6L385.711 318.042V316.03L398.569 308.566Z" fill="#596780"/>
<path d="M385.711 316.03V318.042L372.789 310.6V308.566L385.711 316.03Z" fill="#596780"/>
<path d="M375.841 312.936L362.983 320.4L350.083 312.936L362.918 305.494L375.841 312.936Z" fill="#788BAD"/>
<path d="M375.841 312.936V314.97L362.983 322.434V320.4L375.841 312.936Z" fill="#596780"/>
<path d="M362.983 320.4V322.434L350.061 314.97L350.083 312.936L362.983 320.4Z" fill="#596780"/>
<path d="M470.194 302.206L463.766 305.927L450.843 298.463L457.25 294.741L470.194 302.206Z" fill="#788BAD"/>
<path d="M470.194 302.206L470.173 304.218L463.766 307.96V305.927L470.194 302.206Z" fill="#596780"/>
<path d="M463.766 305.927V307.96L450.843 300.496V298.463L463.766 305.927Z" fill="#596780"/>
<path d="M459.22 308.545L446.363 316.009L433.44 308.566L446.276 301.102L459.22 308.545Z" fill="#788BAD"/>
<path d="M459.22 308.544L459.199 310.578L446.363 318.042V316.009L459.22 308.544Z" fill="#596780"/>
<path d="M446.363 316.009V318.042L433.44 310.6V308.566L446.363 316.009Z" fill="#596780"/>
<path d="M418.331 317.328L418.31 319.362L410.712 314.992L410.734 312.936L418.331 317.328Z" fill="#596780"/>
<path d="M444.111 317.328L444.09 319.362L431.254 326.826V324.792L444.111 317.328Z" fill="#596780"/>
<path d="M400.907 324.792V326.826L387.984 319.362L388.006 317.328L400.907 324.792Z" fill="#596780"/>
<path d="M413.786 317.328L400.907 324.792L388.006 317.328L400.863 309.864L413.786 317.328Z" fill="#788BAD"/>
<path d="M413.786 317.328L413.764 319.362L400.907 326.826V324.792L413.786 317.328Z" fill="#596780"/>
<path d="M444.111 317.328L431.254 324.792L416.124 333.576L403.201 326.112L418.331 317.328L410.734 312.936L423.57 305.494L431.167 309.886L437.639 313.629L444.111 317.328Z" fill="#788BAD"/>
<path d="M431.254 324.792V326.826L416.124 335.588V333.576L431.254 324.792Z" fill="#596780"/>
<path d="M416.124 333.576V335.588L403.201 328.146V326.112L416.124 333.576Z" fill="#596780"/>
<path d="M391.058 321.72L378.2 329.184L365.278 321.72L378.135 314.256L391.058 321.72Z" fill="#788BAD"/>
<path d="M391.058 321.72L391.036 323.754L378.2 331.196V329.184L391.058 321.72Z" fill="#596780"/>
<path d="M378.2 329.184V331.196L365.278 323.754V321.72L378.2 329.184Z" fill="#596780"/>
<path d="M413.807 334.874L400.972 342.317L380.473 330.504L393.331 323.04L413.807 334.874Z" fill="#788BAD"/>
<path d="M413.807 334.875V336.908L400.972 344.351V342.317L413.807 334.875Z" fill="#596780"/>
<path d="M400.972 342.317V344.351L380.473 332.516V330.504L400.972 342.317Z" fill="#596780"/>
<path d="M307.506 290.998L294.67 298.463L266.509 282.215L279.366 274.75L307.506 290.998Z" fill="#788BAD"/>
<path d="M307.506 290.999V293.032L294.648 300.475L294.67 298.463L307.506 290.999Z" fill="#596780"/>
<path d="M294.67 298.463L294.648 300.475L266.509 284.248V282.215L294.67 298.463Z" fill="#596780"/>
<path d="M383.525 334.874L370.689 342.36L296.921 299.782L309.778 292.318L383.525 334.874Z" fill="#788BAD"/>
<path d="M383.525 334.874V336.908L370.668 344.372L370.689 342.36L383.525 334.874Z" fill="#596780"/>
<path d="M370.689 342.36L370.668 344.372L296.921 301.794V299.782L370.689 342.36Z" fill="#596780"/>
<path d="M398.742 343.658L385.885 351.122L372.962 343.68L385.82 336.216L398.742 343.658Z" fill="#788BAD"/>
<path d="M398.742 343.658L398.72 345.692L385.885 353.156V351.122L398.742 343.658Z" fill="#596780"/>
<path d="M385.885 351.122V353.156L372.962 345.692V343.68L385.885 351.122Z" fill="#596780"/>
<path d="M499.07 318.886L492.641 322.607L479.719 315.143L486.147 311.422L499.07 318.886Z" fill="#788BAD"/>
<path d="M499.07 318.886V320.92L492.641 324.641V322.607L499.07 318.886Z" fill="#596780"/>
<path d="M492.641 322.607V324.641L479.719 317.177V315.143L492.641 322.607Z" fill="#596780"/>
<path d="M488.095 325.247L475.26 332.711L462.337 325.247L475.173 317.783L488.095 325.247Z" fill="#788BAD"/>
<path d="M488.095 325.247V327.281L475.26 334.723V332.711L488.095 325.247Z" fill="#596780"/>
<path d="M475.26 332.711V334.723L462.337 327.259V325.247L475.26 332.711Z" fill="#596780"/>
<path d="M514.265 327.648L507.858 331.391L494.936 323.927L501.343 320.206L514.265 327.648Z" fill="#788BAD"/>
<path d="M514.265 327.648V329.682L507.836 333.403L507.858 331.391L514.265 327.648Z" fill="#596780"/>
<path d="M507.858 331.391L507.836 333.403L494.914 325.939L494.936 323.927L507.858 331.391Z" fill="#596780"/>
<path d="M503.312 334.031L490.455 341.495L477.532 334.009L490.39 326.567L503.312 334.031Z" fill="#788BAD"/>
<path d="M503.312 334.031V336.043L490.455 343.507V341.495L503.312 334.031Z" fill="#596780"/>
<path d="M490.455 341.495V343.507L477.532 336.043V334.009L490.455 341.495Z" fill="#596780"/>
<path d="M472.987 334.031L460.151 341.495L447.207 334.031L460.064 326.567L472.987 334.031Z" fill="#788BAD"/>
<path d="M472.987 334.031V336.043L460.129 343.507L460.151 341.495L472.987 334.031Z" fill="#596780"/>
<path d="M460.151 341.495L460.129 343.507L447.207 336.043V334.031L460.151 341.495Z" fill="#596780"/>
<path d="M488.204 342.793L475.346 350.257L462.424 342.793L475.26 335.329L488.204 342.793Z" fill="#788BAD"/>
<path d="M488.204 342.793V344.827L475.346 352.291V350.257L488.204 342.793Z" fill="#596780"/>
<path d="M475.346 350.257V352.291L462.424 344.827V342.793L475.346 350.257Z" fill="#596780"/>
<path d="M539.352 342.144L532.945 345.865L520.023 338.401L526.452 334.68L539.352 342.144Z" fill="#788BAD"/>
<path d="M539.352 342.144V344.178L532.945 347.877V345.865L539.352 342.144Z" fill="#596780"/>
<path d="M532.945 345.865V347.877L520.023 340.435V338.401L532.945 345.865Z" fill="#596780"/>
<path d="M528.4 348.505L515.542 355.969L502.641 348.505L515.499 341.041L528.4 348.505Z" fill="#788BAD"/>
<path d="M528.4 348.505V350.538L515.542 357.981V355.969L528.4 348.505Z" fill="#596780"/>
<path d="M515.542 355.969V357.981L502.62 350.538L502.641 348.505L515.542 355.969Z" fill="#596780"/>
<path d="M554.569 350.928L548.141 354.627L535.218 347.185L541.647 343.464L554.569 350.928Z" fill="#788BAD"/>
<path d="M554.569 350.928V352.94L548.141 356.683V354.627L554.569 350.928Z" fill="#596780"/>
<path d="M548.141 354.627V356.683L535.218 349.197V347.185L548.141 354.627Z" fill="#596780"/>
<path d="M543.617 357.288L530.759 364.731L517.837 357.288L530.694 349.824L543.617 357.288Z" fill="#788BAD"/>
<path d="M543.617 357.288L543.595 359.322L530.759 366.765V364.731L543.617 357.288Z" fill="#596780"/>
<path d="M530.759 364.731V366.765L517.837 359.322V357.288L530.759 364.731Z" fill="#596780"/>
<path d="M569.786 359.711L563.357 363.433L550.435 355.969L556.842 352.247L569.786 359.711Z" fill="#788BAD"/>
<path d="M569.786 359.711L569.765 361.724L563.336 365.445L563.357 363.433L569.786 359.711Z" fill="#596780"/>
<path d="M563.358 363.433L563.336 365.445L550.413 358.002L550.435 355.969L563.358 363.433Z" fill="#596780"/>
<path d="M558.812 366.051L545.976 373.515L533.032 366.051L545.889 358.608L558.812 366.051Z" fill="#788BAD"/>
<path d="M558.812 366.051V368.084L545.954 375.548L545.976 373.515L558.812 366.051Z" fill="#596780"/>
<path d="M545.976 373.515L545.954 375.548L533.032 368.084V366.051L545.976 373.515Z" fill="#596780"/>
<path d="M513.291 357.267L500.433 364.731L487.511 357.288L500.369 349.803L513.291 357.267Z" fill="#788BAD"/>
<path d="M513.291 357.267V359.322L500.433 366.765V364.731L513.291 357.267Z" fill="#596780"/>
<path d="M500.433 364.731V366.765L487.511 359.322V357.288L500.433 364.731Z" fill="#596780"/>
<path d="M528.486 366.072L515.65 373.515L502.728 366.051L515.564 358.608L528.486 366.072Z" fill="#788BAD"/>
<path d="M528.486 366.072V368.084L515.65 375.548V373.515L528.486 366.072Z" fill="#596780"/>
<path d="M515.65 373.515V375.548L502.706 368.084L502.728 366.051L515.65 373.515Z" fill="#596780"/>
<path d="M543.703 374.834L530.846 382.299L517.923 374.834L530.781 367.37L543.703 374.834Z" fill="#788BAD"/>
<path d="M543.703 374.834V376.868L530.846 384.332V382.299L543.703 374.834Z" fill="#596780"/>
<path d="M530.846 382.299V384.332L517.923 376.868V374.834L530.846 382.299Z" fill="#596780"/>
<path d="M498.161 366.051L485.303 373.515L472.381 366.072L485.238 358.608L498.161 366.051Z" fill="#788BAD"/>
<path d="M498.161 366.051V368.084L485.303 375.548V373.515L498.161 366.051Z" fill="#596780"/>
<path d="M485.303 373.515V375.548L472.381 368.084V366.072L485.303 373.515Z" fill="#596780"/>
<path d="M513.378 374.834L500.52 382.277L487.598 374.834L500.433 367.37L513.378 374.834Z" fill="#788BAD"/>
<path d="M513.378 374.834L513.356 376.868L500.52 384.332V382.277L513.378 374.834Z" fill="#596780"/>
<path d="M500.52 382.277V384.332L487.576 376.847L487.598 374.834L500.52 382.277Z" fill="#596780"/>
<path d="M528.595 383.618L515.715 391.082L502.793 383.618L515.65 376.154L528.595 383.618Z" fill="#788BAD"/>
<path d="M528.595 383.618L528.573 385.652L515.715 393.116V391.082L528.595 383.618Z" fill="#596780"/>
<path d="M515.715 391.082V393.116L502.793 385.652V383.618L515.715 391.082Z" fill="#596780"/>
<path d="M483.052 374.834L470.195 382.277L457.272 374.834L470.13 367.392L483.052 374.834Z" fill="#788BAD"/>
<path d="M483.052 374.834V376.846L470.194 384.332V382.277L483.052 374.834Z" fill="#596780"/>
<path d="M470.194 382.277V384.332L457.25 376.868L457.272 374.834L470.194 382.277Z" fill="#596780"/>
<path d="M498.247 383.618L485.411 391.082L472.489 383.618L485.325 376.154L498.247 383.618Z" fill="#788BAD"/>
<path d="M498.247 383.618V385.652L485.39 393.094L485.411 391.082L498.247 383.618Z" fill="#596780"/>
<path d="M485.411 391.082L485.39 393.094L472.489 385.63V383.618L485.411 391.082Z" fill="#596780"/>
<path d="M483.225 392.424L470.368 399.909L442.163 383.618L454.999 376.154L483.225 392.424Z" fill="#788BAD"/>
<path d="M483.225 392.424L483.204 394.457L470.346 401.921L470.368 399.909L483.225 392.424Z" fill="#596780"/>
<path d="M470.368 399.909L470.346 401.921L442.163 385.652V383.618L470.368 399.909Z" fill="#596780"/>
<path d="M513.291 392.51L485.476 408.628L472.576 401.164L500.347 385.046L513.291 392.51Z" fill="#788BAD"/>
<path d="M513.291 392.51L513.269 394.522L485.476 410.662V408.628L513.291 392.51Z" fill="#596780"/>
<path d="M485.476 408.628V410.662L472.554 403.198L472.576 401.164L485.476 408.628Z" fill="#596780"/>
<path d="M405.582 376.046L368.265 397.724L287.072 350.841L324.389 329.184L405.582 376.046Z" fill="#EFF1FE"/>
<path d="M405.582 376.046V376.435L368.243 398.092L368.265 397.724L405.582 376.046Z" fill="#E4E7FB"/>
<path d="M368.265 397.724L368.243 398.092L287.072 351.209V350.841L368.265 397.724Z" fill="#EFF1FE"/>
<path d="M367.702 25.1683C367.702 25.1683 367.529 25.0601 367.421 25.0168C367.291 24.9519 367.183 24.887 367.074 24.8438C366.988 24.8221 366.923 24.7789 366.836 24.7356H366.771L366.706 24.6923C366.577 24.6274 366.49 24.5841 366.36 24.5409C366.23 24.4976 366.1 24.4543 366.014 24.4111H365.949L365.906 24.3678C365.797 24.3678 365.732 24.3245 365.667 24.2813C365.559 24.2596 365.408 24.2164 365.299 24.1947C365.235 24.1731 365.17 24.1731 365.126 24.1298C365.105 24.1298 365.061 24.1298 365.04 24.1298H364.953C364.823 24.1082 364.693 24.0649 364.564 24.0433C364.477 24.0433 364.412 24.0433 364.325 24.0216H364.196C364.044 24 363.893 24 363.763 24C363.676 24 363.633 24 363.568 24C363.525 24 363.481 24 363.438 24H363.286H363.33C363.157 24 362.983 24 362.81 24.0649C362.81 24.0649 362.702 24.0865 362.659 24.1082C362.507 24.1514 362.356 24.1947 362.226 24.2164C362.226 24.2164 362.204 24.2164 362.183 24.238C361.944 24.3245 361.728 24.4111 361.533 24.5409H361.49L352.745 29.6468C352.94 29.5386 353.178 29.4088 353.394 29.3222C353.568 29.2573 353.741 29.2141 353.936 29.1708C353.979 29.1708 354 29.1275 354.044 29.1275C354.26 29.1059 354.477 29.0626 354.693 29.0626C354.736 29.041 354.78 29.041 354.845 29.041C355.061 29.041 355.299 29.041 355.516 29.0626H355.559C355.819 29.0842 356.078 29.1275 356.317 29.1708H356.36C356.641 29.2357 356.901 29.3222 357.161 29.4088H357.204C357.485 29.4953 357.767 29.6251 358.048 29.7333C358.07 29.7333 358.07 29.7549 358.07 29.7549C358.395 29.8847 358.654 30.0362 358.979 30.2093L592.514 165.039L601.281 159.955L367.702 25.1683Z" fill="#EFF1FE"/>
<path d="M592.449 171.898C594.051 172.828 595.371 175.164 595.371 177.003L594.765 347.769C594.765 349.586 593.402 350.387 591.822 349.457L358.286 214.627C356.706 213.718 355.364 211.382 355.364 209.543L355.97 38.7552C355.97 36.9379 357.334 36.159 358.914 37.0893L592.449 171.898Z" fill="url(#paint0_linear_14_460)"/>
<path d="M610.026 174.905V174.494C610.026 174.494 610.004 174.342 610.004 174.277V174.191C610.004 174.191 610.004 174.104 610.004 174.061C610.004 173.909 609.961 173.78 609.961 173.628C609.961 173.477 609.917 173.347 609.896 173.174C609.874 173.022 609.852 172.871 609.831 172.72C609.787 172.59 609.766 172.417 609.723 172.265C609.723 172.222 609.701 172.135 609.679 172.092C609.679 172.07 609.679 172.027 609.679 172.006C609.658 171.941 609.658 171.876 609.636 171.832C609.593 171.681 609.571 171.508 609.506 171.378C609.484 171.248 609.419 171.119 609.398 170.989V170.945V170.881C609.333 170.729 609.29 170.578 609.246 170.405C609.203 170.253 609.16 170.102 609.095 169.972C609.095 169.972 609.095 169.885 609.051 169.864C609.008 169.712 608.987 169.626 608.943 169.518C608.9 169.366 608.813 169.236 608.748 169.085C608.727 168.977 608.662 168.868 608.64 168.739H608.619V168.631C608.554 168.501 608.489 168.349 608.424 168.219C608.337 168.046 608.272 167.895 608.186 167.743C608.186 167.7 608.142 167.679 608.142 167.657C608.142 167.657 608.121 167.614 608.121 167.592C608.056 167.462 607.991 167.354 607.926 167.224C607.861 167.051 607.731 166.921 607.666 166.748C607.623 166.683 607.58 166.597 607.536 166.532C607.536 166.51 607.493 166.489 607.471 166.445C607.385 166.294 607.298 166.186 607.212 166.034C607.103 165.84 606.974 165.667 606.844 165.472C606.844 165.45 606.822 165.429 606.8 165.385C606.627 165.126 606.476 164.909 606.303 164.65C606.303 164.65 606.259 164.606 606.259 164.585C606.129 164.39 605.999 164.217 605.87 164.066C605.761 163.914 605.653 163.784 605.567 163.676V163.633C605.458 163.481 605.35 163.373 605.22 163.243C605.112 163.092 605.004 162.962 604.874 162.854C604.874 162.832 604.831 162.811 604.831 162.811C604.831 162.789 604.787 162.767 604.787 162.767C604.701 162.659 604.593 162.573 604.506 162.465C604.376 162.335 604.268 162.205 604.138 162.097C604.095 162.097 604.073 162.032 604.03 162.01C603.986 161.967 603.965 161.945 603.921 161.924C603.857 161.88 603.792 161.794 603.727 161.751C603.597 161.621 603.467 161.513 603.337 161.383C603.294 161.361 603.229 161.296 603.186 161.253C603.142 161.231 603.121 161.21 603.099 161.188C603.034 161.145 602.991 161.101 602.947 161.058C602.818 160.972 602.709 160.842 602.558 160.755C602.471 160.669 602.385 160.626 602.276 160.561L602.233 160.517H602.19C602.038 160.409 601.93 160.323 601.822 160.236C601.692 160.15 601.584 160.063 601.454 159.998C601.432 159.998 601.411 159.976 601.367 159.955L592.601 165.039C592.904 165.212 593.185 165.385 593.488 165.602H593.51C593.791 165.818 594.051 166.013 594.332 166.229C594.354 166.251 594.397 166.294 594.441 166.316C594.679 166.532 594.939 166.748 595.198 166.986C595.198 166.986 595.242 167.03 595.263 167.051C595.523 167.289 595.761 167.527 596.021 167.787C596.021 167.852 596.042 167.852 596.042 167.852C596.324 168.155 596.562 168.436 596.8 168.717H596.843C597.081 169.042 597.32 169.323 597.536 169.626C597.536 169.669 597.579 169.691 597.579 169.691C597.774 169.994 597.969 170.253 598.142 170.513C598.272 170.707 598.402 170.902 598.532 171.119C598.618 171.27 598.727 171.421 598.791 171.573C598.856 171.659 598.9 171.746 598.921 171.811C599.073 172.092 599.224 172.373 599.376 172.633C599.376 172.655 599.419 172.698 599.419 172.72C599.571 173.044 599.744 173.39 599.895 173.715C599.895 173.758 599.917 173.78 599.917 173.801C600.069 174.126 600.198 174.45 600.328 174.796C600.328 174.84 600.328 174.84 600.372 174.883C600.48 175.251 600.61 175.575 600.718 175.922V175.965C600.826 176.311 600.913 176.657 600.999 177.003C600.999 177.003 600.999 177.068 601.021 177.111C601.108 177.436 601.172 177.804 601.216 178.15C601.281 178.518 601.324 178.864 601.324 179.21C601.324 179.232 601.324 179.253 601.324 179.253C601.367 179.621 601.367 179.989 601.367 180.313L600.74 361.226L609.506 356.142L610.134 175.208V174.818L610.026 174.905Z" fill="#E4E7FB"/>
<path d="M592.471 165.147C597.32 167.96 601.281 174.818 601.259 180.4L600.631 361.312L349.433 216.314L350.061 35.38C350.061 29.7982 354.065 27.5265 358.936 30.3391L592.471 165.147ZM594.765 347.769L595.372 177.003C595.372 175.164 594.029 172.849 592.449 171.897L358.914 37.1108C357.312 36.1805 355.97 36.9594 355.97 38.7767L355.364 209.564C355.364 211.403 356.706 213.74 358.286 214.648L591.822 349.478C593.423 350.408 594.765 349.63 594.765 347.791V347.769Z" fill="#788BAD"/>
<g style="mix-blend-mode:multiply" opacity="0.5">
<path d="M2.22951 391.34C-0.51949 389.739 -0.541135 387.121 2.20787 385.499L128.402 314.665C131.151 313.064 135.675 313.064 138.446 314.665L203.967 350.926C206.738 352.527 206.738 355.145 203.967 356.746L77.8162 427.557C75.0672 429.158 70.5216 429.158 67.751 427.557L2.22951 391.34Z" fill="#B7C0EB"/>
</g>
<path d="M141.087 307.634L205.569 341.363C206.327 341.752 206.933 342.38 207.301 343.159C209.812 348.654 208.643 355.404 204.292 357.827L84.2883 424.377C76.9504 428.444 67.9891 428.293 60.7811 423.966L3.31179 389.479C2.5109 389.025 1.88318 388.311 1.53685 387.467C-2.35938 378.186 2.31609 375.005 3.35508 374.421C5.38978 373.296 121.627 313.692 137.905 307.417C138.944 307.006 140.113 307.093 141.108 307.612L141.087 307.634Z" fill="#E4E7FB"/>
<path d="M142.905 303.675L195.352 335.132C197.257 336.192 205.093 340.368 206.197 341.644C211.911 348.178 202.495 353.782 194.963 357.957L85.5221 418.643C77.4699 423.122 67.6211 422.949 59.7204 418.211L3.18191 384.287C-0.930766 381.821 -0.844184 376.758 3.35508 374.443L129.225 301.814C133.337 299.521 138.879 301.273 142.905 303.696V303.675Z" fill="#FDFCFF"/>
<path d="M58.1187 412.045C56.5385 411.115 55.6943 409.297 56.084 407.501C56.6468 404.884 55.6294 401.963 53.0319 400.384L35.2392 389.566C31.8624 387.511 27.6415 387.424 24.1999 389.35L24.07 389.415C22.7496 390.15 21.1262 390.129 19.8058 389.371L10.5198 383.984C7.61928 382.297 7.66257 378.099 10.5847 376.477L131.822 309.257C133.164 308.521 134.809 308.543 136.13 309.322L193.837 343.7C196.694 345.409 196.629 349.563 193.729 351.185L72.8161 418.233C71.474 418.968 69.8506 418.946 68.5302 418.168L58.1403 412.023L58.1187 412.045Z" fill="url(#paint1_linear_14_460)"/>
<!-- <g style="mix-blend-mode:screen" opacity="0.3">
<path d="M558.589 59.3496L692.77 136.262C699.091 139.875 704.221 148.789 704.177 156.058L704.004 187.17C703.961 194.439 698.788 197.425 692.489 193.768L558.567 116.272C552.268 112.637 547.116 103.702 547.116 96.4105V65.97C547.116 58.7006 552.29 55.7149 558.589 59.328V59.3496Z" fill="url(#paint2_linear_14_460)"/>
</g> -->
<path opacity="0.5" d="M39.0708 168.017C39.1357 164.382 41.7981 162.824 45.0017 164.533L108.618 198.76C111.822 200.491 114.419 204.861 114.398 208.518L113.683 301.094C113.662 304.729 111.043 306.222 107.904 304.404L80.111 288.394V311.912L59.3961 276.452L43.2917 267.17C40.1314 265.353 37.5989 260.896 37.6638 257.261L39.1141 167.995L39.0708 168.017Z" fill="url(#paint3_linear_14_460)"/>
<path d="M50.0648 214.904L49.6929 215.539L90.0588 239.162L90.4306 238.527L50.0648 214.904Z" fill="#0066FF"/>
<path d="M63.7829 230.799L63.4148 231.436L89.6936 246.607L90.0617 245.97L63.7829 230.799Z" fill="#0066FF"/>
<path d="M76.7612 246.318L76.3698 246.941L89.3294 255.076L89.7208 254.454L76.7612 246.318Z" fill="#0066FF"/>
<path d="M63.0305 238.958L62.6646 239.597L70.4205 244.04L70.7865 243.402L63.0305 238.958Z" fill="#0066FF"/>
<path d="M73.4038 220.81L73.0375 221.448L90.441 231.43L90.8073 230.792L73.4038 220.81Z" fill="#0066FF"/>
<path d="M422.617 121.704V132.608L388.698 113.028V139.986L418.44 157.142V168.046L388.698 150.89V186.869L378.785 181.157V96.4343L422.617 121.726V121.704Z" fill="white"/>
<path d="M470.844 211.987L442.445 195.588L434.587 213.307L424.782 207.639L457.077 138.039L457.683 138.385L489.979 245.262L478.528 238.663L470.865 211.966L470.844 211.987ZM467.467 200.196L456.947 163.179L446.016 187.799L467.467 200.175V200.196Z" fill="white"/>
<path d="M574.44 294.049L541.236 274.88C538.638 274.015 536.062 272.825 533.465 271.332C526.646 267.395 520.348 261.856 514.568 254.695C508.767 247.534 504.2 239.658 500.823 231.113C497.446 222.567 495.758 214.302 495.758 206.34C495.758 198.379 497.468 192.407 500.866 187.734C504.265 183.061 508.854 180.4 514.611 179.794C520.369 179.167 526.646 180.833 533.465 184.749C540.218 188.643 546.474 194.225 552.275 201.516C558.054 208.807 562.687 216.768 566.107 225.379C569.548 234.012 571.28 242.19 571.28 249.913C571.28 255.928 570.262 261.034 568.206 265.253C566.171 269.472 563.293 272.5 559.634 274.361L574.44 282.907V294.049ZM509.655 230.528C512.101 236.867 515.456 242.709 519.72 248.053C523.984 253.397 528.616 257.529 533.66 260.45C538.703 263.349 543.314 264.604 547.491 264.149C551.69 263.717 554.981 261.726 557.405 258.156C559.829 254.587 561.041 249.87 561.041 244.029C561.041 238.187 559.808 232.194 557.362 225.855C554.916 219.516 551.561 213.675 547.34 208.352C543.119 203.03 538.487 198.898 533.443 195.999C528.4 193.078 523.768 191.888 519.547 192.364C515.326 192.862 511.992 194.874 509.59 198.4C507.165 201.927 505.953 206.578 505.953 212.355C505.953 218.131 507.187 224.189 509.633 230.528H509.655Z" fill="white"/>
<path d="M226.132 361.181C220.353 357.849 215.093 357.524 211.305 359.731L207.993 361.657C211.781 359.45 217.02 359.753 222.821 363.106C234.358 369.77 243.665 385.866 243.622 399.085C243.622 405.662 241.284 410.292 237.54 412.456L240.852 410.53C244.596 408.345 246.912 403.737 246.934 397.16C246.977 383.962 237.67 367.844 226.132 361.181Z" fill="#80C5FF"/>
<path d="M222.821 363.106C234.358 369.77 243.665 385.866 243.622 399.085C243.579 412.326 234.228 417.67 222.691 411.006C211.197 404.364 201.889 388.268 201.933 375.027C201.976 361.83 211.327 356.486 222.842 363.128L222.821 363.106Z" fill="#0081ED"/>
<path d="M234.986 385.953L209.768 371.414C208.816 370.873 208.037 371.306 208.037 372.409V379.008C208.037 380.111 208.816 381.453 209.768 381.994L234.986 396.533C235.938 397.073 236.717 396.641 236.717 395.537V388.939C236.717 387.835 235.938 386.494 234.986 385.953ZM217.128 384.222C215.548 383.313 214.271 381.085 214.271 379.268C214.271 377.45 215.548 376.715 217.128 377.623C218.73 378.554 220.007 380.761 220.007 382.578C220.007 384.395 218.73 385.152 217.128 384.222ZM227.626 390.28C226.046 389.371 224.769 387.143 224.769 385.326C224.769 383.508 226.046 382.773 227.626 383.681C229.206 384.59 230.505 386.818 230.505 388.636C230.505 390.453 229.206 391.189 227.626 390.28Z" fill="#F2F2F2"/>
<path d="M228.968 397.506L215.807 389.934C211.522 387.489 208.058 389.458 208.058 394.347V395.624C211.868 402.071 217.041 407.696 222.734 410.985C228.146 414.143 233.081 414.598 236.739 412.867V410.898C236.739 406.008 233.254 399.994 228.99 397.506H228.968Z" fill="#F2F2F2"/>
<path d="M378.172 522.319C372.392 518.987 367.132 518.662 363.345 520.869L360.033 522.795C363.821 520.588 369.081 520.891 374.86 524.244C386.397 530.886 395.705 547.004 395.661 560.223C395.661 566.8 393.324 571.43 389.579 573.594L392.891 571.668C396.636 569.483 398.952 564.875 398.973 558.298C399.017 545.1 389.709 528.982 378.172 522.319Z" fill="#80C5FF"/>
<path d="M374.86 524.244C386.397 530.886 395.705 547.004 395.661 560.223C395.618 573.464 386.267 578.808 374.73 572.144C363.236 565.502 353.929 549.406 353.972 536.165C354.015 522.968 363.388 517.624 374.882 524.266L374.86 524.244Z" fill="#0081ED"/>
<path d="M387.761 574.373C384.189 575.649 379.665 574.978 374.73 572.123C370.076 569.44 365.79 565.221 362.306 560.223C363.106 556.783 366.115 555.658 369.73 557.778L380.488 563.988C383.93 565.956 386.83 570.24 387.739 574.373H387.761Z" fill="#1F2125"/>
<path d="M377.977 566.238C376.527 567.255 373.994 565.87 372.479 563.209L372.392 563.036C371.7 561.824 371.31 560.505 371.31 559.358V552.478L378.973 556.892V563.88C378.973 564.961 378.626 565.784 377.999 566.216L377.977 566.238Z" fill="#FFE5CC"/>
<path d="M370.856 531.578C370.661 531.319 370.423 531.059 370.098 530.843C369.492 530.432 368.907 530.345 368.388 530.388C367.046 530.453 365.964 531.146 365.163 532.163C364.362 533.179 363.821 534.542 363.474 536.035C363.431 536.252 363.366 536.468 363.323 536.684C362.868 538.913 362.76 541.422 362.998 544.083C363.215 546.572 363.561 549.211 364.47 551.894C364.73 552.673 365.033 553.451 365.466 554.187C366.267 555.593 367.219 556.221 368.063 556.156C369.037 556.091 369.405 554.966 369.557 553.863C369.752 552.456 370.033 551.115 370.011 549.579C370.011 547.956 369.773 546.225 369.34 544.451C369.102 543.434 368.778 542.396 368.713 541.444C368.691 541.055 368.669 540.535 368.778 540.254C368.907 539.973 369.21 539.843 369.405 539.627C370.271 538.696 370.747 537.29 371.05 535.754C371.245 534.715 371.786 532.92 370.856 531.578Z" fill="#5F3915"/>
<path d="M380.553 534.802C380.748 534.997 381.094 536.057 381.224 536.338C381.419 536.814 381.613 537.29 381.808 537.744C382.198 538.653 382.739 539.518 383.129 540.449C383.518 541.401 383.865 542.418 384.146 543.369C384.471 544.43 384.925 545.879 384.882 546.831C384.882 547.199 384.709 547.437 384.622 547.761C384.492 548.302 384.406 548.886 384.276 549.427C383.865 551.201 383.172 552.759 381.873 553.473C381.549 553.646 381.181 553.776 380.942 554.079C380.704 554.382 380.618 554.858 380.553 555.355C380.38 556.891 380.618 558.665 380.813 560.396C380.964 561.673 381.332 563.23 382.306 564.399C383.15 565.416 384.103 565.892 384.904 565.416C385.337 565.156 385.64 564.723 385.899 564.269C387.09 562.149 387.415 558.99 387.393 555.896C387.393 553.646 387.22 551.418 386.787 548.995C386.376 546.571 385.834 544.083 384.86 541.595C383.886 539.107 382.393 536.576 380.531 534.824L380.553 534.802Z" fill="#5F3915"/>
<path d="M381.938 552.132C381.029 553.603 381.202 555.853 382.306 557.173C383.432 558.492 385.077 558.363 385.986 556.891C386.895 555.42 386.722 553.149 385.618 551.829C384.492 550.509 382.847 550.639 381.938 552.11V552.132Z" fill="#FFE5CC"/>
<path d="M368.604 544.43C369.513 546.961 369.34 549.016 368.236 549.06C367.111 549.081 365.466 547.069 364.557 544.538C363.648 542.007 363.821 539.951 364.925 539.908C366.05 539.886 367.695 541.898 368.604 544.43Z" fill="#FFE5CC"/>
<path d="M382.869 542.071C381.094 538.134 378.193 534.737 375.098 532.963C371.959 531.146 369.037 531.232 367.262 533.158C366.548 533.937 366.245 535.191 366.375 536.728L367.5 548.346C367.695 550.422 368.583 552.737 369.968 554.728L371.072 556.351C373.431 559.79 376.7 561.738 379.124 561.132L380.38 560.807C381.873 560.44 382.847 559.055 383.02 557.043L383.886 546.788C383.994 545.446 383.67 543.845 382.955 542.288L382.869 542.071Z" fill="#FFE5CC"/>
<path d="M370.423 531.665C370.141 532.033 371.743 535.148 372.003 535.667C372.869 537.441 373.973 539.151 375.228 540.643C376.765 542.461 378.475 543.932 380.055 545.62C381.397 547.047 382.847 549.081 383.562 551.007C384.254 551.007 385.142 551.18 385.899 551.937C385.899 548.389 385.488 543.997 383.886 539.973C382.523 536.533 379.817 533.504 377.219 531.687C374.492 529.783 371.851 529.783 370.444 531.643L370.423 531.665Z" fill="#5F3915"/>
<path d="M372.046 533.158C372.046 533.158 372.046 537.095 368.626 537.961C367.782 538.177 367.262 538.956 367.219 540.124C367.219 540.579 367.089 540.968 366.808 541.184L366.072 538.242L366.245 534.218L367.219 532.206L368.669 531.211L370.055 531.146L372.176 532.271L372.068 533.179L372.046 533.158Z" fill="#5F3915"/>
<path d="M393.151 458.885L267.238 386.212C265.614 385.261 264.142 385.174 263.06 385.801L259.748 387.727C260.809 387.1 262.281 387.208 263.926 388.138L389.839 460.81C393.086 462.671 395.683 467.193 395.683 470.914L395.597 500.121C395.597 501.96 394.947 503.237 393.908 503.842L397.22 501.917C398.259 501.311 398.908 500.013 398.908 498.196L398.995 468.988C398.995 465.267 396.397 460.767 393.151 458.885Z" fill="#80C5FF"/>
<path d="M389.817 460.81C393.064 462.671 395.661 467.193 395.661 470.914L395.575 500.121C395.575 503.821 392.934 505.314 389.709 503.431L263.796 430.759C260.549 428.898 257.952 424.377 257.952 420.699L258.038 391.491C258.038 387.77 260.679 386.277 263.904 388.138L389.817 460.81Z" fill="#0081ED"/>
<path d="M378.128 471.974L275.744 412.91V410.444L378.128 469.529V471.974Z" fill="white"/>
<path d="M339.881 458.95L275.744 421.954V419.487L339.881 456.505V458.95Z" fill="white"/>
<path d="M378.128 481.017L344.816 461.806V459.339L378.128 478.573V481.017Z" fill="white"/>
<path d="M337.11 499.623L211.175 426.951C209.574 426.021 208.102 425.934 207.041 426.562L203.729 428.487C204.79 427.882 206.24 427.946 207.864 428.877L333.798 501.549C337.002 503.41 339.621 507.953 339.599 511.631L339.513 540.838C339.513 542.699 338.863 543.997 337.803 544.603L341.114 542.677C342.175 542.072 342.824 540.773 342.824 538.913L342.911 509.705C342.911 506.006 340.313 501.484 337.11 499.623Z" fill="#80C5FF"/>
<path d="M333.798 501.549C337.002 503.41 339.621 507.953 339.599 511.631L339.513 540.838C339.513 544.56 336.872 546.052 333.668 544.192L207.734 471.52C204.53 469.659 201.911 465.159 201.933 461.438L202.019 432.23C202.019 428.531 204.66 427.016 207.864 428.877L333.798 501.549Z" fill="#0081ED"/>
<path d="M319.014 522.968L216.63 463.904V461.438L319.014 520.523V522.968Z" fill="white"/>
<path d="M280.766 491.034L216.63 454.017V451.55L280.766 488.568V491.034Z" fill="white"/>
<path d="M319.014 513.102L285.701 493.869V491.424L319.014 510.636V513.102Z" fill="white"/>
<path d="M269.393 157.872C267.404 156.892 264.924 157.267 261.954 158.996C259.214 160.552 256.879 162.771 254.918 165.682C254.716 165.97 254.514 166.259 254.313 166.576C252.236 169.919 251.17 173.176 251.198 176.317C251.198 179.343 252.063 181.361 253.794 182.341L222.219 164.011C220.489 163.002 219.624 160.984 219.624 157.958C219.624 154.932 220.662 151.531 222.738 148.217C222.911 147.929 223.084 147.669 223.286 147.381C225.247 144.441 227.611 142.193 230.38 140.608C233.35 138.879 235.829 138.533 237.819 139.484L269.393 157.814V157.872Z" fill="#FF8080"/>
<path d="M254.313 166.576C252.236 169.919 251.17 173.176 251.198 176.317C251.198 179.343 252.063 181.361 253.794 182.341L222.219 164.011C220.489 163.002 219.624 160.984 219.624 157.958C219.624 154.932 220.662 151.531 222.738 148.217C222.911 147.929 223.084 147.669 223.286 147.381L254.918 165.653C254.716 165.942 254.514 166.23 254.313 166.547V166.576Z" fill="#FF3333"/>
<path d="M269.393 157.872C271.383 158.852 272.392 160.927 272.392 164.097C272.392 167.412 271.44 170.64 269.537 173.81C267.634 176.98 265.126 179.459 262.011 181.246C258.897 183.033 256.302 183.494 254.284 182.6C252.236 181.707 251.198 179.632 251.198 176.317C251.198 173.176 252.236 169.919 254.313 166.576C256.389 163.262 258.926 160.725 261.954 158.996C264.953 157.267 267.432 156.921 269.393 157.901V157.872Z" fill="#D60000"/>
<path d="M253.274 145.796L221.7 127.437L221.671 114.468L253.246 132.826L253.274 145.796Z" fill="#FF3333"/>
<path d="M260.252 2.15337L291.827 20.4834C291.394 20.224 290.962 19.9934 290.5 19.7917L258.926 1.46167C259.387 1.66342 259.82 1.89398 260.252 2.15337Z" fill="black"/>
<path d="M245.777 23.5383L277.352 41.8683C281.014 44.0011 282.859 48.2377 282.859 54.5783C282.859 60.2271 281.734 65.6166 279.485 70.8043C277.236 75.9632 273.834 82.0444 269.307 89.0767C265.356 95.1867 262.415 99.9997 260.426 103.487C258.465 106.974 256.763 111.182 255.351 116.139C253.909 121.096 253.217 126.659 253.246 132.855L221.671 114.525C221.671 108.329 222.363 102.767 223.776 97.8094C225.189 92.8522 226.891 88.6732 228.851 85.1571C230.812 81.6986 233.782 76.8855 237.732 70.7467C242.26 63.7144 245.662 57.6333 247.911 52.4743C250.16 47.3154 251.314 41.8971 251.285 36.2483C251.285 29.9365 249.439 25.6711 245.777 23.5383Z" fill="#FF3333"/>
<path d="M226.314 78.3553L194.74 60.0253C196.037 54.5782 198.315 48.497 201.516 41.753C204.745 35.0378 209.042 28.3802 214.405 21.8379C219.768 15.2956 226.054 9.96373 233.234 5.81354C243.644 -0.0370671 252.236 -1.4781 258.926 1.51925L290.5 19.8492C283.782 16.8519 275.218 18.2929 264.808 24.1435C257.629 28.2937 251.343 33.6255 245.979 40.1679C240.587 46.7102 236.291 53.3678 233.09 60.083C229.861 66.8559 227.611 72.9082 226.314 78.3553Z" fill="#FF8080"/>
<path d="M290.5 19.8205C297.219 22.8467 300.592 30.4554 300.65 42.6754C300.65 48.8718 299.929 54.6071 298.459 59.9678C296.988 65.2996 295.085 70.1703 292.749 74.6087C290.414 79.0471 287.357 84.3213 283.522 90.3737C280.062 95.9649 277.496 100.202 275.823 103.17C274.151 106.139 272.738 109.655 271.613 113.747C270.489 117.84 269.912 122.451 269.941 127.524V136.17L253.274 145.796V132.827C253.217 126.63 253.909 121.068 255.351 116.111C256.763 111.153 258.465 106.974 260.426 103.458C262.386 99.9998 265.356 95.1867 269.307 89.0479C273.834 82.0157 277.236 75.9345 279.485 70.7756C281.734 65.6167 282.888 60.1984 282.859 54.5495C282.859 47.9496 280.841 43.6265 276.89 41.609C272.94 39.5627 268.326 40.0527 263.049 43.0789C257.427 46.3356 252.669 51.0622 248.805 57.2875C244.912 63.5128 242.029 70.3721 240.126 77.779L226.285 78.3266C227.583 72.8795 229.861 66.7983 233.061 60.0543C236.291 53.339 240.587 46.6815 245.95 40.1391C251.314 33.5968 257.6 28.265 264.78 24.1148C275.189 18.2642 283.782 16.8232 290.471 19.8205H290.5Z" fill="#D60000"/>
<path d="M206.627 197.448L179.637 181.769C179.493 181.683 179.32 181.596 179.147 181.51C176.898 180.559 174.216 180.991 171.044 182.807C167.872 184.651 165.22 187.303 163.115 190.761L190.104 206.44C192.18 202.981 194.833 200.33 198.034 198.485C201.206 196.641 203.916 196.208 206.136 197.188C206.309 197.275 206.454 197.333 206.627 197.448Z" fill="#80C5FF"/>
<path d="M162.769 207.65L189.758 223.329C187.913 222.263 186.99 220.043 186.99 216.7C186.99 213.357 188.028 209.956 190.104 206.469L163.115 190.79C161.039 194.278 159.972 197.707 160.001 201.022C160.001 204.365 160.923 206.584 162.769 207.65Z" fill="#0081ED"/>
<path d="M190.104 206.44C188.028 209.927 186.961 213.357 186.99 216.671C186.99 220.187 188.028 222.464 190.046 223.473C192.123 224.482 194.775 224.049 198.091 222.118C201.379 220.216 204.118 217.536 206.252 214.106C208.414 210.677 209.481 207.218 209.481 203.673C209.481 200.33 208.357 198.168 206.136 197.16C203.887 196.209 201.206 196.641 198.034 198.457C194.862 200.301 192.209 202.953 190.104 206.411V206.44Z" fill="#00559C"/>
<path d="M190.191 60.8667L163.201 45.1882L163.547 170.674L190.537 186.352L190.191 60.8667Z" fill="#0081ED"/>
<path d="M206.194 51.6152L179.205 35.9656L163.201 45.1882L190.191 60.8667L206.194 51.6152Z" fill="#80C5FF"/>
<path d="M190.191 60.8667L190.537 186.352L206.54 177.101L206.194 51.6152L190.191 60.8667Z" fill="#00559C"/>
<defs>
<linearGradient id="paint0_linear_14_460" x1="377.984" y1="24.7141" x2="572.609" y2="361.936" gradientUnits="userSpaceOnUse">
<stop stop-color="#437FEC"/>
<stop offset="0.38" stop-color="#346FD7"/>
<stop offset="1" stop-color="#184EAE"/>
</linearGradient>
<linearGradient id="paint1_linear_14_460" x1="86.0134" y1="334.673" x2="118.352" y2="392.994" gradientUnits="userSpaceOnUse">
<stop stop-color="#437FEC"/>
<stop offset="0.38" stop-color="#346FD7"/>
<stop offset="1" stop-color="#184EAE"/>
</linearGradient>
<linearGradient id="paint2_linear_14_460" x1="704.177" y1="126.57" x2="547.116" y2="126.57" gradientUnits="userSpaceOnUse">
<stop stop-color="#2575FC"/>
<stop offset="1" stop-color="#6AFFA5"/>
</linearGradient>
<linearGradient id="paint3_linear_14_460" x1="19.9775" y1="348.174" x2="184.335" y2="297.877" gradientUnits="userSpaceOnUse">
<stop stop-color="#3B82F6"/>
<stop offset="1" stop-color="#93C5FD"/>
</linearGradient>
</defs>
</svg>
