<svg width="481" height="393" viewBox="0 0 481 393" fill="none" xmlns="http://www.w3.org/2000/svg">
<g style="mix-blend-mode:multiply" opacity="0.7">
<path d="M243.636 145.64C209.684 165.306 175.732 184.987 141.794 204.669C140.185 205.597 138.575 206.526 136.965 207.47C132.83 209.873 136.891 221.446 136.891 221.446C140.391 223.48 143.921 225.5 147.421 227.519C166.398 238.473 185.36 249.397 204.338 260.336C226.076 272.867 247.8 285.398 269.539 297.93C276.495 301.954 283.466 305.964 290.436 309.989C293.286 311.625 296.58 314.176 299.947 314.544C304.23 315.738 299.637 314.647 303.683 314.647C315.365 314.647 377.997 272.794 399.588 260.292C404.668 257.343 409.763 254.41 414.843 251.446C415.331 251.166 415.36 244.65 414.843 244.341C413.677 243.677 412.525 243.014 411.358 242.35C395.807 233.372 380.241 224.409 364.691 215.445C325.88 193.051 287.069 170.687 248.243 148.293C246.722 147.409 245.186 146.539 243.65 145.654L243.636 145.64Z" fill="#B7C0EB"/>
</g>
<path d="M244.403 145.64L137.585 207.558C135.946 208.516 135.119 209.769 135.119 211.008C135.119 213.322 135.089 215.622 135.089 217.893C135.089 219.16 135.916 220.443 137.585 221.401L296.919 313.276C297.126 313.38 297.318 313.498 297.539 313.601C297.599 313.63 297.672 313.645 297.731 313.689C297.864 313.748 297.982 313.807 298.115 313.866C298.13 313.866 298.145 313.866 298.145 313.866C298.455 313.999 298.765 314.087 299.075 314.176C299.09 314.176 299.12 314.205 299.134 314.205C299.208 314.22 299.267 314.249 299.341 314.264C299.518 314.308 299.696 314.353 299.873 314.397C299.932 314.397 299.976 314.412 300.021 314.426C300.08 314.456 300.168 314.456 300.227 314.471C300.375 314.5 300.523 314.53 300.67 314.544C300.729 314.544 300.788 314.574 300.848 314.574C300.921 314.574 300.98 314.603 301.054 314.603C301.202 314.633 301.335 314.633 301.468 314.648C301.542 314.648 301.601 314.677 301.689 314.677C301.734 314.677 301.793 314.677 301.852 314.677C301.999 314.677 302.147 314.677 302.31 314.706C302.369 314.706 302.457 314.706 302.516 314.706H303.166C303.166 314.706 303.314 314.706 303.402 314.706C303.447 314.706 303.491 314.706 303.535 314.706C303.742 314.706 303.934 314.677 304.126 314.662C304.2 314.662 304.274 314.662 304.348 314.648H304.407C304.732 314.618 305.056 314.559 305.381 314.515H305.426C305.5 314.485 305.588 314.471 305.677 314.456C305.839 314.426 306.002 314.382 306.179 314.338C306.282 314.338 306.386 314.279 306.504 314.264C306.651 314.22 306.799 314.191 306.947 314.146C306.976 314.146 307.006 314.117 307.035 314.117C307.094 314.087 307.139 314.073 307.198 314.043C307.419 313.969 307.641 313.896 307.848 313.792C307.936 313.763 308.01 313.733 308.099 313.689C308.379 313.571 308.645 313.439 308.896 313.291L415.729 251.358L415.759 244.444L244.374 145.64H244.403Z" fill="#B7C0EB"/>
<path d="M137.615 212.954C135.946 211.981 135.119 210.713 135.119 209.445C135.119 211.745 135.089 214.06 135.089 216.36C135.089 217.627 135.916 218.895 137.585 219.854L296.919 311.729L296.949 304.829L137.615 212.954Z" fill="#EFF1FE"/>
<path d="M244.404 144.062L415.789 242.88L308.941 304.814C305.647 306.73 300.242 306.715 296.934 304.814L137.6 212.938C134.277 211.022 134.277 207.896 137.571 205.995L244.389 144.062H244.404Z" fill="#FDFCFF"/>
<path d="M308.955 304.814C308.704 304.961 308.439 305.079 308.173 305.212C308.084 305.256 308.01 305.271 307.936 305.315C307.715 305.404 307.493 305.492 307.272 305.566C307.183 305.595 307.109 305.625 307.036 305.654C306.888 305.698 306.725 305.728 306.578 305.787C306.474 305.802 306.371 305.861 306.253 305.89C306.105 305.92 305.943 305.949 305.78 305.979C305.662 305.993 305.559 306.023 305.455 306.037C305.13 306.096 304.806 306.141 304.495 306.17C304.392 306.17 304.289 306.17 304.185 306.2C303.993 306.2 303.801 306.229 303.609 306.229C303.491 306.229 303.373 306.229 303.24 306.229H302.782C302.649 306.229 302.516 306.229 302.369 306.229C302.236 306.229 302.088 306.214 301.955 306.2C301.822 306.2 301.689 306.2 301.557 306.17C301.409 306.17 301.276 306.155 301.143 306.111C301.01 306.111 300.892 306.082 300.759 306.067C300.611 306.052 300.464 306.008 300.301 305.993C300.183 305.964 300.065 305.949 299.947 305.92C299.77 305.875 299.607 305.831 299.43 305.787C299.327 305.757 299.223 305.743 299.12 305.713C298.81 305.625 298.514 305.521 298.219 305.404C298.071 305.345 297.924 305.286 297.776 305.227C297.717 305.197 297.643 305.168 297.569 305.138C297.348 305.035 297.141 304.932 296.964 304.814L296.934 311.713C297.141 311.831 297.333 311.934 297.554 312.052C297.613 312.082 297.687 312.097 297.746 312.126C297.879 312.2 297.997 312.259 298.13 312.303C298.13 312.303 298.16 312.303 298.175 312.318C298.47 312.436 298.78 312.524 299.09 312.627C299.105 312.627 299.135 312.642 299.149 312.642C299.223 312.657 299.282 312.672 299.356 312.701C299.533 312.745 299.711 312.79 299.888 312.849C299.947 312.849 299.991 312.863 300.035 312.878C300.094 312.893 300.183 312.907 300.242 312.922C300.39 312.952 300.538 312.981 300.685 312.996C300.744 313.011 300.803 313.025 300.862 313.04C300.936 313.04 300.995 313.055 301.069 313.055C301.217 313.084 301.35 313.099 301.483 313.114C301.557 313.114 301.616 313.143 301.704 313.143C301.704 313.143 301.808 313.143 301.867 313.143C302.014 313.143 302.162 313.143 302.324 313.158C302.384 313.158 302.472 313.158 302.531 313.158H303.181C303.181 313.158 303.329 313.158 303.417 313.158H303.55C303.757 313.158 303.949 313.143 304.141 313.114C304.215 313.114 304.289 313.114 304.362 313.099C304.392 313.099 304.407 313.099 304.422 313.099C304.746 313.07 305.071 313.011 305.396 312.966H305.426C305.514 312.937 305.603 312.922 305.692 312.907C305.854 312.863 306.017 312.834 306.194 312.804C306.297 312.775 306.4 312.745 306.519 312.701C306.666 312.672 306.814 312.642 306.962 312.583C306.991 312.583 307.021 312.568 307.05 312.568C307.109 312.554 307.154 312.524 307.213 312.495C307.434 312.421 307.656 312.347 307.863 312.259C307.951 312.215 308.025 312.2 308.114 312.156C308.394 312.023 308.66 311.905 308.911 311.743L415.744 249.81L415.774 242.91L308.926 304.843L308.955 304.814Z" fill="#E4E7FB"/>
<path d="M248.155 164.244L243.783 166.78L234.967 161.694L239.353 159.158L248.155 164.244Z" fill="#788BAD"/>
<path d="M248.155 164.244V165.615L243.783 168.166V166.78L248.155 164.244Z" fill="#596780"/>
<path d="M243.783 166.78V168.166L234.967 163.08V161.694L243.783 166.78Z" fill="#596780"/>
<path d="M240.682 168.578L231.925 173.65L223.108 168.578L231.88 163.492L240.682 168.578Z" fill="#788BAD"/>
<path d="M240.682 168.578V169.964L231.91 175.035L231.924 173.65L240.682 168.578Z" fill="#596780"/>
<path d="M231.925 173.65L231.91 175.035L223.108 169.949V168.578L231.925 173.65Z" fill="#596780"/>
<path d="M258.552 170.215L254.165 172.765L245.334 167.679L249.705 165.144L258.552 170.215Z" fill="#788BAD"/>
<path d="M258.551 170.215L258.537 171.601L254.165 174.151V172.765L258.551 170.215Z" fill="#596780"/>
<path d="M254.165 172.766V174.152L245.334 169.065V167.68L254.165 172.766Z" fill="#596780"/>
<path d="M251.049 174.564L242.306 179.635L233.475 174.549L242.247 169.463L251.049 174.564Z" fill="#788BAD"/>
<path d="M251.049 174.563V175.935L242.292 181.006L242.307 179.635L251.049 174.563Z" fill="#596780"/>
<path d="M242.306 179.635L242.292 181.006L233.475 175.935V174.549L242.306 179.635Z" fill="#596780"/>
<path d="M268.919 176.2L264.533 178.751L255.716 173.665L260.102 171.114L268.919 176.2Z" fill="#788BAD"/>
<path d="M268.919 176.2L268.904 177.601L264.533 180.122V178.751L268.919 176.2Z" fill="#596780"/>
<path d="M264.533 178.751V180.122L255.716 175.051V173.665L264.533 178.751Z" fill="#596780"/>
<path d="M261.431 180.535L252.674 185.607L243.842 180.535L252.629 175.449L261.431 180.535Z" fill="#788BAD"/>
<path d="M261.431 180.535V181.921L252.659 187.007L252.674 185.607L261.431 180.535Z" fill="#596780"/>
<path d="M252.674 185.607L252.659 187.007L243.842 181.921V180.535L252.674 185.607Z" fill="#596780"/>
<path d="M279.286 182.186L274.915 184.721L266.083 179.635L270.469 177.1L279.286 182.186Z" fill="#788BAD"/>
<path d="M279.286 182.186V183.571L274.915 186.107V184.721L279.286 182.186Z" fill="#596780"/>
<path d="M274.915 184.722V186.108L266.083 181.007V179.636L274.915 184.722Z" fill="#596780"/>
<path d="M271.828 186.521L263.056 191.607L254.21 186.521L262.997 181.42L271.828 186.521Z" fill="#788BAD"/>
<path d="M271.828 186.521L271.799 187.892L263.056 192.978V191.607L271.828 186.521Z" fill="#596780"/>
<path d="M263.056 191.607V192.978L254.21 187.892V186.521L263.056 191.607Z" fill="#596780"/>
<path d="M289.668 188.156L285.282 190.707L276.465 185.606L280.837 183.085L289.668 188.156Z" fill="#788BAD"/>
<path d="M289.668 188.156V189.542L285.282 192.078V190.707L289.668 188.156Z" fill="#596780"/>
<path d="M285.282 190.706V192.077L276.465 187.006V185.605L285.282 190.706Z" fill="#596780"/>
<path d="M282.181 192.506L273.423 197.592L264.607 192.506L273.364 187.42L282.181 192.506Z" fill="#788BAD"/>
<path d="M282.181 192.506V193.892L273.408 198.978L273.423 197.592L282.181 192.506Z" fill="#596780"/>
<path d="M273.423 197.592L273.408 198.978L264.592 193.877L264.607 192.506L273.423 197.592Z" fill="#596780"/>
<path d="M300.035 194.157L295.664 196.693L286.847 191.607L291.219 189.071L300.035 194.157Z" fill="#788BAD"/>
<path d="M300.035 194.157V195.528L295.664 198.079V196.693L300.035 194.157Z" fill="#596780"/>
<path d="M295.664 196.694V198.079L286.833 192.978L286.847 191.607L295.664 196.694Z" fill="#596780"/>
<path d="M292.563 198.477L283.805 203.563L274.989 198.477L283.746 193.405L292.563 198.477Z" fill="#788BAD"/>
<path d="M292.563 198.477V199.877L283.79 204.949L283.805 203.563L292.563 198.477Z" fill="#596780"/>
<path d="M283.805 203.563L283.79 204.949L274.974 199.877L274.988 198.477L283.805 203.563Z" fill="#596780"/>
<path d="M310.417 200.128L306.031 202.664L297.215 197.592L301.601 195.042L310.417 200.128Z" fill="#788BAD"/>
<path d="M310.417 200.128L310.403 201.514L306.016 204.049L306.031 202.664L310.417 200.128Z" fill="#596780"/>
<path d="M306.031 202.664L306.016 204.05L297.215 198.964V197.593L306.031 202.664Z" fill="#596780"/>
<path d="M302.93 204.462L294.173 209.548L285.356 204.462L294.114 199.376L302.93 204.462Z" fill="#788BAD"/>
<path d="M302.93 204.462V205.848L294.158 210.919L294.172 209.548L302.93 204.462Z" fill="#596780"/>
<path d="M294.172 209.548L294.158 210.919L285.341 205.848L285.356 204.462L294.172 209.548Z" fill="#596780"/>
<path d="M235.558 177.542L226.785 182.628L212.711 174.52L221.483 169.434L235.558 177.542Z" fill="#788BAD"/>
<path d="M235.557 177.542V178.928L226.785 183.999V182.628L235.557 177.542Z" fill="#596780"/>
<path d="M226.785 182.628V183.999L212.711 175.891V174.52L226.785 182.628Z" fill="#596780"/>
<path d="M245.94 183.528L237.167 188.614L228.351 183.513L237.123 178.441L245.94 183.528Z" fill="#788BAD"/>
<path d="M245.94 183.527L245.925 184.913L237.167 189.999V188.614L245.94 183.527Z" fill="#596780"/>
<path d="M237.167 188.614V189.999L228.351 184.913V183.513L237.167 188.614Z" fill="#596780"/>
<path d="M256.307 189.498L247.549 194.584L238.718 189.513L247.49 184.427L256.307 189.498Z" fill="#788BAD"/>
<path d="M256.307 189.498V190.884L247.534 195.97L247.549 194.584L256.307 189.498Z" fill="#596780"/>
<path d="M247.549 194.584L247.534 195.97L238.718 190.884V189.513L247.549 194.584Z" fill="#596780"/>
<path d="M266.689 195.484L257.916 200.57L249.1 195.484L257.857 190.397L266.689 195.484Z" fill="#788BAD"/>
<path d="M266.689 195.483L266.674 196.884L257.917 201.955V200.57L266.689 195.483Z" fill="#596780"/>
<path d="M257.916 200.57V201.955L249.1 196.869V195.483L257.916 200.57Z" fill="#596780"/>
<path d="M277.056 201.469L268.284 206.555L259.467 201.454L268.239 196.383L277.056 201.469Z" fill="#788BAD"/>
<path d="M277.056 201.469L277.041 202.855L268.284 207.926V206.555L277.056 201.469Z" fill="#596780"/>
<path d="M268.284 206.555V207.926L259.467 202.84V201.454L268.284 206.555Z" fill="#596780"/>
<path d="M287.438 207.454L278.666 212.54L269.849 207.44L278.607 202.368L287.438 207.454Z" fill="#788BAD"/>
<path d="M287.438 207.454L287.423 208.84L278.651 213.911L278.666 212.54L287.438 207.454Z" fill="#596780"/>
<path d="M278.666 212.54L278.651 213.911L269.849 208.84V207.439L278.666 212.54Z" fill="#596780"/>
<path d="M230.433 186.521L221.661 191.607L202.477 180.535L211.234 175.449L230.433 186.521Z" fill="#788BAD"/>
<path d="M230.433 186.521V187.892L221.661 192.978V191.607L230.433 186.521Z" fill="#596780"/>
<path d="M221.661 191.607V192.978L202.462 181.921L202.477 180.535L221.661 191.607Z" fill="#596780"/>
<path d="M214.926 189.498L206.169 194.584L192.095 186.476L200.852 181.39L214.926 189.498Z" fill="#788BAD"/>
<path d="M214.926 189.498V190.884L206.154 195.97L206.169 194.584L214.926 189.498Z" fill="#596780"/>
<path d="M206.169 194.584L206.154 195.97L192.08 187.861L192.095 186.476L206.169 194.584Z" fill="#596780"/>
<path d="M240.815 192.506L232.043 197.592L223.226 192.506L231.984 187.42L240.815 192.506Z" fill="#788BAD"/>
<path d="M240.815 192.506L240.8 193.877L232.028 198.963L232.043 197.592L240.815 192.506Z" fill="#596780"/>
<path d="M232.043 197.592L232.028 198.963L223.226 193.877V192.506L232.043 197.592Z" fill="#596780"/>
<path d="M225.294 195.484L216.536 200.555L207.719 195.484L216.477 190.397L225.294 195.484Z" fill="#788BAD"/>
<path d="M225.294 195.483V196.869L216.536 201.955V200.555L225.294 195.483Z" fill="#596780"/>
<path d="M216.536 200.555V201.955L207.719 196.854V195.483L216.536 200.555Z" fill="#596780"/>
<path d="M251.182 198.477L242.41 203.563L233.594 198.477L242.366 193.391L251.182 198.477Z" fill="#788BAD"/>
<path d="M251.182 198.477L251.167 199.862L242.41 204.949V203.563L251.182 198.477Z" fill="#596780"/>
<path d="M242.41 203.563V204.949L233.579 199.862L233.593 198.477L242.41 203.563Z" fill="#596780"/>
<path d="M235.676 201.469L226.918 206.555L218.087 201.469L226.859 196.383L235.676 201.469Z" fill="#788BAD"/>
<path d="M235.676 201.469V202.84L226.903 207.926L226.918 206.555L235.676 201.469Z" fill="#596780"/>
<path d="M226.918 206.555L226.903 207.926L218.087 202.84V201.469L226.918 206.555Z" fill="#596780"/>
<path d="M261.549 204.462L252.792 209.534L243.975 204.462L252.748 199.376L261.549 204.462Z" fill="#788BAD"/>
<path d="M261.549 204.462V205.848L252.777 210.919L252.792 209.533L261.549 204.462Z" fill="#596780"/>
<path d="M252.792 209.533L252.777 210.919L243.96 205.848L243.975 204.462L252.792 209.533Z" fill="#596780"/>
<path d="M246.058 207.454L237.285 212.526L228.469 207.44L237.226 202.354L246.058 207.454Z" fill="#788BAD"/>
<path d="M246.058 207.454V208.84L237.285 213.911V212.526L246.058 207.454Z" fill="#596780"/>
<path d="M237.285 212.526V213.911L228.469 208.84V207.439L237.285 212.526Z" fill="#596780"/>
<path d="M271.931 210.447L263.159 215.534L254.343 210.447L263.115 205.361L271.931 210.447Z" fill="#788BAD"/>
<path d="M271.931 210.447V211.833L263.159 216.904V215.533L271.931 210.447Z" fill="#596780"/>
<path d="M263.159 215.533V216.904L254.343 211.833V210.447L263.159 215.533Z" fill="#596780"/>
<path d="M256.425 213.425L247.653 218.511L238.851 213.425L247.608 208.354L256.425 213.425Z" fill="#788BAD"/>
<path d="M256.425 213.425V214.811L247.653 219.897V218.511L256.425 213.425Z" fill="#596780"/>
<path d="M247.653 218.511V219.897L238.836 214.811L238.851 213.425L247.653 218.511Z" fill="#596780"/>
<path d="M320.799 206.114L316.413 208.649L307.597 203.563L311.968 201.027L320.799 206.114Z" fill="#788BAD"/>
<path d="M320.799 206.113L320.785 207.484L316.413 210.035V208.649L320.799 206.113Z" fill="#596780"/>
<path d="M316.413 208.65V210.035L307.597 204.949V203.563L316.413 208.65Z" fill="#596780"/>
<path d="M313.312 210.433L304.54 215.519L295.723 210.447L304.481 205.361L313.312 210.433Z" fill="#788BAD"/>
<path d="M313.312 210.433L313.297 211.818L304.54 216.905V215.519L313.312 210.433Z" fill="#596780"/>
<path d="M304.54 215.519V216.904L295.723 211.833V210.447L304.54 215.519Z" fill="#596780"/>
<path d="M285.415 216.418L285.4 217.803L280.217 214.825L280.231 213.425L285.415 216.418Z" fill="#596780"/>
<path d="M303.004 216.418L302.989 217.804L294.231 222.89V221.504L303.004 216.418Z" fill="#596780"/>
<path d="M273.527 221.504V222.89L264.71 217.804L264.725 216.418L273.527 221.504Z" fill="#596780"/>
<path d="M282.314 216.417L273.526 221.503L264.725 216.417L273.497 211.331L282.314 216.417Z" fill="#788BAD"/>
<path d="M282.314 216.418L282.299 217.804L273.527 222.89V221.504L282.314 216.418Z" fill="#596780"/>
<path d="M303.004 216.418L294.232 221.504L283.909 227.489L275.092 222.403L285.415 216.418L280.231 213.425L288.989 208.354L294.173 211.346L298.588 213.897L303.004 216.418Z" fill="#788BAD"/>
<path d="M294.232 221.504V222.89L283.909 228.86V227.489L294.232 221.504Z" fill="#596780"/>
<path d="M283.909 227.489V228.861L275.092 223.789V222.403L283.909 227.489Z" fill="#596780"/>
<path d="M266.807 219.41L258.035 224.497L249.218 219.41L257.99 214.324L266.807 219.41Z" fill="#788BAD"/>
<path d="M266.807 219.41L266.792 220.796L258.035 225.867V224.496L266.807 219.41Z" fill="#596780"/>
<path d="M258.035 224.496V225.867L249.218 220.796V219.41L258.035 224.496Z" fill="#596780"/>
<path d="M282.328 228.375L273.571 233.446L259.585 225.397L268.358 220.311L282.328 228.375Z" fill="#788BAD"/>
<path d="M282.328 228.375V229.761L273.571 234.832V233.446L282.328 228.375Z" fill="#596780"/>
<path d="M273.571 233.446V234.832L259.585 226.768V225.396L273.571 233.446Z" fill="#596780"/>
<path d="M209.802 198.477L201.044 203.563L181.831 192.491L190.603 187.405L209.802 198.477Z" fill="#788BAD"/>
<path d="M209.802 198.477V199.862L201.03 204.934L201.044 203.563L209.802 198.477Z" fill="#596780"/>
<path d="M201.044 203.563L201.029 204.934L181.831 193.877V192.491L201.044 203.563Z" fill="#596780"/>
<path d="M261.668 228.374L252.91 233.475L202.58 204.462L211.352 199.376L261.668 228.374Z" fill="#788BAD"/>
<path d="M261.668 228.374V229.76L252.895 234.846L252.91 233.475L261.668 228.374Z" fill="#596780"/>
<path d="M252.91 233.475L252.895 234.846L202.58 205.833V204.462L252.91 233.475Z" fill="#596780"/>
<path d="M272.05 234.359L263.277 239.446L254.461 234.374L263.233 229.288L272.05 234.359Z" fill="#788BAD"/>
<path d="M272.05 234.359L272.035 235.745L263.277 240.831V239.446L272.05 234.359Z" fill="#596780"/>
<path d="M263.277 239.445V240.831L254.461 235.745V234.374L263.277 239.445Z" fill="#596780"/>
<path d="M340.5 217.48L336.114 220.015L327.297 214.929L331.684 212.394L340.5 217.48Z" fill="#788BAD"/>
<path d="M340.5 217.479V218.865L336.114 221.401V220.015L340.5 217.479Z" fill="#596780"/>
<path d="M336.114 220.016V221.402L327.297 216.315V214.93L336.114 220.016Z" fill="#596780"/>
<path d="M333.013 221.814L324.255 226.9L315.438 221.814L324.196 216.728L333.013 221.814Z" fill="#788BAD"/>
<path d="M333.013 221.813V223.199L324.255 228.271V226.9L333.013 221.813Z" fill="#596780"/>
<path d="M324.255 226.9V228.271L315.438 223.185V221.813L324.255 226.9Z" fill="#596780"/>
<path d="M350.868 223.45L346.496 226.001L337.68 220.915L342.051 218.379L350.868 223.45Z" fill="#788BAD"/>
<path d="M350.868 223.45V224.836L346.481 227.372L346.496 226.001L350.868 223.45Z" fill="#596780"/>
<path d="M346.496 226.001L346.481 227.372L337.665 222.286L337.68 220.915L346.496 226.001Z" fill="#596780"/>
<path d="M343.395 227.799L334.623 232.885L325.806 227.784L334.578 222.713L343.395 227.799Z" fill="#788BAD"/>
<path d="M343.395 227.799V229.17L334.623 234.256V232.885L343.395 227.799Z" fill="#596780"/>
<path d="M334.623 232.885V234.256L325.806 229.17V227.784L334.623 232.885Z" fill="#596780"/>
<path d="M322.705 227.799L313.947 232.885L305.116 227.799L313.888 222.713L322.705 227.799Z" fill="#788BAD"/>
<path d="M322.705 227.799V229.17L313.932 234.256L313.947 232.885L322.705 227.799Z" fill="#596780"/>
<path d="M313.947 232.885L313.932 234.256L305.116 229.17V227.799L313.947 232.885Z" fill="#596780"/>
<path d="M333.086 233.77L324.314 238.856L315.498 233.77L324.255 228.684L333.086 233.77Z" fill="#788BAD"/>
<path d="M333.087 233.77V235.155L324.314 240.241V238.856L333.087 233.77Z" fill="#596780"/>
<path d="M324.314 238.856V240.241L315.498 235.155V233.77L324.314 238.856Z" fill="#596780"/>
<path d="M367.984 233.327L363.613 235.863L354.796 230.777L359.182 228.241L367.984 233.327Z" fill="#788BAD"/>
<path d="M367.984 233.327V234.713L363.613 237.234V235.863L367.984 233.327Z" fill="#596780"/>
<path d="M363.613 235.863V237.235L354.796 232.163V230.777L363.613 235.863Z" fill="#596780"/>
<path d="M360.511 237.662L351.739 242.748L342.937 237.662L351.71 232.576L360.511 237.662Z" fill="#788BAD"/>
<path d="M360.511 237.662V239.048L351.739 244.119V242.748L360.511 237.662Z" fill="#596780"/>
<path d="M351.739 242.748V244.119L342.922 239.048L342.937 237.662L351.739 242.748Z" fill="#596780"/>
<path d="M378.366 239.314L373.98 241.835L365.163 236.763L369.549 234.228L378.366 239.314Z" fill="#788BAD"/>
<path d="M378.366 239.313V240.685L373.98 243.235V241.834L378.366 239.313Z" fill="#596780"/>
<path d="M373.98 241.835V243.236L365.163 238.135V236.764L373.98 241.835Z" fill="#596780"/>
<path d="M370.893 243.648L362.121 248.719L353.304 243.648L362.077 238.562L370.893 243.648Z" fill="#788BAD"/>
<path d="M370.893 243.647L370.878 245.033L362.121 250.105V248.719L370.893 243.647Z" fill="#596780"/>
<path d="M362.121 248.719V250.105L353.304 245.033V243.647L362.121 248.719Z" fill="#596780"/>
<path d="M388.748 245.299L384.362 247.835L375.545 242.749L379.917 240.213L388.748 245.299Z" fill="#788BAD"/>
<path d="M388.748 245.299L388.733 246.67L384.347 249.206L384.362 247.835L388.748 245.299Z" fill="#596780"/>
<path d="M384.362 247.835L384.347 249.206L375.53 244.135L375.545 242.749L384.362 247.835Z" fill="#596780"/>
<path d="M381.26 249.618L372.503 254.704L363.671 249.618L372.444 244.547L381.26 249.618Z" fill="#788BAD"/>
<path d="M381.26 249.618V251.004L372.488 256.09L372.503 254.704L381.26 249.618Z" fill="#596780"/>
<path d="M372.503 254.704L372.488 256.09L363.671 251.004V249.618L372.503 254.704Z" fill="#596780"/>
<path d="M350.203 243.633L341.431 248.719L332.614 243.648L341.386 238.547L350.203 243.633Z" fill="#788BAD"/>
<path d="M350.203 243.633V245.033L341.431 250.105V248.719L350.203 243.633Z" fill="#596780"/>
<path d="M341.431 248.719V250.105L332.614 245.033V243.647L341.431 248.719Z" fill="#596780"/>
<path d="M360.57 249.633L351.813 254.704L342.996 249.618L351.754 244.547L360.57 249.633Z" fill="#788BAD"/>
<path d="M360.57 249.633V251.004L351.812 256.09V254.704L360.57 249.633Z" fill="#596780"/>
<path d="M351.813 254.704V256.09L342.981 251.004L342.996 249.618L351.813 254.704Z" fill="#596780"/>
<path d="M370.952 255.604L362.18 260.69L353.363 255.604L362.136 250.518L370.952 255.604Z" fill="#788BAD"/>
<path d="M370.952 255.604V256.989L362.18 262.075V260.69L370.952 255.604Z" fill="#596780"/>
<path d="M362.18 260.69V262.075L353.363 256.989V255.604L362.18 260.69Z" fill="#596780"/>
<path d="M339.88 249.618L331.108 254.704L322.291 249.633L331.063 244.547L339.88 249.618Z" fill="#788BAD"/>
<path d="M339.88 249.618V251.004L331.108 256.09V254.704L339.88 249.618Z" fill="#596780"/>
<path d="M331.108 254.704V256.09L322.291 251.004V249.633L331.108 254.704Z" fill="#596780"/>
<path d="M350.262 255.604L341.49 260.675L332.673 255.604L341.431 250.518L350.262 255.604Z" fill="#788BAD"/>
<path d="M350.262 255.604L350.247 256.989L341.49 262.075V260.675L350.262 255.604Z" fill="#596780"/>
<path d="M341.49 260.675V262.075L332.658 256.975L332.673 255.604L341.49 260.675Z" fill="#596780"/>
<path d="M360.644 261.589L351.857 266.675L343.04 261.589L351.813 256.503L360.644 261.589Z" fill="#788BAD"/>
<path d="M360.644 261.589L360.629 262.975L351.857 268.061V266.675L360.644 261.589Z" fill="#596780"/>
<path d="M351.857 266.675V268.061L343.04 262.975V261.589L351.857 266.675Z" fill="#596780"/>
<path d="M329.572 255.604L320.8 260.675L311.983 255.604L320.755 250.532L329.572 255.604Z" fill="#788BAD"/>
<path d="M329.572 255.604V256.975L320.799 262.075V260.675L329.572 255.604Z" fill="#596780"/>
<path d="M320.799 260.675V262.075L311.968 256.989L311.983 255.604L320.799 260.675Z" fill="#596780"/>
<path d="M339.939 261.589L331.182 266.675L322.365 261.589L331.123 256.503L339.939 261.589Z" fill="#788BAD"/>
<path d="M339.939 261.589V262.975L331.167 268.046L331.182 266.675L339.939 261.589Z" fill="#596780"/>
<path d="M331.182 266.675L331.167 268.046L322.365 262.96V261.589L331.182 266.675Z" fill="#596780"/>
<path d="M329.69 267.589L320.918 272.69L301.675 261.589L310.432 256.503L329.69 267.589Z" fill="#788BAD"/>
<path d="M329.69 267.589L329.675 268.975L320.903 274.061L320.918 272.69L329.69 267.589Z" fill="#596780"/>
<path d="M320.918 272.69L320.903 274.061L301.675 262.975V261.589L320.918 272.69Z" fill="#596780"/>
<path d="M350.203 267.649L331.226 278.632L322.424 273.546L341.372 262.562L350.203 267.649Z" fill="#788BAD"/>
<path d="M350.203 267.648L350.188 269.02L331.226 280.017V278.632L350.203 267.648Z" fill="#596780"/>
<path d="M331.226 278.632V280.018L322.409 274.932L322.424 273.546L331.226 278.632Z" fill="#596780"/>
<path d="M276.716 256.429L251.256 271.201L195.861 239.254L221.321 224.497L276.716 256.429Z" fill="#EFF1FE"/>
<path d="M276.716 256.43V256.695L251.241 271.452L251.256 271.202L276.716 256.43Z" fill="#E4E7FB"/>
<path d="M251.256 271.201L251.241 271.451L195.861 239.505V239.254L251.256 271.201Z" fill="#EFF1FE"/>
<path d="M250.872 17.3352C250.872 17.3352 250.754 17.2614 250.68 17.232C250.591 17.1877 250.518 17.1435 250.444 17.114C250.385 17.0993 250.34 17.0698 250.281 17.0403H250.237L250.193 17.0108C250.104 16.9666 250.045 16.9371 249.956 16.9076C249.868 16.8781 249.779 16.8487 249.72 16.8192H249.676L249.646 16.7897C249.572 16.7897 249.528 16.7602 249.484 16.7307C249.41 16.716 249.307 16.6865 249.233 16.6717C249.188 16.657 249.144 16.657 249.115 16.6275C249.1 16.6275 249.07 16.6275 249.056 16.6275H248.996C248.908 16.6128 248.819 16.5833 248.731 16.5685C248.672 16.5685 248.627 16.5685 248.568 16.5538H248.48C248.376 16.5391 248.273 16.5391 248.184 16.5391C248.125 16.5391 248.096 16.5391 248.051 16.5391C248.022 16.5391 247.992 16.5391 247.963 16.5391H247.859H247.889C247.771 16.5391 247.653 16.5391 247.534 16.5833C247.534 16.5833 247.461 16.598 247.431 16.6128C247.328 16.6423 247.224 16.6717 247.136 16.6865C247.136 16.6865 247.121 16.6865 247.106 16.7012C246.944 16.7602 246.796 16.8192 246.663 16.9076H246.634L240.667 20.3869C240.8 20.3131 240.963 20.2247 241.11 20.1657C241.228 20.1215 241.347 20.092 241.479 20.0625C241.509 20.0625 241.524 20.033 241.553 20.033C241.701 20.0183 241.849 19.9888 241.996 19.9888C242.026 19.9741 242.055 19.9741 242.1 19.9741C242.247 19.9741 242.41 19.9741 242.558 19.9888H242.587C242.764 20.0035 242.942 20.033 243.104 20.0625H243.134C243.326 20.1067 243.503 20.1657 243.68 20.2247H243.709C243.901 20.2837 244.093 20.3721 244.285 20.4458C244.3 20.4458 244.3 20.4606 244.3 20.4606C244.522 20.549 244.699 20.6522 244.92 20.7702L404.255 112.645L410.236 109.181L250.872 17.3352Z" fill="#EFF1FE"/>
<path d="M404.21 117.32C405.303 117.954 406.204 119.546 406.204 120.799L405.79 237.161C405.79 238.4 404.86 238.945 403.782 238.311L244.448 146.436C243.37 145.817 242.454 144.225 242.454 142.972L242.868 26.5944C242.868 25.3561 243.798 24.8253 244.876 25.4593L404.21 117.32Z" fill="url(#paint0_linear_39_5161)"/>
<path d="M416.202 119.369V119.089C416.202 119.089 416.187 118.985 416.187 118.941V118.882C416.187 118.882 416.187 118.823 416.187 118.794C416.187 118.691 416.158 118.602 416.158 118.499C416.158 118.396 416.128 118.307 416.113 118.189C416.098 118.086 416.084 117.983 416.069 117.88C416.039 117.791 416.025 117.673 415.995 117.57C415.995 117.541 415.98 117.482 415.966 117.452C415.966 117.437 415.966 117.408 415.966 117.393C415.951 117.349 415.951 117.305 415.936 117.275C415.906 117.172 415.892 117.054 415.847 116.966C415.833 116.877 415.788 116.789 415.774 116.7V116.671V116.627C415.729 116.523 415.7 116.42 415.67 116.302C415.641 116.199 415.611 116.096 415.567 116.007C415.567 116.007 415.567 115.948 415.537 115.934C415.508 115.831 415.493 115.772 415.463 115.698C415.434 115.595 415.375 115.506 415.331 115.403C415.316 115.329 415.271 115.256 415.257 115.167H415.242V115.093C415.198 115.005 415.153 114.902 415.109 114.813C415.05 114.695 415.006 114.592 414.947 114.489C414.947 114.459 414.917 114.445 414.917 114.43C414.917 114.43 414.902 114.4 414.902 114.386C414.858 114.297 414.814 114.224 414.769 114.135C414.725 114.017 414.636 113.929 414.592 113.811C414.563 113.767 414.533 113.708 414.504 113.663C414.504 113.649 414.474 113.634 414.459 113.604C414.4 113.501 414.341 113.427 414.282 113.324C414.208 113.192 414.12 113.074 414.031 112.941C414.031 112.926 414.016 112.911 414.001 112.882C413.883 112.705 413.78 112.558 413.662 112.381C413.662 112.381 413.632 112.351 413.632 112.337C413.544 112.204 413.455 112.086 413.366 111.983C413.292 111.88 413.219 111.791 413.16 111.717V111.688C413.086 111.585 413.012 111.511 412.923 111.423C412.849 111.319 412.776 111.231 412.687 111.157C412.687 111.142 412.657 111.128 412.657 111.128C412.657 111.113 412.628 111.098 412.628 111.098C412.569 111.024 412.495 110.965 412.436 110.892C412.347 110.803 412.274 110.715 412.185 110.641C412.155 110.641 412.141 110.597 412.111 110.582C412.082 110.553 412.067 110.538 412.037 110.523C411.993 110.494 411.949 110.435 411.904 110.405C411.816 110.317 411.727 110.243 411.638 110.155C411.609 110.14 411.565 110.096 411.535 110.066C411.506 110.051 411.491 110.037 411.476 110.022C411.432 109.992 411.402 109.963 411.373 109.934C411.284 109.875 411.21 109.786 411.107 109.727C411.048 109.668 410.989 109.639 410.915 109.594L410.885 109.565H410.856C410.752 109.491 410.679 109.432 410.605 109.373C410.516 109.314 410.442 109.255 410.354 109.211C410.339 109.211 410.324 109.196 410.295 109.182L404.313 112.646C404.52 112.764 404.712 112.882 404.919 113.029H404.934C405.126 113.177 405.303 113.31 405.495 113.457C405.51 113.472 405.539 113.501 405.569 113.516C405.731 113.663 405.908 113.811 406.086 113.973C406.086 113.973 406.115 114.002 406.13 114.017C406.307 114.179 406.47 114.342 406.647 114.518C406.647 114.563 406.662 114.563 406.662 114.563C406.854 114.769 407.016 114.961 407.179 115.152H407.208C407.37 115.373 407.533 115.565 407.681 115.772C407.681 115.801 407.71 115.816 407.71 115.816C407.843 116.022 407.976 116.199 408.094 116.376C408.183 116.509 408.271 116.641 408.36 116.789C408.419 116.892 408.493 116.995 408.537 117.098C408.581 117.157 408.611 117.216 408.626 117.261C408.729 117.452 408.833 117.644 408.936 117.821C408.936 117.835 408.965 117.865 408.965 117.88C409.069 118.101 409.187 118.337 409.29 118.558C409.29 118.587 409.305 118.602 409.305 118.617C409.408 118.838 409.497 119.059 409.586 119.295C409.586 119.324 409.586 119.324 409.615 119.354C409.689 119.605 409.778 119.826 409.852 120.062V120.091C409.925 120.327 409.984 120.563 410.043 120.799C410.043 120.799 410.044 120.843 410.058 120.872C410.117 121.094 410.162 121.344 410.191 121.58C410.235 121.831 410.265 122.067 410.265 122.302C410.265 122.317 410.265 122.332 410.265 122.332C410.295 122.583 410.295 122.833 410.295 123.054L409.866 246.331L415.847 242.867L416.276 119.575V119.31L416.202 119.369Z" fill="#E4E7FB"/>
<path d="M404.225 112.719C407.533 114.636 410.236 119.309 410.221 123.113L409.793 246.389L238.408 147.585L238.836 24.2939C238.836 20.4904 241.568 18.9424 244.891 20.8589L404.225 112.719ZM405.79 237.161L406.204 120.798C406.204 119.545 405.288 117.968 404.21 117.319L244.876 25.4733C243.783 24.8394 242.868 25.3701 242.868 26.6085L242.454 142.986C242.454 144.239 243.37 145.831 244.448 146.45L403.782 238.325C404.875 238.959 405.79 238.429 405.79 237.175V237.161Z" fill="#788BAD"/>
<g style="mix-blend-mode:multiply" opacity="0.5">
<path d="M1.52125 266.851C-0.354306 265.76 -0.369075 263.976 1.50649 262.87L87.605 214.603C89.4806 213.512 92.5671 213.512 94.4575 214.603L139.161 239.312C141.051 240.403 141.051 242.187 139.161 243.277L53.0918 291.53C51.2162 292.621 48.1149 292.621 46.2246 291.53L1.52125 266.851Z" fill="#B7C0EB"/>
</g>
<path d="M96.2592 209.813L140.254 232.796C140.77 233.061 141.184 233.489 141.435 234.02C143.148 237.764 142.351 242.364 139.382 244.015L57.5074 289.363C52.501 292.135 46.387 292.031 41.4692 289.083L2.25963 265.583C1.7132 265.274 1.28493 264.787 1.04864 264.212C-1.60964 257.888 1.58029 255.721 2.28916 255.323C3.67737 254.556 82.9826 213.94 94.0882 209.665C94.7971 209.385 95.5946 209.444 96.2739 209.798L96.2592 209.813Z" fill="#E4E7FB"/>
<path d="M97.4998 207.114L133.283 228.55C134.583 229.272 139.929 232.117 140.682 232.987C144.581 237.439 138.157 241.258 133.017 244.103L58.3493 285.456C52.8555 288.507 46.136 288.389 40.7456 285.161L2.17109 262.045C-0.634863 260.364 -0.57579 256.914 2.28924 255.337L88.1663 205.846C90.9722 204.284 94.7529 205.478 97.4998 207.129V207.114Z" fill="#FDFCFF"/>
<path d="M39.6527 280.959C38.5746 280.326 37.9986 279.087 38.2645 277.864C38.6484 276.08 37.9543 274.089 36.1822 273.013L24.0427 265.642C21.7389 264.241 18.8591 264.183 16.5109 265.495L16.4223 265.539C15.5215 266.04 14.4138 266.025 13.513 265.509L7.17743 261.838C5.1985 260.689 5.22803 257.829 7.22174 256.723L89.9384 210.918C90.854 210.417 91.9764 210.431 92.8772 210.962L132.249 234.388C134.199 235.553 134.154 238.383 132.175 239.489L49.6803 285.176C48.7647 285.677 47.657 285.662 46.7562 285.132L39.6675 280.945L39.6527 280.959Z" fill="url(#paint1_linear_39_5161)"/>
<!-- <g style="mix-blend-mode:screen" opacity="0.3">
<path d="M381.108 40.6271L472.656 93.0367C476.968 95.4987 480.468 101.573 480.439 106.526L480.321 127.726C480.291 132.679 476.762 134.714 472.464 132.222L381.093 79.4146C376.796 76.9379 373.281 70.8492 373.281 65.881V45.1383C373.281 40.1849 376.81 38.1504 381.108 40.6124V40.6271Z" fill="url(#paint2_linear_39_5161)"/>
</g> -->
<path opacity="0.5" d="M26.6568 114.675C26.7011 112.199 28.5176 111.137 30.7033 112.302L74.107 135.624C76.2927 136.804 78.0649 139.782 78.0501 142.273L77.5628 205.356C77.548 207.833 75.7611 208.85 73.6197 207.612L54.6573 196.702V212.728L40.5241 188.565L29.5366 182.24C27.3805 181.002 25.6526 177.965 25.6969 175.488L26.6863 114.661L26.6568 114.675Z" fill="url(#paint3_linear_39_5161)"/>
<path d="M34.1578 146.624L33.9041 147.057L61.4445 163.154L61.6982 162.722L34.1578 146.624Z" fill="#0066FF"/>
<path d="M43.5172 157.456L43.2661 157.89L61.1954 168.227L61.4465 167.793L43.5172 157.456Z" fill="#0066FF"/>
<path d="M52.3718 168.031L52.1047 168.455L60.9467 173.998L61.2138 173.574L52.3718 168.031Z" fill="#0066FF"/>
<path d="M43.0038 163.015L42.7542 163.45L48.0458 166.478L48.2955 166.043L43.0038 163.015Z" fill="#0066FF"/>
<path d="M50.0812 150.649L49.8313 151.084L61.7052 157.886L61.9551 157.451L50.0812 150.649Z" fill="#0066FF"/>
<path d="M288.339 83.1167V90.5469L265.197 77.2049V95.5741L285.489 107.265V114.695L265.197 103.004V127.521L258.433 123.629V65.8975L288.339 83.1314V83.1167Z" fill="white"/>
<path d="M321.242 144.637L301.867 133.462L296.506 145.536L289.816 141.674L311.85 94.2471L312.263 94.4829L334.297 167.311L326.485 162.814L321.257 144.622L321.242 144.637ZM318.939 136.602L311.761 111.378L304.303 128.155L318.939 136.587V136.602Z" fill="white"/>
<path d="M391.923 200.555L369.269 187.493C367.497 186.904 365.739 186.093 363.967 185.076C359.315 182.392 355.017 178.618 351.074 173.739C347.116 168.859 344 163.493 341.696 157.669C339.393 151.846 338.241 146.214 338.241 140.789C338.241 135.364 339.407 131.295 341.726 128.111C344.045 124.926 347.175 123.113 351.104 122.7C355.032 122.273 359.315 123.408 363.967 126.076C368.575 128.73 372.843 132.533 376.8 137.502C380.744 142.47 383.904 147.895 386.237 153.763C388.585 159.645 389.767 165.217 389.767 170.481C389.767 174.579 389.073 178.058 387.67 180.933C386.282 183.808 384.317 185.872 381.822 187.14L391.923 192.963V200.555ZM347.722 157.271C349.391 161.591 351.68 165.571 354.589 169.213C357.498 172.854 360.659 175.67 364.1 177.66C367.541 179.636 370.686 180.491 373.537 180.181C376.402 179.886 378.646 178.53 380.301 176.097C381.955 173.665 382.782 170.451 382.782 166.471C382.782 162.49 381.94 158.406 380.271 154.087C378.602 149.767 376.313 145.787 373.433 142.16C370.554 138.534 367.393 135.718 363.952 133.742C360.511 131.752 357.351 130.941 354.471 131.265C351.591 131.605 349.317 132.976 347.678 135.379C346.024 137.782 345.197 140.951 345.197 144.888C345.197 148.824 346.038 152.952 347.707 157.271H347.722Z" fill="white"/>
<path d="M154.283 246.3C150.34 244.03 146.752 243.809 144.167 245.312L141.908 246.624C144.492 245.121 148.066 245.327 152.024 247.612C159.895 252.153 166.246 263.121 166.216 272.129C166.216 276.611 164.621 279.766 162.066 281.24L164.326 279.928C166.881 278.439 168.461 275.299 168.476 270.817C168.505 261.824 162.155 250.841 154.283 246.3Z" fill="#80C5FF"/>
<path d="M152.024 247.613C159.895 252.153 166.246 263.122 166.216 272.129C166.187 281.152 159.807 284.793 151.935 280.252C144.093 275.727 137.743 264.758 137.773 255.736C137.802 246.743 144.182 243.101 152.039 247.627L152.024 247.613Z" fill="#0081ED"/>
<path d="M160.324 263.18L143.119 253.274C142.469 252.905 141.937 253.2 141.937 253.952V258.448C141.937 259.2 142.469 260.114 143.119 260.483L160.324 270.39C160.973 270.758 161.505 270.463 161.505 269.711V265.215C161.505 264.463 160.973 263.549 160.324 263.18ZM148.14 262.001C147.062 261.382 146.19 259.863 146.19 258.625C146.19 257.387 147.062 256.885 148.14 257.505C149.233 258.139 150.104 259.642 150.104 260.881C150.104 262.119 149.233 262.635 148.14 262.001ZM155.302 266.129C154.224 265.51 153.353 263.991 153.353 262.753C153.353 261.515 154.224 261.013 155.302 261.633C156.381 262.252 157.267 263.77 157.267 265.009C157.267 266.247 156.381 266.748 155.302 266.129Z" fill="#F2F2F2"/>
<path d="M156.218 271.053L147.239 265.893C144.315 264.227 141.952 265.569 141.952 268.901V269.77C144.551 274.164 148.081 277.997 151.965 280.238C155.657 282.39 159.024 282.7 161.52 281.52V280.179C161.52 276.847 159.142 272.748 156.233 271.053H156.218Z" fill="#F2F2F2"/>
<path d="M258.015 356.102C254.072 353.832 250.483 353.61 247.899 355.114L245.639 356.426C248.224 354.922 251.812 355.129 255.756 357.414C263.627 361.94 269.977 372.923 269.948 381.931C269.948 386.412 268.353 389.567 265.798 391.042L268.058 389.729C270.612 388.24 272.193 385.1 272.207 380.619C272.237 371.626 265.887 360.643 258.015 356.102Z" fill="#80C5FF"/>
<path d="M255.756 357.414C263.627 361.94 269.977 372.923 269.948 381.931C269.918 390.954 263.538 394.595 255.667 390.054C247.825 385.528 241.475 374.56 241.504 365.537C241.534 356.545 247.928 352.903 255.77 357.429L255.756 357.414Z" fill="#0081ED"/>
<path d="M264.557 391.572C262.121 392.442 259.034 391.985 255.667 390.039C252.492 388.211 249.568 385.336 247.19 381.931C247.736 379.587 249.789 378.82 252.255 380.265L259.595 384.496C261.943 385.838 263.922 388.757 264.543 391.572H264.557Z" fill="#1F2125"/>
<path d="M257.882 386.03C256.893 386.722 255.165 385.779 254.131 383.966L254.072 383.848C253.599 383.022 253.333 382.123 253.333 381.341V376.653L258.561 379.661V384.423C258.561 385.16 258.325 385.72 257.897 386.015L257.882 386.03Z" fill="#FFE5CC"/>
<path d="M253.023 362.411C252.891 362.235 252.728 362.058 252.507 361.91C252.093 361.63 251.694 361.571 251.34 361.601C250.424 361.645 249.686 362.117 249.139 362.809C248.593 363.502 248.224 364.431 247.988 365.448C247.958 365.596 247.914 365.743 247.884 365.891C247.574 367.409 247.5 369.119 247.663 370.933C247.81 372.628 248.047 374.427 248.667 376.255C248.844 376.785 249.051 377.316 249.346 377.817C249.893 378.776 250.542 379.203 251.118 379.159C251.783 379.115 252.034 378.348 252.137 377.596C252.27 376.638 252.462 375.724 252.448 374.677C252.448 373.571 252.285 372.392 251.99 371.183C251.827 370.49 251.606 369.783 251.561 369.134C251.547 368.869 251.532 368.515 251.606 368.323C251.694 368.132 251.901 368.043 252.034 367.896C252.625 367.262 252.95 366.303 253.156 365.257C253.289 364.549 253.659 363.325 253.023 362.411Z" fill="#5F3915"/>
<path d="M259.64 364.608C259.772 364.741 260.009 365.463 260.097 365.655C260.23 365.979 260.363 366.304 260.496 366.613C260.762 367.233 261.131 367.822 261.397 368.456C261.663 369.105 261.899 369.798 262.091 370.446C262.313 371.169 262.623 372.157 262.593 372.805C262.593 373.056 262.475 373.218 262.416 373.439C262.327 373.808 262.268 374.206 262.18 374.574C261.899 375.783 261.426 376.845 260.54 377.331C260.319 377.449 260.068 377.538 259.905 377.744C259.743 377.95 259.684 378.275 259.64 378.614C259.521 379.66 259.684 380.869 259.817 382.049C259.92 382.919 260.171 383.98 260.836 384.776C261.412 385.469 262.062 385.793 262.608 385.469C262.903 385.292 263.11 384.997 263.287 384.688C264.1 383.243 264.321 381.09 264.306 378.982C264.306 377.449 264.188 375.931 263.893 374.279C263.612 372.628 263.243 370.933 262.578 369.238C261.914 367.542 260.895 365.817 259.625 364.623L259.64 364.608Z" fill="#5F3915"/>
<path d="M260.585 376.417C259.965 377.42 260.083 378.953 260.836 379.852C261.604 380.752 262.726 380.663 263.346 379.661C263.967 378.658 263.849 377.11 263.095 376.211C262.327 375.312 261.205 375.4 260.585 376.403V376.417Z" fill="#FFE5CC"/>
<path d="M251.488 371.168C252.108 372.893 251.99 374.294 251.237 374.323C250.469 374.338 249.346 372.967 248.726 371.242C248.106 369.517 248.224 368.117 248.977 368.087C249.745 368.072 250.867 369.443 251.488 371.168Z" fill="#FFE5CC"/>
<path d="M261.22 369.562C260.009 366.879 258.03 364.564 255.918 363.355C253.777 362.117 251.783 362.176 250.572 363.488C250.085 364.019 249.878 364.874 249.967 365.92L250.734 373.837C250.867 375.252 251.473 376.83 252.418 378.186L253.171 379.292C254.781 381.636 257.011 382.963 258.665 382.55L259.522 382.329C260.541 382.078 261.205 381.135 261.323 379.764L261.914 372.776C261.988 371.862 261.766 370.771 261.279 369.709L261.22 369.562Z" fill="#FFE5CC"/>
<path d="M252.728 362.471C252.536 362.721 253.629 364.844 253.806 365.198C254.397 366.407 255.15 367.572 256.007 368.589C257.055 369.827 258.222 370.83 259.3 371.98C260.216 372.953 261.205 374.338 261.692 375.651C262.165 375.651 262.77 375.768 263.287 376.284C263.287 373.867 263.007 370.874 261.914 368.132C260.984 365.788 259.137 363.724 257.365 362.486C255.505 361.188 253.703 361.188 252.743 362.456L252.728 362.471Z" fill="#5F3915"/>
<path d="M253.836 363.488C253.836 363.488 253.836 366.171 251.502 366.761C250.926 366.908 250.572 367.439 250.542 368.235C250.542 368.545 250.454 368.81 250.262 368.958L249.76 366.953L249.878 364.211L250.542 362.84L251.532 362.161L252.477 362.117L253.924 362.884L253.851 363.503L253.836 363.488Z" fill="#5F3915"/>
<path d="M268.235 312.876L182.328 263.356C181.221 262.708 180.216 262.649 179.478 263.076L177.219 264.388C177.942 263.961 178.946 264.035 180.069 264.669L265.975 314.189C268.191 315.456 269.963 318.538 269.963 321.073L269.904 340.976C269.904 342.229 269.461 343.099 268.752 343.511L271.011 342.199C271.72 341.786 272.163 340.902 272.163 339.664L272.222 319.761C272.222 317.225 270.45 314.159 268.235 312.876Z" fill="#80C5FF"/>
<path d="M265.96 314.188C268.176 315.456 269.948 318.537 269.948 321.073L269.889 340.975C269.889 343.496 268.087 344.514 265.887 343.231L179.98 293.711C177.765 292.443 175.993 289.362 175.993 286.856L176.052 266.953C176.052 264.418 177.853 263.4 180.054 264.668L265.96 314.188Z" fill="#0081ED"/>
<path d="M257.986 321.796L188.132 281.549V279.868L257.986 320.13V321.796Z" fill="white"/>
<path d="M231.89 312.921L188.132 287.711V286.03L231.89 311.255V312.921Z" fill="white"/>
<path d="M257.986 327.958L235.257 314.866V313.186L257.986 326.292V327.958Z" fill="white"/>
<path d="M230 340.637L144.079 291.117C142.986 290.483 141.981 290.424 141.258 290.852L138.998 292.164C139.722 291.751 140.711 291.795 141.819 292.429L227.74 341.949C229.926 343.217 231.713 346.313 231.698 348.819L231.639 368.722C231.639 369.99 231.196 370.874 230.472 371.287L232.732 369.975C233.456 369.562 233.899 368.677 233.899 367.41L233.958 347.507C233.958 344.986 232.186 341.905 230 340.637Z" fill="#80C5FF"/>
<path d="M227.74 341.949C229.926 343.217 231.713 346.313 231.698 348.819L231.639 368.722C231.639 371.257 229.837 372.275 227.652 371.007L141.73 321.487C139.545 320.219 137.758 317.152 137.773 314.617L137.832 294.714C137.832 292.193 139.633 291.161 141.819 292.429L227.74 341.949Z" fill="#0081ED"/>
<path d="M217.654 356.545L147.8 316.298V314.617L217.654 354.879V356.545Z" fill="white"/>
<path d="M191.558 334.785L147.8 309.561V307.88L191.558 333.104V334.785Z" fill="white"/>
<path d="M217.654 349.822L194.926 336.716V335.05L217.654 348.141V349.822Z" fill="white"/>
<path d="M183.799 107.762C182.441 107.094 180.75 107.35 178.723 108.528C176.854 109.589 175.261 111.101 173.923 113.084C173.785 113.281 173.648 113.477 173.51 113.693C172.093 115.971 171.365 118.19 171.385 120.331C171.385 122.393 171.975 123.768 173.156 124.436L151.614 111.945C150.433 111.258 149.843 109.883 149.843 107.821C149.843 105.759 150.551 103.442 151.968 101.183C152.086 100.987 152.204 100.81 152.342 100.614C153.679 98.6104 155.292 97.0786 157.181 95.9984C159.207 94.8201 160.899 94.5844 162.257 95.2325L183.799 107.723V107.762Z" fill="#FF8080"/>
<path d="M173.51 113.693C172.093 115.971 171.365 118.19 171.385 120.331C171.385 122.393 171.975 123.768 173.156 124.435L151.614 111.945C150.433 111.258 149.843 109.883 149.843 107.821C149.843 105.759 150.551 103.441 151.968 101.183C152.086 100.986 152.204 100.81 152.342 100.613L173.923 113.064C173.785 113.261 173.648 113.457 173.51 113.673V113.693Z" fill="#FF3333"/>
<path d="M183.799 107.763C185.156 108.43 185.845 109.844 185.845 112.005C185.845 114.263 185.196 116.463 183.897 118.623C182.599 120.783 180.887 122.472 178.762 123.69C176.638 124.907 174.867 125.222 173.49 124.613C172.093 124.004 171.385 122.59 171.385 120.332C171.385 118.191 172.093 115.972 173.51 113.694C174.926 111.435 176.657 109.707 178.723 108.529C180.769 107.35 182.461 107.115 183.799 107.782V107.763Z" fill="#D60000"/>
<path d="M172.802 99.533L151.259 87.0231L151.24 78.1855L172.782 90.6955L172.802 99.533Z" fill="#FF3333"/>
<path d="M177.562 1.65297L199.105 14.1433C198.809 13.9666 198.514 13.8095 198.2 13.672L176.657 1.18164C176.972 1.31911 177.267 1.47622 177.562 1.65297Z" fill="black"/>
<path d="M167.687 16.2246L189.229 28.715C191.727 30.1682 192.986 33.0552 192.986 37.3757C192.986 41.2249 192.219 44.8974 190.684 48.4324C189.15 51.9478 186.828 56.0916 183.74 60.8835C181.045 65.0469 179.038 68.3266 177.68 70.7029C176.343 73.0792 175.182 75.9465 174.218 79.3244C173.234 82.7023 172.762 86.4926 172.782 90.715L151.24 78.2246C151.24 74.0023 151.712 70.212 152.676 66.8341C153.64 63.4562 154.801 60.6085 156.138 58.2126C157.476 55.8559 159.502 52.5762 162.198 48.3931C165.286 43.6012 167.608 39.4574 169.142 35.9421C170.677 32.4267 171.464 28.7346 171.444 24.8854C171.444 20.5844 170.185 17.6779 167.687 16.2246Z" fill="#FF3333"/>
<path d="M154.407 53.5781L132.865 41.0878C133.75 37.376 135.304 33.2322 137.488 28.6367C139.692 24.0608 142.623 19.5243 146.282 15.0662C149.941 10.6082 154.23 6.97499 159.129 4.14699C166.231 0.160289 172.093 -0.821656 176.657 1.22079L198.2 13.7111C193.616 11.6687 187.773 12.6506 180.671 16.6373C175.772 19.4653 171.483 23.0985 167.824 27.5566C164.145 32.0146 161.214 36.5512 159.03 41.127C156.827 45.7422 155.292 49.8664 154.407 53.5781Z" fill="#FF8080"/>
<path d="M198.2 13.6915C202.783 15.7536 205.085 20.9383 205.125 29.2651C205.125 33.4875 204.633 37.3957 203.629 41.0485C202.626 44.6817 201.328 48.0007 199.734 51.0251C198.141 54.0494 196.055 57.6434 193.439 61.7675C191.078 65.5775 189.327 68.4644 188.186 70.4872C187.045 72.51 186.081 74.906 185.314 77.6947C184.546 80.4834 184.153 83.6256 184.173 87.0821V92.9738L172.802 99.5331V90.6956C172.762 86.4733 173.234 82.683 174.218 79.3051C175.182 75.9272 176.343 73.0795 177.68 70.6836C179.018 68.3269 181.045 65.0472 183.74 60.8641C186.828 56.0723 189.15 51.9284 190.684 48.4131C192.219 44.8977 193.006 41.2056 192.986 37.3564C192.986 32.8591 191.609 29.9132 188.914 28.5385C186.219 27.1441 183.071 27.478 179.471 29.5401C175.634 31.7593 172.388 34.9801 169.752 39.2221C167.096 43.4641 165.129 48.1381 163.831 53.1853L154.387 53.5585C155.273 49.8467 156.827 45.7029 159.011 41.1074C161.214 36.5315 164.145 31.995 167.805 27.5369C171.464 23.0789 175.752 19.4457 180.651 16.6177C187.753 12.631 193.616 11.649 198.18 13.6915H198.2Z" fill="#D60000"/>
<path d="M140.975 134.73L122.561 124.046C122.463 123.987 122.345 123.928 122.227 123.869C120.692 123.221 118.862 123.516 116.698 124.753C114.534 126.01 112.724 127.817 111.288 130.173L129.702 140.857C131.119 138.5 132.929 136.694 135.112 135.437C137.277 134.18 139.126 133.885 140.641 134.553C140.759 134.612 140.857 134.651 140.975 134.73Z" fill="#80C5FF"/>
<path d="M111.052 141.682L129.466 152.366C128.207 151.639 127.578 150.127 127.578 147.849C127.578 145.571 128.286 143.253 129.702 140.877L111.288 130.193C109.872 132.57 109.144 134.907 109.164 137.165C109.164 139.443 109.793 140.955 111.052 141.682Z" fill="#0081ED"/>
<path d="M129.702 140.857C128.286 143.233 127.558 145.57 127.578 147.829C127.578 150.225 128.286 151.776 129.663 152.464C131.08 153.151 132.89 152.856 135.152 151.541C137.395 150.245 139.264 148.418 140.719 146.081C142.195 143.744 142.923 141.387 142.923 138.972C142.923 136.694 142.156 135.221 140.641 134.533C139.106 133.885 137.277 134.18 135.113 135.417C132.949 136.674 131.139 138.481 129.702 140.837V140.857Z" fill="#00559C"/>
<path d="M129.761 41.6611L111.347 30.9775L111.583 116.485L129.998 127.169L129.761 41.6611Z" fill="#0081ED"/>
<path d="M140.68 35.3573L122.266 24.6934L111.347 30.9778L129.761 41.6614L140.68 35.3573Z" fill="#80C5FF"/>
<path d="M129.761 41.6615L129.998 127.169L140.916 120.865L140.68 35.3574L129.761 41.6615Z" fill="#00559C"/>
<defs>
<linearGradient id="paint0_linear_39_5161" x1="257.887" y1="17.0266" x2="390.424" y2="246.959" gradientUnits="userSpaceOnUse">
<stop stop-color="#437FEC"/>
<stop offset="0.38" stop-color="#346FD7"/>
<stop offset="1" stop-color="#184EAE"/>
</linearGradient>
<linearGradient id="paint1_linear_39_5161" x1="58.6844" y1="228.237" x2="80.7059" y2="268.002" gradientUnits="userSpaceOnUse">
<stop stop-color="#437FEC"/>
<stop offset="0.38" stop-color="#346FD7"/>
<stop offset="1" stop-color="#184EAE"/>
</linearGradient>
<linearGradient id="paint2_linear_39_5161" x1="480.439" y1="86.432" x2="373.281" y2="86.432" gradientUnits="userSpaceOnUse">
<stop stop-color="#2575FC"/>
<stop offset="1" stop-color="#6AFFA5"/>
</linearGradient>
<linearGradient id="paint3_linear_39_5161" x1="13.63" y1="237.437" x2="125.742" y2="203.086" gradientUnits="userSpaceOnUse">
<stop stop-color="#3B82F6"/>
<stop offset="1" stop-color="#93C5FD"/>
</linearGradient>
</defs>
</svg>
