<svg width="56" height="55" viewBox="0 0 56 55" fill="none" xmlns="http://www.w3.org/2000/svg">
<path d="M0.916263 27.0906C0.916262 34.2737 3.7697 41.1625 8.84886 46.2416C13.928 51.3208 20.8168 54.1742 27.9999 54.1742C35.1829 54.1742 42.0717 51.3208 47.1509 46.2416C52.23 41.1625 55.0835 34.2737 55.0835 27.0907L27.9999 27.0906L0.916263 27.0906Z" fill="#0066FF"/>
<path d="M55.0836 27.0836C55.0836 19.9006 52.2302 13.0118 47.151 7.93261C42.0719 2.85345 35.1831 5.94756e-06 28 4.2722e-06C20.817 2.59684e-06 13.9282 2.85344 8.84905 7.9326C3.76989 13.0118 0.916447 19.9006 0.916444 27.0836L28 27.0836L55.0836 27.0836Z" fill="#00E5AB"/>
</svg>
