<svg width="226" height="238" viewBox="0 0 226 238" fill="none" xmlns="http://www.w3.org/2000/svg">
<path opacity="0.07" d="M22.3982 100.319C22.3982 101.61 22.4274 102.901 22.5148 104.105C9.98868 113.485 0.346497 133.593 0.346497 151.291C0.346497 170.566 11.7948 179.659 25.923 171.627C25.9522 171.599 25.9813 171.599 26.0104 171.57L114.771 121.172C114.8 121.144 114.829 121.144 114.887 121.115C130.763 112.08 143.639 87.2105 143.639 65.5541C143.639 45.2745 132.336 34.9769 117.859 41.2014C116.082 27.2896 106.614 21.2947 95.1952 27.8059C89.7187 30.9325 84.6791 36.4111 80.7465 43.0085C75.0369 34.6614 65.3074 32.5388 54.2961 38.7919C36.6721 48.7739 22.3982 76.3393 22.3982 100.319Z" fill="url(#paint0_linear_12_155)"/>
<path opacity="0.4" d="M36.9635 114.087C36.9635 115.378 36.9926 116.669 37.08 117.874C24.5539 127.253 14.9117 147.361 14.9117 165.059C14.9117 184.334 26.36 193.427 40.4883 185.396C40.5174 185.367 40.5465 185.367 40.5757 185.338L129.336 134.941C129.365 134.912 129.394 134.912 129.453 134.883C145.329 125.848 158.204 100.979 158.204 79.3224C158.204 59.0428 146.902 48.7453 132.424 54.9697C130.647 41.0579 121.18 35.063 109.76 41.5743C104.284 44.7008 99.2444 50.1795 95.3117 56.7768C89.6022 48.4297 79.8726 46.3071 68.8613 52.5602C51.2374 62.5423 36.9635 90.1076 36.9635 114.087Z" fill="url(#paint1_linear_12_155)"/>
<path opacity="0.2" d="M177.489 138.641L191.005 130.954V126.45L177.489 134.138C176.382 134.769 174.78 136.031 173.41 137.981C171.925 140.075 170.876 142.714 170.876 145.582C170.876 148.738 171.692 150.545 173.265 151.061C174.721 151.549 176.44 150.717 177.518 150.114L183.082 146.959L183.111 146.931C183.577 146.644 184.334 146.386 184.946 146.558C185.441 146.701 185.995 147.189 185.995 148.938C185.995 150.688 185.441 151.778 184.975 152.409C184.393 153.212 183.635 153.786 183.169 154.016L183.111 154.044L166.128 163.711V168.214L183.023 158.605C184.189 158.003 185.849 156.74 187.306 154.733C188.879 152.553 189.986 149.77 189.956 146.672C189.956 143.603 188.879 142.026 187.306 141.595C185.849 141.194 184.189 141.767 183.023 142.485L177.518 145.611C176.731 146.07 176.12 146.271 175.741 146.127C175.45 146.041 174.867 145.611 174.867 143.316C174.867 141.853 175.362 140.878 175.799 140.219C176.323 139.473 177.052 138.899 177.489 138.641Z" fill="white"/>
<path fill-rule="evenodd" clip-rule="evenodd" d="M188.092 129.835C188.092 133.535 190.306 135.285 193.015 133.765C195.724 132.216 197.938 127.97 197.938 124.241C197.938 120.541 195.724 118.791 193.015 120.312C190.306 121.861 188.092 126.135 188.092 129.835Z" fill="white"/>
<path fill-rule="evenodd" clip-rule="evenodd" d="M159.253 169.706C159.253 173.406 161.467 175.156 164.176 173.635C166.885 172.086 169.099 167.841 169.099 164.112C169.099 160.412 166.885 158.662 164.176 160.182C161.467 161.731 159.253 166.005 159.253 169.706Z" fill="white"/>
<path opacity="0.07" d="M135.978 74.4174L48.6156 124.069V169.591L136.007 119.939L135.978 74.4174Z" fill="url(#paint2_linear_12_155)"/>
<path opacity="0.3" d="M147.659 80.1542L60.297 129.806V175.328L147.659 125.676V80.1542Z" fill="url(#paint3_linear_12_155)"/>
<path fill-rule="evenodd" clip-rule="evenodd" d="M139.823 107.261C139.823 110.932 137.609 115.149 134.9 116.698C132.191 118.246 129.977 116.525 129.977 112.854C129.977 109.182 132.191 104.966 134.9 103.417C137.609 101.868 139.823 103.589 139.823 107.261Z" fill="white"/>
<path opacity="0.15" d="M127.501 114.345C127.501 116.038 126.481 118.017 125.2 118.734C123.947 119.451 122.927 118.648 122.927 116.956C122.927 115.263 123.947 113.284 125.229 112.567C126.481 111.85 127.501 112.653 127.501 114.345Z" fill="white"/>
<path opacity="0.15" d="M120.48 118.333C120.48 120.025 119.461 122.004 118.179 122.721C116.926 123.438 115.907 122.635 115.907 120.943C115.907 119.25 116.926 117.271 118.208 116.554C119.461 115.837 120.48 116.64 120.48 118.333Z" fill="white"/>
<path opacity="0.15" d="M82.3487 126.077V151.979L85.7861 150.028V124.127L82.3487 126.077Z" fill="white"/>
<path opacity="0.15" d="M74.833 130.38V156.281L78.2704 154.331V128.429L74.833 130.38Z" fill="white"/>
<path opacity="0.15" d="M67.2883 134.682V160.584L70.7256 158.634V132.732L67.2883 134.682Z" fill="white"/>
<path opacity="0.07" d="M136.007 136.633L48.6448 186.285V231.806L136.007 182.154V136.633Z" fill="url(#paint4_linear_12_155)"/>
<path opacity="0.3" d="M147.659 142.657L60.297 192.309V237.83L147.659 188.178V142.657Z" fill="url(#paint5_linear_12_155)"/>
<path fill-rule="evenodd" clip-rule="evenodd" d="M139.823 169.763C139.823 173.434 137.609 177.651 134.9 179.2C132.191 180.749 129.977 179.028 129.977 175.356C129.977 171.685 132.191 167.468 134.9 165.919C137.609 164.37 139.823 166.091 139.823 169.763Z" fill="white"/>
<path opacity="0.15" d="M127.501 176.877C127.501 178.569 126.481 180.548 125.2 181.265C123.947 181.982 122.927 181.179 122.927 179.487C122.927 177.795 123.947 175.815 125.229 175.098C126.481 174.381 127.501 175.156 127.501 176.877Z" fill="white"/>
<path opacity="0.15" d="M120.51 180.864C120.51 182.556 119.49 184.535 118.208 185.252C116.956 185.969 115.936 185.166 115.936 183.474C115.936 181.782 116.956 179.802 118.237 179.085C119.49 178.339 120.51 179.143 120.51 180.864Z" fill="white"/>
<path opacity="0.15" d="M82.3487 189.469V215.37L85.7861 213.42V187.518L82.3487 189.469Z" fill="white"/>
<path opacity="0.15" d="M74.833 193.771V219.673L78.2704 217.723V191.821L74.833 193.771Z" fill="white"/>
<path opacity="0.15" d="M67.2883 198.074V223.976L70.7256 222.025V196.124L67.2883 198.074Z" fill="white"/>
<path opacity="0.3" d="M225.233 12.7181L170.789 43.6682V143.001L225.233 112.022V12.7181Z" fill="url(#paint6_linear_12_155)"/>
<path opacity="0.15" d="M214.31 77.1423L181.858 95.5861V99.4872L214.31 81.0433V77.1423Z" fill="white"/>
<path opacity="0.15" d="M211.018 86.7515L185.296 101.352V105.253L211.018 90.6525V86.7515Z" fill="white"/>
<path fill-rule="evenodd" clip-rule="evenodd" d="M178.387 63.7441L216.256 42.2024V53.3031L178.387 74.8448V63.7441Z" fill="white"/>
<path opacity="0.2" d="M159.049 0.125854L150.951 15.7873C149.844 17.9386 150.019 20.0899 151.359 20.6062C152.699 21.1225 154.68 19.7744 155.787 17.6231L155.874 17.4223V34.8048C155.874 36.784 157.272 37.5871 159.02 36.6119C160.768 35.608 162.166 33.2272 162.166 31.248V13.8655L162.253 13.9515C163.36 14.8407 165.37 13.9229 166.681 11.8863C168.021 9.84973 168.196 7.49764 167.089 6.60844L159.049 0.125854Z" fill="url(#paint7_linear_12_155)"/>
<defs>
<linearGradient id="paint0_linear_12_155" x1="-12948.4" y1="2061.51" x2="-4570.37" y2="10132" gradientUnits="userSpaceOnUse">
<stop stop-color="white"/>
<stop offset="1" stop-color="white" stop-opacity="0"/>
</linearGradient>
<linearGradient id="paint1_linear_12_155" x1="-12933.7" y1="2075.43" x2="-4555.67" y2="10145.9" gradientUnits="userSpaceOnUse">
<stop stop-color="white"/>
<stop offset="1" stop-color="white" stop-opacity="0"/>
</linearGradient>
<linearGradient id="paint2_linear_12_155" x1="-4088.32" y1="438.388" x2="-4403.85" y2="8488.59" gradientUnits="userSpaceOnUse">
<stop stop-color="white"/>
<stop offset="1" stop-color="white" stop-opacity="0"/>
</linearGradient>
<linearGradient id="paint3_linear_12_155" x1="-4075.31" y1="444.18" x2="-4390.84" y2="8494.38" gradientUnits="userSpaceOnUse">
<stop stop-color="white"/>
<stop offset="1" stop-color="white" stop-opacity="0"/>
</linearGradient>
<linearGradient id="paint4_linear_12_155" x1="-4087" y1="501.611" x2="-4402.52" y2="8551.78" gradientUnits="userSpaceOnUse">
<stop stop-color="white"/>
<stop offset="1" stop-color="white" stop-opacity="0"/>
</linearGradient>
<linearGradient id="paint5_linear_12_155" x1="-4075.35" y1="507.629" x2="-4390.87" y2="8557.8" gradientUnits="userSpaceOnUse">
<stop stop-color="white"/>
<stop offset="1" stop-color="white" stop-opacity="0"/>
</linearGradient>
<linearGradient id="paint6_linear_12_155" x1="-3056.88" y1="886.157" x2="684.833" y2="7469.58" gradientUnits="userSpaceOnUse">
<stop stop-color="white"/>
<stop offset="1" stop-color="white" stop-opacity="0"/>
</linearGradient>
<linearGradient id="paint7_linear_12_155" x1="-838.149" y1="1580.21" x2="-243.886" y2="1916.64" gradientUnits="userSpaceOnUse">
<stop stop-color="white"/>
<stop offset="1" stop-color="white" stop-opacity="0"/>
</linearGradient>
</defs>
</svg>
