<svg width="144" height="139" viewBox="0 0 144 139" fill="none" xmlns="http://www.w3.org/2000/svg">
<g clip-path="url(#clip0_1345_12864)">
<path d="M135 65H10V127H135V65Z" fill="#00E5AB"/>
<path d="M52.4998 50.2197L94.3098 2.92969L140.42 50.2197C143.34 53.2097 141.22 58.2397 137.04 58.2397H3.58984V132.5H141.23V66.5997" stroke="#402BB0" stroke-width="4" stroke-miterlimit="10" stroke-linecap="round"/>
<path d="M59.8701 51.4301H133.63L94.7501 14.1201L59.8701 51.4301Z" fill="#99F5DD"/>
<path d="M7.32203 10.5L22.0853 30.3976C22.14 30.849 22.2009 31.279 22.2657 31.6825L22.3797 32.3918L23.0052 32.0386L23.5993 31.7032L24.0926 31.4247L23.7551 30.9699L23.0474 30.016C23.0294 29.8573 23.0122 29.6959 22.9959 29.5322C22.9241 28.8094 22.8525 28.0339 22.7899 27.205L22.7899 27.2046C22.7275 26.3881 22.6828 25.5155 22.6469 24.5853L22.6469 24.5851C22.6109 23.6608 22.5751 22.6862 22.5572 21.6856L22.5571 21.6813C22.5303 20.6719 22.5213 19.6251 22.5213 18.5397V10.5H25.5V35.4819H22.6029L7.82403 15.9707C7.79703 15.6392 7.76873 15.2943 7.73887 14.9355L7.63317 13.6657L6.84708 14.6685L6.44201 15.1853L6.2043 15.4885L6.43695 15.7956L6.85091 16.3421C6.868 16.5528 6.8846 16.7581 6.90076 16.9581C6.95752 17.6604 7.00891 18.2962 7.05747 18.8634C7.10468 19.415 7.14804 19.935 7.18759 20.4093C7.22213 20.8234 7.25376 21.2027 7.28252 21.5379C7.34553 22.2721 7.38959 22.851 7.40709 23.3005L7.40699 23.3005L7.40756 23.3102C7.43445 23.7705 7.45215 24.1369 7.46095 24.4293C7.46229 24.4738 7.46361 24.517 7.4649 24.559C7.47244 24.8041 7.47872 25.0086 7.47872 25.1939V35.5H4.5V10.5H7.32203Z" fill="#402BB0" stroke="#402BB0"/>
<path d="M49.2749 35.5175L49.2736 35.5181C47.82 36.1648 46.2339 36.4908 44.5 36.4908H44.0008C42.4604 36.4339 41.0394 36.1114 39.7264 35.5272C38.2656 34.8774 37.0028 33.974 35.9174 32.8143C34.8346 31.6573 33.9952 30.2863 33.3933 28.7039C32.7945 27.1299 32.5 25.3973 32.5 23.5C32.5 21.605 32.8027 19.8715 33.3937 18.295C33.9951 16.7145 34.834 15.3523 35.918 14.1851C37.0026 13.0264 38.2739 12.1228 39.7269 11.4725C41.1804 10.826 42.7663 10.5 44.5 10.5C46.2339 10.5 47.82 10.8261 49.2736 11.4728C50.7342 12.1225 51.9958 13.0252 53.08 14.2013C54.1652 15.3783 55.0049 16.7506 55.6067 18.3327C56.2059 19.9076 56.5 21.6221 56.5 23.4908C56.5 25.3576 56.1976 27.082 55.6064 28.6591C55.0046 30.2408 54.1649 31.6128 53.08 32.7896C51.9953 33.9662 50.7249 34.8774 49.2749 35.5175ZM36.1503 19.4866L36.1503 19.4866L36.1491 19.4898C35.7191 20.7102 35.4975 22.0483 35.4975 23.5C35.4975 24.951 35.71 26.2526 36.1491 27.4918C36.5792 28.7217 37.2084 29.7957 38.0207 30.6988C38.8323 31.601 39.7869 32.3005 40.8808 32.8046C41.9851 33.3135 43.197 33.5644 44.5 33.5644C45.803 33.5644 47.0149 33.3135 48.1192 32.8046C49.2166 32.2989 50.1632 31.5881 50.9652 30.6763C51.767 29.7648 52.3845 28.6938 52.8308 27.48C53.2805 26.2567 53.5025 24.9345 53.5025 23.5C53.5025 22.0655 53.2805 20.7433 52.8308 19.52C52.3845 18.3062 51.767 17.2352 50.9652 16.3237C50.1632 15.4119 49.2166 14.7011 48.1192 14.1954C47.0149 13.6865 45.803 13.4356 44.5 13.4356C43.197 13.4356 41.9851 13.6865 40.8808 14.1954C39.7869 14.6995 38.8323 15.399 38.0207 16.3012C37.2077 17.205 36.5885 18.2693 36.1503 19.4866Z" fill="#402BB0" stroke="#402BB0"/>
<path d="M31 108.55V83.3496H34.89V108.55H31ZM32.73 87.0896V83.3496H47.35V87.0896H32.73ZM32.73 97.8196V94.0796H45.73V97.8196H32.73Z" fill="#2E3192"/>
<path d="M52.6699 108.55V83.3496H68.5499V87.0896H56.5599V104.8H68.5499V108.54H52.6699V108.55ZM54.4299 97.4996V93.7596H66.5599V97.4996H54.4299Z" fill="#2E3192"/>
<path d="M74.7803 108.55V83.3496H90.6603V87.0896H78.6703V104.8H90.6603V108.54H74.7803V108.55ZM76.5403 97.4996V93.7596H88.6703V97.4996H76.5403Z" fill="#2E3192"/>
<path d="M104.66 108.91C103.29 108.91 102.03 108.73 100.86 108.37C99.6999 108.01 98.6399 107.46 97.6899 106.73C96.7399 106 95.8999 105.09 95.1499 104.01L97.8099 100.95C98.9899 102.63 100.11 103.79 101.19 104.44C102.27 105.09 103.55 105.41 105.04 105.41C105.95 105.41 106.78 105.27 107.52 104.98C108.26 104.69 108.85 104.3 109.28 103.79C109.71 103.29 109.93 102.71 109.93 102.06C109.93 101.63 109.86 101.22 109.71 100.84C109.57 100.46 109.34 100.11 109.04 99.8C108.74 99.49 108.36 99.2 107.89 98.94C107.42 98.68 106.88 98.44 106.25 98.24C105.63 98.04 104.91 97.86 104.09 97.72C102.79 97.46 101.67 97.11 100.71 96.68C99.7499 96.25 98.9499 95.71 98.2999 95.06C97.6499 94.41 97.1699 93.67 96.8599 92.85C96.5499 92.02 96.3899 91.09 96.3899 90.06C96.3899 89.03 96.6099 88.12 97.0599 87.25C97.5099 86.38 98.1199 85.64 98.8999 85C99.6799 84.36 100.6 83.87 101.65 83.52C102.71 83.17 103.85 83 105.07 83C106.37 83 107.55 83.17 108.63 83.5C109.71 83.84 110.67 84.33 111.51 84.99C112.35 85.65 113.05 86.46 113.6 87.42L110.86 90.12C110.38 89.33 109.84 88.66 109.24 88.12C108.64 87.58 107.98 87.17 107.26 86.9C106.54 86.62 105.77 86.49 104.96 86.49C104.02 86.49 103.21 86.63 102.51 86.92C101.81 87.21 101.27 87.61 100.87 88.13C100.47 88.65 100.28 89.25 100.28 89.95C100.28 90.45 100.38 90.92 100.57 91.34C100.76 91.76 101.06 92.13 101.45 92.46C101.85 92.78 102.38 93.07 103.05 93.32C103.72 93.57 104.53 93.79 105.46 93.99C106.78 94.28 107.96 94.64 108.99 95.09C110.02 95.53 110.9 96.06 111.62 96.66C112.34 97.26 112.89 97.93 113.26 98.68C113.63 99.42 113.82 100.23 113.82 101.09C113.82 102.7 113.45 104.09 112.7 105.27C111.96 106.45 110.9 107.35 109.53 107.99C108.16 108.63 106.53 108.94 104.63 108.94L104.66 108.91Z" fill="#2E3192"/>
</g>
<defs>
<clipPath id="clip0_1345_12864">
<rect width="143.77" height="138.5" fill="white"/>
</clipPath>
</defs>
</svg>
