<svg width="110" height="138" viewBox="0 0 110 138" fill="none" xmlns="http://www.w3.org/2000/svg">
<g clip-path="url(#clip0_1345_14188)">
<path d="M81.91 2H2V135.57H81.91V2Z" stroke="#402BB0" stroke-width="6" stroke-linecap="round" stroke-linejoin="round"/>
<path d="M74.18 13.5898H9.72998V43.0398H74.18V13.5898Z" fill="#99F5DD"/>
<rect x="25" y="55" width="35" height="61" fill="#402BB0"/>
<path d="M41.9991 66.9594L30.6345 86.4586L41.9995 93.3972L53.3559 86.459L41.9991 66.9594Z" fill="#00E5AB"/>
<path fill-rule="evenodd" clip-rule="evenodd" d="M74 50H10V127H74V50ZM42 61L26.5625 87.4875L42 96.9125L57.4267 87.4875L42 61ZM57.4375 90.5146L42 99.9397L26.5625 90.5146L42 113L57.4375 90.5146Z" fill="#00E5AB"/>
<path d="M82.48 109.67C82.48 109.67 105.37 102.59 104.94 68.5703" stroke="#402BB0" stroke-width="6.27" stroke-linecap="round" stroke-linejoin="round"/>
<path d="M101.11 67.4602C104.645 67.4602 107.51 64.5948 107.51 61.0602C107.51 57.5255 104.645 54.6602 101.11 54.6602C97.5753 54.6602 94.71 57.5255 94.71 61.0602C94.71 64.5948 97.5753 67.4602 101.11 67.4602Z" stroke="#402BB0" stroke-width="6.27" stroke-linecap="round" stroke-linejoin="round"/>
<path d="M99.3101 54.6591L88.1101 38.6191" stroke="#402BB0" stroke-width="6.27" stroke-linecap="round" stroke-linejoin="round"/>
<path d="M27.9799 37.7404C26.6499 37.7404 25.3999 37.5004 24.2399 37.0204C23.0799 36.5404 22.0599 35.8704 21.1899 35.0104C20.3199 34.1504 19.6299 33.1504 19.1499 32.0004C18.6699 30.8504 18.4299 29.6104 18.4299 28.2804C18.4299 26.9504 18.6699 25.7304 19.1499 24.5904C19.6299 23.4504 20.3099 22.4504 21.1799 21.6004C22.0499 20.7504 23.0599 20.0904 24.2199 19.6104C25.3799 19.1404 26.6199 18.9004 27.9599 18.9004C28.8899 18.9004 29.7999 19.0304 30.6799 19.2904C31.5699 19.5504 32.3699 19.9204 33.0899 20.4004C33.8099 20.8704 34.3999 21.4204 34.8499 22.0304L33.0099 23.9504C32.4799 23.4404 31.9399 23.0204 31.3899 22.6904C30.8399 22.3604 30.2699 22.1004 29.6899 21.9304C29.1099 21.7604 28.5299 21.6704 27.9499 21.6704C26.9999 21.6704 26.1299 21.8404 25.3299 22.1704C24.5299 22.5004 23.8299 22.9704 23.2199 23.5704C22.6099 24.1704 22.1399 24.8604 21.8099 25.6604C21.4799 26.4604 21.3099 27.3304 21.3099 28.2804C21.3099 29.2304 21.4799 30.0604 21.8399 30.8704C22.1899 31.6904 22.6799 32.4004 23.2999 33.0204C23.9199 33.6304 24.6399 34.1204 25.4599 34.4704C26.2799 34.8204 27.1399 35.0004 28.0499 35.0004C28.7299 35.0004 29.3799 34.9004 29.9999 34.7004C30.6099 34.5004 31.1599 34.2104 31.6299 33.8404C32.0999 33.4704 32.4699 33.0504 32.7399 32.5604C32.9999 32.0804 33.1299 31.5604 33.1299 31.0204V30.4904L33.5199 30.8604H27.8899V28.0404H36.0499C36.0799 28.2304 36.1099 28.4204 36.1299 28.6104C36.1499 28.7904 36.1599 28.9704 36.1699 29.1404C36.1799 29.3104 36.1799 29.4704 36.1799 29.6304C36.1799 30.8404 35.9699 31.9404 35.5499 32.9304C35.1299 33.9204 34.5499 34.7804 33.7999 35.5004C33.0499 36.2204 32.1899 36.7804 31.1899 37.1704C30.1999 37.5604 29.1199 37.7604 27.9699 37.7604L27.9799 37.7404Z" fill="#2E3192"/>
<path d="M44.5301 37.7394C43.3901 37.7394 42.3501 37.4194 41.4101 36.7894C40.4701 36.1594 39.7201 35.2994 39.1601 34.2094C38.6001 33.1194 38.3201 31.8894 38.3201 30.5194C38.3201 29.1494 38.6001 27.8994 39.1801 26.8194C39.7501 25.7394 40.5201 24.8894 41.5001 24.2794C42.4701 23.6694 43.5701 23.3594 44.7801 23.3594C45.5001 23.3594 46.1601 23.4594 46.7501 23.6794C47.3501 23.8894 47.8701 24.1794 48.3201 24.5594C48.7701 24.9394 49.1401 25.3694 49.4301 25.8594C49.7201 26.3494 49.9001 26.8794 49.9701 27.4394L49.3601 27.2294V23.6494H52.1001V37.4694H49.3601V34.1794L49.9901 33.9994C49.8801 34.4694 49.6701 34.9294 49.3401 35.3794C49.0201 35.8294 48.6001 36.2294 48.1001 36.5794C47.6001 36.9294 47.0501 37.2094 46.4401 37.4194C45.8401 37.6294 45.2001 37.7394 44.5301 37.7394ZM45.2401 35.2394C46.0601 35.2394 46.7901 35.0394 47.4301 34.6294C48.0701 34.2194 48.5601 33.6694 48.9201 32.9594C49.2801 32.2494 49.4601 31.4394 49.4601 30.5194C49.4601 29.5994 49.2801 28.8294 48.9201 28.1194C48.5601 27.4194 48.0601 26.8694 47.4301 26.4594C46.8001 26.0494 46.0701 25.8494 45.2401 25.8494C44.4101 25.8494 43.7201 26.0494 43.0901 26.4594C42.4701 26.8594 41.9801 27.4194 41.6201 28.1194C41.2601 28.8194 41.0801 29.6194 41.0801 30.5194C41.0801 31.4194 41.2601 32.2394 41.6201 32.9594C41.9801 33.6694 42.4701 34.2294 43.0901 34.6294C43.7101 35.0294 44.4301 35.2394 45.2401 35.2394Z" fill="#2E3192"/>
<path d="M60.49 37.7391C59.33 37.7391 58.29 37.5391 57.36 37.1291C56.43 36.7291 55.66 36.1291 55.04 35.3391L56.88 33.7591C57.41 34.3691 57.98 34.8191 58.6 35.0891C59.22 35.3591 59.93 35.4991 60.72 35.4991C61.04 35.4991 61.33 35.4591 61.6 35.3791C61.87 35.2991 62.11 35.1791 62.31 35.0291C62.51 34.8691 62.67 34.6791 62.77 34.4591C62.87 34.2391 62.93 33.9991 62.93 33.7391C62.93 33.2791 62.76 32.9191 62.43 32.6291C62.25 32.5091 61.98 32.3691 61.6 32.2191C61.22 32.0691 60.74 31.9191 60.14 31.7591C59.12 31.4991 58.29 31.1991 57.64 30.8591C56.99 30.5291 56.49 30.1491 56.14 29.7291C55.88 29.3991 55.68 29.0291 55.56 28.6391C55.44 28.2491 55.38 27.8091 55.38 27.3391C55.38 26.7591 55.51 26.2291 55.76 25.7491C56.01 25.2691 56.37 24.8491 56.81 24.4891C57.25 24.1291 57.78 23.8491 58.39 23.6591C59 23.4691 59.64 23.3691 60.32 23.3691C61 23.3691 61.61 23.4591 62.26 23.6291C62.9 23.7991 63.49 24.0591 64.04 24.3891C64.59 24.7191 65.04 25.1191 65.41 25.5691L63.86 27.2791C63.53 26.9491 63.16 26.6491 62.77 26.3991C62.38 26.1491 61.98 25.9491 61.57 25.8091C61.17 25.6691 60.8 25.5991 60.46 25.5991C60.09 25.5991 59.76 25.6391 59.46 25.7091C59.16 25.7791 58.91 25.8891 58.71 26.0291C58.51 26.1691 58.35 26.3491 58.25 26.5591C58.15 26.7691 58.09 27.0091 58.09 27.2691C58.11 27.4991 58.16 27.7091 58.26 27.9091C58.36 28.1091 58.49 28.2791 58.67 28.4191C58.86 28.5591 59.15 28.7091 59.54 28.8691C59.93 29.0291 60.42 29.1791 61.01 29.3191C61.89 29.5491 62.61 29.7991 63.18 30.0691C63.75 30.3391 64.2 30.6491 64.54 30.9991C64.89 31.3291 65.14 31.7191 65.28 32.1591C65.42 32.5991 65.49 33.0891 65.49 33.6291C65.49 34.4191 65.27 35.1291 64.82 35.7491C64.37 36.3691 63.77 36.8591 63.02 37.2091C62.27 37.5591 61.42 37.7391 60.49 37.7391Z" fill="#2E3192"/>
</g>
<defs>
<clipPath id="clip0_1345_14188">
<rect width="109.65" height="137.57" fill="white"/>
</clipPath>
</defs>
</svg>
