<svg width="280" height="277" viewBox="0 0 280 277" fill="none" xmlns="http://www.w3.org/2000/svg">
<path opacity="0.5" d="M100.435 101.513C120.57 89.9327 137.224 100.769 140.17 125.727C140.682 130.066 137.346 135.772 133.304 138.098L67.5895 175.882C63.5478 178.207 60.2122 176.337 60.6991 171.423C63.6452 143.061 80.2991 113.068 100.435 101.513Z" fill="url(#paint0_linear_12_25)"/>
<path opacity="0.8" d="M69 112.124C69 127.688 78.1847 135.048 89.511 128.554C100.815 122.081 110 104.222 110 88.6579C110 73.0934 100.815 65.7333 89.489 72.2275C78.1626 78.7001 69 96.5808 69 112.124Z" fill="white"/>
<path opacity="0.07" d="M90.6956 94.3201C110.831 82.7403 127.485 93.5769 130.431 118.535C130.943 122.874 127.607 128.58 123.565 130.905L57.8504 168.69C53.8087 171.015 50.473 169.145 50.96 164.23C53.9061 135.868 70.56 105.876 90.6956 94.3201Z" fill="url(#paint1_linear_12_25)"/>
<path opacity="0.07" d="M60 105.231C60 120.795 69.1847 128.156 80.511 121.661C91.8153 115.189 101 97.3296 101 81.7652C101 66.2007 91.8153 58.8406 80.489 65.3348C69.1626 71.8074 60 89.6881 60 105.231Z" fill="url(#paint2_linear_12_25)"/>
<path opacity="0.5" d="M183.753 110.311L229.089 84.5385V107.794L183.729 133.567L183.753 110.311Z" fill="url(#paint3_linear_12_25)"/>
<path fill-rule="evenodd" clip-rule="evenodd" d="M219.885 97.5807C219.885 99.4986 221.03 100.386 222.466 99.5945C223.878 98.7794 225.047 96.5737 225.047 94.6557C225.047 92.7378 223.903 91.8507 222.466 92.6419C221.03 93.457 219.885 95.6627 219.885 97.5807Z" fill="white"/>
<path opacity="0.15" d="M217.548 96.8615L202.72 105.277V108.537L217.548 100.122V96.8615Z" fill="white"/>
<path opacity="0.15" d="M217.475 103.43L188.428 119.949V123.21L217.475 106.691V103.43Z" fill="white"/>
<path opacity="0.05" d="M112.17 133.758L66.6156 159.651V256.245L112.17 230.376V133.758Z" fill="url(#paint4_linear_12_25)"/>
<path opacity="0.5" d="M74.2122 166.124L119.791 140.232V236.826L74.2365 262.718L74.2122 166.124ZM104.939 154.856L89.7218 163.487V167.323L104.939 158.812V154.856Z" fill="url(#paint5_linear_12_25)"/>
<path opacity="0.15" d="M115.384 201.439L78.7896 222.225V225.486L115.384 204.7V201.439Z" fill="white"/>
<path opacity="0.15" d="M112.803 209.255L81.3217 227.14V230.4L112.803 212.515V209.255Z" fill="white"/>
<path fill-rule="evenodd" clip-rule="evenodd" d="M86.8243 193.312C86.8243 185.664 91.3774 176.865 96.9774 173.676C102.577 170.488 107.13 174.108 107.13 181.756C107.13 189.404 102.577 198.202 96.9774 201.391C91.3774 204.58 86.8243 200.96 86.8243 193.312Z" fill="white"/>
<path opacity="0.05" d="M168.901 56.0085L123.346 81.9012V178.495L168.901 152.603V56.0085Z" fill="url(#paint6_linear_12_25)"/>
<path opacity="0.5" d="M130.943 88.4462L176.522 62.5536V159.148L130.967 185.04L130.943 88.4462ZM161.67 77.1781L146.452 85.809V89.645L161.67 81.134V77.1781Z" fill="url(#paint7_linear_12_25)"/>
<path opacity="0.15" d="M172.115 123.665L135.52 144.451V147.712L172.115 126.926V123.665Z" fill="white"/>
<path opacity="0.15" d="M169.558 131.505L138.101 149.39V152.65L169.583 134.765L169.558 131.505Z" fill="white"/>
<path fill-rule="evenodd" clip-rule="evenodd" d="M143.555 115.562C143.555 107.914 148.108 99.1151 153.708 95.9264C159.308 92.7378 163.861 96.358 163.861 104.006C163.861 111.654 159.308 120.453 153.708 123.641C148.108 126.83 143.555 123.21 143.555 115.562Z" fill="white"/>
<path opacity="0.5" d="M143.555 169.433L216.014 128.244L215.99 165.429L149.934 202.973L143.53 212.299L143.555 169.433Z" fill="url(#paint8_linear_12_25)"/>
<path fill-rule="evenodd" clip-rule="evenodd" d="M223.732 142.749V132.656L196.39 148.191V158.285L223.732 142.749Z" fill="white"/>
<path opacity="0.15" d="M162.181 167.898L178.056 158.884V162.144L162.181 171.159V167.898Z" fill="white"/>
<path opacity="0.15" d="M162.181 174.443L192.786 157.062V160.322L162.181 177.704V174.443Z" fill="white"/>
<path opacity="0.15" d="M162.181 180.965L199.238 159.891V163.151L162.157 184.225L162.181 180.965Z" fill="white"/>
<path fill-rule="evenodd" clip-rule="evenodd" d="M158.261 173.532C158.261 176.601 156.41 180.125 154.146 181.42C151.882 182.715 150.031 181.276 150.031 178.207C150.031 175.139 151.882 171.614 154.146 170.32C156.435 169.025 158.285 170.464 158.261 173.532Z" fill="white"/>
<path opacity="0.2" d="M200.358 57.8546C198.897 58.6698 197.729 60.6836 197.729 62.3379V69.6502L192.81 72.4312C191.35 73.2464 190.181 75.2602 190.181 76.9145C190.181 78.5687 191.35 79.24 192.81 78.4249L197.729 75.6438V82.9561C197.729 84.6104 198.897 85.2816 200.358 84.4665C201.819 83.6514 202.988 81.6375 202.988 79.9832V72.671L207.906 69.8899C209.367 69.0748 210.536 67.0609 210.536 65.4066C210.536 63.7524 209.367 63.0811 207.906 63.8962L202.988 66.6773V59.365C202.988 57.7108 201.819 57.0395 200.358 57.8546Z" fill="url(#paint9_linear_12_25)"/>
<defs>
<linearGradient id="paint0_linear_12_25" x1="-11807.8" y1="-1327.25" x2="-3932.72" y2="4506.77" gradientUnits="userSpaceOnUse">
<stop stop-color="white"/>
<stop offset="1" stop-color="white" stop-opacity="0"/>
</linearGradient>
<linearGradient id="paint1_linear_12_25" x1="-11817.5" y1="-1334.45" x2="-3942.48" y2="4499.56" gradientUnits="userSpaceOnUse">
<stop stop-color="white"/>
<stop offset="1" stop-color="white" stop-opacity="0"/>
</linearGradient>
<linearGradient id="paint2_linear_12_25" x1="-3582.95" y1="420.118" x2="1027.4" y2="3850.23" gradientUnits="userSpaceOnUse">
<stop stop-color="white"/>
<stop offset="1" stop-color="white" stop-opacity="0"/>
</linearGradient>
<linearGradient id="paint3_linear_12_25" x1="-2463.08" y1="1664.04" x2="-1506.53" y2="3347.08" gradientUnits="userSpaceOnUse">
<stop stop-color="white"/>
<stop offset="1" stop-color="white" stop-opacity="0"/>
</linearGradient>
<linearGradient id="paint4_linear_12_25" x1="-2520.27" y1="1746.3" x2="1799.12" y2="9346.13" gradientUnits="userSpaceOnUse">
<stop stop-color="white"/>
<stop offset="1" stop-color="white" stop-opacity="0"/>
</linearGradient>
<linearGradient id="paint5_linear_12_25" x1="-2514.15" y1="1751.83" x2="1805.44" y2="9352.01" gradientUnits="userSpaceOnUse">
<stop stop-color="white"/>
<stop offset="1" stop-color="white" stop-opacity="0"/>
</linearGradient>
<linearGradient id="paint6_linear_12_25" x1="-2463.56" y1="1668.29" x2="1855.84" y2="9268.13" gradientUnits="userSpaceOnUse">
<stop stop-color="white"/>
<stop offset="1" stop-color="white" stop-opacity="0"/>
</linearGradient>
<linearGradient id="paint7_linear_12_25" x1="-2457.42" y1="1674.15" x2="1862.17" y2="9274.33" gradientUnits="userSpaceOnUse">
<stop stop-color="white"/>
<stop offset="1" stop-color="white" stop-opacity="0"/>
</linearGradient>
<linearGradient id="paint8_linear_12_25" x1="-4879.83" y1="2757.33" x2="-1822.31" y2="5188.55" gradientUnits="userSpaceOnUse">
<stop stop-color="white"/>
<stop offset="1" stop-color="white" stop-opacity="0"/>
</linearGradient>
<linearGradient id="paint9_linear_12_25" x1="-1081.32" y1="1027.41" x2="-179.661" y2="1750.06" gradientUnits="userSpaceOnUse">
<stop stop-color="white"/>
<stop offset="1" stop-color="white" stop-opacity="0"/>
</linearGradient>
</defs>
</svg>
