<svg width="20" height="19" viewBox="0 0 20 19" fill="none" xmlns="http://www.w3.org/2000/svg">
<g opacity="0.5">
<path d="M12.5417 3.95817C13.3556 4.10903 14.1036 4.48721 14.69 5.04429C15.2764 5.60136 15.6745 6.31201 15.8333 7.08525M12.5417 0.791504C14.2327 0.969974 15.8096 1.68939 17.0135 2.83163C18.2174 3.97388 18.9767 5.47105 19.1667 7.07734M18.3333 13.3948V15.7698C18.3343 15.9903 18.2867 16.2086 18.1937 16.4106C18.1008 16.6126 17.9644 16.7939 17.7934 16.943C17.6224 17.092 17.4205 17.2055 17.2006 17.2761C16.9808 17.3468 16.7478 17.373 16.5167 17.3532C13.9523 17.0885 11.4892 16.256 9.32498 14.9228C7.31151 13.7073 5.60443 12.0856 4.32499 10.1728C2.91663 8.10746 2.04019 5.75604 1.76665 3.309C1.74583 3.09008 1.77321 2.86944 1.84707 2.66112C1.92092 2.45281 2.03963 2.26138 2.19562 2.09904C2.35162 1.93669 2.54149 1.80698 2.75314 1.71817C2.9648 1.62935 3.1936 1.58338 3.42499 1.58317H5.92499C6.32941 1.57939 6.72148 1.71544 7.02812 1.96597C7.33476 2.21649 7.53505 2.5644 7.59165 2.94484C7.69717 3.70489 7.89286 4.45116 8.17499 5.16942C8.2871 5.45278 8.31137 5.76073 8.24491 6.05678C8.17844 6.35284 8.02404 6.62459 7.79998 6.83984L6.74165 7.84525C7.92795 9.82723 9.65536 11.4683 11.7417 12.5953L12.8 11.5898C13.0266 11.377 13.3126 11.2303 13.6243 11.1672C13.9359 11.104 14.26 11.1271 14.5583 11.2336C15.3144 11.5016 16.0999 11.6875 16.9 11.7878C17.3048 11.842 17.6745 12.0357 17.9388 12.332C18.203 12.6283 18.3435 13.0066 18.3333 13.3948Z" stroke="#001711" stroke-width="1.5" stroke-linecap="round" stroke-linejoin="round"/>
</g>
</svg>
