<svg width="207" height="236" viewBox="0 0 207 236" fill="none" xmlns="http://www.w3.org/2000/svg">
<g style="mix-blend-mode:multiply" opacity="0.5">
<path opacity="0.02" d="M153.791 215.347L40.2185 149.277C34.6589 146.15 35.3547 140.535 41.7771 136.748L67.3416 122.259C73.7641 118.472 83.4777 117.93 89.0374 121.064L202.609 187.135C208.169 190.262 207.473 195.876 201.051 199.663L175.486 214.152C169.064 217.939 159.35 218.481 153.791 215.347Z" fill="#ACB3E2"/>
<path opacity="0.05" d="M153.783 215.083L40.622 149.249C35.1111 146.149 35.7999 140.583 42.1667 136.831L67.3485 122.565C73.7152 118.805 83.3385 118.277 88.8494 121.376L202.011 187.211C207.522 190.31 206.833 195.876 200.466 199.628L175.284 213.895C168.918 217.654 159.294 218.182 153.783 215.083Z" fill="#AAB0DE"/>
<path opacity="0.07" d="M153.77 214.812L41.0259 149.214C35.5637 146.143 36.2456 140.632 42.5567 136.907L67.3558 122.871C73.66 119.146 83.2066 118.618 88.6688 121.696L201.413 187.294C206.875 190.366 206.193 195.876 199.882 199.601L175.083 213.638C168.772 217.362 159.232 217.89 153.77 214.812Z" fill="#A7AEDB"/>
<path opacity="0.1" d="M153.763 214.548L41.4295 149.18C36.016 146.136 36.6979 140.674 42.9464 136.984L67.3628 123.17C73.6112 119.48 83.0675 118.959 88.4809 122.002L200.814 187.371C206.228 190.415 205.546 195.877 199.298 199.567L174.881 213.381C168.633 217.071 159.176 217.592 153.763 214.548Z" fill="#A4ABD7"/>
<path opacity="0.12" d="M153.749 214.277L41.8329 149.144C36.4682 146.128 37.1431 140.715 43.3359 137.053L67.3696 123.468C73.5624 119.813 82.9351 119.292 88.2999 122.314L200.216 187.447C205.581 190.463 204.906 195.876 198.713 199.538L174.679 213.123C168.486 216.778 159.114 217.299 153.749 214.277Z" fill="#A1A8D4"/>
<path opacity="0.14" d="M153.742 214.013L42.2364 149.11C36.9203 146.115 37.5883 140.757 43.7255 137.13L67.3764 123.774C73.5136 120.154 82.7959 119.639 88.1119 122.628L199.617 187.531C204.933 190.526 204.265 195.883 198.128 199.511L174.477 212.866C168.34 216.487 159.058 217.001 153.742 214.013Z" fill="#9FA5D0"/>
<path opacity="0.17" d="M153.728 213.748L42.6399 149.082C37.3725 146.114 38.0335 140.805 44.115 137.213L67.3833 124.079C73.4648 120.487 82.6635 119.979 87.9309 122.947L199.019 187.613C204.286 190.581 203.625 195.89 197.544 199.482L174.275 212.616C168.194 216.208 158.995 216.716 153.728 213.748Z" fill="#9CA2CD"/>
<path opacity="0.19" d="M153.714 213.478L43.0438 149.047C37.8252 146.108 38.4792 140.847 44.5051 137.29L67.3906 124.385C73.4164 120.828 82.5248 120.327 87.7434 123.26L198.414 187.697C203.633 190.637 202.978 195.897 196.953 199.455L174.067 212.359C168.041 215.917 158.933 216.417 153.714 213.485V213.478Z" fill="#99A0C9"/>
<path opacity="0.21" d="M153.707 213.214L43.4473 149.013C38.2773 146.101 38.9245 140.889 44.8946 137.366L67.3975 124.684C73.3676 121.161 82.3924 120.661 87.5624 123.573L197.822 187.774C202.992 190.686 202.345 195.897 196.375 199.42L173.879 212.102C167.909 215.625 158.884 216.126 153.714 213.214H153.707Z" fill="#979DC6"/>
<path opacity="0.24" d="M153.693 212.95L43.8509 148.978C38.7296 146.094 39.3767 140.931 45.2842 137.443L67.3975 124.99C73.3119 121.502 82.2533 121.009 87.3675 123.892L197.21 187.857C202.331 190.741 201.684 195.904 195.777 199.393L173.663 211.845C167.749 215.334 158.808 215.827 153.693 212.943V212.95Z" fill="#949AC2"/>
<path opacity="0.26" d="M153.686 212.679L44.2543 148.943C39.1818 146.087 39.8219 140.972 45.6738 137.519L67.4043 125.289C73.2562 121.835 82.114 121.342 87.1865 124.198L196.618 187.933C201.691 190.789 201.051 195.904 195.199 199.357L173.468 211.588C167.617 215.041 158.759 215.535 153.686 212.679Z" fill="#9197BF"/>
<path opacity="0.29" d="M153.672 212.415L44.6578 148.915C39.634 146.087 40.2671 141.021 46.0633 137.603L67.4112 125.602C73.2073 122.176 81.9817 121.696 86.9985 124.525L196.013 188.024C201.037 190.852 200.404 195.918 194.607 199.337L173.26 211.338C167.463 214.764 158.689 215.243 153.672 212.415Z" fill="#8E94BB"/>
<path opacity="0.31" d="M153.666 212.143L45.0617 148.873C40.0866 146.073 40.7128 141.056 46.4534 137.671L67.4185 125.9C73.159 122.509 81.8429 122.029 86.818 124.83L195.422 188.1C200.397 190.9 199.771 195.918 194.03 199.302L173.065 211.073C167.325 214.464 158.641 214.944 153.666 212.143Z" fill="#8C91B8"/>
<path opacity="0.33" d="M153.652 211.879L45.4653 148.846C40.5458 146.073 41.1582 141.111 46.843 137.755L67.4254 126.206C73.1103 122.85 81.7107 122.377 86.6301 125.15L194.816 188.184C199.736 190.956 199.124 195.918 193.439 199.274L172.856 210.823C167.171 214.18 158.571 214.652 153.652 211.879Z" fill="#898FB4"/>
<path opacity="0.36" d="M153.638 211.616L45.8688 148.811C40.998 146.066 41.6034 141.153 47.2326 137.832L67.4323 126.512C73.0615 123.19 81.5714 122.718 86.4491 125.463L194.218 188.267C199.089 191.012 198.483 195.925 192.854 199.247L172.654 210.566C167.025 213.888 158.515 214.361 153.638 211.616Z" fill="#868CB1"/>
<path opacity="0.38" d="M153.631 211.344L46.2723 148.776C41.4503 146.059 42.0556 141.195 47.6222 137.901L67.4392 126.803C73.0128 123.516 81.4392 123.051 86.2612 125.768L193.62 188.336C198.442 191.053 197.836 195.917 192.27 199.211L172.453 210.309C166.879 213.596 158.453 214.061 153.631 211.344Z" fill="#8489AD"/>
<path opacity="0.4" d="M153.617 211.08L46.6758 148.748C41.9025 146.059 42.5009 141.243 48.0118 137.984L67.4461 127.116C72.9639 123.864 81.2999 123.399 86.0802 126.088L193.021 188.42C197.794 191.109 197.196 195.925 191.685 199.184L172.251 210.052C166.733 213.304 158.397 213.77 153.617 211.08Z" fill="#8186AA"/>
<path opacity="0.43" d="M153.61 210.817L47.0793 148.714C42.3546 146.053 42.9461 141.286 48.4013 138.061L67.4529 127.416C72.9082 124.191 81.1676 123.74 85.8922 126.401L192.423 188.504C197.147 191.165 196.556 195.932 191.1 199.156L172.049 209.802C166.594 213.027 158.334 213.478 153.61 210.817Z" fill="#7E83A6"/>
<path opacity="0.45" d="M153.596 210.545L47.4832 148.679C42.8073 146.045 43.3918 141.327 48.7914 138.137L67.4602 127.721C72.8598 124.531 81.0288 124.079 85.7117 126.713L191.824 188.58C196.5 191.213 195.916 195.932 190.516 199.121L171.847 209.538C166.448 212.727 158.279 213.179 153.596 210.545Z" fill="#7B81A3"/>
<path opacity="0.48" d="M153.589 210.281L47.8935 148.644C43.2663 146.038 43.8438 141.369 49.1877 138.214L67.467 128.02C72.8109 124.865 80.8963 124.42 85.5235 127.026L191.219 188.663C195.846 191.269 195.269 195.939 189.925 199.094L171.645 209.281C166.301 212.436 158.216 212.88 153.589 210.274V210.281Z" fill="#797E9F"/>
<path opacity="0.5" d="M153.575 210.011L48.2901 148.61C43.7116 146.032 44.2822 141.411 49.5704 138.291L67.467 128.326C72.7552 125.206 80.7572 124.761 85.3357 127.339L190.62 188.74C195.199 191.318 194.628 195.939 189.34 199.059L171.444 209.024C166.155 212.144 158.153 212.589 153.575 210.011Z" fill="#767B9C"/>
</g>
<path d="M196.605 186.071L195.54 186.085C194.997 185.404 194.26 184.779 193.299 184.237L85.3428 121.328C80.4442 118.569 71.8925 119.042 66.2424 122.384L45.8688 133.808C44.3658 134.698 43.2316 135.698 42.4523 136.741L41.1929 136.755V144.676H41.2277C41.3877 146.309 42.4523 147.845 44.498 148.992L152.455 211.9C157.353 214.659 165.905 214.187 171.555 210.844L191.929 199.42C194.615 197.836 196.145 195.89 196.507 193.993H196.605V186.064V186.071Z" fill="url(#paint0_linear_1345_9759)"/>
<path d="M152.461 204.764L44.5047 141.862C39.6061 139.104 40.2254 134.17 45.8755 130.827L66.2492 119.403C71.8992 116.068 80.4509 115.595 85.3495 118.347L193.306 181.256C198.205 184.015 197.586 188.948 191.935 192.291L171.562 203.715C165.912 207.05 157.36 207.523 152.461 204.771V204.764Z" fill="url(#paint1_linear_1345_9759)"/>
<path style="mix-blend-mode:color-dodge" d="M191.929 191.436L171.555 202.86C165.905 206.196 157.354 206.668 152.455 203.916L44.5051 141.008C42.5429 139.903 41.4783 138.443 41.2557 136.88C40.9565 138.916 42.0071 140.882 44.5051 142.286L152.462 205.195C157.36 207.954 165.912 207.481 171.562 204.139L191.936 192.715C195.318 190.713 196.883 188.149 196.556 185.814C196.264 187.774 194.712 189.803 191.936 191.436H191.929Z" fill="url(#paint2_radial_1345_9759)"/>
<path opacity="0.95" d="M196.605 178.004L195.54 178.018C194.997 177.337 194.26 176.711 193.299 176.169L85.3428 113.26C80.4442 110.502 71.8925 110.974 66.2424 114.317L45.8688 125.741C44.3658 126.63 43.2316 127.631 42.4523 128.673L41.1929 128.687V136.609H41.2277C41.3877 138.242 42.4523 139.778 44.498 140.924L152.455 203.833C157.353 206.592 165.905 206.119 171.555 202.777L191.929 191.353C194.615 189.768 196.145 187.823 196.507 185.926H196.605V177.997V178.004Z" fill="url(#paint3_linear_1345_9759)"/>
<path d="M196.605 175.558L195.54 175.571C194.997 174.89 194.26 174.265 193.299 173.723L85.3428 110.814C80.4442 108.055 71.8925 108.528 66.2424 111.87L45.8688 123.294C44.3658 124.184 43.2316 125.185 42.4523 126.227L41.1929 126.241V134.163H41.2277C41.3877 135.796 42.4523 137.331 44.498 138.478L152.455 201.387C157.353 204.145 165.905 203.673 171.555 200.33L191.929 188.906C194.615 187.322 196.145 185.376 196.507 183.479H196.605V175.551V175.558Z" fill="url(#paint4_linear_1345_9759)"/>
<path d="M152.461 194.251L44.5047 131.342C39.6061 128.583 40.2254 123.649 45.8755 120.307L66.2492 108.883C71.8992 105.547 80.4509 105.075 85.3495 107.827L193.306 170.735C198.205 173.494 197.586 178.428 191.935 181.77L171.562 193.194C165.912 196.53 157.36 197.002 152.461 194.251Z" fill="url(#paint5_linear_1345_9759)"/>
<path style="mix-blend-mode:color-dodge" d="M191.929 180.916L171.555 192.34C165.905 195.675 157.354 196.148 152.455 193.396L44.5051 130.487C42.5429 129.382 41.4783 127.923 41.2557 126.359C40.9565 128.395 42.0071 130.362 44.5051 131.766L152.462 194.674C157.36 197.433 165.912 196.961 171.562 193.618L191.936 182.194C195.318 180.193 196.883 177.629 196.556 175.294C196.264 177.253 194.712 179.283 191.936 180.916H191.929Z" fill="url(#paint6_radial_1345_9759)"/>
<g opacity="0.2">
<path opacity="0.05" d="M64.0367 114.678C65.5606 113.795 67.6411 113.253 69.5824 113.198C71.3289 113.149 72.9293 113.517 74.2096 114.212C74.2653 114.212 77.2782 115.915 77.32 115.936L127.363 144.517L131.17 146.692L180.503 174.87C182.118 175.801 183.196 177.385 183.238 179.025C183.28 180.873 182.201 182.631 180.155 183.813L175.674 186.127C175.626 186.155 171.91 188.038 171.854 188.038C170.261 188.92 168.285 189.4 166.295 189.365C164.611 189.365 162.906 188.899 161.695 188.205L112.375 159.561L109.119 157.671L63.0626 130.924C61.4483 129.993 60.335 128.416 60.335 126.776C60.335 124.983 61.2326 123.183 63.1809 122.064L63.2713 120.96C63.1809 120.911 63.9324 114.74 64.0367 114.685V114.678Z" fill="#ABB2E2"/>
<path opacity="0.1" d="M64.0715 115.178C65.5188 114.344 67.6759 113.753 69.5198 113.649C71.2385 113.552 72.8389 113.899 74.1261 114.559C74.2375 114.559 77.1599 116.185 77.2365 116.234L127.064 144.697L130.85 146.858L179.968 174.918C181.498 175.8 182.695 177.426 182.772 178.983C182.862 180.797 181.867 182.562 179.814 183.743L175.382 186.064C175.285 186.119 171.694 187.926 171.576 187.933C169.989 188.781 168.041 189.219 166.1 189.163C164.499 189.163 162.704 188.614 161.556 187.954L112.57 159.512L109.335 157.636L63.5914 131.077C62.0606 130.194 60.8081 128.582 60.8081 127.026C60.8081 125.323 61.4343 123.489 63.2852 122.425L63.327 121.355C63.1461 121.251 63.8697 115.296 64.0785 115.178H64.0715Z" fill="#A7ADDF"/>
<path opacity="0.14" d="M64.1131 115.679C65.4839 114.886 67.7175 114.254 69.457 114.101C71.1966 113.948 72.7483 114.282 74.0425 114.914C74.2095 114.914 77.0345 116.471 77.1598 116.54L126.765 144.885L130.536 147.039L179.439 174.981C180.893 175.822 182.201 177.49 182.312 178.956C182.445 180.742 181.547 182.5 179.487 183.688L175.097 186.016C174.951 186.099 171.485 187.823 171.304 187.836C169.725 188.643 167.804 189.046 165.912 188.962C164.395 188.962 162.502 188.337 161.417 187.711L112.758 159.478L109.543 157.609L64.1062 131.244C62.6519 130.403 61.2603 128.757 61.2603 127.283C61.2603 125.671 61.6221 123.795 63.3686 122.787V121.745C63.0972 121.592 63.793 115.852 64.1062 115.672L64.1131 115.679Z" fill="#A3A9DC"/>
<path opacity="0.19" d="M64.1477 116.172C65.4419 115.421 67.759 114.74 69.3942 114.546C71.0293 114.351 72.6506 114.657 73.9587 115.254C74.1814 115.254 76.916 116.735 77.076 116.832L126.458 145.065L130.216 147.213L178.896 175.043C180.266 175.835 181.7 177.545 181.839 178.928C182.02 180.686 181.206 182.444 179.139 183.639L174.797 185.974C174.602 186.085 171.262 187.732 171.026 187.753C169.453 188.524 167.561 188.892 165.717 188.774C164.283 188.774 162.3 188.066 161.27 187.475L112.946 159.443L109.752 157.587L64.6278 131.411C63.257 130.619 61.7192 128.937 61.7192 127.547C61.7192 126.025 61.8097 124.107 63.4588 123.155L63.4101 122.141C63.0483 121.932 63.7232 116.408 64.1407 116.165L64.1477 116.172Z" fill="#9FA4D8"/>
<path opacity="0.24" d="M64.1895 116.672C65.4072 115.97 67.8008 115.227 69.3386 114.991C70.9668 114.74 72.5672 115.032 73.8823 115.595C74.1676 115.595 76.7978 117.006 76.9996 117.124L126.159 145.239L129.896 147.38L178.36 175.092C179.654 175.836 181.206 177.594 181.373 178.893C181.602 180.63 180.872 182.381 178.798 183.577L174.505 185.918C174.269 186.057 171.04 187.628 170.748 187.649C169.182 188.378 167.317 188.712 165.522 188.573C164.172 188.573 162.099 187.788 161.131 187.232L113.141 159.408L109.968 157.567L65.1567 131.585C63.8625 130.841 62.1925 129.125 62.1925 127.818C62.1925 126.38 62.0116 124.427 63.5633 123.531L63.4659 122.551C63.0136 122.294 63.6676 116.978 64.1826 116.679L64.1895 116.672Z" fill="#9BA0D5"/>
<path opacity="0.29" d="M64.2243 117.172C65.3724 116.512 67.8425 115.713 69.2759 115.442C70.8694 115.143 72.4767 115.421 73.7988 115.942C74.1397 115.942 76.6795 117.283 76.923 117.422L125.867 145.42L129.59 147.546L177.838 175.147C179.049 175.842 180.733 177.642 180.921 178.858C181.192 180.581 180.559 182.312 178.478 183.514L174.227 185.863C173.941 186.029 170.838 187.523 170.49 187.551C168.932 188.239 167.095 188.538 165.348 188.371C164.082 188.371 161.911 187.509 161.006 186.981L113.342 159.359L110.19 157.532L65.6925 131.744C64.4817 131.049 62.6656 129.298 62.6656 128.068C62.6656 126.72 62.2133 124.726 63.6676 123.885L63.5215 122.933C62.9788 122.62 63.605 117.52 64.2312 117.158L64.2243 117.172Z" fill="#979BD2"/>
<path opacity="0.33" d="M64.266 117.672C65.3375 117.054 67.8912 116.192 69.2132 115.894C70.7719 115.546 72.3862 115.803 73.7222 116.29C74.1188 116.29 76.5681 117.554 76.8464 117.721L125.568 145.6L129.277 147.72L177.302 175.203C178.429 175.856 180.454 177.677 180.454 178.823C181.087 180.442 180.225 182.249 178.137 183.451L173.934 185.814C173.6 186.008 170.622 187.426 170.212 187.461C168.66 188.114 166.851 188.378 165.153 188.176C163.97 188.176 161.709 187.231 160.86 186.745L113.53 159.324L110.399 157.511L66.2143 131.911C65.087 131.258 63.1318 129.479 63.1318 128.332C63.1318 127.074 62.4081 125.038 63.7719 124.26L63.5771 123.343C62.9439 122.981 63.5423 118.089 64.2729 117.672H64.266Z" fill="#9397CF"/>
<path opacity="0.38" d="M64.3011 118.173C65.2961 117.603 67.9333 116.665 69.1509 116.346C70.6817 115.95 72.2891 116.186 73.639 116.644C74.0913 116.644 76.4432 117.84 76.7632 118.02L125.262 145.781L128.95 147.894L176.76 175.259C177.81 175.863 179.981 177.726 179.981 178.789C180.705 180.373 179.884 182.18 177.79 183.389L173.629 185.759C173.246 185.981 170.393 187.322 169.92 187.357C168.375 187.968 166.594 188.198 164.945 187.975C163.845 187.975 161.486 186.954 160.7 186.495L113.697 159.283L110.587 157.483L66.7086 132.078C65.6579 131.473 63.5635 129.653 63.5635 128.59C63.5635 127.422 62.5685 125.351 63.8349 124.622L63.5983 123.732C62.8746 123.315 63.4522 118.639 64.2802 118.159L64.3011 118.173Z" fill="#8F92CC"/>
<path opacity="0.43" d="M64.3429 118.674C65.2614 118.146 67.982 117.131 69.0953 116.798C70.5914 116.353 72.2057 116.568 73.5625 116.992C74.0705 116.992 76.3319 118.111 76.6937 118.319L124.977 145.969L128.651 148.075L176.245 175.329C177.212 175.885 179.536 177.789 179.536 178.768C180.35 180.311 179.578 182.132 177.477 183.348L173.364 185.724C172.933 185.974 170.205 187.239 169.676 187.281C168.139 187.858 166.385 188.045 164.785 187.795C163.776 187.795 161.32 186.69 160.596 186.273L113.927 159.263L110.838 157.477L67.2723 132.266C66.3051 131.71 64.0645 129.855 64.0645 128.875C64.0645 127.798 62.7982 125.685 63.9671 125.011L63.6818 124.157C62.8677 123.691 63.4174 119.23 64.3568 118.688L64.3429 118.674Z" fill="#8B8EC9"/>
<path opacity="0.48" d="M64.3773 119.174C65.2192 118.688 68.0164 117.59 69.0323 117.249C70.4866 116.756 72.1148 116.95 73.4786 117.34C74.0422 117.34 76.2062 118.389 76.6098 118.618L124.67 146.15L128.33 148.242L175.702 175.377C176.592 175.891 179.07 177.83 179.07 178.733C179.967 180.241 179.244 182.069 177.135 183.285L173.072 185.669C172.591 185.946 169.989 187.135 169.398 187.176C167.874 187.712 166.141 187.871 164.59 187.586C163.664 187.586 161.11 186.405 160.449 186.016L114.108 159.214L111.039 157.442L67.7868 132.419C66.8961 131.905 64.5234 130.021 64.5234 129.125C64.5234 128.138 62.9926 125.984 64.0572 125.366L63.7232 124.539C62.8256 124.018 63.3405 119.772 64.3842 119.167L64.3773 119.174Z" fill="#8789C6"/>
<path opacity="0.52" d="M64.4193 119.667C65.1847 119.229 68.0654 118.041 68.97 117.693C70.3895 117.151 72.0246 117.325 73.3954 117.679C74.0147 117.679 76.0882 118.652 76.5336 118.909L124.371 146.323L128.01 148.408L175.166 175.432C175.973 175.898 178.604 177.878 178.604 178.698C179.592 180.164 178.91 181.999 176.795 183.222L172.773 185.612C172.244 185.918 169.767 187.03 169.12 187.079C167.603 187.579 165.898 187.697 164.395 187.391C163.553 187.391 160.909 186.127 160.304 185.779L114.296 159.179L111.248 157.42L68.3089 132.592C67.5018 132.126 64.9829 130.208 64.9829 129.388C64.9829 128.492 63.1807 126.296 64.1479 125.74L63.7652 124.941C62.7772 124.371 63.2712 120.334 64.4123 119.674L64.4193 119.667Z" fill="#8385C2"/>
<path opacity="0.57" d="M64.4542 120.167C65.143 119.771 68.1072 118.486 68.9074 118.145C70.2921 117.554 71.9343 117.714 73.312 118.027C73.9869 118.027 75.9631 118.93 76.4502 119.208L124.072 146.504L127.697 148.581L174.638 175.488C175.361 175.905 178.144 177.927 178.144 178.663C179.223 180.095 178.59 181.936 176.468 183.159L172.494 185.557C171.917 185.89 169.558 186.926 168.855 186.974C167.345 187.433 165.668 187.516 164.214 187.183C163.456 187.183 160.721 185.842 160.171 185.529L114.498 159.13L111.478 157.386L68.8448 132.752C68.1212 132.335 65.4631 130.382 65.4631 129.646C65.4631 128.84 63.3896 126.602 64.2594 126.102L63.8349 125.337C62.7564 124.712 63.2226 120.89 64.4681 120.174L64.4542 120.167Z" fill="#7F80BF"/>
<path opacity="0.62" d="M64.4958 120.668C65.1081 120.313 68.1489 118.93 68.8517 118.597C70.1946 117.965 71.8437 118.097 73.2353 118.382C73.9659 118.382 75.8516 119.208 76.3735 119.514L123.773 146.692L127.384 148.762L174.102 175.557C174.749 175.933 177.678 177.99 177.678 178.643C178.847 180.033 178.256 181.881 176.126 183.111L172.195 185.515C171.569 185.877 169.335 186.836 168.57 186.891C167.067 187.308 165.418 187.364 164.012 186.995C163.337 186.995 160.505 185.571 160.025 185.293L114.678 159.102L111.679 157.372L69.3596 132.926C68.7125 132.55 65.9153 130.57 65.9153 129.91C65.9153 129.194 63.5704 126.915 64.3497 126.47L63.8765 125.733C62.7076 125.059 63.1459 121.446 64.5028 120.668H64.4958Z" fill="#7B7CBC"/>
<path opacity="0.67" d="M64.5307 121.168C65.0665 120.862 68.1837 119.361 68.7891 119.049C70.0903 118.368 71.7533 118.479 73.1519 118.729C73.9452 118.729 75.7334 119.486 76.297 119.813L123.474 146.879L127.064 148.943L173.566 175.62C174.13 175.947 177.212 178.045 177.212 178.615C178.471 179.97 177.922 181.825 175.786 183.055L171.903 185.467C171.228 185.856 169.12 186.731 168.299 186.794C166.803 187.176 165.181 187.19 163.824 186.794C163.233 186.794 160.311 185.293 159.886 185.05L114.873 159.061L111.895 157.337L69.8885 133.086C69.3249 132.759 66.3816 130.737 66.3816 130.167C66.3816 129.542 63.7653 127.228 64.4472 126.831L63.9253 126.13C62.6659 125.4 63.0834 122.009 64.5376 121.168H64.5307Z" fill="#7777B9"/>
<path opacity="0.71" d="M64.5725 121.669C65.0318 121.405 68.2256 119.793 68.7266 119.501C69.986 118.771 71.6629 118.861 73.0685 119.077C73.9174 119.077 75.6083 119.758 76.2136 120.112L123.168 147.06L126.744 149.11L173.03 175.669C173.517 175.947 176.746 178.087 176.746 178.581C178.096 179.901 177.595 181.763 175.452 183L171.611 185.418C170.894 185.835 168.904 186.634 168.02 186.704C166.531 187.044 164.938 187.024 163.63 186.607C163.122 186.607 160.102 185.022 159.74 184.814L115.054 159.033L112.097 157.324L70.4035 133.267C69.9164 132.989 66.8409 130.932 66.8409 130.445C66.8409 129.91 63.9532 127.555 64.5377 127.214L63.9672 126.54C62.6173 125.762 63.0069 122.579 64.5656 121.676L64.5725 121.669Z" fill="#7373B6"/>
<path opacity="0.76" d="M64.6069 122.168C64.9896 121.946 68.1765 119.952 68.6636 119.952C70.0065 119.423 71.5721 119.243 72.9846 119.423C73.8892 119.423 75.4896 120.035 76.1298 120.41L122.868 147.24L126.424 149.283L172.494 175.731C172.898 175.96 176.279 178.142 176.279 178.552C177.72 179.831 177.26 181.7 175.11 182.944L171.318 185.369C170.553 185.814 168.688 186.536 167.749 186.606C166.266 186.912 164.701 186.856 163.441 186.404C163.017 186.404 159.907 184.743 159.607 184.57L115.256 158.991L112.319 157.295L70.932 133.426C70.5284 133.196 67.3067 131.105 67.3067 130.695C67.3067 130.243 64.1477 127.853 64.6348 127.575L64.0155 126.928C62.5751 126.094 62.937 123.127 64.6069 122.168Z" fill="#6F6EB3"/>
<path opacity="0.81" d="M64.649 122.67C64.9552 122.496 68.2186 120.404 68.6083 120.404C69.9234 119.841 71.482 119.626 72.9084 119.772C73.8687 119.772 75.3716 120.314 76.0605 120.703L122.576 147.415L126.118 149.451L171.966 175.78C172.286 175.968 175.82 178.185 175.82 178.511C177.351 179.755 176.941 181.631 174.777 182.875L171.033 185.307C170.219 185.78 168.48 186.426 167.478 186.503C166.002 186.767 164.465 186.676 163.254 186.197C162.92 186.197 159.712 184.453 159.469 184.314L115.444 158.936L112.529 157.254L71.4542 133.579C71.1341 133.392 67.7733 131.272 67.7733 130.946C67.7733 130.584 64.3429 128.152 64.7325 127.93L64.0715 127.318C62.5407 126.436 62.8816 123.677 64.649 122.656V122.67Z" fill="#6B6AB0"/>
<path opacity="0.86" d="M64.6836 123.169C64.9133 123.037 68.2532 120.855 68.5455 120.855C69.8327 120.257 71.3914 120.007 72.8248 120.118C73.8407 120.118 75.2532 120.584 75.9768 121.001L122.27 147.602L125.798 149.631L171.43 175.849C171.673 175.988 175.354 178.246 175.354 178.49C176.975 179.692 176.607 181.575 174.443 182.826L170.741 185.265C169.878 185.765 168.264 186.335 167.199 186.418C165.731 186.641 164.221 186.516 163.059 186.015C162.808 186.015 159.503 184.195 159.322 184.09L115.632 158.921L112.737 157.254L71.9759 133.773C71.7323 133.634 68.2323 131.48 68.2323 131.23C68.2323 130.959 64.5375 128.485 64.8228 128.318L64.1131 127.735C62.4918 126.796 62.8049 124.253 64.6767 123.176L64.6836 123.169Z" fill="#6765AC"/>
<path opacity="0.9" d="M64.7251 123.663C64.8782 123.573 68.2947 121.294 68.4826 121.294C69.742 120.661 71.3007 120.383 72.748 120.46C73.8195 120.46 75.1346 120.856 75.9 121.294L121.977 147.776L125.484 149.791L170.901 175.891C171.061 175.982 174.895 178.282 174.895 178.449C176.606 179.616 176.279 181.506 174.108 182.757L170.455 185.21C169.544 185.738 168.048 186.231 166.934 186.315C165.473 186.502 163.991 186.343 162.878 185.807C162.711 185.807 159.315 183.903 159.19 183.834L115.833 158.866L112.96 157.213L72.5114 133.92C72.3514 133.829 68.7052 131.64 68.7052 131.474C68.7052 131.293 64.7391 128.778 64.9339 128.666L64.1755 128.117C62.4637 127.131 62.749 124.796 64.7321 123.656L64.7251 123.663Z" fill="#6361A9"/>
<path opacity="0.95" d="M64.7602 124.163C64.8367 124.121 68.3228 121.744 68.4202 121.744C69.6518 121.084 71.2104 120.765 72.6647 120.806C73.7919 120.806 75.0166 121.126 75.8237 121.592L121.678 147.956L125.171 149.964L170.365 175.946C170.449 175.995 174.429 178.33 174.429 178.413C176.231 179.539 175.952 181.443 173.768 182.694L170.156 185.154C169.196 185.709 167.825 186.126 166.649 186.217C165.195 186.363 163.741 186.168 162.676 185.605C162.593 185.605 159.1 183.625 159.044 183.59L116.014 158.831L113.162 157.191L73.0265 134.093C72.943 134.044 69.1647 131.82 69.1647 131.744C69.1647 131.654 64.9272 129.103 65.0246 129.048L64.2174 128.527C62.4152 127.484 62.6797 125.372 64.7602 124.17V124.163Z" fill="#5F5CA6"/>
<path d="M162.488 185.418L113.377 157.171L64.2659 128.923C62.3733 127.832 62.6098 125.928 64.7947 124.664L68.3573 122.197C70.5422 120.939 73.8474 120.8 75.74 121.891L124.851 150.139L173.962 178.386C175.855 179.477 175.618 181.381 173.433 182.646L169.871 185.113C167.686 186.37 164.381 186.509 162.488 185.418Z" fill="#5B58A3"/>
</g>
<path d="M162.795 184.689L67.0844 129.688C61.6361 126.547 57.2246 118.125 57.2246 110.87V29.4983C57.2246 22.2436 61.6431 18.915 67.0844 22.049L162.795 77.0499C168.243 80.1908 172.654 88.6129 172.654 95.8676V177.24C172.654 184.494 168.236 187.823 162.795 184.689Z" fill="url(#paint7_linear_1345_9759)"/>
<path d="M165.675 181.486L68.2462 125.498C63.7303 122.628 60.9331 116.902 60.9331 111.037V26.6214C60.9331 25.2316 62.443 24.37 63.6468 25.0718C63.786 25.1552 63.8973 25.2177 63.9669 25.2594L161.514 81.3235C166.893 84.4227 168.827 89.9193 168.827 95.7842V179.943C168.827 181.43 167.213 182.368 165.919 181.632C165.814 181.576 165.738 181.527 165.682 181.493L165.675 181.486Z" fill="url(#paint8_linear_1345_9759)"/>
<path d="M161.507 81.3167L63.9601 25.2526C63.8905 25.2109 63.7791 25.1484 63.64 25.065C62.4362 24.3631 60.9263 25.2248 60.9263 26.6146V111.037C60.9263 116.902 63.7235 122.628 68.2394 125.498L165.668 181.486C165.724 181.513 165.801 181.562 165.905 181.625C167.199 182.361 168.813 181.43 168.813 179.936V95.7774C168.813 89.9125 166.879 84.4159 161.5 81.3167H161.507ZM167.679 179.936C167.679 180.429 167.262 180.742 166.872 180.742C166.733 180.742 166.601 180.707 166.475 180.631L68.8169 124.511C64.7394 121.919 62.0744 116.624 62.0744 111.037V26.6215C62.0744 26.2115 62.4223 25.9614 62.7354 25.9614C62.8467 25.9614 62.9581 25.9892 63.0694 26.0517L160.937 82.3034C166.51 85.5138 167.679 91.3996 167.679 95.7774V179.936Z" fill="#AFB6E5"/>
<path d="M167.338 74.4157L71.628 19.4218C69.471 18.178 67.4809 17.9486 65.8596 18.574C65.6509 18.6505 61.1559 21.2633 60.968 21.3675C60.968 21.3675 60.9611 21.3675 60.9541 21.3745C62.638 20.5545 64.7742 20.7074 67.0912 22.0485L162.802 77.0494C168.25 80.1903 172.661 88.6124 172.661 95.8671V177.239C172.661 181.763 170.943 184.765 168.326 185.62C168.542 185.634 168.806 185.55 169.189 185.328C169.314 185.258 174.046 182.423 174.164 182.34C176.036 181.026 177.205 178.337 177.205 174.613V93.2404C177.205 85.9857 172.787 77.5636 167.345 74.4227L167.338 74.4157Z" fill="url(#paint9_linear_1345_9759)"/>
<path d="M167.255 74.4715L71.5445 19.4706C69.3875 18.2268 67.3974 17.9975 65.7761 18.6229C65.5674 18.6993 61.1559 21.2565 60.968 21.3608C60.968 21.3608 60.9611 21.3608 60.9541 21.3677C62.638 20.5477 64.7742 20.7006 67.0912 22.0417L162.802 77.0426C168.25 80.1836 172.661 88.6057 172.661 95.8604V177.232C172.661 181.756 170.943 184.758 168.326 185.613C168.542 185.627 168.806 185.543 169.189 185.321C169.314 185.252 173.963 182.472 174.081 182.389C175.953 181.075 177.122 178.386 177.122 174.661V93.2893C177.122 86.0346 172.703 77.6124 167.262 74.4715H167.255Z" fill="url(#paint10_linear_1345_9759)"/>
<path d="M167.171 74.5272L71.4611 19.5263C69.3041 18.2824 67.314 18.0531 65.6928 18.6785C65.484 18.755 61.156 21.2566 60.9612 21.3608C60.9612 21.3608 60.9542 21.3608 60.9473 21.3678C62.6312 20.5478 64.7673 20.7007 67.0844 22.0418L162.795 77.0427C168.243 80.1836 172.654 88.6057 172.654 95.8604V177.233C172.654 181.756 170.936 184.758 168.32 185.613C168.535 185.627 168.8 185.544 169.182 185.321C169.308 185.252 173.872 182.528 173.99 182.444C175.862 181.131 177.031 178.442 177.031 174.717V93.3449C177.031 86.0902 172.613 77.6681 167.171 74.5272Z" fill="url(#paint11_linear_1345_9759)"/>
<path d="M167.088 74.5828L71.3776 19.582C69.2206 18.3381 67.2305 18.1088 65.6093 18.7342C65.4005 18.8106 61.156 21.2567 60.9612 21.3678C60.9612 21.3678 60.9542 21.3678 60.9473 21.3748C62.6312 20.5548 64.7673 20.7077 67.0844 22.0488L162.795 77.0497C168.243 80.1906 172.654 88.6128 172.654 95.8675V177.24C172.654 181.763 170.936 184.765 168.32 185.62C168.535 185.634 168.8 185.551 169.182 185.328C169.308 185.259 173.789 182.59 173.907 182.507C175.779 181.194 176.948 178.504 176.948 174.78V93.4075C176.948 86.1528 172.529 77.7307 167.088 74.5898V74.5828Z" fill="url(#paint12_linear_1345_9759)"/>
<path d="M167.004 74.6385L71.2941 19.6376C69.1371 18.3938 67.147 18.1645 65.5258 18.7899C65.317 18.8663 61.156 21.2567 60.9612 21.3679C60.9612 21.3679 60.9542 21.3679 60.9473 21.3749C62.6312 20.5549 64.7673 20.7078 67.0844 22.0489L162.795 77.0498C168.243 80.1907 172.654 88.6128 172.654 95.8675V177.24C172.654 181.763 170.936 184.765 168.32 185.62C168.535 185.634 168.8 185.551 169.182 185.328C169.308 185.259 173.705 182.646 173.823 182.563C175.695 181.249 176.864 178.56 176.864 174.835V93.4632C176.864 86.2085 172.446 77.7864 167.004 74.6455V74.6385Z" fill="url(#paint13_linear_1345_9759)"/>
<path d="M166.921 74.6942L71.2175 19.6933C69.0604 18.4494 67.0704 18.2201 65.4491 18.8455C65.2404 18.922 61.1629 21.2568 60.968 21.368C60.968 21.368 60.9611 21.368 60.9541 21.3749C62.638 20.555 64.7742 20.7078 67.0912 22.049L162.802 77.0499C168.25 80.1908 172.661 88.6129 172.661 95.8676V177.24C172.661 181.763 170.943 184.765 168.326 185.62C168.542 185.634 168.806 185.551 169.189 185.328C169.314 185.259 173.629 182.702 173.747 182.618C175.619 181.305 176.788 178.616 176.788 174.891V93.5189C176.788 86.2642 172.369 77.8421 166.928 74.7011L166.921 74.6942Z" fill="url(#paint14_linear_1345_9759)"/>
<path d="M166.837 74.7498L71.134 19.749C68.9769 18.5051 66.9869 18.2758 65.3656 18.9012C65.1569 18.9776 61.1629 21.2638 60.968 21.3681C60.968 21.3681 60.9611 21.3681 60.9541 21.375C62.638 20.555 64.7742 20.7079 67.0912 22.0491L162.802 77.0499C168.25 80.1909 172.661 88.613 172.661 95.8677V177.24C172.661 181.764 170.943 184.766 168.326 185.62C168.542 185.634 168.806 185.551 169.189 185.328C169.314 185.259 173.545 182.757 173.663 182.674C175.535 181.361 176.704 178.671 176.704 174.947V93.5745C176.704 86.3198 172.286 77.8977 166.844 74.7568L166.837 74.7498Z" fill="url(#paint15_linear_1345_9759)"/>
<path d="M166.754 74.8055L71.0505 19.8046C68.8934 18.5608 66.9034 18.3314 65.2821 18.9569C65.0734 19.0333 61.1629 21.2639 60.968 21.3681C60.968 21.3681 60.9611 21.3681 60.9541 21.3751C62.638 20.5551 64.7742 20.708 67.0912 22.0491L162.802 77.05C168.25 80.1909 172.661 88.6131 172.661 95.8678V177.24C172.661 181.764 170.943 184.766 168.326 185.62C168.542 185.634 168.806 185.551 169.189 185.328C169.314 185.259 173.462 182.806 173.58 182.723C175.452 181.409 176.621 178.72 176.621 174.995V93.6232C176.621 86.3685 172.202 77.9464 166.761 74.8055H166.754Z" fill="url(#paint16_linear_1345_9759)"/>
<path d="M166.67 74.8542L70.967 19.8603C68.8099 18.6164 66.8199 18.3871 65.1986 19.0125C64.9899 19.089 61.1629 21.264 60.968 21.3682C60.968 21.3682 60.9611 21.3682 60.9541 21.3752C62.638 20.5552 64.7742 20.7081 67.0912 22.0492L162.802 77.0501C168.25 80.191 172.661 88.6131 172.661 95.8678V177.24C172.661 181.764 170.943 184.766 168.326 185.62C168.542 185.634 168.806 185.551 169.189 185.329C169.314 185.259 173.378 182.862 173.496 182.778C175.368 181.465 176.537 178.776 176.537 175.051V93.6789C176.537 86.4242 172.119 78.0021 166.677 74.8612L166.67 74.8542Z" fill="url(#paint17_linear_1345_9759)"/>
<path d="M166.587 74.909L70.8835 19.9081C68.7264 18.6643 66.7364 18.435 65.1151 19.0604C64.9064 19.1368 61.1629 21.2562 60.968 21.3605C60.968 21.3605 60.9611 21.3605 60.9541 21.3674C62.638 20.5474 64.7742 20.7003 67.0912 22.0415L162.802 77.0423C168.25 80.1833 172.661 88.6054 172.661 95.8601V177.232C172.661 181.756 170.943 184.758 168.326 185.613C168.542 185.627 168.806 185.543 169.189 185.321C169.314 185.251 173.295 182.909 173.413 182.826C175.285 181.513 176.454 178.824 176.454 175.099V93.7268C176.454 86.4721 172.035 78.0499 166.594 74.909H166.587Z" fill="url(#paint18_linear_1345_9759)"/>
<path d="M166.503 74.9647L70.8 19.9638C68.6429 18.7199 66.6529 18.4906 65.0316 19.116C64.8229 19.1925 61.1629 21.2563 60.968 21.3605C60.968 21.3605 60.9611 21.3605 60.9541 21.3675C62.638 20.5475 64.7742 20.7004 67.0912 22.0415L162.802 77.0424C168.25 80.1833 172.661 88.6055 172.661 95.8602V177.232C172.661 181.756 170.943 184.758 168.326 185.613C168.542 185.627 168.806 185.543 169.189 185.321C169.314 185.251 173.211 182.965 173.329 182.882C175.201 181.568 176.37 178.879 176.37 175.155V93.7824C176.37 86.5277 171.952 78.1056 166.51 74.9647H166.503Z" fill="url(#paint19_linear_1345_9759)"/>
<path d="M166.427 75.0203L70.7165 20.0195C68.5594 18.7756 66.5694 18.5463 64.9481 19.1717C64.7394 19.2481 61.1629 21.2564 60.968 21.3676C60.968 21.3676 60.9611 21.3676 60.9541 21.3745C62.638 20.5545 64.7742 20.7074 67.0912 22.0486L162.802 77.0494C168.25 80.1904 172.661 88.6125 172.661 95.8672V177.239C172.661 181.763 170.943 184.765 168.326 185.62C168.542 185.634 168.806 185.55 169.189 185.328C169.314 185.258 173.128 183.028 173.246 182.944C175.118 181.631 176.287 178.942 176.287 175.217V93.845C176.287 86.5903 171.868 78.1682 166.427 75.0273V75.0203Z" fill="url(#paint20_linear_1345_9759)"/>
<path d="M166.343 75.076L70.633 20.0751C68.4759 18.8313 66.4859 18.602 64.8646 19.2274C64.6559 19.3038 61.1629 21.2565 60.968 21.3676C60.968 21.3676 60.9611 21.3676 60.9541 21.3746C62.638 20.5546 64.7742 20.7075 67.0912 22.0486L162.802 77.0495C168.25 80.1904 172.661 88.6126 172.661 95.8673V177.239C172.661 181.763 170.943 184.765 168.326 185.62C168.542 185.634 168.806 185.55 169.189 185.328C169.314 185.258 173.044 183.083 173.162 183C175.034 181.687 176.203 178.997 176.203 175.273V93.9007C176.203 86.646 171.785 78.2239 166.343 75.083V75.076Z" fill="url(#paint21_linear_1345_9759)"/>
<path d="M166.26 75.1317L70.5495 20.1308C68.3924 18.8869 66.4024 18.6576 64.7811 19.283C64.5724 19.3595 61.1629 21.2565 60.968 21.3677C60.968 21.3677 60.9611 21.3677 60.9541 21.3747C62.638 20.5547 64.7742 20.7076 67.0912 22.0487L162.802 77.0496C168.25 80.1905 172.661 88.6126 172.661 95.8673V177.239C172.661 181.763 170.943 184.765 168.326 185.62C168.542 185.634 168.806 185.55 169.189 185.328C169.314 185.259 172.961 183.139 173.079 183.056C174.951 181.742 176.12 179.053 176.12 175.328V93.9564C176.12 86.7017 171.701 78.2795 166.26 75.1386V75.1317Z" fill="url(#paint22_linear_1345_9759)"/>
<path d="M166.176 75.1873L70.466 20.1865C68.3089 18.9426 66.3189 18.7133 64.6976 19.3387C64.4889 19.4151 61.1629 21.2635 60.968 21.3678C60.968 21.3678 60.9611 21.3678 60.9541 21.3747C62.638 20.5548 64.7742 20.7076 67.0912 22.0488L162.802 77.0497C168.25 80.1906 172.661 88.6127 172.661 95.8674V177.24C172.661 181.763 170.943 184.765 168.326 185.62C168.542 185.634 168.806 185.55 169.189 185.328C169.314 185.259 172.877 183.195 173.002 183.111C174.874 181.798 176.043 179.109 176.043 175.384V94.012C176.043 86.7573 171.625 78.3352 166.183 75.1943L166.176 75.1873Z" fill="url(#paint23_linear_1345_9759)"/>
<path d="M166.093 75.243L70.3825 20.2421C68.2254 18.9983 66.2354 18.7689 64.6141 19.3944C64.4054 19.4708 61.1629 21.2636 60.968 21.3679C60.968 21.3679 60.9611 21.3679 60.9541 21.3748C62.638 20.5548 64.7742 20.7077 67.0912 22.0488L162.802 77.0497C168.25 80.1907 172.661 88.6128 172.661 95.8675V177.24C172.661 181.763 170.943 184.765 168.326 185.62C168.542 185.634 168.806 185.551 169.189 185.328C169.314 185.259 172.794 183.243 172.919 183.16C174.791 181.847 175.96 179.158 175.96 175.433V94.0607C175.96 86.8061 171.541 78.3839 166.1 75.243H166.093Z" fill="url(#paint24_linear_1345_9759)"/>
<path d="M166.009 75.2917L70.299 20.2978C68.1419 19.0539 66.1519 18.8246 64.5306 19.45C64.3219 19.5265 61.1559 21.2637 60.968 21.3679C60.968 21.3679 60.9611 21.3679 60.9541 21.3749C62.638 20.5549 64.7742 20.7078 67.0912 22.0489L162.802 77.0498C168.25 80.1907 172.661 88.6129 172.661 95.8675V177.24C172.661 181.763 170.943 184.765 168.326 185.62C168.542 185.634 168.806 185.551 169.189 185.328C169.314 185.259 172.717 183.299 172.835 183.216C174.707 181.902 175.876 179.213 175.876 175.489V94.1164C175.876 86.8617 171.458 78.4396 166.016 75.2987L166.009 75.2917Z" fill="url(#paint25_linear_1345_9759)"/>
<path d="M165.926 75.3475L70.2155 20.3466C68.0584 19.1028 66.0684 18.8734 64.4471 19.4988C64.2384 19.5753 61.1559 21.2569 60.968 21.3612C60.968 21.3612 60.9611 21.3612 60.9541 21.3681C62.638 20.5481 64.7742 20.701 67.0912 22.0422L162.802 77.043C168.25 80.184 172.661 88.6061 172.661 95.8608V177.233C172.661 181.757 170.943 184.759 168.326 185.613C168.542 185.627 168.806 185.544 169.189 185.321C169.314 185.252 172.634 183.348 172.752 183.265C174.624 181.951 175.793 179.262 175.793 175.537V94.1652C175.793 86.9105 171.374 78.4884 165.933 75.3475H165.926Z" fill="url(#paint26_linear_1345_9759)"/>
<path d="M165.842 75.4032L70.1321 20.4023C67.9751 19.1584 65.985 18.9291 64.3638 19.5545C64.155 19.6309 61.156 21.257 60.9612 21.3612C60.9612 21.3612 60.9542 21.3612 60.9473 21.3682C62.6312 20.5482 64.7673 20.7011 67.0844 22.0422L162.795 77.0431C168.243 80.184 172.654 88.6062 172.654 95.8608V177.233C172.654 181.757 170.936 184.759 168.32 185.613C168.535 185.627 168.8 185.544 169.182 185.322C169.308 185.252 172.543 183.404 172.661 183.32C174.533 182.007 175.702 179.318 175.702 175.593V94.2209C175.702 86.9662 171.284 78.5441 165.842 75.4032Z" fill="url(#paint27_linear_1345_9759)"/>
<path d="M165.759 75.4579L70.0486 20.457C67.8916 19.2131 65.9015 18.9838 64.2803 19.6092C64.0715 19.6856 61.156 21.2561 60.9612 21.3673C60.9612 21.3673 60.9542 21.3673 60.9473 21.3742C62.6312 20.5543 64.7673 20.7071 67.0844 22.0483L162.795 77.0492C168.243 80.1901 172.654 88.6122 172.654 95.8669V177.239C172.654 181.763 170.936 184.765 168.32 185.619C168.535 185.633 168.8 185.55 169.182 185.328C169.308 185.258 172.46 183.465 172.578 183.382C174.45 182.069 175.619 179.379 175.619 175.655V94.2825C175.619 87.0278 171.2 78.6057 165.759 75.4648V75.4579Z" fill="url(#paint28_linear_1345_9759)"/>
<path d="M165.675 75.5135L69.972 20.5126C67.8149 19.2688 65.8249 19.0395 64.2036 19.6649C63.9948 19.7413 61.1629 21.2562 60.968 21.3674C60.968 21.3674 60.9611 21.3674 60.9541 21.3743C62.638 20.5543 64.7742 20.7072 67.0912 22.0483L162.802 77.0492C168.25 80.1902 172.661 88.6123 172.661 95.867V177.239C172.661 181.763 170.943 184.765 168.326 185.62C168.542 185.633 168.806 185.55 169.189 185.328C169.314 185.258 172.383 183.521 172.501 183.438C174.373 182.124 175.542 179.435 175.542 175.71V94.3382C175.542 87.0835 171.124 78.6614 165.682 75.5205L165.675 75.5135Z" fill="url(#paint29_linear_1345_9759)"/>
<path d="M165.592 75.5692L69.8885 20.5683C67.7314 19.3244 65.7414 19.0951 64.1201 19.7205C63.9113 19.797 61.1629 21.2562 60.968 21.3674C60.968 21.3674 60.9611 21.3674 60.9541 21.3744C62.638 20.5544 64.7742 20.7073 67.0912 22.0484L162.802 77.0493C168.25 80.1902 172.661 88.6124 172.661 95.8671V177.239C172.661 181.763 170.943 184.765 168.326 185.62C168.542 185.633 168.806 185.55 169.189 185.328C169.314 185.258 172.299 183.577 172.418 183.493C174.29 182.18 175.459 179.491 175.459 175.766V94.3939C175.459 87.1392 171.04 78.7171 165.599 75.5761L165.592 75.5692Z" fill="url(#paint30_linear_1345_9759)"/>
<path d="M163.268 76.8139L67.5644 21.813C65.3308 20.5274 63.2781 20.3398 61.6221 21.0555C63.0346 20.8332 64.6559 21.1737 66.3815 22.1674L162.092 77.1683C167.54 80.3092 171.952 88.7313 171.952 95.986V177.358C171.952 181.639 170.407 184.536 168.027 185.565C171.068 185.085 173.134 181.958 173.134 177.004V95.6316C173.134 88.3769 168.716 79.9548 163.275 76.8139H163.268Z" fill="white"/>
<path d="M90.7282 133.412L67.627 120.091V81.9482L90.7282 95.2694V133.412Z" fill="url(#paint31_linear_1345_9759)"/>
<path d="M90.7282 98.5701L67.627 85.249V81.9482L90.7282 95.2694V98.5701Z" fill="url(#paint32_linear_1345_9759)"/>
<path d="M84.3026 111.396C87.096 109.765 87.0666 104.525 84.237 99.6907C81.4074 94.8567 76.849 92.26 74.0555 93.8909C71.2621 95.5217 71.2914 100.762 74.1211 105.596C76.9507 110.43 81.5091 113.027 84.3026 111.396Z" fill="url(#paint33_linear_1345_9759)"/>
<path d="M81.9821 105.033C81.4324 104.567 80.9384 103.977 80.5487 103.317C80.3122 102.92 80.3191 102.49 80.5487 102.358C80.848 102.184 81.1124 101.906 81.2794 101.545C81.5299 101.614 81.843 101.524 81.843 101.176C81.843 100.829 81.6899 100.44 81.4811 100.252C81.4185 98.7511 80.9036 97.2085 79.178 96.2078C77.4454 95.2072 76.9374 96.1592 76.8748 97.5907C76.6661 97.542 76.513 97.7505 76.513 98.0979C76.513 98.4454 76.8261 98.8901 77.0766 99.1125C77.2505 99.6753 77.508 100.252 77.8072 100.773C78.0368 101.176 78.0438 101.614 77.8072 101.739C77.4175 101.941 76.9235 101.968 76.3738 101.802C75.6502 101.579 75.1074 102.017 75.1074 102.914V104.463C75.1074 104.762 75.3231 105.13 75.5806 105.283L82.7754 109.432C83.0398 109.585 83.2485 109.459 83.2485 109.161V107.611C83.2485 106.715 82.7058 105.658 81.9821 105.04V105.033Z" fill="white"/>
<path d="M86.3032 123.705L72.0527 115.526V116.395L86.3032 124.574V123.705Z" fill="#AFB6E5"/>
<path d="M86.971 117.583L71.3916 108.66V110.258L86.971 119.181V117.583Z" fill="url(#paint34_linear_1345_9759)"/>
<path d="M84.6053 120.919L73.7505 114.699V115.568L84.6053 121.78V120.919Z" fill="#AFB6E5"/>
<path d="M69.4292 110.495V111.357L88.9261 122.42V121.558L69.4292 110.495Z" fill="#AFB6E5"/>
<path d="M69.4292 117.742V118.604L88.9261 129.674V128.805L69.4292 117.742Z" fill="#AFB6E5"/>
<path d="M74.2515 118.542V119.404L84.1113 125.046V124.178L74.2515 118.542Z" fill="#AFB6E5"/>
<path d="M114.866 141.841L91.772 128.52V95.8672L114.866 109.188V141.841Z" fill="url(#paint35_linear_1345_9759)"/>
<path d="M114.866 112.489L91.772 99.1679V95.8672L114.866 109.188V112.489Z" fill="url(#paint36_linear_1345_9759)"/>
<path d="M108.438 125.319C111.232 123.688 111.202 118.447 108.373 113.614C105.543 108.78 100.985 106.183 98.1913 107.814C95.3978 109.445 95.4272 114.685 98.2568 119.519C101.086 124.353 105.645 126.95 108.438 125.319Z" fill="url(#paint37_linear_1345_9759)"/>
<path d="M106.12 118.952C105.57 118.486 105.076 117.896 104.686 117.236C104.45 116.839 104.457 116.409 104.686 116.277C104.986 116.103 105.25 115.825 105.417 115.464C105.668 115.533 105.981 115.443 105.981 115.095C105.981 114.748 105.828 114.359 105.619 114.171C105.556 112.67 105.041 111.127 103.316 110.127C101.583 109.126 101.075 110.078 101.012 111.51C100.804 111.461 100.651 111.669 100.651 112.017C100.651 112.364 100.964 112.809 101.214 113.031C101.388 113.594 101.646 114.171 101.945 114.692C102.175 115.095 102.181 115.533 101.945 115.658C101.555 115.86 101.061 115.887 100.512 115.721C99.7879 115.498 99.2451 115.936 99.2451 116.832V118.382C99.2451 118.681 99.4608 119.049 99.7183 119.202L106.913 123.351C107.177 123.503 107.386 123.378 107.386 123.08V121.53C107.386 120.634 106.843 119.577 106.12 118.959V118.952Z" fill="white"/>
<path d="M111.109 131.502L95.5293 122.579V124.177L111.109 133.093V131.502Z" fill="url(#paint38_linear_1345_9759)"/>
<path d="M108.743 134.837L97.8955 128.618V129.48L108.743 135.699V134.837Z" fill="#AFB6E5"/>
<path d="M93.5742 124.406V125.275L113.064 136.338V135.476L93.5742 124.406Z" fill="#AFB6E5"/>
<path d="M139.004 159.235L115.91 145.914V109.786L139.004 123.1V159.235Z" fill="url(#paint39_linear_1345_9759)"/>
<path d="M139.004 126.408L115.91 113.087V109.786L139.004 123.1V126.408Z" fill="url(#paint40_linear_1345_9759)"/>
<path d="M132.587 139.23C135.381 137.599 135.351 132.359 132.522 127.525C129.692 122.691 125.134 120.094 122.34 121.725C119.547 123.356 119.576 128.596 122.406 133.43C125.235 138.264 129.794 140.861 132.587 139.23Z" fill="url(#paint41_linear_1345_9759)"/>
<path d="M130.265 132.871C129.715 132.405 129.221 131.815 128.831 131.154C128.595 130.758 128.602 130.328 128.831 130.196C129.131 130.022 129.395 129.744 129.562 129.382C129.813 129.452 130.126 129.362 130.126 129.014C130.126 128.667 129.973 128.285 129.764 128.09C129.701 126.589 129.186 125.046 127.461 124.046C125.728 123.045 125.22 123.997 125.158 125.429C124.949 125.38 124.796 125.588 124.796 125.936C124.796 126.283 125.109 126.728 125.359 126.95C125.533 127.513 125.791 128.09 126.09 128.611C126.32 129.014 126.327 129.452 126.09 129.577C125.7 129.779 125.206 129.806 124.657 129.64C123.933 129.417 123.39 129.855 123.39 130.751V132.301C123.39 132.6 123.606 132.968 123.863 133.121L131.058 137.27C131.323 137.422 131.531 137.297 131.531 136.999V135.449C131.531 134.553 130.989 133.496 130.265 132.878V132.871Z" fill="white"/>
<path d="M134.586 151.542L120.329 143.363V144.225L134.586 152.404V151.542Z" fill="#AFB6E5"/>
<path d="M135.247 145.42L119.667 136.498V138.089L135.247 147.012V145.42Z" fill="url(#paint42_linear_1345_9759)"/>
<path d="M132.881 148.748L122.033 142.536V143.398L132.881 149.617V148.748Z" fill="#AFB6E5"/>
<path d="M117.712 138.325V139.194L137.202 150.257V149.388L117.712 138.325Z" fill="#AFB6E5"/>
<path d="M122.527 146.372V147.241L132.387 152.876V152.015L122.527 146.372Z" fill="#AFB6E5"/>
<path d="M163.143 176.607L140.048 163.293V123.698L163.143 137.019V176.607Z" fill="url(#paint43_linear_1345_9759)"/>
<path d="M163.143 140.32L140.048 127.006V123.698L163.143 137.019V140.32Z" fill="url(#paint44_linear_1345_9759)"/>
<path d="M156.72 153.146C159.513 151.515 159.484 146.275 156.654 141.441C153.824 136.607 149.266 134.01 146.473 135.641C143.679 137.272 143.708 142.512 146.538 147.346C149.368 152.18 153.926 154.777 156.72 153.146Z" fill="url(#paint45_linear_1345_9759)"/>
<path d="M154.403 146.789C153.853 146.323 153.359 145.733 152.97 145.072C152.733 144.676 152.74 144.246 152.97 144.113C153.269 143.94 153.533 143.662 153.7 143.3C153.951 143.37 154.264 143.28 154.264 142.932C154.264 142.585 154.111 142.203 153.902 142.008C153.839 140.507 153.325 138.964 151.599 137.964C149.866 136.963 149.358 137.915 149.296 139.347C149.087 139.298 148.934 139.506 148.934 139.854C148.934 140.201 149.247 140.646 149.497 140.868C149.671 141.431 149.929 142.008 150.228 142.529C150.458 142.932 150.465 143.37 150.228 143.495C149.838 143.697 149.344 143.724 148.795 143.558C148.071 143.335 147.528 143.773 147.528 144.669V146.219C147.528 146.518 147.744 146.886 148.001 147.039L155.196 151.188C155.461 151.34 155.669 151.215 155.669 150.917V149.367C155.669 148.47 155.127 147.414 154.403 146.796V146.789Z" fill="white"/>
<path d="M158.724 165.454L144.467 157.275V158.144L158.724 166.323V165.454Z" fill="#AFB6E5"/>
<path d="M159.385 159.332L143.806 150.417V152.008L159.385 160.931V159.332Z" fill="url(#paint46_linear_1345_9759)"/>
<path d="M157.019 162.668L146.171 156.448V157.317L157.019 163.536V162.668Z" fill="#AFB6E5"/>
<path d="M141.851 152.244V153.106L161.341 164.175V163.307L141.851 152.244Z" fill="#AFB6E5"/>
<path d="M157.019 169.915L146.171 163.703V164.565L157.019 170.784V169.915Z" fill="#AFB6E5"/>
<path d="M141.851 159.492V160.361L161.341 171.424V170.562L141.851 159.492Z" fill="#AFB6E5"/>
<path d="M146.666 160.291V161.153L156.525 166.795V165.934L146.666 160.291Z" fill="#AFB6E5"/>
<path d="M57.524 59.9206C52.848 57.2244 49.1811 50.2754 49.1811 44.1048V38.49C49.1811 33.7231 51.5399 30.5196 55.0468 30.5196C56.2297 30.5196 57.4683 30.8879 58.7208 31.6106L60.4116 32.5834C56.0071 20.7702 47.4276 9.52684 37.5608 3.83565C23.206 -4.44054 11.5649 2.1818 11.5649 18.6369C11.5649 35.092 23.206 55.1397 37.5608 63.4228C47.2258 68.9959 55.6453 67.8076 60.1263 61.4215L57.524 59.9206Z" fill="#AFB6E5"/>
<path d="M149.651 89.4948L54.4831 34.6399C50.1899 32.1661 46.7178 34.7928 46.7178 40.5048V46.1334C46.7178 51.8455 50.1969 58.4817 54.4831 60.9555L149.651 115.81C153.944 118.284 157.416 115.658 157.416 109.946V104.317C157.416 98.6049 153.937 91.9687 149.651 89.4948Z" fill="url(#paint47_linear_1345_9759)"/>
<path d="M56.5007 63.5065C55.4431 65.0145 54.1697 66.2375 52.7085 67.1478L55.2135 65.6885C56.4938 65.0909 57.6558 64.2848 58.6786 63.2842C57.4818 63.4093 56.5355 63.5065 56.5007 63.5135V63.5065Z" fill="url(#paint48_linear_1345_9759)"/>
<g style="mix-blend-mode:multiply" opacity="0.7">
<path opacity="0.09" d="M53.7387 26.6145C47.6781 23.1192 42.7656 25.9196 42.7656 32.8616V43.1182C42.7656 50.0602 47.6781 58.524 53.7387 62.0124L131.399 106.673C137.46 110.169 144.585 107.021 144.585 100.079V89.8221C144.585 82.8801 137.453 74.7707 131.399 71.2754L53.7387 26.6145Z" fill="#AFB6E5"/>
<path opacity="0.18" d="M54.5385 27.615C48.5127 24.1405 43.6211 26.9201 43.6211 33.8274V43.3127C43.6211 50.2199 48.5058 58.642 54.5385 62.1165L130.71 105.957C136.736 109.432 143.625 106.333 143.625 99.4254V89.9401C143.625 83.0328 136.743 74.9304 130.71 71.4489L54.5385 27.6081V27.615Z" fill="#AFB6E5"/>
<path opacity="0.27" d="M55.3388 28.6152C49.3408 25.1546 44.4771 27.9272 44.4771 34.7997V43.5137C44.4771 50.3862 49.3408 58.7666 55.3388 62.2272L130.021 105.241C136.019 108.702 142.657 105.651 142.657 98.7786V90.0647C142.657 83.1922 136.019 75.0966 130.021 71.6361L55.3388 28.6221V28.6152Z" fill="#AFB6E5"/>
<path opacity="0.36" d="M56.1391 29.6165C50.169 26.1768 45.333 28.9285 45.333 35.7732V43.7089C45.333 50.5467 50.169 58.8854 56.1391 62.3252L129.34 104.512C135.31 107.952 141.697 104.95 141.697 98.1122V90.1765C141.697 83.3388 135.303 75.2432 129.34 71.8035L56.1391 29.6165Z" fill="#AFB6E5"/>
<path opacity="0.45" d="M56.9395 30.6237C50.9972 27.1978 46.1821 29.9427 46.1821 36.7457V43.91C46.1821 50.72 50.9972 59.0101 56.9395 62.4359L128.651 103.796C134.593 107.222 140.737 104.269 140.737 97.4655V90.3012C140.737 83.4912 134.593 75.4096 128.651 71.9838L56.9395 30.6237Z" fill="#AFB6E5"/>
<path opacity="0.55" d="M57.7393 31.624C51.8318 28.219 47.0376 30.943 47.0376 37.7182V44.1112C47.0376 50.8864 51.8318 59.1348 57.7393 62.5468L127.962 103.087C133.869 106.492 139.77 103.594 139.77 96.819V90.4259C139.77 83.6507 133.869 75.576 127.962 72.1711L57.7393 31.6309V31.624Z" fill="#AFB6E5"/>
<path opacity="0.64" d="M58.5396 32.6253C52.6599 29.2342 47.8936 31.9512 47.8936 38.6848V44.2995C47.8936 51.04 52.6599 59.2467 58.5396 62.6378L127.28 102.351C133.16 105.742 138.817 102.886 138.817 96.1456V90.5308C138.817 83.7904 133.16 75.7226 127.28 72.3316L58.5396 32.6183V32.6253Z" fill="#AFB6E5"/>
<path opacity="0.73" d="M59.3399 33.6325C53.4881 30.2622 48.7495 32.9584 48.7495 39.6641V44.5076C48.7495 51.2133 53.495 59.3852 59.3399 62.7555L126.591 101.642C132.443 105.012 137.849 102.212 137.849 95.5059V90.6624C137.849 83.9567 132.443 75.8959 126.591 72.5187L59.3399 33.6325Z" fill="#AFB6E5"/>
<path opacity="0.82" d="M60.1398 34.6336C54.3158 31.2773 49.5981 33.9665 49.5981 40.6375V44.7096C49.5981 51.3806 54.3158 59.5108 60.1398 62.8672L125.909 100.927C131.733 104.283 136.889 101.524 136.889 94.8531V90.7811C136.889 84.1101 131.726 76.0493 125.909 72.693L60.1398 34.6336Z" fill="#AFB6E5"/>
<path opacity="0.91" d="M60.9401 35.6342C55.1509 32.2918 50.4541 34.9671 50.4541 41.6034V44.9041C50.4541 51.5404 55.1509 59.6289 60.9401 62.9644L125.22 100.204C131.009 103.546 135.929 100.836 135.929 94.1999V90.8992C135.929 84.2629 131.009 76.2091 125.22 72.8736L60.9401 35.6342Z" fill="#AFB6E5"/>
<path d="M61.7404 36.6343C55.979 33.3127 51.3101 35.9741 51.3101 42.5756V45.0981C51.3101 51.6996 55.979 59.7465 61.7404 63.0681L124.531 99.4805C130.293 102.802 134.962 100.141 134.962 93.5392V91.0167C134.962 84.4152 130.293 76.3683 124.531 73.0467L61.7404 36.6343Z" fill="#AFB6E5"/>
</g>
<path d="M153.659 87.1532L58.4911 32.2982C56.6541 31.242 54.9703 31.1238 53.6412 31.777L53.5995 31.7284L49.355 34.2161L49.3689 34.2717C50.7397 33.4587 52.5279 33.5143 54.4901 34.6469L149.658 89.5019C153.951 91.9757 157.423 98.612 157.423 104.324V109.953C157.423 112.732 156.595 114.768 155.259 115.852L157.625 114.296C159.615 113.156 161.424 111.384 161.424 107.604V101.975C161.424 96.2632 157.945 89.627 153.659 87.1532Z" fill="url(#paint49_linear_1345_9759)"/>
<path d="M149.651 89.4948L54.4831 34.6399C50.1899 32.1661 46.7178 34.7928 46.7178 40.5048V46.1334C46.7178 51.8455 50.1969 58.4817 54.4831 60.9555L149.651 115.81C153.944 118.284 157.416 115.658 157.416 109.946V104.317C157.416 98.6049 153.937 91.9687 149.651 89.4948Z" fill="url(#paint50_linear_1345_9759)"/>
<path d="M152.74 115.491C151.988 115.491 151.16 115.234 150.284 114.727L55.1162 59.8717C51.2474 57.6411 47.9771 51.3523 47.9771 46.1406V40.5119C47.9771 37.1487 49.32 34.9736 51.4005 34.9736C52.152 34.9736 52.98 35.2307 53.8567 35.738L149.024 90.593C152.893 92.8236 156.163 99.1124 156.163 104.324V109.953C156.163 111.746 155.788 113.226 155.085 114.219C154.486 115.06 153.7 115.491 152.74 115.491Z" fill="url(#paint51_linear_1345_9759)"/>
<path style="mix-blend-mode:color-dodge" d="M150.089 89.1337L54.9212 34.2787C52.792 33.0488 50.8576 33.0835 49.459 34.1259C50.7323 33.6464 52.5345 33.5491 54.2184 34.522L149.386 89.3769C153.679 91.8507 157.151 98.487 157.151 104.199V109.828C157.151 112.705 156.024 115.067 154.605 116.116C156.567 115.373 157.854 113.052 157.854 109.584V103.956C157.854 98.2438 154.375 91.6075 150.089 89.1337Z" fill="url(#paint52_radial_1345_9759)"/>
<path style="mix-blend-mode:color-dodge" d="M158.14 90.3845C158.717 91.7951 157.458 93.6436 155.329 94.5191C153.199 95.3947 152.97 94.1578 152.392 92.7471C151.815 91.3365 151.397 91.128 153.526 90.2525C155.656 89.3769 157.555 88.9808 158.14 90.3845Z" fill="url(#paint53_radial_1345_9759)"/>
<path d="M52.145 48.8581V43.5004C52.145 40.6305 53.8915 39.3172 56.0416 40.5541L128.491 82.5466C130.634 83.7835 132.387 87.1329 132.387 89.9889V95.3465C132.387 98.2025 130.634 99.5298 128.491 98.2929L56.0416 56.3004C53.8846 55.0565 52.145 51.728 52.145 48.8581Z" fill="white"/>
<path d="M151.606 110.3L147.786 103.727C147.382 103.039 146.777 102.615 146.311 102.657L145.19 100.732C146.867 99.1613 146.7 95.4436 144.682 91.9622C142.477 88.1612 138.9 86.0973 136.694 87.3551C134.489 88.6128 134.489 92.7127 136.694 96.5068C138.712 99.9813 141.878 101.997 144.091 101.35L145.211 103.275C144.94 103.657 145.002 104.387 145.399 105.075L149.219 111.649C149.699 112.469 150.472 112.92 150.952 112.649L151.606 112.274C152.086 112.003 152.086 111.114 151.606 110.294V110.3ZM143.326 98.7722C141.871 99.5991 139.519 98.2441 138.065 95.7355C136.611 93.2339 136.611 90.5307 138.065 89.7038C139.519 88.8769 141.871 90.2319 143.326 92.7405C144.78 95.2421 144.78 97.9453 143.326 98.7722Z" fill="white"/>
<path d="M34.2415 63.659C20.6173 55.7998 9.5746 36.7805 9.5746 21.1732C9.5746 13.7239 12.0935 8.39409 16.2058 5.71875C11.8708 8.31071 9.19189 13.7309 9.19189 21.4095C9.19189 37.0168 20.2346 56.043 33.8588 63.8953C40.977 68.0021 47.3925 68.2384 51.8945 65.3059C47.4134 67.9813 41.1649 67.6477 34.2415 63.659Z" fill="#AFB6E5"/>
<path d="M53.8848 61.9983C49.195 59.2951 45.5141 52.3253 45.5141 46.1338V40.5052C45.5141 35.7243 47.8799 32.5069 51.4007 32.5069C52.5906 32.5069 53.8291 32.8752 55.0886 33.5979L56.7794 34.5708C52.361 22.7228 43.7537 11.4447 33.8591 5.73962C19.4556 -2.55742 7.78662 4.09272 7.78662 20.5965C7.78662 37.1002 19.4625 57.2104 33.866 65.5144C43.5588 71.1014 52.0061 69.9131 56.5011 63.5131L53.8848 62.0052V61.9983Z" fill="url(#paint54_linear_1345_9759)"/>
<path d="M53.8844 61.9983C49.1946 59.2952 45.5137 52.3254 45.5137 46.1339V40.5052C45.5137 35.7243 47.8795 32.507 51.4003 32.507C52.5902 32.507 53.8287 32.8753 55.0882 33.598L55.1508 33.6327C50.8715 22.7924 42.9391 12.5913 33.8587 7.35875C20.2414 -0.486604 9.19873 5.79524 9.19873 21.4095C9.19873 37.0238 20.2414 56.043 33.8656 63.8953C42.7443 69.0098 50.5166 68.1203 54.8655 62.5612L53.8914 61.9983H53.8844Z" fill="white"/>
<path d="M47.5457 54.5768C47.3996 54.7296 47.2604 54.8895 47.1073 55.0354C45.987 53.6943 44.7554 52.3948 43.4334 51.144C44.0596 48.9134 44.4423 46.245 44.5328 43.2152L45.5139 43.7781V41.0194L44.5328 40.4565C44.4423 37.3225 44.0596 34.2094 43.4334 31.2631C44.7554 31.5341 45.9801 31.6453 47.1073 31.6036C47.4483 32.3124 47.7614 33.0212 48.0536 33.7438C48.5755 33.2991 49.1739 32.9725 49.828 32.764C46.3767 24.7797 40.4552 17.3999 33.7336 13.5294C23.1084 7.4004 14.4663 12.3272 14.4663 24.5017C14.4663 36.6763 23.1084 51.5679 33.7336 57.6968C40.1143 61.3798 45.7852 61.0671 49.2922 57.5926C48.6381 56.6614 48.0536 55.6469 47.5526 54.5907L47.5457 54.5768ZM27.2903 14.0366C26.3092 14.9261 25.4533 16.2117 24.7714 17.8586C23.7834 16.9204 22.851 15.9615 21.9951 14.9886C23.512 14.1756 25.3072 13.8351 27.2903 14.0366ZM20.353 16.17C21.4732 17.5111 22.7048 18.8106 24.0269 20.0614C23.4007 22.292 23.018 24.9604 22.9275 27.9901L16.9365 24.5365C17.18 20.8049 18.4116 17.9628 20.3599 16.1769L20.353 16.17ZM20.353 39.6018C18.4047 35.5714 17.1661 31.3048 16.9295 27.2883L22.9205 30.7419C23.011 33.8759 23.3937 36.989 24.0199 39.9423C22.6979 39.6713 21.4732 39.5532 20.346 39.6018H20.353ZM21.9951 42.6802C22.851 42.6871 23.7764 42.7983 24.7714 43.0068C25.4533 45.4459 26.3092 47.7182 27.2903 49.7403C25.3072 47.6487 23.512 45.2513 21.9951 42.6871V42.6802ZM32.5229 53.9931C30.3658 52.0057 28.4454 48.2115 27.1303 43.6391C28.835 44.195 30.6581 44.9872 32.5229 45.9809V53.9931ZM32.5229 43.2222C30.3728 42.0617 28.2923 41.1584 26.3509 40.5469C25.7734 37.8507 25.4185 34.9877 25.3281 32.1317L32.5229 36.2802V43.2222ZM32.5229 33.5215L25.3281 29.373C25.4185 26.6281 25.7734 24.1751 26.3509 22.1391C28.2923 23.7652 30.3658 25.2592 32.5229 26.5795V33.5215ZM32.5229 23.8207C30.6581 22.6672 28.835 21.3539 27.1303 19.9432C28.4454 16.8857 30.3658 15.3083 32.5229 15.8086V23.8207ZM45.4582 28.5113C44.6023 28.5043 43.6769 28.3932 42.6888 28.1847C42 25.7456 41.1441 23.4733 40.17 21.4512C42.1531 23.5428 43.9483 25.9402 45.4652 28.5043L45.4582 28.5113ZM34.9304 17.1984C37.0875 19.1858 39.0079 22.9799 40.323 27.5523C38.6183 26.9964 36.7952 26.2042 34.9304 25.2105V17.1984ZM34.9304 27.9693C37.0805 29.1297 39.161 30.0331 41.1024 30.6446C41.6799 33.3408 42.0348 36.2038 42.1252 39.0598L34.9304 34.9113V27.9693ZM34.9304 37.67L42.1252 41.8185C42.0348 44.5633 41.6799 47.0163 41.1024 49.0524C39.161 47.4263 37.0875 45.9323 34.9304 44.612V37.67ZM34.9304 55.3828V47.3707C36.7952 48.5242 38.6183 49.8376 40.323 51.2482C39.0079 54.3058 37.0875 55.8832 34.9304 55.3828ZM40.163 57.1618C41.1441 56.2723 42 54.9868 42.6819 53.3399C43.6699 54.278 44.6023 55.2369 45.4512 56.2098C43.9344 57.0228 42.1391 57.3633 40.156 57.1618H40.163Z" fill="url(#paint55_linear_1345_9759)"/>
<path d="M56.779 34.5777L60.8705 33.174C56.5425 21.0481 47.7821 9.40168 37.6787 3.57847C30.8875 -0.340736 24.7086 -0.931397 20.0675 1.26447L16.3379 3.37695V3.39779C20.9651 1.25057 27.1162 1.85513 33.8656 5.74654C43.7602 11.4516 52.3675 22.7298 56.786 34.5777H56.779Z" fill="url(#paint56_linear_1345_9759)"/>
<path d="M57.1758 34.4385C52.82 22.3821 44.2962 11.3194 34.2485 5.52399C26.9424 1.31293 20.339 0.951585 15.6074 3.76591C20.3112 1.1948 26.7545 1.64648 33.8588 5.74636C43.7534 11.4514 52.3607 22.7296 56.7792 34.5775L57.1758 34.4385Z" fill="white"/>
<path d="M56.494 63.5059C55.3877 65.0833 54.0447 66.348 52.5 67.2722C54.1073 66.3966 55.499 65.1597 56.661 63.6031L56.501 63.5128L56.494 63.5059Z" fill="white"/>
<path d="M81.2512 57.419L77.9391 66.6819L75.7682 65.3825L76.3248 59.7191L74.5853 64.6667L72.3447 63.3256L73.3398 52.6729L74.9262 53.6249L74.1052 61.9983L76.5892 54.6255L78.1618 55.5706L77.2642 63.9579L79.8179 56.5643L81.2512 57.419Z" fill="#007FFD"/>
<path d="M86.5116 60.5806L86.1984 62.0052L83.3873 60.3096L82.7889 63.0892L85.0295 64.4373L84.7233 65.8549L82.4827 64.5068L81.8495 67.4184L84.6676 69.1139L84.3545 70.5315L79.9082 67.8631L82.0583 57.9053L86.5116 60.5806Z" fill="#007FFD"/>
<path d="M90.3389 68.1345C91.0834 68.9267 91.3339 69.8787 91.0904 70.9975L90.9164 71.8105C90.5755 73.3809 89.5805 73.6797 87.9314 72.686L85.3638 71.1434L87.5139 61.1855L89.9771 62.6657C91.5914 63.6385 92.2315 64.8893 91.9045 66.4111L91.828 66.7655C91.6053 67.7801 91.1113 68.2457 90.3389 68.1345ZM89.2952 70.782L89.483 69.9134C89.657 69.1073 89.3926 68.5028 88.6898 68.0789L87.9592 67.6411L87.2982 70.6917L88.2306 71.2546C88.7942 71.5951 89.149 71.4352 89.2882 70.782M88.829 63.5829L88.2584 66.2166L88.8985 66.5988C89.5526 66.9949 89.9632 66.842 90.1093 66.1401L90.2276 65.5842C90.3737 64.9032 90.1719 64.389 89.6152 64.0555L88.822 63.5829" fill="#007FFD"/>
<path d="M107.115 72.9501C108.736 73.923 109.369 75.2363 109.014 76.8763L107.929 81.9073C107.574 83.5403 106.586 83.8739 104.965 82.901L102.383 81.3514L104.533 71.3936L107.115 72.9432V72.9501ZM106.28 80.997L107.4 75.82C107.539 75.1807 107.331 74.6874 106.774 74.3538L105.855 73.8048L104.318 80.9136L105.236 81.4626C105.793 81.7961 106.141 81.6363 106.28 80.997Z" fill="#007FFD"/>
<path d="M103.344 70.6849L101.194 80.6427L99.5654 79.6629L101.716 69.7051L103.344 70.6849Z" fill="#007FFD"/>
<path d="M95.9122 66.1052C97.5335 67.0781 98.1667 68.3984 97.8048 70.0592L97.7492 70.3233C97.5195 71.3864 96.9907 71.8381 96.1627 71.6853C96.8585 72.4635 97.0881 73.3877 96.8585 74.4648L96.6915 75.2501C96.3297 76.9109 95.3416 77.2583 93.7204 76.2854C92.0991 75.3126 91.4659 73.9923 91.8277 72.3315L92.0086 71.5046L93.5534 72.4288L93.3516 73.353C93.2124 74.0062 93.4212 74.5065 93.9848 74.847C94.5484 75.1875 94.9033 74.979 95.0633 74.2286L95.2303 73.4433C95.4112 72.6025 95.1468 71.9702 94.4371 71.5393L93.8874 71.2127L94.1935 69.7882L94.8337 70.1704C95.4877 70.5595 95.8844 70.4066 96.0374 69.7048L96.1557 69.1489C96.3227 68.3915 96.1209 67.8494 95.5643 67.5089C95.0076 67.1684 94.6458 67.3283 94.5066 67.9745L94.3675 68.6138L92.8227 67.6896L92.941 67.1476C93.3029 65.4868 94.2909 65.1393 95.9122 66.1122V66.1052Z" fill="#007FFD"/>
<path opacity="0.95" d="M152.809 202.505L125.721 218.127L81.1467 192.429L59.2979 205.028L57.9619 202.721L81.1467 189.56L125.721 215.055L150.012 201.046L152.809 202.505Z" fill="url(#paint57_linear_1345_9759)"/>
<g style="mix-blend-mode:multiply" opacity="0.3">
<path opacity="0.09" d="M11.3215 127.652C5.83839 124.49 1.39209 127.02 1.39209 133.309V189.658C1.39209 195.946 5.83839 203.604 11.3215 206.766L57.531 233.332C63.0141 236.493 69.4643 233.644 69.4643 227.362V171.014C69.4643 164.725 63.0141 157.387 57.531 154.225L11.3215 127.659V127.652Z" fill="#A7ADDF"/>
<path opacity="0.18" d="M11.2032 127.826C5.72706 124.664 1.28076 127.194 1.28076 133.476V189.408C1.28076 195.683 5.7201 203.333 11.2032 206.495L57.2457 232.964C62.7218 236.125 68.9633 233.311 68.9633 227.029V171.097C68.9633 164.822 62.7218 157.456 57.2457 154.295L11.2032 127.826Z" fill="#A0A5D9"/>
<path opacity="0.27" d="M11.0779 128.007C5.60878 124.852 1.16943 127.374 1.16943 133.649V189.164C1.16943 195.432 5.60182 203.076 11.0779 206.231L56.9604 232.609C62.4296 235.764 68.4693 232.984 68.4693 226.717V171.201C68.4693 164.933 62.4365 157.547 56.9604 154.392L11.0779 128.007Z" fill="#989CD3"/>
<path opacity="0.36" d="M10.9595 128.187C5.49733 125.039 1.06494 127.562 1.06494 133.823V188.914C1.06494 195.175 5.49733 202.805 10.9595 205.96L56.675 232.241C62.1372 235.389 67.9682 232.651 67.9682 226.383V171.292C67.9682 165.031 62.1372 157.623 56.675 154.468L10.9595 128.187Z" fill="#9094CD"/>
<path opacity="0.45" d="M10.8411 128.361C5.38588 125.213 0.960449 127.736 0.960449 133.99V188.664C0.960449 194.918 5.38588 202.541 10.8411 205.682L56.3966 231.873C61.8518 235.021 67.481 232.31 67.481 226.056V171.382C67.481 165.128 61.8588 157.7 56.3966 154.552L10.8411 128.361Z" fill="#898BC7"/>
<path opacity="0.55" d="M10.7232 128.542C5.27491 125.401 0.856445 127.917 0.856445 134.164V188.421C0.856445 194.668 5.27491 202.277 10.7232 205.418L56.1186 231.511C61.5669 234.652 66.9873 231.977 66.9873 225.737V171.479C66.9873 165.232 61.5669 157.783 56.1186 154.635L10.7232 128.542Z" fill="#8183C1"/>
<path opacity="0.64" d="M10.5976 128.722C5.15626 125.581 0.737793 128.096 0.737793 134.337V188.17C0.737793 194.41 5.1493 202.012 10.5976 205.146L55.826 231.149C61.2673 234.29 66.486 231.65 66.486 225.409V171.576C66.486 165.336 61.2743 157.866 55.826 154.725L10.5976 128.722Z" fill="#7A7ABB"/>
<path opacity="0.73" d="M10.4797 128.896C5.0453 125.762 0.633789 128.27 0.633789 134.503V187.92C0.633789 194.153 5.03834 201.741 10.4797 204.875L55.548 230.781C60.9824 233.915 65.9923 231.309 65.9923 225.083V171.666C65.9923 165.433 60.9824 157.942 55.548 154.808L10.4797 128.896Z" fill="#7272B5"/>
<path opacity="0.82" d="M10.3613 129.077C4.93385 125.943 0.529297 128.451 0.529297 134.677V187.677C0.529297 193.896 4.93385 201.485 10.3613 204.612L55.2626 230.42C60.69 233.554 65.4912 230.983 65.4912 224.757V171.757C65.4912 165.538 60.69 158.019 55.2626 154.885L10.3613 129.077Z" fill="#6A69AF"/>
<path opacity="0.91" d="M10.236 129.25C4.81556 126.123 0.417969 128.625 0.417969 134.844V187.427C0.417969 193.639 4.81556 201.214 10.236 204.341L54.9774 230.059C60.3978 233.186 64.9972 230.649 64.9972 224.437V171.854C64.9972 165.642 60.3978 158.102 54.9774 154.975L10.236 129.25Z" fill="#6361A9"/>
<path d="M10.1176 129.431C4.70411 126.311 0.313477 128.806 0.313477 135.011V187.17C0.313477 193.375 4.70411 200.936 10.1176 204.063L54.6919 229.684C60.1054 232.804 64.4961 230.309 64.4961 224.104V171.945C64.4961 165.74 60.1054 158.179 54.6919 155.052L10.1176 129.431Z" fill="#5B58A3"/>
</g>
<path opacity="0.95" d="M64.4888 171.319C64.4888 165.093 60.0842 157.504 54.6498 154.37L9.83892 128.611C4.40455 125.477 0 127.985 0 134.212V147.47L64.4888 184.536V171.312V171.319Z" fill="#402BB0"/>
<path opacity="0.9" d="M9.83892 208.892L54.6429 234.645C60.0772 237.779 64.4818 235.271 64.4818 229.044V184.536L0 147.471V191.944C0 198.17 4.40455 205.758 9.83892 208.892Z" fill="#E8ECFF"/>
<path style="mix-blend-mode:color-dodge" d="M54.6429 154.363L9.83892 128.611C4.40455 125.477 0 127.985 0 134.212V135.164C0 128.937 4.40455 126.429 9.83892 129.563L54.6429 155.315C60.0772 158.449 64.4818 166.038 64.4818 172.264V171.312C64.4818 165.086 60.0772 157.497 54.6429 154.363Z" fill="url(#paint58_radial_1345_9759)"/>
<path opacity="0.95" d="M26.1516 172.791C31.0791 169.914 31.0277 160.67 26.0368 152.144C21.0459 143.618 13.0056 139.039 8.07815 141.915C3.15072 144.792 3.20214 154.036 8.193 162.562C13.1839 171.088 21.2242 175.668 26.1516 172.791Z" fill="url(#paint59_linear_1345_9759)"/>
<path opacity="0.95" d="M17 143C24.184 147.059 30 156.901 30 164.982C30 173.063 24.184 176.311 17 172.252V143.009V143Z" fill="url(#paint60_linear_1345_9759)"/>
<path d="M23.0536 168.991C22.8571 168.991 22.6518 168.929 22.4554 168.822L11.9821 162.814C11.4196 162.494 11 161.766 11 161.127V158.882C11 157.257 12.1518 156.29 13.5893 156.716C14.1964 156.902 14.75 156.893 15.1786 156.698C15.1875 156.601 15.1786 156.361 15 156.077C14.5446 155.296 14.1786 154.479 13.9286 153.698C13.5357 153.299 13.0357 152.58 13.0357 151.914C13.0357 151.293 13.2857 150.911 13.5982 150.725C13.8125 148.488 14.8661 148 15.75 148C16.3393 148 17.0089 148.222 17.7946 148.675C20.0357 149.962 21.2589 152.021 21.4286 154.799C21.7589 155.207 21.9643 155.811 21.9643 156.379C21.9643 157.009 21.5179 157.47 20.8929 157.515C20.6161 157.967 20.2321 158.331 19.7857 158.589C19.8036 158.598 19.7857 158.855 19.9911 159.183C20.5357 160.08 21.2143 160.896 21.9554 161.527C23.1607 162.547 24 164.26 24 165.689V167.935C24 168.219 23.9196 168.467 23.7679 168.654C23.5893 168.876 23.3304 169 23.0446 169L23.0536 168.991ZM12.9107 157.772C12.2411 157.772 12.1696 158.553 12.1696 158.891V161.136C12.1696 161.367 12.3661 161.704 12.5714 161.82L22.8571 167.722V165.689C22.8571 164.589 22.1696 163.204 21.2232 162.405C20.3839 161.695 19.6161 160.781 19.0179 159.778C18.7232 159.281 18.6161 158.722 18.7321 158.278C18.8125 157.976 18.9911 157.737 19.2321 157.595C19.5893 157.391 19.875 157.071 20.0625 156.672L20.2679 156.228L20.8661 156.361C20.8304 156.006 20.6518 155.615 20.4821 155.464L20.3036 155.305V155.065C20.1964 152.571 19.1875 150.814 17.2321 149.686C16.4821 149.26 16.0179 149.163 15.7679 149.163C15.5357 149.163 14.8393 149.163 14.75 151.213L14.7232 151.896L14.2321 151.79C14.2321 151.79 14.2321 151.87 14.2321 151.923C14.2321 152.18 14.5357 152.686 14.8571 152.962L14.9821 153.068L15.0268 153.228C15.25 153.964 15.5982 154.754 16.0357 155.509C16.3393 156.033 16.4464 156.618 16.3125 157.062C16.2321 157.346 16.0446 157.577 15.8036 157.701C15.0982 158.065 14.2143 158.109 13.2768 157.834C13.1518 157.799 13.0357 157.781 12.9286 157.781L12.9107 157.772Z" fill="white"/>
<path d="M57.1272 212.079L7.15332 183.206V171.386L57.1272 200.259V212.079Z" fill="#3919A5"/>
<path d="M8.41972 182.733V172.115L7.15332 171.386V183.206L57.1272 212.079V210.87L8.41972 182.733Z" fill="#AFB6E5"/>
<path d="M57.1272 228.083L7.15332 199.217V187.396L57.1272 216.262V228.083Z" fill="#3919A5"/>
<path d="M8.41972 198.744V188.126L7.15332 187.396V199.217L57.1272 228.083V226.88L8.41972 198.744Z" fill="#AFB6E5"/>
<defs>
<linearGradient id="paint0_linear_1345_9759" x1="43.056" y1="167.674" x2="198.446" y2="165.528" gradientUnits="userSpaceOnUse">
<stop offset="0.01" stop-color="#BFC5ED"/>
<stop offset="0.4" stop-color="#C5CBF0"/>
<stop offset="0.59" stop-color="#D0D5F5"/>
<stop offset="0.83" stop-color="#E5E9FF"/>
<stop offset="0.84" stop-color="#E5E9FF"/>
<stop offset="0.87" stop-color="#D1D6F5"/>
<stop offset="0.92" stop-color="#AFB6E5"/>
<stop offset="1" stop-color="#AFB6E5"/>
</linearGradient>
<linearGradient id="paint1_linear_1345_9759" x1="142.703" y1="102.366" x2="109.051" y2="193.031" gradientUnits="userSpaceOnUse">
<stop stop-color="#AFB6E5"/>
<stop offset="0.14" stop-color="#B5BCE8"/>
<stop offset="0.35" stop-color="#C7CDF0"/>
<stop offset="0.58" stop-color="#E5E9FF"/>
<stop offset="0.86" stop-color="#F4F6FF"/>
<stop offset="1" stop-color="white"/>
</linearGradient>
<radialGradient id="paint2_radial_1345_9759" cx="0" cy="0" r="1" gradientUnits="userSpaceOnUse" gradientTransform="translate(120.814 171.67) rotate(-0.788947) scale(60.5295 60.4489)">
<stop stop-color="white"/>
<stop offset="1"/>
</radialGradient>
<linearGradient id="paint3_linear_1345_9759" x1="42.6332" y1="109.473" x2="212.691" y2="218.903" gradientUnits="userSpaceOnUse">
<stop stop-color="#2BE9A3"/>
<stop offset="0.22" stop-color="#07CCBF"/>
<stop offset="0.26" stop-color="#00C7C5"/>
<stop offset="0.47" stop-color="#5277F7"/>
<stop offset="0.55" stop-color="#5277F7"/>
<stop offset="0.78" stop-color="#836DF3"/>
<stop offset="1" stop-color="#004DBF"/>
</linearGradient>
<linearGradient id="paint4_linear_1345_9759" x1="1.71511" y1="157.729" x2="2.41087" y2="157.719" gradientUnits="userSpaceOnUse">
<stop offset="0.01" stop-color="#BFC5ED"/>
<stop offset="0.4" stop-color="#C5CBF0"/>
<stop offset="0.59" stop-color="#D0D5F5"/>
<stop offset="0.83" stop-color="#E5E9FF"/>
<stop offset="0.84" stop-color="#E5E9FF"/>
<stop offset="0.87" stop-color="#D1D6F5"/>
<stop offset="0.92" stop-color="#AFB6E5"/>
<stop offset="1" stop-color="#AFB6E5"/>
</linearGradient>
<linearGradient id="paint5_linear_1345_9759" x1="142.558" y1="91.8533" x2="108.906" y2="182.518" gradientUnits="userSpaceOnUse">
<stop offset="0.02" stop-color="#E5E9FF"/>
<stop offset="0.66" stop-color="#F4F6FF"/>
<stop offset="1" stop-color="white"/>
</linearGradient>
<radialGradient id="paint6_radial_1345_9759" cx="0" cy="0" r="1" gradientUnits="userSpaceOnUse" gradientTransform="translate(2.13299 162.783) rotate(-0.788947) scale(60.5295 60.4489)">
<stop stop-color="white"/>
<stop offset="1"/>
</radialGradient>
<linearGradient id="paint7_linear_1345_9759" x1="-23.5742" y1="73.0125" x2="229.653" y2="128.662" gradientUnits="userSpaceOnUse">
<stop stop-color="#C0C6EE"/>
<stop offset="0.27" stop-color="#CED4F4"/>
<stop offset="0.58" stop-color="#E5E9FF"/>
<stop offset="1" stop-color="#ECEFFF"/>
</linearGradient>
<linearGradient id="paint8_linear_1345_9759" x1="64.0365" y1="26.8368" x2="172.87" y2="190.709" gradientUnits="userSpaceOnUse">
<stop stop-color="#273B98"/>
<stop offset="0.23" stop-color="#2E2BA2"/>
<stop offset="0.4" stop-color="#361CAC"/>
<stop offset="0.77" stop-color="#440B88"/>
<stop offset="1" stop-color="#4E0070"/>
</linearGradient>
<linearGradient id="paint9_linear_1345_9759" x1="93.7899" y1="4.12024" x2="182.526" y2="182.149" gradientUnits="userSpaceOnUse">
<stop stop-color="#B3BAE7"/>
<stop offset="0.19" stop-color="#B7BDE9"/>
<stop offset="0.28" stop-color="#BAC0E9"/>
<stop offset="0.41" stop-color="#AFB6E5"/>
<stop offset="0.91" stop-color="#AFB6E5"/>
<stop offset="1" stop-color="#B3BAE7"/>
</linearGradient>
<linearGradient id="paint10_linear_1345_9759" x1="93.7482" y1="4.15517" x2="182.484" y2="182.17" gradientUnits="userSpaceOnUse">
<stop stop-color="#B4BBE8"/>
<stop offset="0.19" stop-color="#B9BEEA"/>
<stop offset="0.28" stop-color="#BCC2EA"/>
<stop offset="0.41" stop-color="#B2B8E6"/>
<stop offset="0.43" stop-color="#B2B8E6"/>
<stop offset="0.54" stop-color="#B3B9E6"/>
<stop offset="0.72" stop-color="#AFB6E5"/>
<stop offset="0.91" stop-color="#AFB6E5"/>
<stop offset="1" stop-color="#B4BBE8"/>
</linearGradient>
<linearGradient id="paint11_linear_1345_9759" x1="93.7135" y1="4.18999" x2="182.443" y2="182.191" gradientUnits="userSpaceOnUse">
<stop stop-color="#B5BCE8"/>
<stop offset="0.19" stop-color="#BAC0EA"/>
<stop offset="0.28" stop-color="#BDC3EB"/>
<stop offset="0.41" stop-color="#B4BBE7"/>
<stop offset="0.43" stop-color="#B4BBE7"/>
<stop offset="0.54" stop-color="#B7BDE7"/>
<stop offset="0.72" stop-color="#AFB6E5"/>
<stop offset="0.91" stop-color="#AFB6E5"/>
<stop offset="1" stop-color="#B5BCE8"/>
</linearGradient>
<linearGradient id="paint12_linear_1345_9759" x1="93.6718" y1="4.21786" x2="182.394" y2="182.212" gradientUnits="userSpaceOnUse">
<stop stop-color="#B7BDE9"/>
<stop offset="0.19" stop-color="#BCC1EB"/>
<stop offset="0.28" stop-color="#BFC5EC"/>
<stop offset="0.41" stop-color="#B7BDE9"/>
<stop offset="0.43" stop-color="#B7BDE9"/>
<stop offset="0.54" stop-color="#BAC0E9"/>
<stop offset="0.72" stop-color="#AFB6E5"/>
<stop offset="0.91" stop-color="#AFB6E5"/>
<stop offset="1" stop-color="#B7BDE9"/>
</linearGradient>
<linearGradient id="paint13_linear_1345_9759" x1="93.63" y1="4.25267" x2="182.352" y2="182.24" gradientUnits="userSpaceOnUse">
<stop stop-color="#B8BFE9"/>
<stop offset="0.19" stop-color="#BDC3EC"/>
<stop offset="0.28" stop-color="#C1C6EC"/>
<stop offset="0.41" stop-color="#B9C0EA"/>
<stop offset="0.43" stop-color="#B9C0EA"/>
<stop offset="0.54" stop-color="#BEC4EA"/>
<stop offset="0.72" stop-color="#AFB6E5"/>
<stop offset="0.91" stop-color="#AFB6E5"/>
<stop offset="1" stop-color="#B8BFE9"/>
</linearGradient>
<linearGradient id="paint14_linear_1345_9759" x1="93.5951" y1="4.28749" x2="182.311" y2="182.261" gradientUnits="userSpaceOnUse">
<stop stop-color="#B9C0EA"/>
<stop offset="0.19" stop-color="#BFC4ED"/>
<stop offset="0.28" stop-color="#C2C8ED"/>
<stop offset="0.41" stop-color="#BCC2EB"/>
<stop offset="0.43" stop-color="#BCC2EB"/>
<stop offset="0.54" stop-color="#C2C7EB"/>
<stop offset="0.72" stop-color="#AFB6E5"/>
<stop offset="0.91" stop-color="#AFB6E5"/>
<stop offset="1" stop-color="#B9C0EA"/>
</linearGradient>
<linearGradient id="paint15_linear_1345_9759" x1="93.5534" y1="4.32231" x2="182.262" y2="182.282" gradientUnits="userSpaceOnUse">
<stop stop-color="#BAC1EA"/>
<stop offset="0.19" stop-color="#C0C6ED"/>
<stop offset="0.28" stop-color="#C4C9EE"/>
<stop offset="0.41" stop-color="#BEC4EC"/>
<stop offset="0.43" stop-color="#BEC5EC"/>
<stop offset="0.54" stop-color="#C6CBEC"/>
<stop offset="0.7" stop-color="#B2B9E6"/>
<stop offset="0.72" stop-color="#AFB6E5"/>
<stop offset="0.91" stop-color="#AFB6E5"/>
<stop offset="1" stop-color="#BAC1EA"/>
</linearGradient>
<linearGradient id="paint16_linear_1345_9759" x1="93.5186" y1="4.35017" x2="182.22" y2="182.303" gradientUnits="userSpaceOnUse">
<stop stop-color="#BCC2EB"/>
<stop offset="0.19" stop-color="#C2C7EE"/>
<stop offset="0.28" stop-color="#C6CBEF"/>
<stop offset="0.41" stop-color="#C1C7ED"/>
<stop offset="0.43" stop-color="#C1C7EE"/>
<stop offset="0.54" stop-color="#CACEEE"/>
<stop offset="0.68" stop-color="#B6BCE7"/>
<stop offset="0.72" stop-color="#AFB6E5"/>
<stop offset="0.91" stop-color="#AFB6E5"/>
<stop offset="0.99" stop-color="#B9C0EA"/>
<stop offset="1" stop-color="#BCC2EB"/>
</linearGradient>
<linearGradient id="paint17_linear_1345_9759" x1="93.4768" y1="4.38499" x2="182.171" y2="182.324" gradientUnits="userSpaceOnUse">
<stop stop-color="#BDC3EC"/>
<stop offset="0.19" stop-color="#C4C9EF"/>
<stop offset="0.28" stop-color="#C7CDF0"/>
<stop offset="0.41" stop-color="#C3C9EF"/>
<stop offset="0.43" stop-color="#C4C9EF"/>
<stop offset="0.54" stop-color="#CDD2EF"/>
<stop offset="0.66" stop-color="#B9BFE8"/>
<stop offset="0.72" stop-color="#AFB6E5"/>
<stop offset="0.91" stop-color="#AFB6E5"/>
<stop offset="0.98" stop-color="#B9C0EA"/>
<stop offset="1" stop-color="#BDC3EC"/>
</linearGradient>
<linearGradient id="paint18_linear_1345_9759" x1="93.4351" y1="4.41895" x2="182.13" y2="182.344" gradientUnits="userSpaceOnUse">
<stop stop-color="#BEC4EC"/>
<stop offset="0.19" stop-color="#C5CAEF"/>
<stop offset="0.28" stop-color="#C9CEF1"/>
<stop offset="0.41" stop-color="#C6CBF0"/>
<stop offset="0.43" stop-color="#C6CCF0"/>
<stop offset="0.53" stop-color="#D0D4F0"/>
<stop offset="0.54" stop-color="#D1D5F0"/>
<stop offset="0.65" stop-color="#BDC3E9"/>
<stop offset="0.72" stop-color="#AFB6E5"/>
<stop offset="0.91" stop-color="#AFB6E5"/>
<stop offset="0.98" stop-color="#B9C0EA"/>
<stop offset="1" stop-color="#BEC4EC"/>
</linearGradient>
<linearGradient id="paint19_linear_1345_9759" x1="93.4003" y1="4.44682" x2="182.088" y2="182.365" gradientUnits="userSpaceOnUse">
<stop stop-color="#BFC5ED"/>
<stop offset="0.19" stop-color="#C7CCF0"/>
<stop offset="0.28" stop-color="#CBD0F2"/>
<stop offset="0.41" stop-color="#C8CEF1"/>
<stop offset="0.43" stop-color="#C9CEF1"/>
<stop offset="0.52" stop-color="#D3D7F1"/>
<stop offset="0.54" stop-color="#D5D9F1"/>
<stop offset="0.64" stop-color="#C1C6EA"/>
<stop offset="0.72" stop-color="#AFB6E5"/>
<stop offset="0.91" stop-color="#AFB6E5"/>
<stop offset="0.98" stop-color="#B9C0EA"/>
<stop offset="1" stop-color="#BFC5ED"/>
</linearGradient>
<linearGradient id="paint20_linear_1345_9759" x1="93.3585" y1="4.48163" x2="182.039" y2="182.393" gradientUnits="userSpaceOnUse">
<stop stop-color="#C1C7ED"/>
<stop offset="0.19" stop-color="#C8CDF1"/>
<stop offset="0.28" stop-color="#CCD1F2"/>
<stop offset="0.41" stop-color="#CBD0F2"/>
<stop offset="0.43" stop-color="#CBD1F3"/>
<stop offset="0.51" stop-color="#D5D8F3"/>
<stop offset="0.54" stop-color="#D9DCF3"/>
<stop offset="0.63" stop-color="#C5CAEC"/>
<stop offset="0.72" stop-color="#AFB6E5"/>
<stop offset="0.91" stop-color="#AFB6E5"/>
<stop offset="0.97" stop-color="#B9C0E9"/>
<stop offset="1" stop-color="#C1C7ED"/>
</linearGradient>
<linearGradient id="paint21_linear_1345_9759" x1="93.3237" y1="4.51645" x2="181.998" y2="182.414" gradientUnits="userSpaceOnUse">
<stop stop-color="#C2C8EE"/>
<stop offset="0.19" stop-color="#CACFF2"/>
<stop offset="0.28" stop-color="#CED3F3"/>
<stop offset="0.41" stop-color="#CDD3F3"/>
<stop offset="0.43" stop-color="#CED3F4"/>
<stop offset="0.51" stop-color="#D8DBF4"/>
<stop offset="0.54" stop-color="#DDE0F4"/>
<stop offset="0.62" stop-color="#C9CEED"/>
<stop offset="0.72" stop-color="#AFB6E5"/>
<stop offset="0.91" stop-color="#AFB6E5"/>
<stop offset="0.97" stop-color="#B9C0EA"/>
<stop offset="1" stop-color="#C2C8EE"/>
</linearGradient>
<linearGradient id="paint22_linear_1345_9759" x1="93.282" y1="4.54432" x2="181.956" y2="182.434" gradientUnits="userSpaceOnUse">
<stop stop-color="#C3C9EE"/>
<stop offset="0.19" stop-color="#CBD0F2"/>
<stop offset="0.28" stop-color="#D0D4F4"/>
<stop offset="0.41" stop-color="#D0D5F4"/>
<stop offset="0.43" stop-color="#D0D6F5"/>
<stop offset="0.5" stop-color="#DADDF5"/>
<stop offset="0.54" stop-color="#E1E3F5"/>
<stop offset="0.62" stop-color="#CDD1EE"/>
<stop offset="0.72" stop-color="#AFB6E5"/>
<stop offset="0.91" stop-color="#AFB6E5"/>
<stop offset="0.97" stop-color="#B9C0E9"/>
<stop offset="1" stop-color="#C3C9EE"/>
</linearGradient>
<linearGradient id="paint23_linear_1345_9759" x1="93.2472" y1="4.57913" x2="181.907" y2="182.455" gradientUnits="userSpaceOnUse">
<stop stop-color="#C4CAEF"/>
<stop offset="0.19" stop-color="#CDD2F3"/>
<stop offset="0.28" stop-color="#D1D6F5"/>
<stop offset="0.41" stop-color="#D2D7F6"/>
<stop offset="0.43" stop-color="#D3D8F6"/>
<stop offset="0.5" stop-color="#DDE0F6"/>
<stop offset="0.54" stop-color="#E4E7F6"/>
<stop offset="0.61" stop-color="#D0D4EF"/>
<stop offset="0.72" stop-color="#AFB6E5"/>
<stop offset="0.91" stop-color="#AFB6E5"/>
<stop offset="0.96" stop-color="#B9C0EA"/>
<stop offset="1" stop-color="#C4CAEF"/>
</linearGradient>
<linearGradient id="paint24_linear_1345_9759" x1="93.2054" y1="4.61395" x2="181.865" y2="182.476" gradientUnits="userSpaceOnUse">
<stop stop-color="#C6CBF0"/>
<stop offset="0.19" stop-color="#CFD3F4"/>
<stop offset="0.28" stop-color="#D3D8F6"/>
<stop offset="0.41" stop-color="#D5DAF7"/>
<stop offset="0.43" stop-color="#D6DAF8"/>
<stop offset="0.5" stop-color="#E0E2F8"/>
<stop offset="0.54" stop-color="#E8EAF8"/>
<stop offset="0.61" stop-color="#D4D8F1"/>
<stop offset="0.72" stop-color="#AFB6E5"/>
<stop offset="0.91" stop-color="#AFB6E5"/>
<stop offset="0.96" stop-color="#B9BFEA"/>
<stop offset="1" stop-color="#C6CBF0"/>
</linearGradient>
<linearGradient id="paint25_linear_1345_9759" x1="93.1637" y1="4.64182" x2="181.824" y2="182.497" gradientUnits="userSpaceOnUse">
<stop stop-color="#C7CCF0"/>
<stop offset="0.19" stop-color="#D0D5F4"/>
<stop offset="0.28" stop-color="#D5D9F7"/>
<stop offset="0.41" stop-color="#D7DCF8"/>
<stop offset="0.43" stop-color="#D8DDF9"/>
<stop offset="0.49" stop-color="#E2E5F9"/>
<stop offset="0.54" stop-color="#ECEEF9"/>
<stop offset="0.61" stop-color="#D8DBF2"/>
<stop offset="0.72" stop-color="#AFB6E5"/>
<stop offset="0.91" stop-color="#AFB6E5"/>
<stop offset="0.96" stop-color="#B9BFE9"/>
<stop offset="1" stop-color="#C7CCF0"/>
</linearGradient>
<linearGradient id="paint26_linear_1345_9759" x1="93.1289" y1="4.67675" x2="181.775" y2="182.518" gradientUnits="userSpaceOnUse">
<stop stop-color="#C8CDF1"/>
<stop offset="0.19" stop-color="#D2D6F5"/>
<stop offset="0.28" stop-color="#D6DBF8"/>
<stop offset="0.41" stop-color="#DADEF9"/>
<stop offset="0.43" stop-color="#DBDFFA"/>
<stop offset="0.49" stop-color="#E5E7FA"/>
<stop offset="0.54" stop-color="#F0F1FA"/>
<stop offset="0.6" stop-color="#DCDFF3"/>
<stop offset="0.72" stop-color="#AFB6E5"/>
<stop offset="0.91" stop-color="#AFB6E5"/>
<stop offset="0.96" stop-color="#B9BFEA"/>
<stop offset="1" stop-color="#C8CDF1"/>
</linearGradient>
<linearGradient id="paint27_linear_1345_9759" x1="93.0873" y1="4.71157" x2="181.733" y2="182.546" gradientUnits="userSpaceOnUse">
<stop stop-color="#C9CFF1"/>
<stop offset="0.19" stop-color="#D3D8F6"/>
<stop offset="0.28" stop-color="#D8DCF8"/>
<stop offset="0.41" stop-color="#DCE1FA"/>
<stop offset="0.43" stop-color="#DDE2FB"/>
<stop offset="0.49" stop-color="#E7EAFB"/>
<stop offset="0.54" stop-color="#F4F5FB"/>
<stop offset="0.6" stop-color="#E0E3F4"/>
<stop offset="0.72" stop-color="#AFB6E5"/>
<stop offset="0.91" stop-color="#AFB6E5"/>
<stop offset="0.96" stop-color="#B9C0EA"/>
<stop offset="1" stop-color="#C9CFF1"/>
</linearGradient>
<linearGradient id="paint28_linear_1345_9759" x1="93.0525" y1="4.74541" x2="181.685" y2="182.566" gradientUnits="userSpaceOnUse">
<stop stop-color="#CBD0F2"/>
<stop offset="0.19" stop-color="#D5D9F7"/>
<stop offset="0.28" stop-color="#DADEF9"/>
<stop offset="0.41" stop-color="#DFE3FC"/>
<stop offset="0.43" stop-color="#E0E4FD"/>
<stop offset="0.49" stop-color="#EAECFD"/>
<stop offset="0.54" stop-color="#F7F8FD"/>
<stop offset="0.6" stop-color="#E3E5F6"/>
<stop offset="0.72" stop-color="#AFB6E5"/>
<stop offset="0.91" stop-color="#AFB6E5"/>
<stop offset="0.95" stop-color="#B9C0EA"/>
<stop offset="1" stop-color="#CBD0F2"/>
</linearGradient>
<linearGradient id="paint29_linear_1345_9759" x1="93.0106" y1="4.77328" x2="181.643" y2="182.587" gradientUnits="userSpaceOnUse">
<stop stop-color="#CCD1F2"/>
<stop offset="0.19" stop-color="#D6DBF7"/>
<stop offset="0.28" stop-color="#DBDFFA"/>
<stop offset="0.41" stop-color="#E1E6FD"/>
<stop offset="0.43" stop-color="#E2E7FE"/>
<stop offset="0.48" stop-color="#ECEFFE"/>
<stop offset="0.54" stop-color="#FBFCFE"/>
<stop offset="0.59" stop-color="#E7E9F7"/>
<stop offset="0.71" stop-color="#B4BBE6"/>
<stop offset="0.72" stop-color="#AFB6E5"/>
<stop offset="0.91" stop-color="#AFB6E5"/>
<stop offset="0.95" stop-color="#B9C0E9"/>
<stop offset="1" stop-color="#CCD1F2"/>
</linearGradient>
<linearGradient id="paint30_linear_1345_9759" x1="92.9689" y1="4.80809" x2="181.601" y2="182.608" gradientUnits="userSpaceOnUse">
<stop stop-color="#CDD2F3"/>
<stop offset="0.43" stop-color="#E5E9FF"/>
<stop offset="0.48" stop-color="#EFF1FF"/>
<stop offset="0.54" stop-color="white"/>
<stop offset="0.59" stop-color="#EBEDF8"/>
<stop offset="0.7" stop-color="#B8BEE8"/>
<stop offset="0.72" stop-color="#AFB6E5"/>
<stop offset="0.91" stop-color="#AFB6E5"/>
<stop offset="0.95" stop-color="#B9C0EA"/>
<stop offset="1" stop-color="#CDD2F3"/>
</linearGradient>
<linearGradient id="paint31_linear_1345_9759" x1="53.5018" y1="151.32" x2="89.71" y2="89.6194" gradientUnits="userSpaceOnUse">
<stop stop-color="#C0C6EE"/>
<stop offset="0.27" stop-color="#CED4F4"/>
<stop offset="0.58" stop-color="#E5E9FF"/>
<stop offset="1" stop-color="#ECEFFF"/>
</linearGradient>
<linearGradient id="paint32_linear_1345_9759" x1="65.5514" y1="101.199" x2="103.446" y2="70.8658" gradientUnits="userSpaceOnUse">
<stop stop-color="#EA5908"/>
<stop offset="1" stop-color="#FFF95B"/>
</linearGradient>
<linearGradient id="paint33_linear_1345_9759" x1="79.9564" y1="117.648" x2="99.6801" y2="95.1703" gradientUnits="userSpaceOnUse">
<stop stop-color="#EA5908"/>
<stop offset="1" stop-color="#FFF95B"/>
</linearGradient>
<linearGradient id="paint34_linear_1345_9759" x1="69.9919" y1="120.845" x2="94.2652" y2="100.142" gradientUnits="userSpaceOnUse">
<stop stop-color="#EA5908"/>
<stop offset="1" stop-color="#FFF95B"/>
</linearGradient>
<linearGradient id="paint35_linear_1345_9759" x1="81.3138" y1="156.247" x2="112.341" y2="103.371" gradientUnits="userSpaceOnUse">
<stop stop-color="#C0C6EE"/>
<stop offset="0.27" stop-color="#CED4F4"/>
<stop offset="0.58" stop-color="#E5E9FF"/>
<stop offset="1" stop-color="#ECEFFF"/>
</linearGradient>
<linearGradient id="paint36_linear_1345_9759" x1="115.444" y1="108.098" x2="95.0516" y2="117.323" gradientUnits="userSpaceOnUse">
<stop stop-color="#1DDF82"/>
<stop offset="0.875" stop-color="#00E5AB"/>
</linearGradient>
<linearGradient id="paint37_linear_1345_9759" x1="111.042" y1="117.594" x2="101.801" y2="125.624" gradientUnits="userSpaceOnUse">
<stop stop-color="#1DDF82"/>
<stop offset="0.875" stop-color="#00E5AB"/>
</linearGradient>
<linearGradient id="paint38_linear_1345_9759" x1="111.498" y1="130.316" x2="98.0556" y2="136.801" gradientUnits="userSpaceOnUse">
<stop stop-color="#1DDF82"/>
<stop offset="0.875" stop-color="#00E5AB"/>
</linearGradient>
<linearGradient id="paint39_linear_1345_9759" x1="103.128" y1="175.857" x2="137.433" y2="117.39" gradientUnits="userSpaceOnUse">
<stop stop-color="#C0C6EE"/>
<stop offset="0.27" stop-color="#CED4F4"/>
<stop offset="0.58" stop-color="#E5E9FF"/>
<stop offset="1" stop-color="#ECEFFF"/>
</linearGradient>
<linearGradient id="paint40_linear_1345_9759" x1="51.6093" y1="73.3528" x2="171.632" y2="144.338" gradientUnits="userSpaceOnUse">
<stop stop-color="#2D9BE0"/>
<stop offset="1" stop-color="#A124FB"/>
</linearGradient>
<linearGradient id="paint41_linear_1345_9759" x1="46.1762" y1="82.5309" x2="166.206" y2="153.523" gradientUnits="userSpaceOnUse">
<stop stop-color="#B4F759"/>
<stop offset="0.05" stop-color="#90ED6E"/>
<stop offset="0.15" stop-color="#35D5A4"/>
<stop offset="0.2" stop-color="#00C7C5"/>
<stop offset="0.41" stop-color="#2D9BE0"/>
<stop offset="0.6" stop-color="#5277F7"/>
<stop offset="0.66" stop-color="#5A76F6"/>
<stop offset="0.77" stop-color="#7273F5"/>
<stop offset="0.9" stop-color="#9970F4"/>
<stop offset="1" stop-color="#BB6DF3"/>
</linearGradient>
<linearGradient id="paint42_linear_1345_9759" x1="41.2345" y1="90.8921" x2="161.257" y2="161.884" gradientUnits="userSpaceOnUse">
<stop stop-color="#B4F759"/>
<stop offset="0.05" stop-color="#90ED6E"/>
<stop offset="0.15" stop-color="#35D5A4"/>
<stop offset="0.2" stop-color="#00C7C5"/>
<stop offset="0.41" stop-color="#2D9BE0"/>
<stop offset="0.6" stop-color="#5277F7"/>
<stop offset="0.66" stop-color="#5A76F6"/>
<stop offset="0.77" stop-color="#7273F5"/>
<stop offset="0.9" stop-color="#9970F4"/>
<stop offset="1" stop-color="#BB6DF3"/>
</linearGradient>
<linearGradient id="paint43_linear_1345_9759" x1="124.956" y1="195.439" x2="162.525" y2="131.409" gradientUnits="userSpaceOnUse">
<stop stop-color="#C0C6EE"/>
<stop offset="0.27" stop-color="#CED4F4"/>
<stop offset="0.58" stop-color="#E5E9FF"/>
<stop offset="1" stop-color="#ECEFFF"/>
</linearGradient>
<linearGradient id="paint44_linear_1345_9759" x1="51.7486" y1="73.1169" x2="171.771" y2="144.102" gradientUnits="userSpaceOnUse">
<stop stop-color="#004DBF"/>
<stop offset="0.32" stop-color="#2D64DD"/>
<stop offset="0.6" stop-color="#5277F7"/>
<stop offset="0.69" stop-color="#4D74F3"/>
<stop offset="0.77" stop-color="#406EEB"/>
<stop offset="0.87" stop-color="#2A63DC"/>
<stop offset="0.96" stop-color="#0C53C7"/>
<stop offset="0.99" stop-color="#004DBF"/>
</linearGradient>
<linearGradient id="paint45_linear_1345_9759" x1="46.3195" y1="82.2977" x2="166.342" y2="153.282" gradientUnits="userSpaceOnUse">
<stop stop-color="#004DBF"/>
<stop offset="0.32" stop-color="#2D64DD"/>
<stop offset="0.6" stop-color="#5277F7"/>
<stop offset="0.69" stop-color="#4D74F3"/>
<stop offset="0.77" stop-color="#406EEB"/>
<stop offset="0.87" stop-color="#2A63DC"/>
<stop offset="0.96" stop-color="#0C53C7"/>
<stop offset="0.99" stop-color="#004DBF"/>
</linearGradient>
<linearGradient id="paint46_linear_1345_9759" x1="41.3738" y1="90.6561" x2="161.397" y2="161.641" gradientUnits="userSpaceOnUse">
<stop stop-color="#004DBF"/>
<stop offset="0.32" stop-color="#2D64DD"/>
<stop offset="0.6" stop-color="#5277F7"/>
<stop offset="0.69" stop-color="#4D74F3"/>
<stop offset="0.77" stop-color="#406EEB"/>
<stop offset="0.87" stop-color="#2A63DC"/>
<stop offset="0.96" stop-color="#0C53C7"/>
<stop offset="0.99" stop-color="#004DBF"/>
</linearGradient>
<linearGradient id="paint47_linear_1345_9759" x1="56.7446" y1="122.134" x2="122.749" y2="53.6476" gradientUnits="userSpaceOnUse">
<stop stop-color="#AFB6E5"/>
<stop offset="0.14" stop-color="#B5BCE8"/>
<stop offset="0.35" stop-color="#C7CDF0"/>
<stop offset="0.58" stop-color="#E5E9FF"/>
<stop offset="0.86" stop-color="#F4F6FF"/>
<stop offset="1" stop-color="white"/>
</linearGradient>
<linearGradient id="paint48_linear_1345_9759" x1="50.4958" y1="28.2754" x2="55.5898" y2="64.5855" gradientUnits="userSpaceOnUse">
<stop stop-color="#853AC2"/>
<stop offset="0.17" stop-color="#BD54CB"/>
<stop offset="0.32" stop-color="#F36DD4"/>
<stop offset="0.38" stop-color="#D660C9"/>
<stop offset="0.48" stop-color="#AB4DBA"/>
<stop offset="0.57" stop-color="#8C40AF"/>
<stop offset="0.64" stop-color="#7937A8"/>
<stop offset="0.7" stop-color="#7335A6"/>
<stop offset="1" stop-color="#7D57D4"/>
</linearGradient>
<linearGradient id="paint49_linear_1345_9759" x1="74.2097" y1="24.4737" x2="167.279" y2="145.894" gradientUnits="userSpaceOnUse">
<stop stop-color="#CDD2F3"/>
<stop offset="0.43" stop-color="#E5E9FF"/>
<stop offset="0.55" stop-color="#EFF1FF"/>
<stop offset="0.67" stop-color="white"/>
<stop offset="0.69" stop-color="#EBEDF8"/>
<stop offset="0.75" stop-color="#B8BEE8"/>
<stop offset="0.76" stop-color="#AFB6E5"/>
<stop offset="0.91" stop-color="#AFB6E5"/>
<stop offset="1" stop-color="#AFB6E5"/>
</linearGradient>
<linearGradient id="paint50_linear_1345_9759" x1="56.7446" y1="122.134" x2="122.749" y2="53.6476" gradientUnits="userSpaceOnUse">
<stop stop-color="#AFB6E5"/>
<stop offset="0.14" stop-color="#B5BCE8"/>
<stop offset="0.35" stop-color="#C7CDF0"/>
<stop offset="0.58" stop-color="#E5E9FF"/>
<stop offset="0.86" stop-color="#F4F6FF"/>
<stop offset="1" stop-color="white"/>
</linearGradient>
<linearGradient id="paint51_linear_1345_9759" x1="203.361" y1="127.005" x2="43.1951" y2="44.918" gradientUnits="userSpaceOnUse">
<stop stop-color="#004DBF"/>
<stop offset="0.32" stop-color="#2D64DD"/>
<stop offset="0.6" stop-color="#5277F7"/>
<stop offset="0.67" stop-color="#4E7BF3"/>
<stop offset="0.75" stop-color="#4588EA"/>
<stop offset="0.83" stop-color="#349EDC"/>
<stop offset="0.91" stop-color="#1EBCC7"/>
<stop offset="0.99" stop-color="#00E5AB"/>
</linearGradient>
<radialGradient id="paint52_radial_1345_9759" cx="0" cy="0" r="1" gradientUnits="userSpaceOnUse" gradientTransform="translate(115.117 74.9092) scale(46.6827 46.6205)">
<stop stop-color="white"/>
<stop offset="1"/>
</radialGradient>
<radialGradient id="paint53_radial_1345_9759" cx="0" cy="0" r="1" gradientUnits="userSpaceOnUse" gradientTransform="translate(157.521 100.142) rotate(-22.3131) scale(3.29255 2.17683)">
<stop stop-color="#B8BABC"/>
<stop offset="0.14" stop-color="#88898B"/>
<stop offset="0.28" stop-color="#5E5F60"/>
<stop offset="0.42" stop-color="#3C3C3D"/>
<stop offset="0.56" stop-color="#212222"/>
<stop offset="0.7" stop-color="#0E0F0F"/>
<stop offset="0.85" stop-color="#030303"/>
<stop offset="1"/>
</radialGradient>
<linearGradient id="paint54_linear_1345_9759" x1="15.4128" y1="57.4745" x2="49.0728" y2="17.4947" gradientUnits="userSpaceOnUse">
<stop stop-color="#004DBF"/>
<stop offset="0.32" stop-color="#2D64DD"/>
<stop offset="0.6" stop-color="#5277F7"/>
<stop offset="0.67" stop-color="#4E7BF3"/>
<stop offset="0.75" stop-color="#4588EA"/>
<stop offset="0.83" stop-color="#349EDC"/>
<stop offset="0.91" stop-color="#1EBCC7"/>
<stop offset="0.99" stop-color="#00E5AB"/>
</linearGradient>
<linearGradient id="paint55_linear_1345_9759" x1="14.4594" y1="35.5992" x2="49.821" y2="35.5992" gradientUnits="userSpaceOnUse">
<stop stop-color="#004DBF"/>
<stop offset="0.32" stop-color="#2D64DD"/>
<stop offset="0.6" stop-color="#5277F7"/>
<stop offset="0.67" stop-color="#4E7BF3"/>
<stop offset="0.75" stop-color="#4588EA"/>
<stop offset="0.83" stop-color="#349EDC"/>
<stop offset="0.91" stop-color="#1EBCC7"/>
<stop offset="0.99" stop-color="#00E5AB"/>
</linearGradient>
<linearGradient id="paint56_linear_1345_9759" x1="26.5595" y1="-3.04388" x2="51.532" y2="38.9848" gradientUnits="userSpaceOnUse">
<stop stop-color="#004DBF"/>
<stop offset="0.32" stop-color="#2D64DD"/>
<stop offset="0.6" stop-color="#5277F7"/>
<stop offset="0.67" stop-color="#4E7BF3"/>
<stop offset="0.75" stop-color="#4588EA"/>
<stop offset="0.83" stop-color="#349EDC"/>
<stop offset="0.91" stop-color="#1EBCC7"/>
<stop offset="0.99" stop-color="#00E5AB"/>
</linearGradient>
<linearGradient id="paint57_linear_1345_9759" x1="57.9619" y1="203.84" x2="152.809" y2="203.84" gradientUnits="userSpaceOnUse">
<stop stop-color="#2BE9A3"/>
<stop offset="0.05" stop-color="#07CCBF"/>
<stop offset="0.06" stop-color="#00C7C5"/>
<stop offset="0.37" stop-color="#5277F7"/>
<stop offset="0.55" stop-color="#5277F7"/>
<stop offset="0.72" stop-color="#004DBF"/>
<stop offset="1" stop-color="#836DF3"/>
</linearGradient>
<radialGradient id="paint58_radial_1345_9759" cx="0" cy="0" r="1" gradientUnits="userSpaceOnUse" gradientTransform="translate(32.2444 149.763) scale(60.6896 60.6087)">
<stop stop-color="#711F56"/>
<stop offset="0.16" stop-color="#6B1D51"/>
<stop offset="0.36" stop-color="#5C1946"/>
<stop offset="0.58" stop-color="#421232"/>
<stop offset="0.82" stop-color="#1F0818"/>
<stop offset="1"/>
</radialGradient>
<linearGradient id="paint59_linear_1345_9759" x1="8.07815" y1="141.915" x2="26.1157" y2="172.812" gradientUnits="userSpaceOnUse">
<stop stop-color="#5297FF"/>
<stop offset="1" stop-color="#0057D9"/>
</linearGradient>
<linearGradient id="paint60_linear_1345_9759" x1="23.5" y1="143" x2="23.5" y2="174" gradientUnits="userSpaceOnUse">
<stop stop-color="#5297FF"/>
<stop offset="1" stop-color="#0057D9"/>
</linearGradient>
</defs>
</svg>
